/* XPM */
static char *ad7e397af13e4870c839cc9f120bc451Q7Xkj7w0B1ShSY4c[] = {
/* columns rows colors chars-per-pixel */
"64 64 52 1 ",
"  c #CEF8FF",
". c #E7FDFC",
"X c #F3FFFB",
"o c #F2FFFB",
"O c #E9FDFC",
"+ c #CFF8FF",
"@ c #CDF8FF",
"# c #DEFBFD",
"$ c #EBFEFC",
"% c #D0F8FF",
"& c #E2FCFD",
"* c #EDFEFC",
"= c #D1F9FF",
"- c #D6FAFE",
"; c #F4FFFB",
": c #E3FCFD",
"> c #DAFAFE",
", c #D8FAFE",
"< c #D4F9FE",
"1 c #E4FCFD",
"2 c #E6FDFC",
"3 c #D9FAFE",
"4 c #CCF8FF",
"5 c #D7FAFE",
"6 c #DDFBFD",
"7 c #D2F9FF",
"8 c #DCFBFD",
"9 c #D3F9FE",
"0 c #EAFDFC",
"q c #E0FBFD",
"w c #DBFBFE",
"e c #DFFBFD",
"r c #F1FFFB",
"t c #E8FDFC",
"y c #EEFEFB",
"u c #F0FFFB",
"i c #E5FDFC",
"p c #ECFEFC",
"a c #E0FCFD",
"s c #EFFEFB",
"d c #DBFAFE",
"f c #E1FCFD",
"g c #D6F9FE",
"h c #F5FFFB",
"j c #D5F9FE",
"k c #E5FCFC",
"l c #CBF7FF",
"z c #EAFEFC",
"x c #EFFFFB",
"c c #F6FFFB",
"v c #D1F8FF",
"b c white",
/* pixels */
"      .XooooXO+           @#$%               @&Xooooo*=@        ",
"      -.;XX:>,        @@@  <,+                <1XX;2>3+        @",
"  @@  451::<4@       @<66= @@              @  4<::154@       @78",
" @=9                 =&o09@              @%9                 %#o",
"+ q.%               +:o$7   ++++++     ++ w07                ero",
"ttyui=@    @@@ @@@@+:u;$+ @3OtttO:+@ @72ttprt<@    @@@ @@@@@ayXX",
"XXXXs9@   @3ad%6qeefu;$w+ @g2;h;;ue%49:o;XXoo5@   @5a6%waeeey;pq",
"oooXs9@   j0h072rXXXoX2<   @9t0soor8jfXooooXr5@   92hy7&uXXXoXO5",
"oorup7@  9poo.++2Xoooor.+    %+kXooruroooorus-@  =too$= &Xoooory",
"oXkjj+ @j0rXi9  2;ooX;.<      @1;XXXXooooXt-g% @7trXOj+@f;ooX;05",
"Xij44@4-.Xo;&4  ,t;o&e5@  @@  @5####$;XX;t5444491oX;.@  -iXX1#3@",
".j4=33,i;oXpw@  43ti=4@   j<@ -39@@46t..t,4%,3,&XoXye   4j..<4@ ",
"+ @5*yuooos3@     ++      ki=9$X:   +++++ @9$yuooou6      ++    ",
"   %<<OXXs,+             @krppr;1          +<<kXor8%            ",
"    @4-wwd+@     @4 a1iq=fyXXX;2-           @4<www=@      @@6k11",
"   @+3>>-4@    @@9d6s;sa=&sXXot-4            ,d>,@@    @@=dwp;XX",
"   +-yXX0<9%   77fXooX:@  fy*$<@           +<$XX*-9%   776oooooo",
"  @5*rooryy3@ =OyuoooX&@  =777+           @9$rooryy6@ +kysoooooo",
"   7>>$;oXX$d@+3ph;r#3j   @@@@    @@@@@    %>>t;oXX*#  5thXXf3>>",
"    @@w$Xoo;&4 @w1:f%4@ @@@@    @%866#>     @4,OXoo;.@ 4,::&9444",
"      @wyooXk7         %jjj7    %wrXXX*5+@    @5pooXO<        %j",
"+++     3urrr.%       @jyuu&+++@>srrrooy- +     gyrrr$7      @,*",
"OOw@   @%5,5ko.7@     @-oXXytOO,=,,5t;oo$Oe@    +5,-fo0j@     =,",
";hpw   @@@@4gfq=   @  @7fuXXh;;8l@@4,tXX;hy#+   @@@49ff9@  @   @",
"OOz&+ @7j    @@  @%-+  @+1usO0r&7   4,OOOO0i% @=g    @@   +-%@  ",
"%%%+  +fO=        ,*-    +k1+=Oo:    +%%%%%+   8p9        jp>   ",
"      &urt=@    @dyop,@   99@ <Oi            @#srzj4    @5poyw@ ",
" @@@@ 3O;ok&,4  @j1rXO,@  @@  @kk4       @@@@@5.XX2&w@  @9fu;$w@",
"@j>3,+43$X;ht-   4jro;O5+     @k05 @    @<>33%4jOo;hp,+  @=yX;p>",
"7tooy-+@5*yys2+  +3rous.+     =2;$<7%   %1oou3+@9$sysO=@  -sXuyy",
"*uooo*5@+9<9<7  @wyoo#97     %.ror**>@ +2rooosw@+9<9<9+ @5*rX:9<",
";;;*887  @@@@@ @8pXue74@    @+pXXs#8<4=1r;;s68<  @@@@@ 430Xo&9@@",
"kki#@@         3p;Xu9@     @%8y;yq 4@9fot1kf+4@       @5O;oo54  ",
"             +-yXorz9@     +>roua@  @3*$j@           +<zXoo*-@  ",
"       +    @-*rro09  +++ @dsroe%    +77+      ++   @7$roo*j  ++",
"    @@eOf+  @%,33>- @#t.k=49>dyp.& @  @@    @4wO1%  @+,333, 4>t.",
"  @7##yy6 @4j#w 4@@+8p;;o&9@4 #*hse#<4@   @%6#$ua%@47#8%4@@ >0;X",
" @%#oXy8@ <j:;u>%@ %2rXooX8@  @1XoXX&j<+ @%>r;sa@ 9jeXo6%@ +:uXo",
"  eruu>  9$urooud   %koroow@  +kXoooust%  wuure  %truoore   +fru",
" frp,5%4<OrXooXXy6@ @<-6oXw4@+1soooX:5-+@#ss3574=.rXooX;xf  @755",
" w&>@@4j2XooX*aqf3   @4=au8<f:r;XXo1<4@  3&6 449:oXoosfefw   @@@",
" @@@  <iXooo;O @@@     @+156o0OtOO.9@    @@@  9&XoooX*=4@@      ",
"      1rooouu.+          +@8O=+++++          @quoooru$=@        ",
"      7:XXoe<9             =<                 =eXXX&<<+         ",
"  @@  @j#6674@       4-1&7@ @             @@  @766#<4@       @9&",
"@@<5@  @@@@         @<ir27@ @@@@@@     @@@7,    @@@@        @9&X",
"7=:07               =2;z%  %77777=    +77=#*<+              %&Xo",
"**ur07@            %trX0+ @d****y.%  @<$**sopj@            +1roo",
"XXoXs9@   @6.e=:2kk2r;t5+  9fX;XXrk7ljtoXXXor5@   4>2&=q.kkisXoo",
"ooX;s9@ @ >pcz=fs;XXoXO,+  @=:1*ooofdkXooooXo5@   ,Ohs7#*;XXoooX",
"oospO7@ +5yXu1+ 2Xoooori+     @1;oooooooooup$j@ +<$Xrt=4fXooooup",
"oo&==  @5yoX:%  kXooro1%      @:orrroooooX2==+  <poX.= @aXooro.7",
"Xf7@4@43$oo;&@  <k;r6,<@  @@  @9,33,t;XX;1<@4@4gOoo;.@  9fXXq,j@",
"f949eq#tXoXt,   4-&q%4@   3,4 we54@43&&&&j4=#q#2XoXzd   @9ff94@ ",
"@ @-0$rXXo$-@     @@     @2tj,*hk    @@@@ @9O$xXXo*>@     @@@   ",
"   +%%2rr*j         %%%+ +iouuoo:           %+&rus,         +%%%",
"    @@9--g+       @+k0$1=kuoXXX&7            @7---%@      @ &$0z",
"   @+#fa>44    @4gf&u;p8%6*;;o:9@            8fa6@4@   @49ffyh*f",
"   %wu;;p3,=@ +5,1;XX;:4 @#Ot27@           %3y;;s>,7@  -,aXXX;. ",
"  @5*sroorr8+@=Orooosuf@  ++++            @9$srooroq+ +iuroouuk ",
"   %jjOXooos#@+<O;Xu3<7                    +<<iXooou&  7k;oo6<7 ",
"    @@5t;oo;f4 @566w%4@ @@@@    @=&1:1e @   @@jkXoo;.@ @j668=4@@",
"      4,OooXt5  @@@@   =>wwg    7qoXX;s8v     4j.roX$3+ @@@@  7d",
"       @,rooXO+       @-uoX:@  @8oooooou-@     @<sXoX*=@     @3r"
};
