/* XPM */
static char *d52a9d2a3ee04259c9ac775bcbddeeeebAC4GXnAaVbeaVat[] = {
/* columns rows colors chars-per-pixel */
"64 65 214 2 ",
"   c None",
".  c #0C141B",
"X  c #041C1B",
"o  c #0A1A1E",
"O  c #061517",
"+  c #11171F",
"@  c #1D1B1E",
"#  c #13191F",
"$  c #090F14",
"%  c #251E1B",
"&  c #2B1E1C",
"*  c #301F1D",
"=  c #05231E",
"-  c #2B211A",
";  c #2D2C1F",
":  c #352117",
">  c #3B2514",
",  c #332118",
"<  c #3D271D",
"1  c #0E1D22",
"2  c #101720",
"3  c #121A21",
"4  c #1A1B22",
"5  c #251E24",
"6  c #2C1E22",
"7  c #0D2325",
"8  c #0A2927",
"9  c #0D2628",
"0  c #0C2C2A",
"q  c #062A25",
"w  c #132325",
"e  c #13282C",
"r  c #06342C",
"t  c #0A332D",
"y  c #08382B",
"u  c #132B32",
"i  c #1A2A35",
"p  c #1D2736",
"a  c #0A3630",
"s  c #093A31",
"d  c #093C34",
"f  c #1C343B",
"g  c #163739",
"h  c #2C2326",
"j  c #262224",
"k  c #322126",
"l  c #382928",
"z  c #212C3B",
"x  c #232B37",
"c  c #22313C",
"v  c #3A3122",
"b  c #4E2D17",
"n  c #492B17",
"m  c #512D17",
"M  c #522E18",
"N  c #563018",
"B  c #64361D",
"V  c #422E2A",
"C  c #402C20",
"Z  c #49342C",
"A  c #46322B",
"S  c #593821",
"D  c #074434",
"F  c #10563A",
"G  c #0A4C31",
"H  c #6D4127",
"J  c #704227",
"K  c #1D3943",
"L  c #243344",
"P  c #233A45",
"I  c #2B394D",
"U  c #29374A",
"Y  c #2E3B53",
"T  c #323F51",
"R  c #2D3749",
"E  c #194748",
"W  c #1D5A4B",
"Q  c #194D4D",
"!  c #24444C",
"~  c #294856",
"^  c #34445C",
"/  c #324B5E",
"(  c #3B4C5A",
")  c #354654",
"_  c #27565B",
"`  c #3D535E",
"'  c #246351",
"]  c #344D63",
"[  c #3B4A63",
"{  c #3C4E6A",
"}  c #384662",
"|  c #2B5560",
" . c #365369",
".. c #3A536C",
"X. c #3A5B6C",
"o. c #3F5B75",
"O. c #3D6374",
"+. c #396C69",
"@. c #414E68",
"#. c #435464",
"$. c #44526E",
"%. c #455C68",
"&. c #445474",
"*. c #4B5B72",
"=. c #445C7B",
"-. c #4A5D7D",
";. c #455875",
":. c #48657B",
">. c #53657D",
",. c #546879",
"<. c #46737A",
"1. c #56797E",
"2. c #4B5C80",
"3. c #4B6684",
"4. c #526483",
"5. c #53658C",
"6. c #546A8B",
"7. c #5A6D8B",
"8. c #596C83",
"9. c #5B738D",
"0. c #5A7387",
"q. c #566993",
"w. c #596C95",
"e. c #546691",
"r. c #5C7694",
"t. c #5D7299",
"y. c #577B90",
"u. c #647A8E",
"i. c #62768A",
"p. c #617593",
"a. c #657B93",
"s. c #61759D",
"d. c #647B9C",
"f. c #687E99",
"g. c #667BA1",
"h. c #697EA4",
"j. c #5C8591",
"k. c #6B8498",
"l. c #718C9D",
"z. c #71879E",
"x. c #659296",
"c. c #72909F",
"v. c #6C83A5",
"b. c #6D8CA4",
"n. c #6F85A8",
"m. c #6E8BA9",
"M. c #748CA5",
"N. c #7186AB",
"B. c #738BAC",
"V. c #748BA7",
"C. c #6B94A1",
"Z. c #7492AE",
"A. c #7A92AF",
"S. c #7998A8",
"D. c #778FB0",
"F. c #7B94B3",
"G. c #7B9CB4",
"H. c #7999B3",
"J. c #7CA1B6",
"K. c #7FA4B9",
"L. c #819BB6",
"P. c #829DB9",
"I. c #83A5B4",
"U. c #85A3BC",
"Y. c #8AA5BE",
"T. c #83ABBC",
"R. c #8AABBE",
"E. c #8BA7C0",
"W. c #8CABC2",
"Q. c #86A9C0",
"!. c #90AEC6",
"~. c #8DB3C4",
"^. c #8EBBC6",
"/. c #86B1C0",
"(. c #91B4C6",
"). c #92B5C8",
"_. c #94BCCA",
"`. c #98BACC",
"'. c #9DBDD2",
"]. c #96C2CD",
"[. c #98C5CF",
"{. c #97C9CF",
"}. c #9AC6D2",
"|. c #9BCCD2",
" X c #97C8D0",
".X c #9DD3D5",
"XX c #A1C2D6",
"oX c #A1CCD7",
"OX c #A6CDDB",
"+X c #A6C9DA",
"@X c #A3D4DA",
"#X c #A9D4DE",
"$X c #A5D9DC",
"%X c #A8DCDF",
"&X c #A0D3D7",
"*X c #ACD5E1",
"=X c #ACDDE2",
"-X c #A7DEE0",
";X c #B1DCE5",
":X c #B6DCE9",
">X c #AEE0E4",
",X c #B2E1E6",
"<X c #B5E5E9",
"1X c #BAE5ED",
"2X c #BAE9EE",
"3X c #B7EAEC",
"4X c #BEECF1",
"5X c #BEE6F0",
"6X c #C3EEF5",
"7X c #C3F1F6",
"8X c #C7F3F9",
"9X c #CBF6FC",
"0X c #CEF8FF",
"qX c #D1FAFF",
/* pixels */
"                                                                  w.t.t.                                                        ",
"                                                                  B._.K.w.                                                      ",
"                                                            w.w.G..X,X1XJ.q.                                                    ",
"                                                          w.B.(.,X9X0X3X.XU.q.                                                  ",
"                                                      w.w.G.,X9X9X0X0X9X9X3XK.v.W.                                              ",
"                                                  w.w.B.^.|.3X0XqX3X.X<X0X2X{.{.[.0.. 3                                         ",
"                                              q.w.B.^.|.<X9X<X<XqX1X_._.@X<X3X[.x.F 0 +                                         ",
"                                            . { B.)..X.X@X@X.X@X$X&X.X_.R.].}.x.F a 1                                           ",
"                                          + t F <.s.F.[._.W._.<X9X<X.X|._.Y._.T./ o                                             ",
"                                            1 s D F j.W.*X6X7X9X3X&X.X.X|.=X<X|.H.-.                                            ",
"                                              3 1 1.=X6X9XqX3X4X<X.X[.A.J.@X,X9X<XK.e.                                          ",
"                                            . ^ a.^.$X%XXX}..X@X}.F.d.v.~..X&X<X0X7X'.e.w.                                      ",
"                                              5.s.d.L.(.B.F.(.F.g.O.g *.W._..X&X$X<X9X+XB.q.                                    ",
"                                                L p ;.h.[ { h.O.K 1 ( R.|._.W._..X&X<X9X#XB.q.                                  ",
"                                          w.w.L . = p p 4 g K 3 ` b.I.|.>X6X;X_._..X.X3X6X^.B.q.w.                              ",
"                                        e.I.#XL.z.I #.M.) O ` z.I.|.|..X&X3XqX<XT.G.@X@X#X.X_.D.2.. 3                           ",
"                                      w.B.].-X&X|.J.a.T.I.a.).6X;X].(.`..X&X%X%XQ.t.H.`.).K.v.9.E t o                           ",
"                                      z 4.n.U.).H.g.H.=X=X X$X>X$X|.).W.(.~.(.R.4.K W +.h.0.W E t 0 2                           ",
"                                    2 7 E Q 3.h.K.~.*X9X9X>XT.G.(.).L.d.B.W.x._ E 0 8 D K f y 0 1 3                             ",
"                                      o o q u 0.B.}.0XqX5X-X0.$.v.v.;.$.P.W.1.= 1 q q 1 . . o p $.                              ",
"                                  e.q.a.i.a.i.G.g.XX4X-X$X}.%.u _ P ( G.|.}.I.i.i.a.a.u.u.u.u.a.2.$                             ",
"                                  B.F.).}.;X'.B.H..X#X.X.X_.S.) X ! M.[..X-X4X*X X/.B.!.P.v.B.7.I ;.q.q.                        ",
"                            q.e.B.P._.|.3X3XP.H. X.X.X}.K.G.W.B.8.M._.U.K.%X4X0X,X{.G.Z.).r.L E p s.F.B.q.q.                    ",
"                          w.B.F.Y._..X_.@X%Xb.T.$X_.`.G.@.8._.).R.(.|.].H.T.$X>X-X|.W.W.@XU.Y u -.P.[.).D.B.q.q.                ",
"                        + 5.L.W.B.Q.).W.}.].n.L._.F.N.$.#.a./.|.OX#X.X=X@XH.T.&X_.B.y.<.H.j.| a.G.(..X.X}._.D.B.w.              ",
"                        . P t.N.X.r.P.W.).!.;.4.N.<._ e ,.N.H.>X9X9X2X7X6XK.t.H.y._ W d L ] x.}._.W.).W.G..X].P.e.3             ",
"                      p w r ! U e Q r.N.n.P.) K | D = ) M.v.J.3XqXqXqXqX2XK.d.v.{ = y E 8.k.@X<X|.).U.U.B.Z.Z.a.! 7 o           ",
"                  q.B.z 0 a = #.x 0 Q ~ U k.) X = ) ,.R.#XU.m.OX7X2XqX7X>XK.h.U.p.L c C.).}.=X9X,X.X~.B.Y.B.B.v.] } +           ",
"                B.B.Y.x . o #.P.R 7 y X ( S.k.,.@.M.*X8X3X).h.U.%X<X7X%X|.R.A.R.U.d.( 8.)..X$X<X3X<X{.H.B.[._.U.D.n.[           ",
"              5.P._.].8.*.,.R.[.a.i o ( F.F.~.G.H.#X4X}._.|.I.U.`.#X%XoXl.0.).(.P.7.Y >.[.(.]..X&XOX.X|.J.J.].]._.E.D.t.        ",
"        0 0 9 5.U._..X;X;X}..X].).i.*.I.).d.R.~.H.R.U.H.^..X].a.%.x.[.l.[ k.}.|.K.} R R._.(.U.J.).R..X].|.G.B._.`.E.v./ 3       ",
"          7 9 ^ v.N.~.,X2X$X_.!.B.U.`..X_.s.`.>XK.v.Z.^..X.X|.M.! ! <.#.k.*X>X.X[.a.^ 8.(..XW.v.B.(.).W._.~.B.n.n.d.I 7 3       ",
"            2 9 ~ 5.v.~._._.W.D.v.W.=XoXH.Z.:X<X^.F.~..X-X%X.X|.c.! c l.$X7X4X{.}._.7.*.).@X.X~.F.n.n.n.B.R.Y.n.V.f.^ 2         ",
"            7 a a | 5.n.N.U.D.N.P.*X4X`.s._.4XoXG.A.^.=X9X6X$X.X|.l.a.U.oX0X-X].~. XH.h.~._.}.,X].v.n.n.n.N.B.B.N.B.            ",
"          3 0 s s a | +.q.N.O.k.~.,XoXF.A.<X*XW.g.T.&X2X0X0X<X.X.X].R.N.F.=X|.W.U.~.r.;.H.W.}.3X=X_.^.Y.U.n.v.N.F.v.            ",
"          2 7 7 7 8 y y ~  .g =.W.].H.B.].=XU.B.N.U.|.2XqX0X6X@X].(.Y.8.-.U.W.r.3.N.@.p h.W._.OX3X<X,X+X(.R._.]..X^.n.          ",
"              2 2 7 7 1 8 7 y ~ k.B.n.W.}.G.n.t.A.Y.~.*X8X7X9XXXL.P.7.Y Y 4.d.E K X.P z h.E.L.G.oX2X6X9X,XOX&X.X|._.Y.n.        ",
"                    2 7 7 7 8 = U t.D.U.F.t.F.v.A.W.Y.~.+XOXOXU.h.7.I -.8.I ~ 0 7 r f 0.D.E.L.v.G.].$X2X2X3X|.]..X).R.Y.v.      ",
"                      2 . o L ( ` ,.X.d.n.m.U.h.h.D.A.L.E.G.D.7.{ L Y D.P.4.g u L = ( }.).(.~.F.s.W.].]..X.X|.R.[.`.Y.Y.Y.q.u 7 ",
"                      U ` %.v.).).;.K 9.W.|.).h.&. .3.n.H.9...L O e ;.G.(.L.4.&.7.R 1.].$X>X.XR.B.F.Y.W.|.]._.U.B.A.Y.R.B...a 7 ",
"                      m.*X-X|.|.G.Z.P.#X>X@X{.H.@.e ~ O.X.Q q i Y 4.F.`.[.Y.L.A.L.F.}.&X<X<X.X&X^.s.W.W.].~.Y.U.v.v.F.B.X.0 1 3 ",
"                  m.Z.$X4X|.G.B.F.@X4X4X9X4X.X~.F.&.u G G q $ @.U.).W.[.].Y.Y.Y.W.}..X=X8X$X|..X_.v.F.Y.W._.E.E.R.B.{  .s 0 7 1 ",
"                B.{.&X3X$XG.v.n.1X9X$X].5X9X'.P.W.N.[ g q i I j.[.).[.&X_.Y.Y.W.).|.@X1XqX9X%X.X|.Y.h.F.F.E.W.E.B. .1 7 9 7 2   ",
"              n.{..X.X.X|.d.U.|.1X$X[.W.*X-X_.W.L.N.h.*.I 4.U.}.}.OX$X|.).P.L.(.).~.>X0X6XqX6X|..X|.L.5.3.F.F.B...0 0 1 3 2     ",
"            w.{..X.X.X}.P.v.^.{.[.|._.G._..X@X).h.B.~.)._.`.#X>X7XqX2X_.Y.B.h.W.W.~.%X<X#X4X2X%X[._.L.-.g o.o. .s 9 9 7 3       ",
"            v._..X[..XW.-.n.L.U.E._.|.v./.|.|.(.h.Z.}.%X=X4X9X5X1X7X2XoXW.k.6.P.W._..X.X|.{.%X:XY.Y.P.-.8 d D q 8 2 3 2 2       ",
"          ;.Z.U.[.P._.!.c [ =.n.F.U.P.v.W.).G.G.n.~..X=X5X5X#X).]..X,X<X}.u.[ n.).|.|.|.[.~..X_.Y.R.P.-.1 0 s 9 9 3             ",
"          1 X.A.L.:.G.l.c 7 q  .=.B.6.v.G.L.7.&.f.W. XW.F.P.E.).{.[.{.|.(.W.v.8.U.~._.~._.~._.U.E.U.B.{ 1 0 7 2 2 2             ",
"        1 0 d ..=.~ N.) 9 9 0 s d  .g ] =.=.K o ^ ;.v.r.o.d.L.U.Y.W.].}.(.W.7.U 9.U.U.P.E.U.L.E.U.B.2.0 7 2 2 3                 ",
"        3 9 s 1 0 X.=.-.p o 9 7 a 7 0 9 9 1 3 9 1 o / P r _ 3.r.U.).|.|.|.`.F.[ z t.v.6.P.n.6.L.B.-...9 2 3                     ",
"          2 2 9 0 0 9 1 9 0 7 3 2 9 0 3 2 7 3 w 3 4 # # 7 r D ~ d.U.W._.].E.Z.{ o P ] f 2. .f 3...8 7 #                         ",
"            2 3 2 9 1 2 3 9 0 8 1 9 3 6 4 3 j k k & : ; w 0 t 8 ~ d.~..X_.E.F. .7 3 7 3 0 0 0 0 0 7 4 k k k                     ",
"                2 3     3 3 9 3 2 2 5 l k k k k k 6 : N < 3 w 0 r ^ N.).).U.n.) # 6 3 3 3 e 0 9 # @ k k k                       ",
"                        k k 4 5 k k k k k k k k l 6 : N M & 3 w 9 ! d.Y.W.A...7 3 h k k 5 3 3 4 k k k                           ",
"                      k k k k k k k k k k k k k l 6 : M b M v w w 1 I d.U.v.] 8 7 4 l k k k k k k k                             ",
"                  k k k k k k k k k k k k k 6 h * & : N M > b H Z # 1 ~ 5.] 8 0 7 5 l k k k k k k k k k k k k k k               ",
"                k k k k k k k k k k k k k k 5 - > : : N m > M H J < o 7 t d w 1 7 j V k k k k k k k k k k k k k k k k           ",
"                k k k k k k k k k k k k k k V j % : n M b > b H H m - 7 0 0 w 4 5 & % h k k k k k k k k k k k k k k             ",
"                    k k k k k k k k k k k 6 & : > b n - : > b H N > - 7 0 7 - M > - 3 j V k k k k k k k k k                     ",
"                          k k k k k k k k 6 , > : % # # - > M B N > > - 3 @ j 3 3 j Z V k k k k k k k k k k                     ",
"                              k k k k k k 4 # 3 3 l Z Z h % M B b - 3 - > : l A V k k k k k k k k k k k k k k                   ",
"                            k k k k k k k k k V Z Z l V h % M b - h Z k % > : & k k k k k k k k k k k k k k k k                 ",
"                          k k k k k k       k k l k k k V j - > v Z Z Z k 3 # 4 k k k k k k k k k k k k k k                     ",
"                          k k k k         k k k k       l 4 @ @ h V k l l A V k k k k k k       k k                             ",
"                                        k k k             k h k k k k             k k k k k                                     "
};
