/* XPM */
static char *result[] = {
/* columns rows colors chars-per-pixel */
"64 64 230 2 ",
"   c #07181A",
".  c #0A1B1E",
"X  c #171A1E",
"o  c #251E1B",
"O  c #2A1E1A",
"+  c #301F1D",
"@  c #05231E",
"#  c #2B211A",
"$  c #3B2514",
"%  c #362218",
"&  c #0E1E22",
"*  c #141B23",
"=  c #181E26",
"-  c #261F21",
";  c #0D2325",
":  c #062A25",
">  c #0A2927",
",  c #0D2628",
"<  c #0C2B2A",
"1  c #172629",
"2  c #1C232B",
"3  c #132A2C",
"4  c #06342C",
"5  c #09332D",
"6  c #08382B",
"7  c #1D2736",
"8  c #132B32",
"9  c #1B2B33",
"0  c #0B3630",
"q  c #093A31",
"w  c #093C34",
"e  c #183639",
"r  c #25262A",
"t  c #332726",
"y  c #3A3122",
"u  c #232B32",
"i  c #222C3B",
"p  c #24333A",
"a  c #36373C",
"s  c #4C2C17",
"d  c #512D17",
"f  c #522E18",
"g  c #563018",
"h  c #64361D",
"j  c #4D3221",
"k  c #4A352D",
"l  c #4A3935",
"z  c #074434",
"x  c #0A4C31",
"c  c #10563A",
"v  c #6D4127",
"b  c #704227",
"n  c #1D3943",
"m  c #263746",
"M  c #2B394D",
"N  c #2E394D",
"B  c #393D44",
"V  c #2E3B53",
"C  c #483E41",
"Z  c #194748",
"A  c #1B534C",
"S  c #24444C",
"D  c #3A4349",
"F  c #294856",
"G  c #344858",
"H  c #3B4C5A",
"J  c #27565B",
"K  c #3D535E",
"L  c #246351",
"P  c #374462",
"I  c #344E63",
"U  c #3B4A64",
"Y  c #3C4E69",
"T  c #2B5560",
"R  c #38576A",
"E  c #3A536C",
"W  c #3F5B75",
"Q  c #396C69",
"!  c #3D6374",
"~  c #474548",
"^  c #594A46",
"/  c #5E504C",
"(  c #495156",
")  c #4A575C",
"_  c #645753",
"`  c #414E68",
"'  c #445765",
"]  c #44526D",
"[  c #525D63",
"{  c #445674",
"}  c #4B5B72",
"|  c #445C7B",
" . c #4B5D7D",
".. c #5A6568",
"X. c #48657B",
"o. c #556779",
"O. c #4E767C",
"+. c #666061",
"@. c #676669",
"#. c #697175",
"$. c #7A7476",
"%. c #777678",
"&. c #7F7A7B",
"*. c #817C7D",
"=. c #4A5F81",
"-. c #4B6784",
";. c #536483",
":. c #576A87",
">. c #546A8B",
",. c #596C8C",
"<. c #5A7489",
"1. c #5A6D91",
"2. c #5C7595",
"3. c #62768A",
"4. c #647A8E",
"5. c #727D84",
"6. c #657B93",
"7. c #657A97",
"8. c #61759C",
"9. c #647B9C",
"0. c #667BA1",
"q. c #6A7EA4",
"w. c #837F80",
"e. c #5C8591",
"r. c #788587",
"t. c #6B8497",
"y. c #6F8A91",
"u. c #71899D",
"i. c #659296",
"p. c #6C83A5",
"a. c #6D8CA4",
"s. c #6F85A8",
"d. c #748CA5",
"f. c #7186AB",
"g. c #778DAA",
"h. c #748BAC",
"j. c #6B94A1",
"k. c #7492AE",
"l. c #7A91AF",
"z. c #7998A8",
"x. c #778FB0",
"c. c #7B94B3",
"v. c #7999B3",
"b. c #7C9BB4",
"n. c #7DA2B6",
"m. c #7FA3B9",
"M. c #858283",
"N. c #878688",
"B. c #8D8A8B",
"V. c #908E8E",
"C. c #848E90",
"Z. c #839997",
"A. c #949293",
"S. c #9A9A9B",
"D. c #8593AA",
"F. c #819BB6",
"G. c #8A9AB6",
"H. c #829DB9",
"J. c #83A5B4",
"K. c #85A3BC",
"L. c #8AA5BF",
"P. c #83AABC",
"I. c #8AABBE",
"U. c #98A8BF",
"Y. c #A3A4A4",
"T. c #B0B3B2",
"R. c #8BA7C0",
"E. c #86A9C0",
"W. c #8CABC2",
"Q. c #90AEC6",
"!. c #9CACC1",
"~. c #8DB3C4",
"^. c #8CB9C4",
"/. c #91B4C6",
"(. c #92B5C8",
"). c #94BDCA",
"_. c #99B9CC",
"`. c #A3B3C6",
"'. c #A0B7CB",
"]. c #A6B6C9",
"[. c #96C2CD",
"{. c #98C5CF",
"}. c #97C9CE",
"|. c #9AC6D1",
" X c #97C8D0",
".X c #9BCBD2",
"XX c #9DD3D5",
"oX c #B9C5C4",
"OX c #A3C5D7",
"+X c #A1CCD7",
"@X c #A5CDDA",
"#X c #B5C6D5",
"$X c #A0D3D7",
"%X c #A3D4DA",
"&X c #A9D4DE",
"*X c #A5D9DC",
"=X c #A8DCDF",
"-X c #ACD5E1",
";X c #A7DEE0",
":X c #ABDDE2",
">X c #B3DCE7",
",X c #AEE0E4",
"<X c #B1E1E6",
"1X c #B4E4E9",
"2X c #BAE6ED",
"3X c #B7EAEC",
"4X c #BAE9EE",
"5X c #BEE6F0",
"6X c #BEEDF2",
"7X c #CAD2D0",
"8X c #C5D2D8",
"9X c #CAD9E2",
"0X c #DDE7E4",
"qX c #C2EEF5",
"wX c #C5F1F5",
"eX c #C7F3F9",
"rX c #CBF6FC",
"tX c #CEF8FF",
"yX c #D3F6FA",
"uX c #D3FAFF",
"iX c #DCFBFD",
"pX c #E0EAE7",
"aX c #E2EDE9",
"sX c #E6F1EE",
"dX c #EAF6F2",
"fX c #EDF9F6",
"gX c #E9F7F8",
"hX c #E4FDFE",
"jX c #EDFDFA",
"kX c #F2FFFB",
/* pixels */
"kXkXkXkXkXkXkXkXkXkXkXkXkXkXkXkXkXkXkXkXkXkXkXkXkXkXkXkXjXfX].f.).J.!.kXkXkXkXkXkXkXkXkXkXkXkXkXkXkXkXkXkXkXkXkXkXkXkXhX6X{.L.L.",
"kXkXkXkXkXkXkXkXkXkXkXkXkXkXkXkXkXkXkXkXkXkXkXkXkXkXkXkX].8.K.XX1X2Xn.!.kXkXkXkXkXkXkXkXkXkXkXkXkXkXkXkXkXkXkXkXkXkXkXkXyX>X).R.",
"kXkXkXkXkXkXkXkXkXkXkXkXkXkXkXkXkXkXkXkXkXkXkXkXkXjXkX].h.(.<XrXrX3XXXK.!.kXjXkXkXkXkXkXkXkXkXkXkXkXkXkXkXkXkXkXkXkXkXkXhX6X.XR.",
"kXkXkXkXkXkXkXkXkXkXkXkXkXkXkXkXkXkXkXkXkXkXkXjXkX`.8.m.<XrXrXrXtXrXrX1XP.h.#XkXfXjXkXkXkXkXkXkXkXkXkXkXkXkXkXkXkXkXkXkXhX6X|.R.",
"kXkXkXkXkXkXkXkXkXkXkXkXkXkXkXkXkXkXkXkXkXkXkX!.9.x./.XX1XuXuX3XXX1XuX3X.X|.|.t.r #.jXkXkXkXkXkXkXkXkXkXkXkXkXkXkXkXkXkXhX6X|.I.",
"kXkXkXkXkXkXkXkXkXkXkXkXkXkXkXkXkXkXkXkXkX!.9.x./.|.1XrX1X1XtX3X).).%X1X3X[.i.c 5 [ kXkXkXkXkXkXkXkXkXkXkXkXkXkXkXkXkXkXhX6X|.R.",
"kXkXkXkXkXkXkXkXkXkXkXkXkXkXkXkXkXkXkXjX#.] f.).XXXX$X%X$XXX*X$XXX).I.).XXi.c 6 [ sXkXkXkXkXkXkXkXkXkXkXkXkXkXkXkXkXkXhXqX.XW.I.",
"kXkXkXkXkXkXkXkXkXkXkXkXkXkXkXkXkXkXkX%.8 c X.0.v.{.).W.).1XrX1X.XXX).L.).m.H ) sXkXkXkXkXkXkXkXkXkXkXkXkXkXkXkXkXkXhXqX+X~.L.R.",
"kXkXkXkXkXkXkXkXkXkXkXkXkXkXkXkXkXkXkXaX) q c c e.Q.&XeXeXrX6XXXXXXX.X:X1X.Xv.D.kXkXkXkXkXkXkXkXkXkXkXkXkXkXkXkXkXjXuX1X).L.L.L.",
"kXkXkXkXkXkXkXkXkXkXkXkXkXkXkXkXkXkXkXkX0X... O.:XqXeXuX2X4X1XXX{.c.b.%X1XeX1XP.U.kXkXkXkXkXkXkXkXkXkXkXkXkXkXkXkXuXeX,X).L.L.L.",
"kXkXkXkXkXkXkXkXkXkXkXkXkXkXkXkXkXkXkXkXr.` 6.^.%X=X|.|.XX%X|.c.9.s.~.XXXX2XrXeX'.p.U.kXkXkXkXkXkXkXkXkXkXkXkXkXkXuX:XXX).L.L.L.",
"kXkXkXkXkXkXkXkXkXkXkXkXkXkXkXkXkXkXkXkX0Xg.8.9.F.Q.h.c./.v.0.! e } W.[.XX%X*X3XrXOXl.U.kXkXkXkXkXkXkXkXkXkXkXkXkXuX:XXX).L.I.L.",
"kXkXkXkXkXkXkXkXkXkXkXkXkXkXkXkXkXkXkXkXkXgXo.2 } 0.U ] q.! n & G P..X).W.).XXXX2XtX&Xg.!.kXjXkXkXkXkXkXkXkXkXkXkXuX=XXX[.L.L.L.",
"kXkXkXkXkXkXkXkXkXkXkXkXkXkXkXkXkXkXkX`.f...u ; 8 7 * e n * H u.J.XX<XqX>X).).XX%X1XqX).l.f.U.jXkXkXkXkXkXkXkXkXkXuX:XXX).L.L.L.",
"kXkXkXkXkXkXkXkXkXkXkXkXkXkXkXkXkXkX`.J.-XH.t.D ' d.G   K t.J..X.XXX$X3XtX<XI.b.XX%X*XXX_.h.;.( #.kXkXkXkXkXkXkXkXuX:XXX).L.L.L.",
"kXkXkXkXkXkXkXkXkXkXkXkXkXkXkXkXkX`.x.[.=X%X.XF.7.P.F.4._.eX:X{.~.).XX*X=X=XP.2.v.(.~.P.p.1.Z 5 D kXkXkXkXkXkXkXkXuX<X%X).L.L.I.",
"kXkXkXkXkXkXkXkXkXkXkXkXkXkXkXkXkXo.o.p.K.(.v.0.v.:X:X{.%X,X*X.X(.W./.Q.~.K.;.e J Q q.<.A Z 5 < D kXkXkXkXkXkXkXkXuXrX,X).L.L.L.",
"kXkXkXkXkXkXkXkXkXkXkXkXkXkXkXkXr.9 Z A -.0.b.~.=XrXrX<XP.b.(.^.H.9.h.W.i.L Z : 6 z m p 6 < & a 7XkXkXkXkXkXkXkXkXjXiX<X).P.L.L.",
"kXkXkXkXkXkXkXkXkXkXkXkXkXkXkXkX7XD . : 8 ,.k.|.rXuX6X;X<.] p.p.{ ] K.W.<.  ; ; ; @ .   . 9 :.7XkXkXkXkXkXkXkXkXkXkXhXyX%X/.L.L.",
"kXkXkXkXkXkXkXkXkXkXkXkXkXkXkX`.G.u.4.4.3.F.0.|.6X:X%X|.' 8 J n ` z.}.}.J.<.4.6.t.4.4.4.4.6.,.r.kXkXkXkXkXkXkXkXkXkXkXhXwX%XQ.L.",
"kXkXkXkXkXkXkXkXkXkXkXkXkXkX].x.x.^.{.>X'.h.v.XX*XXXXX).z.G   G d.[.$X=X6X-X.XE.f.Q.H.p.s.1.N  .G.!.kXkXkXkXkXkXkXkXkXkXhXqX{.L.",
"kXkXkXkXkXkXkXkXkXkXkXkX`.G.c.K.)..X2X2XE.v. XXX$X{.K.b.I.d.<.d._.P.P.=X6XrX1X Xv.k.(.3.m Z 7 8.h.c.G.!.kXkXkXkXkXkXkXkXhXqX}.L.",
"kXkXkXkXkXkXkXkXkXkXkX].x.x.K.).XX).%X;Xa.E.%X[.(.b.` :.)./.R.~.}.[.v.J.=X,X;XXX~.E.%XJ.V 8  .H.|.).k.x.G.U.kXkXkXkXkXkXhX6X|.I.",
"kXkXkXkXkXkXkXkXkXkXN.:.H.W.x.W.).R. X{.s.b.).c.f.] ' 6.I.}.@X=XXX,X%Xv.P.XX[.a.2.-.c.e.T 6.b.(.XXXX|.).x.l.`.kXkXkXkXkXhX6X|.R.",
"kXkXkXkXkXkXkXkXkXkXB m 2.h.R 2.H.W.(.W.} o.f.O.L , o.f.v.,XeXrX3XwX6Xm.2.k.2.J A w m G i..X).R./.~.n.XX[.K.1.r.kXkXkXkXhXqX|.R.",
"kXkXkXkXkXkXkXkX].5.e q S m < Z 2.f.s.R.G e T e @ F d.s.v.6XtXtXtXuX6Xm.0.p.R @ 6 Z :.y.-X1X.X^.L.K.h.k.k.9.m 1 5.kXkXkXiX1X{.R.",
"kXkXkXkXkXkX`.!.l.i , 5 . ' u > A F m p.G   : H o.I.&XK.h.+XwX6XuXwX;Xm.q.K.2.m p j.(.|.;XrX1XXX~.s.L.f.f.p.I I r kXkXiX2X[.I.L.",
"kXkXkXkXkX].h.h.K.i . . ' H.N , 0 . H l.t.o.U a.-XeX2X).q.E.;X3XwX=X.XE.c.L.K.6.H :.(.XX%X1X1X1X}.v.g.{.[.K.h.s.} kXiX2X XR.L.L.",
"kXkXkXkXC.1.H._.).<...X.I.[.4.9   H c.c.W.b.v.%X6X_.[..XK.K. X%X,X.Xu.<.(.(.H.,.V o._.).[.XX$X&XXX.Xn.v.).[.).L.c._.iX1X).P.R.L.",
"kXkXr.y.9 >.H._..X>X>XOXXX[.(.3.} J./.0.P.^.v.E.K.v.^.XX).6.' i.|.d.( t.|..XK.P N H.[.(.H.m./.W.XX[.XXv.g.[.).L.p.G y.*X).L.L.L.",
"kXkXZ.; ; F p.f./.<X3X*X).W.h.K.).XX_.9.).,XK.s.k.^.XXXX.Xd.p Z X.' t.%X,XXX[.2.G <.(.XXW.p.g.W.).W.).^.f.p.s.0.M ; * }.).L.R.L.",
"kXkXkXS.2 , F >.p./.).).W.x.s.I.:X+Xc.k.>X1X).x.^.XX:X;XXX.Xz.m e y.=XwX6X}.}.[.,.} ).XXXX~.l.s.s.s.h.I.L.f.f.q.G r.e..X).L.R.L.",
"kXkXjXS.9 0 q J >.q.f.K.c.f.H.:X6X_.8._.6X+Xb.k.^.:XwXwX*XXXXXd.6.E.|.rX:X[.(.|.c.s.~.).|.1X[.p.p.s.s.f.f.d.f.k.#XyX:XXX).L.L.R.",
"kXjXgX2 < q q q T Q >.f.! t.W.>X.Xc.k.>X:XW.q.P.XX3XtXuX1XXXXX_.W.h.c.-X.XW.b.~.1.{ c.W.|.3X:X)./.L.K.s.p.f.v.g.#XuX;XXX).P.L.L.",
"kXkXjXC.3 ; , < 5 6 F E w =.W.[.b.x.[.:XL.f.s.P..X6XtXuXwX$X[.(.H.,. .R.W.2.-.f.] i q.Q._.+X3X2X<XOX/.I.).[.$X(.f.'.,XXX).L.R.L.",
"kXkXkXkXC.%.%.1 ; & , ; 5 F 9.h.p.~.|.F.p.2.x.R.~.:XeXwXeXOXc.H.,.V V o.2.A e W m i q.L.H.c.+X3XqXtX<X@XXXXXXX).L.p.~.XX).L.L.L.",
"kXkXkXkXkXkXkXC.2 ; , & , . m 8.x.K.c.2.c.p.x.R.L.~.@X+X@XK.q.,.V  .;.V F 4 ; 4 e <.g.I.F.p.v.{.*X3X4X2X.X[..X(.L.L.s.m.3.o.I.R.",
"kXkXkXkXkXkXkXkXC.2   & m H H O.E 9.f.f.K.q.p.x.x.H.R.F.x.>.Y p N x.H.;.e e n @ H .X(.(./.c.8.W.[.[.XXXX.XI.[.[.L.R.P.1.3 , L.R.",
"kXkXkXkXkXkXkXkXkX} U ' a.(.(.{ n <.I.XX(.q.{ R -.p.c.1.E m   9 { H.(.H.;.] >.N o. X*X,X.XW.k.c.L.W.XX[.).K.g.l.R.L.h.E 0 ; L.L.",
"kXkXkXkXkXkXkX8X#Xb.=X,X.X{.b.h.H.%X1X%X{.c.` < F ! ! Z : 9 N ;.c.)._.R.b.x.b.c.{.*X1X1XXXXX^.8.L.W.)./.L.K.q.p.c.h.R < * & L.R.",
"kXkXkXkXkXkX8Xx.h.%X6X+Xb.h.c.%X6X6XrX6X.X/.c.] 8 z x <   H K.(.W.{.[.L.L.L.W.{.XX:XrX*X.XXX).p.c.R.W.[.L.L.R.h.Y E q < , ' ~.I.",
"kXkXkXkXkX8Xk. XXX3X*Xm.p.p.2XeX*X X5XeX_.R.W.s.Y 8 : 9 M 6.[.).[.%X).L.L.W._.|.$X3XuXeX=XXX.XI.q.c.b.R.R.E.h.Y & ; , ; ..wX|.R.",
"kXkXkXkX8Xk..XXXXXXX|.9.K.XX3X*X XW.>X;X).W.H.s.s.} N ;.H.|..X@X=X.X(.H.F./.).~.,XrXwXuXqXXX$X.XH.>. .c.c.h.R < < & = #.hX6X|.R.",
"kXkXkXkX0.}.XXXXXX|.H.p.~.|.[.XX).b.).XXXX(.0.x.Q.).(._.&X:XqXuX3X).R.h.q.W.K./.:X1X*X6X4X*X{.).c.=.e ! W R q , , ; 9 fXhX6X.XR.",
"kXkXkX9Xh.).XX XXXW.=.d.c.K.R.)..Xp.W.|..X(.0.c..X;X:XeXrX6X5X6X2X.XW.u.>.H.W._.XXXX.X{.*X>XL.L.H.=., q w : < = [ [ @.fXhXqX}.I.",
"kXkXkX;.l.L.[.H.).(.p P | s.b.E.b.p.W.(.H.b.s.W.XX:XqX>X%X/.[.XX<X1X[.3.P s./..XXX|.{./.XX).L.L.H.=.& < w , , p kXkXkXhXrX:X).R.",
"kXjXoXi W x.c.-.b.u.9 : , E W a.>.a.F.b.>.{ 9.W. XR.c.H.L.(. X X|..X(.W.p.,.H./.).W.).W.[.L.L.L.s.Y & , ; * ) ..fXkXjXyX:X(.L.L.",
"kXdX2 < z E { J d.V 3 , < q w R e I |  .n   G | t.2.| 9.H.H.R.R.{.{.~.~.3.m 1.K.K.H.W.L.F.L.L.x.X.> , = ( @.kXkXkXkXiX1X).L.L.L.",
"kXfX[ 3 q . < { |  .8 & ; , 0 ; , , , & . , ; . G m 4 J -.2.K.(.|..X.X).c.U 7 2.p.,.K.f.>.H.d.| E 8 ( @.kXkXkXkXjXiXtX1X).L.L.L.",
"kXkXkX[ * ; < < < . , < & & * , < u * , 9 p p r X * ; 0 z F 9.K.W.[.[.R.x.Y ; n I e -.I e X.E > , ( 0X0X0XkXkXkXkXyX1X%X[.P.L.L.",
"kXkXkXkX[ D * ; B ~ 1 ; < , & ; 9 @.~ - @.*.*.l $ t * < 0 > F 9.~.XX).R.c.E 3 2 ; & < < < < < 3 B &.&.&.Y.kXkXkXkXuX:XXX).L.L.L.",
"kXkXkXkXkXkX..D 0XaX( r 3 7 u u @.&.&.*.$.*.*.~ % g $ ; & < 4 G f.).).R.s.V a @.r u 2 , < 3 u a &.&.w.Y.kXkXkXkXjXuX:XXX).L.L.L.",
"kXkXkXkXkXkXkXkXkXA.&.*.a @.*.*.*.*.$.*.*.*.$.C % f d # X ; > S 9.L.R.x.E ; p $.*.*.@.r r a *.*.w.A.Y.kXkXkXkXkXkXuX:XXX[.L.L.L.",
"kXkXkXkXkXkXkXaXaXB.&.&.&.&.&.&.$.*.*.*.$.$.C + % g d d y 1 1 ; N 9.L.p.G < , a $.*.&.&.*.*.*.$.V.aXaX0X0XaXaXkXkXuX:XXX).L.L.L.",
"kXkXkXkXkXkXaXB.&.&.&.&.&.&.&.&.*.*.*.*.l - + o % g s $ g b j * & S >.I < < & - ^ 5.&.&.*.*.$.*.&.&.&.&.*.&.B.0XpXuX:XXX[.L.L.L.",
"kXkXkXkXkXpXB.*.&.&.*.&.&.&.&.&.$.*.*.*.B O $ % % f s $ d v v $ * ; 0 q ; & ; - ^ w.&.&.$.*.*.*.&.&.&.&.&.&.&.&.N.yXqX=X).L.L.R.",
"kXkXkXkXkXS.B.*.&.&.*.*.$.$.*.*.&.&.&.w.^ - - % s d s $ f v v d o & < < 1 * o O a $.$.*.$.*.$.*.&.&.*.*.B.V.V.B.S.iXuX<X).L.L.L.",
"kXkXkXkXkXkXfXS.N.B.*.*.*.*.$.*.&.&.&.$.l % $ d s # % $ d b g $ O & < , # d $ # X t / *.$.*.*.*.&.&.&.V.kXfXkXfXkXkXhX4X{.W.L.L.",
"kXkXkXkXkXkXkXkXfXkXS.N.*.*.*.*.&.&.w.l # $ $ # . * o $ d h f $ $ # X X o * * t k / *.*.*.$.*.*.&.&.&.V.dXkXkXkXkXkXkXiX3X{.I.L.",
"kXkXkXkXkXkXkXkXkXkXkXdXA.$.*.$.&.&.*.B = = * t k k r # f h s o * o $ % t k / 5.$.$.*.$.*.*.*.$.&.*.*.*.V.aXdXkXkXkXkXkXhX2X[.R.",
"kXkXkXkXkXkXkXkXkXkXdXA.*.$.*.*.*.M.B.*.&./ k k +._ t o d d o t k t o s % C &.&.*.$.*.*.*.*.*.*.&.*.&.&.*.B.S.kXkXkXkXkXhX6X|.R.",
"kXkXkXkXkXkXkXkXkXkXS.*.*.*.*.w.M.7XfXY.%.$.&.*.M.w._ r o $ y k l k t * X C w.&.*.$.*.*.M.*.*.*.*.M.M.M.A.jXfXkXkXkXkXkXhX6X|.R.",
"kXkXkXkXkXkXkXkXkXkXS.M.M.M.*.7XfXfXY.&.&.w.M.7XkXT.*.~ - - t _ &.*.@.l _ w.w.&.*.*.*.S.dX7XM.M.S.fXfXfXfXkXkXkXkXkXkXkXhX6X.XI.",
"kXkXkXkXkXkXkXkXkXkXfXfXfXfXfXkXkXY.&.&.$.7XfXfXkXkXT.$.$.$.$.&.$.T.fXdXdXfX7X%.*.*.*.*.Y.kXdXdXfXkXkXkXkXkXkXkXkXkXkXkXhX6X|.R."
};
