/* XPM */
static char *_7f55ddec6574ca192004ba8eceeee53n9XJAtwAY9pP5AZr[] = {
/* columns rows colors chars-per-pixel */
"64 64 228 2 ",
"   c #07181A",
".  c #0A1B1E",
"X  c #171A1E",
"o  c #251E1B",
"O  c #2A1E1A",
"+  c #301F1D",
"@  c #05231E",
"#  c #2B211A",
"$  c #2D2C1F",
"%  c #3B2514",
"&  c #362218",
"*  c #0E1E22",
"=  c #141B23",
"-  c #181F28",
";  c #261E22",
":  c #0D2325",
">  c #062A25",
",  c #0A2927",
"<  c #0D2628",
"1  c #0C2B2A",
"2  c #13252A",
"3  c #182428",
"4  c #122A2C",
"5  c #1D292E",
"6  c #06342C",
"7  c #09332D",
"8  c #08382B",
"9  c #1D2736",
"0  c #132B32",
"q  c #1B2C33",
"w  c #0B3630",
"e  c #093A31",
"r  c #18363A",
"t  c #262529",
"y  c #332726",
"u  c #222A32",
"i  c #222C3B",
"p  c #23323A",
"a  c #2B363A",
"s  c #383636",
"d  c #4C2C17",
"f  c #512D17",
"g  c #522E18",
"h  c #563018",
"j  c #64361D",
"k  c #4D3221",
"l  c #4A352D",
"z  c #4A3935",
"x  c #074434",
"c  c #0A4C31",
"v  c #10563A",
"b  c #6D4127",
"n  c #704227",
"m  c #1D3943",
"M  c #263746",
"N  c #2B394D",
"B  c #363D45",
"V  c #2E3B53",
"C  c #463E42",
"Z  c #194748",
"A  c #1B534C",
"S  c #24444C",
"D  c #39444A",
"F  c #294856",
"G  c #344858",
"H  c #3B4C5A",
"J  c #27565B",
"K  c #3D535E",
"L  c #246351",
"P  c #374462",
"I  c #344D63",
"U  c #3B4A64",
"Y  c #3C4E69",
"T  c #2B5560",
"R  c #38576A",
"E  c #3A536C",
"W  c #3F5B75",
"Q  c #396C69",
"!  c #3D6374",
"~  c #46464A",
"^  c #584D4A",
"/  c #454E54",
"(  c #48555B",
")  c #595757",
"_  c #635854",
"`  c #414E68",
"'  c #455865",
"]  c #44526D",
"[  c #515D64",
"{  c #445674",
"}  c #4B5B72",
"|  c #445C7B",
" . c #4B5D7D",
".. c #57646B",
"X. c #4D6F75",
"o. c #48657B",
"O. c #556878",
"+. c #696567",
"@. c #676D72",
"#. c #6C7377",
"$. c #6F757B",
"%. c #787477",
"&. c #71777D",
"*. c #73797D",
"=. c #7C7A7C",
"-. c #817B7D",
";. c #4A5F81",
":. c #4B6784",
">. c #526483",
",. c #576A87",
"<. c #556A8C",
"1. c #5A6D8B",
"2. c #5A7389",
"3. c #5A6D91",
"4. c #5B7793",
"5. c #5E7299",
"6. c #667B87",
"7. c #647A8E",
"8. c #747D83",
"9. c #7A7E83",
"0. c #657B93",
"q. c #657A97",
"w. c #61759D",
"e. c #647B9C",
"r. c #667BA1",
"t. c #697EA4",
"y. c #837F80",
"u. c #5C8591",
"i. c #7A868A",
"p. c #7C858B",
"a. c #6B8497",
"s. c #728C93",
"d. c #758B97",
"f. c #659296",
"g. c #6C83A5",
"h. c #6D8CA4",
"j. c #6F85A8",
"k. c #748CA5",
"l. c #7186AB",
"z. c #768DAB",
"x. c #738BAC",
"c. c #6B94A1",
"v. c #7A98A5",
"b. c #7492AE",
"n. c #7A92AF",
"m. c #778FB0",
"M. c #7B94B3",
"N. c #7999B3",
"B. c #7C9BB4",
"V. c #7CA1B6",
"C. c #7FA3B9",
"Z. c #858688",
"A. c #828F95",
"S. c #889599",
"D. c #969798",
"F. c #8C9BA3",
"G. c #829BB6",
"H. c #829DB9",
"J. c #83A5B4",
"K. c #85A3BC",
"L. c #8AA5BE",
"P. c #83AABC",
"I. c #8AABBE",
"U. c #95A4B0",
"Y. c #AAAEAE",
"T. c #8BA7C0",
"R. c #86A9C0",
"E. c #8CABC2",
"W. c #94ACC4",
"Q. c #9EAEC3",
"!. c #8DB3C4",
"~. c #8CB9C4",
"^. c #91B4C6",
"/. c #92B5C9",
"(. c #94BCCA",
"). c #98B8CB",
"_. c #9DBED3",
"`. c #A2B5C8",
"'. c #A2BED1",
"]. c #96C2CD",
"[. c #98C5CF",
"{. c #97C9CF",
"}. c #9AC6D1",
"|. c #97C8D0",
" X c #9BCCD2",
".X c #9DD3D5",
"XX c #B9C5C4",
"oX c #A1CCD7",
"OX c #A4C8D9",
"+X c #B7C8D6",
"@X c #A0D3D7",
"#X c #A3D4DA",
"$X c #A9D4DE",
"%X c #A5D9DC",
"&X c #A8DCDF",
"*X c #B7D3DA",
"=X c #ACD5E1",
"-X c #A7DEE0",
";X c #ACDDE2",
":X c #B1DCE5",
">X c #B6DDE8",
",X c #AEE0E4",
"<X c #B2E1E6",
"1X c #B5E5E9",
"2X c #BCE4EC",
"3X c #B7EAEC",
"4X c #BAE9EE",
"5X c #BEE6F0",
"6X c #BEECF1",
"7X c #C5CFCD",
"8X c #C5E6EC",
"9X c #D7E6E5",
"0X c #C3EDF5",
"qX c #CAEEF4",
"wX c #C4F1F6",
"eX c #C7F2F9",
"rX c #CBF5FC",
"tX c #CEF8FF",
"yX c #D6F5F9",
"uX c #D3F9FE",
"iX c #DBFAFE",
"pX c #E1ECE8",
"aX c #E5F0ED",
"sX c #EDF7F3",
"dX c #EDF9F6",
"fX c #E3FCFD",
"gX c #ECFEFC",
"hX c #F2FFFB",
/* pixels */
"tXtXtXtXtXtXfXhXhXhXhXhXhXgXtXtXtXtXtXtXtXtXtXtXtXtXtXiXgXtXtXtX/.5.E.tXtXtXtXtXtXtXtXtXtXtXfXhXhXhXhXhXhXgXtXtXtXtXtXtXtXtXtXtX",
"tXtXtXtXtXtXiXfXhXhXhXfXiXiXtXtXtXtXtXtXtXtXtXtXtXtXtXuXiXrXrX/.l.(.K.E.tXtXtXtXtXtXtXtXtXtXuXfXhXhXhXfXiXiXtXtXtXtXtXtXtXtXtXtX",
"tXtXtXtXtXtXrXiXfXfXfXuXrXtXtXtXtXtXtXtXtXtXuXfXiXtXtXtXtX/.5.V. X<X4XV.E.tXtXtXtXtXtXtXtXtXtXuXfXfXfXiXtXtXtXtXtXtXtXtXtXtXuXiX",
"tXtXuXuXtXtXtXtXuXtXtXtXtXtXtXtXtXtXtXtXtXuXfXhXdXuXrXtX/.x./.<XtXtX4X XK.E.tXtXtXtXtXuXtXtXtXtXtXtXtXuXtXtXtXtXtXtXuXtXtXuXiXhX",
"tXtXfXfXuXtXtXtXtXtXtXtXtXtXtXtXtXtXtXtXtXfXhXgXtXtX^.5.C.<XrXtXtXtXtXtX1XC.x.OXtXeXyXgXuXtXtXtXtXtXtXtXtXtXtXtXtXtXtXtXtXiXhXhX",
"fXgXgXhXfXuXtXtXtXtXtXtXtXtXtXtXtXtXtXtXfXhXhXgXW.e.m.^. X4XtXtX3X.X<XuX3X X X}.a.t #.hXgXuXtXtXtXtXtXtXtXtXtXrXtXtXtXtXfXgXhXhX",
"hXhXhXhXhXuXtXtXtXtXtXiXfXiXtXiXfXiXiXfXhXhXW.e.m.~. X1XrX1X1XuX3X(.(.#X<X3X[.f.v 7 ..hXhXuXtXtXtXtXtXiXiXiXuXiXiXfXfXiXhXhXgXfX",
"hXhXhXhXgXuXtXtXtXtXuXgXhXgXuXfXhXhXhXhXhX$.E x./..X.X@X#X.X@X%X.X.X(.E.(. Xf.v w ( aXhXhXiXtXtXtXtXuXfXhXhXuXfXhXhXhXhXhXhXgXuX",
"hXhXhXhXgXuXtXtXtXuXgXhXhXgXtXtXfXhXhXhX*.w v o.w.M.[.).E.(.1XeX<X.X.X/.L.(.P.G [ aXgXhXhXuXtXtXtXuXgXhXhXgXuXtXfXhXhXhXhXhXhXgX",
"hXhXfXuXuXtXtXtXuXgXhXhXfXuXtXtXgXhXhXhXpX[ 6 v v u.E.$XwXwXrX6X@X.X.X.X;X1X XN.F.gXgXuXuXtXtXtXuXfXhXhXgXuXtXtXfXhXhXhXhXhXgXiX",
"hXfXuXtXtXtXtXuXgXhXhXhXfXtXtXtXiXfXhXhXfX9X' . X.<X0XrXuX1X6X1X.X[.N.N.#X<XrX1XP.W.uXtXrXtXtXuXfXhXhXhXgXrXtXtXuXfXhXhXfXiXiXtX",
"gXuXtXuXuXiXiXfXhXhXhXgXiXtXtXtXtXuXgXfXuX6.E 0.~.&X;X}. X#X#X}.N.w.g.!..X.X1XuX0X}.t.T.iXiXuXfXhXhXhXhXiXtXtXtXtXuXgXfXuXtXtXtX",
"tXtXtXuXgXgXhXhXhXhXgXiXtXtXtXtXtXtXtXuXtX>Xl.r.g.B.^.x.b.^.M.r.! r } W.(..X@X%X1XrXOXm.L.hXhXhXhXhXgXiXtXtXtXtXtXtXtXtXtXtXtXtX",
"tXtXtXuXuXuXgXhXhXgXiXtXtXtXtXtXtXtXtXtXtXtXwXO.5 { t.U ] r.! r = G P. X].E.(..XoX1XtX$Xn.L.fXhXhXhXiXuXtXtXtXtXtXtXtXtXtXtXtXtX",
"tXtXtXtXtXrXiXiXiXiXtXtXtXtXtXtXtXtXrXtXQ.x...5 * 0 9 - r m * K a.P. X<X0X:X(.(.@X.X3X0X(.n.l.T.iXiXuXtXtXtXtXtXtXtXtXtXfXfXfXfX",
"tXtXtXtXtXiXiXiXuXtXtXtXtXtXtXtXtXuXiXW.K.$XK.a.N ' d.G   K a.J..X X.X@X4XtX<XP.N.@X@X&XoX(.n.>.D O.tXtXtXtXtXtXtXuXiXiXgXhXhXhX",
"tXuXtXuXuXgXhXhXgXuXuXtXtXtXtXuXuXiXQ.m.(.-X#X XV.q.P.J.0.).0X:X].E.]..X%X-X-XP.5.N././.P.g.2.Z w D uXuXtXtXtXtXuXiXhXhXhXhXhXhX",
"tXtXtXuXgXhXhXhXhXhXgXiXtXtXtXgXgXhX@.O.j.K./.M.r.B.;X;X[.#X,X%X.X^.E.^.!.^.P.o.m A X.t.2.A Z 7 7 D hXiXtXtXtXgXgXhXhXhXhXhXhXhX",
"tXtXtXuXiXiXgXhXhXhXhXgXiXtXtXiXgXi.5 Z A <.r.V.!.$XrXrX<XP.B.^.^.G.e.x.T.f.L Z > 6 x M r 8 1 . a 7XhXgXiXtXtXiXgXhXhXhXfXuXiXiX",
"tXtXtXtXtXuXiXgXhXhXhXhXfXrXtXtXiX*XD @ > 0 2.x. XtXuX6X&X2.] g.g.{ ] H.W.2.  * : : *       q 1.7XhXhXhXfXtXtXtXiXfXfXfXuXtXrXrX",
"tXtXtXtXtXtXtXiXgXhXhXhXfXtXtXtX/.N.a.7.4.7.B.e._.6X-X%X X' 0 A m H V.{.}.J.7.7.7.a.7.7.0.0.0.1.i.hXhXhXgXuXtXtXtXtXtXtXtXtXtXuX",
"uXtXtXtXtXtXtXtXiXhXhXhXhXgXtX/.m.M./.}.:X'.x.N.#X%X.X@X(.b.G   G k.].@X-X6X=X}.P.x.E.G.g.l.3.N  .G.Q.hXhXgXtXtXtXtXtXtXtXtXiXgX",
"gXfXiXtXtXtXtXtXtXuXiXuXfX`.G.M.H.)..X1X3XK.N.{..X.X].K.B.W.k.2.k./.P.J.&X6XtX1X{.V.m./.2.M m 9 e.M.n.G.W.hXgXiXtXtXtXtXtXtXuXuX",
"hXhXgXiXtXtXtXtXtXtXtXrXQ.m.m.R.(..X(.#X%Xh.P.@X[./.B.` ,.(./.T./. X].N.C.&X,X&X XE.P.#XK.V 0  .H.[./.m.m.G.W.uXtXtXtXtXtXtXuXtX",
"gXgXgXfXtXtXtXtXuXtXtXs.<.H.E.m.E./.E.{.].g.B.).N.j.{ Y q.P. X#X&X X,X@XB.P.%X].k.2.:.N.a.T 0.N.^.@X.X}.(.x.m.E.tXtXuXuXuXtXtXtX",
"uXtXtXtXtXtXtXfXgXtXrXB M 4.l.R 4.H.T.^.W.} >.x.X.J 1 O.l.V.,XeXeX3XeX6XC.5.b.4.J A x M I f.}.(.I.^.!.N.#X}.K.<.6.tXuXgXiXtXtXtX",
"tXtXtXtXtXtXfXhXhX`.6.q 6 S N 4 Z 4.l.j.K.G m T w @ G k.g.B.3XuXuXuXuX3XC.5.h.I @ 8 Z ,.f.#X1X X/.L.P.x.b.b.e.S 2 i.fXhXgXiXtXtX",
"tXtXtXtXtXtXiX`.U.m.i 1 7 : ' u > F F M a.G   @ H O.I.$XK.x.#X6X4XuXwX,XC.g.K.4.M M f./.}.;XtX<X.X!.l.L.l.l.g.I G q yXdXhXgXiXrX",
"tXuXiXiXiXtX/.x.m.T.u   * ` H.M < 6   H v.0.O.E c.$XrX4X).t.K.,X1XwX-X XE.M.L.K.q.U O./.#X@X<X1X<X{.N.x.|.(.L.m.j.} uXgXhXhXgXiX",
"uXgXhXhXhXs.1.H.(.(.6. .O.I.}.7.0 * H G.M.!.B.N.$X0X}.].|.K.K.{.#X,X Xd.2./.^.H.1.V O.}./.]..X#X$X.X XV.B.].].(.L.M.).hXhXhXhXgX",
"gXhXdXs.i.4 <.K.(..X:X:X}..X].^.2.} P./.e.P.~.N.I.J.N.~..X(.0.R c.}.d.Y a.|. XK.P N L.]./.K.J./.I..X]. XN.x.(.).L.g.H d.dXfXuXuX",
"hXhXgXS., : F t.l.!.>X3X#X].E.x.K.). X(.r./.,XK.g.b.~..X.X Xd.M Z o.' a.%X,X.X].0.G 2.^..XP.g.x.!./.I.].^.l.j.j.a.N = = yXuXtXtX",
"fXgXfXiXv.5 < F <.g.~./.(.E.m.j.I.:XoXM.b.1X1X(.M.~..X-X;X.X.Xk.S r a.=XwX6X X{.(.1.} /.@X X~.N.g.j.j.x.L.L.x.l.a.G Z.S.yXtXtXtX",
"tXtXtXtXS.q w 6 T <.j.j.K.M.j.B.;X4X(.w.(.4XoXN.b.~.;XeX0X%X.X.Xd.7.T.OXtX-X].^. XN.t./.(. X1X].g.g.j.j.k.l.l.x.G.'.hXgXuXtXtXtX",
"tXtXtXeX2 1 e e w T Q <.l.! a.!.:XoXM.b.>X=X!.r.P..X4XtXuX1X X.X}.W.l.N.&X XI.H.!.3.{ M.E.}.6X=X(./.L.K.j.g.l.b.z.+XhXuXtXtXtXtX",
"tXtXtXeXs.4 : < 1 6 8 F R r | E.].N.b.].:XL.l.j.P. X6XtXuX6X#X)./.H.,.o.L.E.4.:.l.Y i t.W.]. X4X3X<XOX^.I.(.]..XW.l.'.tXtXiXfXgX",
"tXtXtXtXiXp.8.&.0 : * 1 : 6 F r.m.l.E.[.B.j.5.m.T.^.$XrX0XrXOXN.H.,.V V >.5.A m R S i g.E.G.M.oX4X6XtX:X$X.X@X.X(.L.j._.iXhXhXhX",
"tXtXtXfXhXhXgXiXa.3 : : * 1 * M q.x.K.M.5.M.g.z.E.L.W.#XOX$XH.r.1.V  .<.N S > , 8 p O.m.T.G.g.N.{.#X4X3X1X X]..X~.L.L.j.`.F.F.hX",
"tXtXfXhXgXhXiXtXtXs.5   @ M P / X.W q.g.x.K.t.t.M.m.G.T.N.M.,.Y M N m.H.>.q r m @ H  X(.^.^.N.w.E.].]..X.X XI.].(.E.T.T.<.4 3 hX",
"tXfXgXgXiXiXtXtXuXgX[ ` ' h./.).{ m 2.E. X(.t.{ Y :.t.N.4.R p   0 { B.^.H.>.] <.N ,.].#X,X XE.b.M.L.E..X(.(.K.m.m.T.T.z.E w < iX",
"tXiXfXiXtXtXrXuX*X+XG.=X-X X}.N.b.B.#X1X@X].N.] 0 F ! R A > 9 V O.M.)._.L.G.m.H.M.}.%X1X1X.X.X~.w.T.E.(.^.L.K.r.g.M.x.R 1 * = rX",
"tXtXtXtXtXtXuX*Xb.x.%X6XoXN.x.N.%X6X6XtX6X XW.M.] 0 c c >   U K./.E.[.(.L.T.T.T.}. X;XeX%X.X.X(.t.N.T.E.].L.L.E.z.` I e w < [ tX",
"tXtXtXtXtXtX*Xm.|..X6X#XH.g.g.1XeX%X].5XrX).K.W.l.U 0 > 9 N a.].(.]..X].T.T.E.(. X@X4XuXeX%X.X XE.g.M.M.L.I.T.x.Y : : < < O.tXtX",
"tXtXtXtXtX$Xz. X.X.X.X Xw.L..X3X%X}.E.;X-X(.E.H.j.g.| D :.H.{.}.#X-X X/.H.N.^.(.!.,XrX0XuX0X.X.X XG.<. .M.N.x.R > 1 * - ..tXtXtX",
"tXtXtXtXtXr.{. X.X.X[.B.g.!.}.]..X(.B.]..X.X(.t.x.!././.).#X,X6XuX4X(.L.z.g.E.L.^.-X1X%X0X4X&X].(.G. .r W W R e < < , q tXtXuXfX",
"tXtXuXuX=Xl./.@X}..XE.>.j.G.K.T.(.|.g.P. X[./.r.N.|.&X,X0XtX6X5X0X1XoXE.a.<.H.E.(..X.X X{.%X>XK.T.H. ., e x 1 1 - ( ' ..eXuXiXhX",
"tXuXfXgXO.m.L.{.H.(.^.p U { l.N.K.H.g.!.^.H.N.j.!..X:X5X8X=X~.(..X;X1X{.7.U g./. X.X X[.^..X/.L.T.H.;.* 6 w < : i tXtXtXuXfXhXhX",
"gXgXhXXX9 W m.N.:.B.d.q , 1 T o.j.<.g.G.G.3.{ e.R.].E.M.H.K.^. X{. X X/.T.g.,.H.^.(.E.(.E.].L.I.L.l.U * < < = K ..rXtXtXfXhXhXhX",
"hXhXdX5 1 x E | F h.V 4 < 1 6 x I m I |  .m   V | g.4.W w.B.H.T.E.].].^./.2.N 3.H.K.H.T.K.H.L.L.m. .1 < = / ..iXgXfXfXfXhXhXhXhX",
"hXhXsX[ 4 7 * 1 W o.| 9 * < < w : < , , = . , : * G N > J o.e.L.^. X X X(.m.U 9 q.g.<.H.j.,.G.l.| E 4 / @.hXtXiXgXhXhXhXhXhXhXhX",
"hXhXhXgX[ * < , 1 > . : 0 * * * 1 1 u = : u a a - X * < e x F e.K.E.(.].L.m.Y * M I r :.I r ;.E < : ( pX9X9XtXtXfXhXhXhXhXhXhXgX",
"hXhXfXuXuX' D = : D ~ - < 1 < * : q +.~ t [ =.8.C % $ : 1 7 > F q.^.@X(.T.M.E 4 5 : = 1 1 7 1 1 2 B -.%.=.F.tXtXfXhXhXhXhXhXfXuX",
"hXfXuXtXtXtXtX[ B 9XaX/ 5 < 5 u u +.=.=.=.*.&.8.C & h & 3 * 1 8 G l./.(.K.g.G s +.t u q < 1 2 u s Z.-.-.Y.qXtXtXuXiXhXhXfXuXuXtX",
"iXuXtXuXiXiXiXgXhXdXD.=.*.B ..&.$.&.*.=.$.&.&.#.z & g f + = < 1 F e.K.T.M.R : a #.*.*...t u B =.=.y.Z.Y.yXtXtXrXtXuXfXfXuXrXtXuX",
"tXtXtXuXgXgXgXhXpXpXA.=.&.&.&.&.$.8.$.$.*.@.@.C ; & g f g $ t 3 * N t.K.j.I < : s #.&.&.=.=.%.-.=.D.9X8X8X2X8X8XtXtXtXtXtXtXtXtX",
"tXtXtXuXuXuXfXaXZ.-.&.&.&.&.&.&.$.$.8.$.8.C + + + & g f % d n k = * S <.G , 1 : - ~ *.&.&.&.=.=.-.=.%.&.$.&.$.i.2X8XtXtXtXtXuXtX",
"tXtXtXtXtXtX0Xp.=.=.&.&.&.&.&.$.&.&.&.$.=.B # % & % h f % d b b & = : 6 e < * < t ^ &.&.&.&.*.*.*.*.*.&.8.&.&.&.&.i.eXtXfXgXgXgX",
"tXtXtXtXtXiXD.Z.=.#.&.*.&.&.$.&.&.*.=.=.-.^ t o % % f d % d b b d O : 1 1 2 X X + s @.@.&.*.*.=.*.$.$.$.*.p.p.p.p.S.fXfXdXhXgXfX",
"tXtXtXtXiXhXhXhXD.p.Z.8.$.$.8.&.*.%.-.%.%.z & % d d # & % f b j % O X 1 : & g % # - t ^ =.=.-.-.-.*.8.*.p.tXtXuXuXiXhXhXhXhXfXtX",
"tXtXtXuXgXhXdXhXhXdXgXF.i.8.&.=.=.-.-.-.z & & % # = X # % f j f % % # X - o = = y z ^ &.=.=.=.=.-.=.=.=.p.0XuXfXhXhXhXhXhXhXfXtX",
"tXtXtXuXuXuXgXhXhXhXhXhXqXA.&.&.=.=.=.-.B 3 - X y l l t o f j d O X o % & & l ^ &.$.&.&.&.&.=.=.-.-.-.=.*.p.0XqXfXhXhXhXiXuXuXtX",
"tXtXtXtXtXtXiXgXhXhXhXdXD.&.&.&.*.*.i.Z.&.$.^ l z ..) y o g f O t l y o % & C 8.&.&.&.&.&.$.&.=.-.%.-.-.=.*.p.S.yXiXiXiXuXtXtXtX",
"tXtXtXtXtXtXtXuXgXhXhXD.=.*.&.&.8.8.*XrXF.$.&.&.=.p.=._ t o & k l l z l = = B 9.&.&.&.&.*.i.i.$.-.-.y.Z.Z.S.eXrXtXtXtXtXtXtXuXiX",
"tXtXtXtXtXtXtXtXiXhXhXD.y.y.8.8.*XrXrXF.$.$.8.*.7XhXY.=.~ = ; y _ -.-.+.z _ y.y.&.&.&.&.S.0X*X=.i.D.dXsXdXdXuXtXtXtXtXtXtXtXiXhX"
};
