/* XPM */
static char *result[] = {
/* columns rows colors chars-per-pixel */
"64 64 226 2 ",
"   c #07181A",
".  c #0A1B1E",
"X  c #171A1E",
"o  c #251E1B",
"O  c #2A1E1A",
"+  c #301F1D",
"@  c #05231E",
"#  c #2B211A",
"$  c #2D2C1F",
"%  c #352117",
"&  c #3B2514",
"*  c #36231A",
"=  c #0E1E22",
"-  c #141B23",
";  c #181E26",
":  c #0D2325",
">  c #062A25",
",  c #0A2927",
"<  c #0D2628",
"1  c #0C2B2A",
"2  c #172629",
"3  c #1C232B",
"4  c #132A2C",
"5  c #06342C",
"6  c #09332D",
"7  c #08382B",
"8  c #1D2736",
"9  c #132B32",
"0  c #1B2B33",
"q  c #0B3630",
"w  c #093A31",
"e  c #093C34",
"r  c #183639",
"t  c #25262A",
"y  c #332726",
"u  c #3A3122",
"i  c #232B32",
"p  c #222C3B",
"a  c #24333A",
"s  c #36373C",
"d  c #4C2C17",
"f  c #512D17",
"g  c #522E18",
"h  c #563018",
"j  c #64361D",
"k  c #4A352D",
"l  c #4A3935",
"z  c #074434",
"x  c #0A4C31",
"c  c #10563A",
"v  c #6D4127",
"b  c #704227",
"n  c #1D3943",
"m  c #263746",
"M  c #2B394D",
"N  c #2E394D",
"B  c #393D44",
"V  c #2E3B53",
"C  c #483E41",
"Z  c #194748",
"A  c #1B534C",
"S  c #24444C",
"D  c #3A4349",
"F  c #294856",
"G  c #344858",
"H  c #3B4C5A",
"J  c #27565B",
"K  c #246351",
"L  c #374462",
"P  c #344D63",
"I  c #3B4A64",
"U  c #3C4E69",
"Y  c #2B5560",
"T  c #38576A",
"R  c #3A536C",
"E  c #3F5B75",
"W  c #396C69",
"Q  c #3D6374",
"!  c #474548",
"~  c #594A46",
"^  c #5E504C",
"/  c #495156",
"(  c #645753",
")  c #414E68",
"_  c #445765",
"`  c #44526D",
"'  c #525D63",
"]  c #445674",
"[  c #4B5B72",
"{  c #445C7B",
"}  c #4B5D7D",
"|  c #5A6568",
" . c #48657B",
".. c #556779",
"X. c #4E767C",
"o. c #666061",
"O. c #676669",
"+. c #636D74",
"@. c #6C7275",
"#. c #7A7476",
"$. c #777678",
"%. c #7F7A7B",
"&. c #817C7D",
"*. c #4A5F81",
"=. c #4B6784",
"-. c #536483",
";. c #576A87",
":. c #546A8B",
">. c #596C8C",
",. c #5A7389",
"<. c #5A6D91",
"1. c #5C7595",
"2. c #62768A",
"3. c #647A8E",
"4. c #727D84",
"5. c #657B93",
"6. c #657A97",
"7. c #61759C",
"8. c #647B9C",
"9. c #667BA1",
"0. c #6A7EA4",
"q. c #837F80",
"w. c #5C8591",
"e. c #798587",
"r. c #6B8497",
"t. c #71899D",
"y. c #659296",
"u. c #779298",
"i. c #6C83A5",
"p. c #6D8CA4",
"a. c #6F85A8",
"s. c #748CA5",
"d. c #7186AA",
"f. c #778DAA",
"g. c #748BAC",
"h. c #6B94A1",
"j. c #7492AE",
"k. c #7A91AF",
"l. c #7998A8",
"z. c #778FB0",
"x. c #7B94B3",
"c. c #7999B3",
"v. c #7C9BB4",
"b. c #7CA1B6",
"n. c #7FA3B9",
"m. c #858283",
"M. c #868788",
"N. c #8D8A8B",
"B. c #908E8E",
"V. c #848E90",
"C. c #879797",
"Z. c #949293",
"A. c #9A9A9B",
"S. c #909BA4",
"D. c #819BB6",
"F. c #8A9AB6",
"G. c #829DB9",
"H. c #95A0A1",
"J. c #83A5B4",
"K. c #85A3BC",
"L. c #8AA5BE",
"P. c #83AABC",
"I. c #8AABBE",
"U. c #98A8BF",
"Y. c #A3A4A4",
"T. c #B0B3B2",
"R. c #8BA7C0",
"E. c #86A9C0",
"W. c #8CABC2",
"Q. c #90AEC6",
"!. c #9CACC1",
"~. c #8DB3C4",
"^. c #8CB9C4",
"/. c #91B4C6",
"(. c #92B5C8",
"). c #94BCCA",
"_. c #98BACC",
"`. c #A0AFC4",
"'. c #A3B3C6",
"]. c #A8B8CA",
"[. c #96C2CD",
"{. c #98C5CF",
"}. c #97C9CF",
"|. c #9AC6D1",
" X c #97C8D0",
".X c #9BCCD2",
"XX c #9DD3D5",
"oX c #B5C3CA",
"OX c #A1CCD7",
"+X c #A4C8D9",
"@X c #B5C5D4",
"#X c #A0D3D7",
"$X c #A3D4DA",
"%X c #A9D4DE",
"&X c #A5D9DC",
"*X c #A8DCDF",
"=X c #ACD5E1",
"-X c #A7DEE0",
";X c #ACDDE2",
":X c #B1DCE5",
">X c #B6DCE9",
",X c #AEE0E4",
"<X c #B2E1E6",
"1X c #B5E5E9",
"2X c #B9E6ED",
"3X c #BAE9EE",
"4X c #BEE6F0",
"5X c #BEECF1",
"6X c #CAD2D0",
"7X c #C5D2D8",
"8X c #CAD9E2",
"9X c #DDE7E4",
"0X c #C3EEF5",
"qX c #C3F1F6",
"wX c #C7F3F9",
"eX c #CBF6FC",
"rX c #CEF8FF",
"tX c #D1FAFF",
"yX c #E0EAE7",
"uX c #E2EDE9",
"iX c #E6F1EE",
"pX c #EAF6F2",
"aX c #EDFAF6",
"sX c #E9F7F8",
"dX c #EFFCF8",
"fX c #F2FFFB",
/* pixels */
"fXfXfXfXfXfXfXfXfXfXfXfXfXfXfXfXfXfXfXfXfXfXfXfXfXfXfXfXfXdXdX].d.).P.!.fXfXfXfXfXfXfXfXfXfXfXfXfXfXfXfXfXfXfXfXfXfXfXfXfXfXfXfX",
"fXfXfXfXfXfXfXfXfXfXfXfXfXfXfXfXfXfXfXfXfXfXfXfXfXfXfXfXfX].1.J..X1X1Xb.!.fXfXfXfXfXfXfXfXfXfXfXfXfXfXfXfXfXfXfXfXfXfXfXfXfXfXfX",
"fXfXfXfXfXfXfXfXfXfXfXfXfXfXfXfXfXfXfXfXfXfXfXfXfXfXdXfX'.g.(.<XeXrX3XXXP.!.fXdXfXfXfXfXfXfXfXfXfXfXfXfXfXfXfXfXfXfXfXfXfXfXfXfX",
"fXfXfXfXfXfXfXfXfXfXfXfXfXfXfXfXfXfXfXfXfXfXfXfXfXfX'.7.J.<XeXeXrXrXeXeX1XP.g.@XfXaXaXfXfXfXfXfXfXfXfXfXfXfXfXfXfXfXfXfXfXfXfXfX",
"fXfXfXfXfXfXfXfXfXfXfXfXfXfXfXfXfXfXfXfXfXfXfXfX!.9.k.(..X1XrXtX3X#X1XtX2X.X X Xr.t +.fXfXfXfXfXfXfXfXfXfXfXfXfXfXfXfXfXfXfXfXfX",
"fXfXfXfXfXfXfXfXfXfXfXfXfXfXfXfXfXfXfXfXfXfXU.9.x.~.}.1XeX1X1XrX1X).).$X1X2X[.y.c 6 | dXfXfXfXfXfXfXfXfXfXfXfXfXfXfXfXfXfXfXfXfX",
"fXfXfXfXfXfXfXfXfXfXfXfXfXfXfXfXfXfXfXdXfX$.` g.).XXXX$X&X#X#X&X$XXX).E.[..Xy.c 5 ' iXfXfXfXfXfXfXfXfXfXfXfXfXfXfXfXfXfXfXfXfXfX",
"fXfXfXfXfXfXfXfXfXfXfXfXfXfXfXfXfXfXfXdX$.q c  .7.x.[.).E.[.1XeX<XXXXX).R.[.n.G ' uXfXfXfXfXfXfXfXfXfXfXfXfXfXfXfXfXfXfXfXfXfXfX",
"fXfXfXfXfXfXfXfXfXfXfXfXfXfXfXfXfXfXfXfXuX' 7 z c w.R.=X0XwXrX5X#XXXXX.X;X1X.Xc.S.dXdXfXfXfXfXfXfXfXfXfXfXfXfXfXfXfXfXfXfXfXfXfX",
"fXfXfXfXfXfXfXfXfXfXfXfXfXfXfXfXfXfXfXfXfXuX| . X.:X0XeXtX1X2X1XXX[.c.b.$X1XeX<Xn.!.fXfXfXfXfXfXfXfXfXfXfXfXfXfXfXfXfXfXfXfXfXfX",
"fXfXfXfXfXfXfXfXfXfXfXfXfXfXfXfXfXfXfXfXfX4.I 5./.&X&X|.OX#X&X Xc.7.i.~.XXXX1XrXwX_.0.!.fXfXfXfXfXfXfXfXfXfXfXfXfXfXfXfXfXfXfXfX",
"fXfXfXfXfXfXfXfXfXfXfXfXfXfXfXfXfXfXfXfXfX9Xf.7.8.D./.g.x./.c.9.Q r [ W.[.XX$X&X2XeX+Xz.U.fXfXfXfXfXfXfXfXfXfXfXfXfXfXfXfXfXfXfX",
"fXfXfXfXfXfXfXfXfXfXfXfXfXfXfXfXfXfXfXfXfXfXsX+.8 [ 0.I R 9.Q r - H P..X).W.).XXXX1XrX%Xz.!.fXfXfXfXfXfXfXfXfXfXfXfXfXfXfXfXfXfX",
"fXfXfXfXfXfXfXfXfXfXfXfXfXfXfXfXfXfXfXfX`.f...t @ 0 8 - r n = I t.J..X,X0X:X).).XX#X1X0X(.z.g.!.fXfXfXfXfXfXfXfXfXfXfXfXfXfXfXfX",
"fXfXfXfXfXfXfXfXfXfXfXfXfXfXfXfXfXfXfX`.K.%XJ.r.N _ s.G   / t.J..XXXXXXX5XrX1XP.v.XX$X-X.X).j.=.H @.fXfXfXfXfXfXfXfXfXfXfXfXfXfX",
"fXfXfXfXfXfXfXfXfXfXfXfXfXfXfXfXfXfX'.k.).*X#X.XJ.6.K.J.5.(.0X:X[.W.[.XX$X;X*XP.1.x.(.(.L.i.<.Z 6 ! fXfXfXfXfXfXfXfXfXfXfXfXfXfX",
"fXfXfXfXfXfXfXfXfXfXfXfXfXfXfXfXfXfX| ;.a.K.^.c.7.c.;X;X{.$X,X&X.X(.I./.~./.R. .m A X.0.,.A Z 6 1 D dXdXfXfXfXfXfXfXfXfXfXfXfXfX",
"fXfXfXfXfXfXfXfXfXfXfXfXfXfXfXfXfXe.9 n A :.9.v.^.=XeXeX<Xn.v./.(.D.8.g.R.y.K Z > > x m r 7 1 X s 6XfXdXfXfXfXfXfXfXfXfXfXfXfXfX",
"fXfXfXfXfXfXfXfXfXfXfXfXfXfXfXfXfX6XD = > 9 >.j.+XrXtX5X,X,.` 0.a.] [ K.Q.;.  @ : : :       8 ;.7XfXfXfXfXfXfXfXfXfXfXfXfXfXfXfX",
"fXfXfXfXfXfXfXfXfXfXfXfXfXfXfXfX'.F.t.5.3.2.v.9.|.5X;X&X X_ q J n H l.|.}.J.2.3.3.w.3.3.3.3.6.;.e.fXfXfXfXfXfXfXfXfXfXfXfXfXfXfX",
"fXfXfXfXfXfXfXfXfXfXfXfXfXfXfX'.z.x.(. X:X+Xd.c.XX&XXXXX).f.G   G s.).XX,X5X=X}.I.g.Q.G.i.a.<.N } F.!.fXfXfXfXfXfXfXfXfXfXfXfXfX",
"fXfXfXfXfXfXfXfXfXfXfXfXfX'.F.x.G.).XX1X3Xv.c.}.XXXX[.G.D.W.s.,.s._.P.P.-X3XrX1X}.v.j.).1.m Z 8 7.k.k.F.!.fXfXfXfXfXfXfXfXfXfXfX",
"fXfXfXfXfXfXfXfXfXfXfXfX'.x.j.E.).XX_.$X*Xp.P.#X[._.D.U ;.).^.R./.}.[.c.n.-X,X&XXXI.L.XXK.V 9 } D.{.).j.x.F.!.fXfXfXfXfXfXfXfXfX",
"fXfXfXfXfXfXfXfXfXfXfXe.>.G.W.g.I._.R.}.}.a.v.).x.d.` _ 5.I..X$X*XXX;X$Xb.P.XX[.j.1.=.c.w.Y 3.x./.#XXX{._.g.k.!.fXfXfXfXfXfXfXfX",
"fXfXfXfXfXfXfXfXfXfXfXB m 1.g.T <.K.R.(.Q.[ -.d. .J 4 ..g.v.,XwXwX2XqX0Xn.1.c.1.J A e m H y. X).I.(.W.b.XX[.K.<.e.fXfXfXfXfXfXfX",
"fXfXfXfXfXfXfXfXfX].4.a 6 Z M 9 Z 1.d.a.F.G n J z @ G l.i.v.3XrXtXtXrX5Xn.6.i.P @ 5 A ..r.$X1X.X).L.L.g.j.j.6.S 2 4.dXfXfXfXfXfX",
"fXfXfXfXfXfXfX'.U.z.p , q . _ i , A F M t.G   @ H ..I.$XJ.g.OXqX5XtXqX;XK.0.E.1.m a p.(..X;XrX1X.X~.d.R.d.g.i.P G i aXfXfXfXfXfX",
"fXfXfXfXfXfX].f.g.K.p .   _ F.N : 6 @ G l.r...U s.%XeX1X).i.L.;X1X0X*X.XP.x.R.K.6.I ;.(.XX&X1X1X1X}.v.g. X).L.g.d.[ fXfXfXfXfXfX",
"fXfXfXfXfXV.<.G.).).,...[ I.|.3.0   H v.k.W.v.c.$X5X X)..XJ.K.).$X,X.Xu.;././.F.>.V ..[.(.[.XXXXOXXX.Xb.v.[.[.).R.c.].dXfXfXfXfX",
"fXfXdXu.e.0 -.K._.XX:X>XOXXX[./.2.[ K.(.8.P.^.c.E.J.c.^.XX_.3.T h..Xt.U r..X.Xn.L M E.).(.J.n./.~..X[..Xc.f.)._.R.a.P V.aXfXfXfX",
"fXfXfXC.: : F i.d./.:X3X$X[.I.f.K._.XX_.8.).,Xn.a.j.).XXXX.Xp.m Z  ._ r.=X;XXX}.5.G ,.(..XW.i.f.W.).W.[./.d.a.a.8.V = - pXfXfXfX",
"fXfXfXfXH.3 , F :.i.~.).).I.z.a.E.:X.Xx.j.>X1X).z.~.XX;X-XXX.Xl.S r r.=XqX5X{.}.).>.[ ).XXXX~.c.d.d.a.d.I.L.d.d.0.G M.C.dXfXfXfX",
"fXfXfXdXH.0 5 w Y :.d.g.E.z.a.G.=X5X_.7.).3XOXv.j.^.;XwX0X-XXXXXu.3.L.OXeX;X[./..Xx.0.(._.|.1X[.a.a.a.a.a.g.g.g.k.@XfXfXfXfXfXfX",
"fXfXfXaX3 1 w w 5 Y W :.d.Q r.~.<X.Xx.j.>X=X/.9.P.XX3XtXrX1XXXXX_.Q.d.D.=X.XE.J.W.1.] x.W.|.3X=X^.(.I.K.a.i.a.j.g.oXfXfXfXfXfXfX",
"fXfXfXdXV.< : = 1 5 7 F P r { W.[.c.j.[.:XR.d.d.P..X3XrXrX0X=X_./.G.>.} E.~.1.=.a.U p 0.Q.).OX3X1X<X+X/.I._.).#X(.d.oXdXfXfXfXfX",
"fXfXfXfXfXV.4.$.9 = = > : 5 F 0.g.a.W.|.v.a.1.g.R.~.;XwXqXeX_.c.K.>.V M *.r.Z r T M p 0.W.G.x..X3X0XeX<X$XXX#XXX).L.a.@XfXfXfXfX",
"fXfXfXfXfXfXfXfXV.; < < = 1 @ M 6.z.L.x.1.x.0.z.W.L./.+X+X=XG.0.>.V } :.V S 1 : 7 r X.z.R.G.i.c.[.&X3X3X1XXX[.OX/.I.L.d.].H.H.fX",
"fXfXfXfXfXfXfXfXfXV.3   . m H H ..T 6.a.g.K.i.i.x.z.G.R.v.z.:.U m N g.G.-.r r n : H OX(./.(.x.1.W.[.[.XXXX.XI.[.[.L.L.L.<.9 : fX",
"fXfXfXfXfXfXfXfXfXfX[ _ _ p.(.(.] n ,.E.XX(.0.] R =.i.x.,.T n   9 ] v.(.G.-.U <.M ..[.&X;X.X~.j.x.L.W..X).).K.g.z.R.R.g.R q < fX",
"fXfXfXfXfXfXfXfX7X@XD.=X;X.X Xv.j.G.$X1X$X).c.) 1 F Q Q Z : 8 V -.x._._.L.G.z.v.c.{.$X1X1XXXXX(.7.I.W.[./.L.K.i.i.x.g.R 1 = = fX",
"fXfXfXfXfXfXfX7Xj.g.$X5X.XD.g.v.$X5X5XrX5XXX(.x.` 9 z x > . I E./.Q.[.).L.R.L.W.[.XX;XwX&XXXXX).0.x.R.W.).L.I.L.g.) R w 1 : | fX",
"fXfXfXfXfXfX7Xj..XXX3X&XD.i.i.2XwX&X[.5XwX_.R.R.d.I 9 > 0 M r._.(.[.#X[.R.L.W._..X$X2XtXwX*XXX.XW.0.x.v.E.R.L.g.U = : < < +.dXfX",
"fXfXfXfXdX8Xj. XXXXXXX X7.K.XX1X&X XW.=X*X).R.G.d.i.[ N ..G.|..X$X*X.X).G.D././.~.,XrX0XtX0XXXXX.XG.:.} x.D.g.T 1 1 = - +.fXfXfX",
"fXfXfXfXfX9.{.XXXXXX{.G.a.(.}.[.XX).v.).XX$X(.9.g./._.(.).%X:X5XtX3X(.L.g.0.W.L./.*X1X&X0X3X&X[._.D.*.q E { R w , < < i aXfXfXfX",
"fXfXfXfX8Xd.).XX}.XXW.-.d.x.K.R.)..Xi.P..X{./.0.c.}.&X;X0XeX4X2X0X3XOXW.r.;.G.W.).XXXX.X{.&X:XL.L.G.} , w e > 1 ; ' ' | aXfXfXfX",
"fXfXfXfX-.k.L.[.D.[./.a P { a.c.K.G.i.W./.G.v.a.~.XX;X4X4X=X^.[.XX:X1X[.2.I d./..XXX.X{./.XX_.R.R.G.} = 6 w 1 < a fXfXfXfXfXfXfX",
"fXfXdXoX0 E j.x.=.c.t.p : , P  .a.:.i.D.G.>.] 8.E.}.E.x.G.R.(. X}.|..X/.W.i.>.K./.)./.).W.).L.L.L.d.U = < : - / O.aXfXfXfXfXfXfX",
"fXfXaX3 1 e ] { S p.G 4 , 1 w z T r P { { n   G ] i.6.{ 8.v.J.L.I.[.}./.Q.2.m <.G.K.D.L.L.D.I.L.x.*., : - / +.fXfXfXfXfXfXfXfXfX",
"fXfXaX' , 6 : , ] { } 8 = < < q : < 1 < = . , : . G m 5 J  .7.L.(..X.XXX).z.I 0 1.i.;.G.d.:.D.s.{ R 4 / +.aXfXfXfXfXfXfXfXfXfXfX",
"fXfXfXfX' - < 1 1 , . < 1 = = - , 1 i - < i s a 3 X X : 6 z F 8.L.E.).[.R.z.U = m P n =.P r *.R , < / 9X9X9XfXfXfXfXfXfXfXfXfXfX",
"fXfXfXfXfX' ! X < B D ; < 1 , = : 3 O.! t ' &.q.! & $ - 4 6 , S 8.~.XX).R.x.U 2 0 : X , 6 1 , , 4 s &.%.&.Y.fXfXfXfXfXfXfXfXfXfX",
"fXfXfXfXfXfXfX' D 9XiX/ i 4 3 i t O.&.&.%.%.&.&.l * h * : : 1 7 G d.(._.K.a.F B O.3 i i , , 4 i B &.%.&.Y.fXfXfXfXfXfXfXfXfXfXfX",
"fXfXfXfXfXfXfXfXfXfXB.&.&.s O.&.&.#.&.&.&.&.&.&.l * h f + X = , F 8.R.R.j.T : s #.%.%.O.t t s &.&.&.Z.Y.fXfXfXfXfXfXfXfXfXfXfXfX",
"fXfXfXfXfXfXfXfXuXyXB.#.&.%.&.&.&.&.&.#.&.&.O.C y * g d f u 2 2 = m 0.G.a.G > < s #.&.#.&.&.%.%.%.B.yXyXyXyXyXuXfXfXfXfXfXfXfXfX",
"fXfXfXfXfXfXfXuXN.&.%.%.%.%.%.%.#.&.&.&.&.l + + o % g f & f b k . = F :.P , 1 < ; ~ &.%.#.&.#.&.&.%.%.%.%.%.%.N.yXuXdXfXfXfXfXfX",
"fXfXfXfXfXfXuXN.%.%.%.&.%.%.%.%.&.&.#.&.&.s O & + % h f & f v v * - = 6 w < - : o ~ &.%.&.&.&.&.%.%.%.%.%.%.%.#.&.N.dXfXfXfXfXfX",
"fXfXfXfXfXaXA.N.&.#.&.&.&.&.&.&.%.%.&.&.&.~ t o * & g d & g v v g O : 1 1 < - o O s #.#.&.&.&.#.#.&.&.&.&.N.N.N.N.Z.aXfXfXfXfXfX",
"fXfXfXfXfXfXfXfXA.N.N.&.&.#.&.#.%.%.#.&.#.l % & g d # % & g v h d O @ , : * f % % X t ^ &.&.&.&.&.&.#.&.Z.fXfXfXfXdXfXfXfXfXfXfX",
"fXfXfXfXfXfXfXfXfXaXfXA.N.&.&.#.%.%.&.&.l + & & # = X # & f j d % & O X X o - ; $ k ~ &.#.&.#.#.&.&.&.#.B.iXfXfXfXfXfXfXfXfXfXfX",
"fXfXfXfXfXfXfXfXfXfXfXaXpXZ.#.&.%.&.&.&.B 2 - - y l k t # g j d o X o & % y k ^ &.#.&.&.&.&.&.&.&.#.&.&.&.B.iXiXfXfXfXfXfXfXfXfX",
"fXfXfXfXfXfXfXfXfXfXfXpXZ.%.&.#.&.&.m.N.%.%.^ k k o.( y O f f o y k y O d O l %.&.#.&.#.&.&.&.&.&.&.&.&.&.&.N.A.fXfXfXfXfXfXfXfX",
"fXfXfXfXfXfXfXfXfXfXfXA.&.&.&.&.m.m.6XaXA.%.%.#.&.M.&.( t O & d k l l y X X B q.&.#.&.&.&.m.m.&.#.&.m.q.N.Z.pXaXfXfXfXfXfXfXfXfX",
"fXfXfXfXfXfXfXfXfXfXfXA.m.m.q.q.6XfXdXY.&.%.&.&.6XfXT.&.! ; t y ( &.&.o.l ( m.q.&.&.&.&.A.aX6Xm.m.A.aXaXaXaXfXfXfXfXfXfXfXfXfXfX",
"fXfXfXfXfXfXfXfXfXfXfXaXpXaXaXpXfXfXY.%.%.#.6XaXaXfXfXT.#.#.#.#.%.#.T.fXpXpXsX6X#.&.#.&.&.Y.fXpXaXaXfXfXfXfXfXfXfXfXfXfXfXfXfXfX"
};
