/* XPM */
static char *_2f55a3bbfa04e95d1f22ffdfe089dbdaMfOyCbRvqcY4W8i[] = {
/* columns rows colors chars-per-pixel */
"64 64 13 1 ",
"  c #3D3748",
". c #4D4A5D",
"X c #726B7E",
"o c #C4B59F",
"O c #B19998",
"+ c #E5E6C7",
"@ c #904237",
"# c #B14E45",
"$ c #BA6C4C",
"% c #CEF8FF",
"& c #F2FFFB",
"* c #596C95",
"= c white",
/* pixels */
"                                                                ",
".......XX......XX......XX......XX......XX......XX......XX.......",
".X.XX.XXXX.XX.XXXX.XX.XXXX.XX.XXXX.XX.XXXX.XX.XXXX.XX.XXXX.XX.X.",
".X.oo.XooX.oo.XooX.oo.XooX.oo.XooX.oo.XooX.oo.XooX.oo.XooX.oo.X.",
".O.oo.oooo.oo.oooo.oo.oooo.oo.oooo.oo.oooo.oo.oooo.oo.oooo.oo.O.",
".O.OO.++++.OO.++++.OO.++++.OO.++++.OO.++++.OO.++++.OO.++++.OO.O.",
".O.XX.OooO.XX.OooO.XX.OooO.XX.OooO.XX.OooO.XX.OooO.XX.OooO.XX.O.",
"................................................................",
"...XXXXX@@@@@@@@@@@@@@@@@@@@@@@@@@@@@@@@@@@@@@@@@@@@@@@@XXXXX...",
".OOo+oOX@@@@@@@@@@@@@@@@@@@@@@@@@@@@@@@@@@@@@@@@@@@@@@@@XOo+oOO.",
".oO+++oX@@@@@@@@@@@@@@@@@@@@@@@@@@@@@@@@@@@@@@@@@@@@@@@@Xo+++Oo.",
".oo++++X@##############################################@X++++oo.",
".ooo+++X@########################@@@@@@@###########@@@@@X+++ooo.",
".oOo++oX@########################@@@@@@@###########@@@@@Xo++oOo.",
".oOoOOoX@########################@@@@@@@###########@@@@@XoOOoOo.",
".XOooOOX@@############################################@@XOOooOX.",
"......XXXXXXXX###############@@@@@@@##############XXXXXXXX......",
".Xo+ooo++oooOX###############@@@@@@@##############XOooo++ooo+oX.",
".oo++++++++ooX###############@@@@@@@##############Xoo++++++++oo.",
".oo+++oo++o+oX####################################Xo+o++oo+++oo.",
".oo++ooo++++oX#$$$$$$$###########$$$$$$$##########Xo++++ooo++oo.",
".oOo+++oo++ooX#$$$$$$$###########$$$$$$$##########Xoo++oo+++oOo.",
".oOOooooOOooOX#$$$$$$$###########$$$$$$$##########XOooOOooooOOo.",
".XXOOOOOOOOOOX####################################XOOOOOOOOOOXX.",
"............XX@@@@@@#################$$$$$$$#@@@@@XX............",
".Xo++oOX@@@@@@@@@@@@#################$$$$$$$#@@@@@@@@@@@XOo++oX.",
".oo+++oX@@###@@@@@@@#################$$$$$$$#@@@@@@@##@@Xo+++oo.",
".oo++++X@##############################################@X++++oo.",
".ooo+++X@##############################################@X+++ooo.",
".oOo+++X@##############################################@X+++oOo.",
".oOo++oX@##############################################@Xo++oOo.",
".OXOOoOX@@############################################@@XOoOOOO.",
"......XXXXXXXX#######@@@@@@@#########$$$$$$$######XXXXXXXX......",
".Oo++++++++oOX#######@@@@@@@#########$$$$$$$######XOo++++++++oO.",
".oo+++++++++oX#######@@@@@@@#########$$$$$$$######Xo+++++++++oo.",
".oo++++++++++X####################################X++++++++++oo.",
".oo+++++oo+++X@@#########@@@@@@@#########@@@@@@@##X+++oo+++++oo.",
".oo++oooo++++X@@#########@@@@@@@#########@@@@@@@##X++++oooo++oo.",
".oO+Ooooo+++oX@@#########@@@@@@@#########@@@@@@@##Xo+++ooooO+Oo.",
".XOOOoOOOOoOOX####################################XOOoOOOOoOOOX.",
"............XX$$$$$$#$$$$$$$#################$$$$$XX............",
".OOo+oOX@@@@@#$$$$$$#$$$$$$$#################$$$$$#@@@@@XOo+oOO.",
".oO+++oX@@###$$$$$$$#$$$$$$$#################$$$$$$$##@@Xo+++Oo.",
".oo++++X@##############################################@X++++oo.",
".ooo+++X@########################@@@@@@@###########@@@@@X+++ooo.",
".oOo++oX@########################@@@@@@@###########@@@@@Xo++oOo.",
".oOoOOoX@########################@@@@@@@###########@@@@@XoOOoOo.",
".XOooOOX@@############################################@@XOOooOX.",
"................................................................",
".OXXXXXXXOOXXOXXXXXXOOOOXXXXXXXXOOOXXXXXXOOXXOXXXXXXOXXXXXXXXOO.",
".OOOOOOoOOOOOOOOXOOOOOOXXXXOoooOOOOOOooooOOOOOOXXOOOOOXXOOooOOO.",
".OOOOoooOOOOoooooooooOOOOOOoooooOOOOOooooOoooOOOoooooOOOOOOooOO.",
".OOooooooooOOOooooooOOOooooooooooooOoooOoOooooooOOoooooooooooOO.",
".OOooooooooooooooooooooooooooooooooooooOoOoooooooooooooooooooOO.",
".OOoooooooooooooooooooooooooooooooooooooOooooooooooooooooooooOO.",
".OOoooooooooooooooooooooOOOooooooooooooOoooooooooOoooooooooooOO.",
".OOooooooooooooooooooooooooOooooooooOOOOooooooooooOOOOOooooooOO.",
".OOooooooOOOOOooOOoooooooOOOOOoooOOOOOOOOOoooooOoooOOOOOOoooOOO.",
".OOooOOoooooOOOOOOOOoooOOOOOOOOOOOOOOOOOOOOooOOOOOOOOOOOOOOOOOO.",
".OOOOOOOOOOOOOOOOOOOOOOOOOOOOOOOXXOOOOOOOOOOOOOOOOOOOOOO%%&&%OO.",
".OOOOOO%%&&%OOOOOOOOOOOO%%&&%OXXOOOOOO%%&&&%%OOOOOOOO%%&&&&&&%O.",
".OOO%&&&&&&&&&%%%OOO%%%&&&&&&&%OOOO%%&&&&&&&&&%%%OOO%&&&&&&&&&%*",
"*%%%&&&&&&&&&&&&&%%%&&&&&&&&&&&%%%&&&&&&&&&&&&&&&%%%&&&&&&&&&&&%",
"%&&&&&&&&&&&&&&&&&&&&&&&&&&&&&&&&&&&&&&&&&&&&&&&&&&&&&&&&&&&&&&%"
};
