/* XPM */
static char *result[] = {
/* columns rows colors chars-per-pixel */
"64 64 66 1 ",
"  c #166997",
". c #156C99",
"X c #0F779F",
"o c #12739D",
"O c #0D7CA2",
"+ c #1376A0",
"@ c #117CA4",
"# c #0B82A5",
"$ c #0A86A9",
"% c #058EAC",
"& c #0B8AAB",
"* c #1182A7",
"= c #118BAC",
"- c #0391AE",
"; c #0C8EB0",
": c #0295B1",
"> c #0C92B3",
", c #019AB4",
"< c #0A99B8",
"1 c #1393B0",
"2 c #1F9DB9",
"3 c #278FAE",
"4 c #2C8EAE",
"5 c #338CAD",
"6 c #3A8DAE",
"7 c #2993B1",
"8 c #299CB9",
"9 c #3392B2",
"0 c #3C96B6",
"q c #3C9DBC",
"w c #01A3BC",
"e c #00A8BF",
"r c #19A1BE",
"t c #21A2BD",
"y c #38A0BE",
"u c #4687AB",
"i c #4D87AB",
"p c #5E80A7",
"a c #5685AB",
"s c #5A83A9",
"d c #5688AD",
"f c #4F8DB0",
"g c #4795B6",
"h c #4199B9",
"j c #01ACC3",
"k c #08AAC5",
"l c #12ADC4",
"z c #00B1C7",
"x c #03B2CA",
"c c #0AB4CA",
"v c #01BACD",
"b c #13B4CB",
"n c #01BED1",
"m c #0EBDD2",
"M c #2AA6C2",
"N c #2DABC6",
"B c #29AFC8",
"V c #33A4C1",
"C c #27B1CA",
"Z c #29B0C9",
"A c #01C3D5",
"S c #00C6D8",
"D c #00CCDD",
"F c #00D0DF",
"G c #00D1E1",
"H c None",
/* pixels */
"HHHHHHHHssaHHHHHHHssssssssHHHHHHHHHHHssassssssHHHHHHHHHsassssHHH",
"HHHsssssssssasasssssssssssasssasasasssssssssssssssassssssssssaHH",
"HHsspssgBCqspspsssqCBBBBBVdppsssssppu378ZZZZZqspssssppfNZM735ass",
"Hsah066tnv29hqqq06lAAvzznc9hqqqqqqqq8,<wkxxxnbyqh60yyhMvAv,-&5fs",
"sdhmz---%X+:vDDGAw:-%O .O-;jDDGDSSAAj--#. .X%eAAx:zDDGAe---*X-4s",
"aVAw#o.o...o%jDDDS;......o+&jSDAw,:O..X...O--,<#.o&jDFDA>..#::4d",
"1=@Xo.. o$-%O+@*;w,%%O...@cAnj>O+XX  .....ooXXo.o-zDDv<$X..oXo*1",
"nw$$+....O#Oo   .OOOOX...o;<;Oo ............ . .o*;<<#X ..  o#ev",
"k<$$O............. . ....    ....................     .....o$:zv",
" ..........................................................#-%%-",
".............................................................o..",
"................................................................",
"................................................................",
"................................................................",
"................................................................",
"................................................................",
"................................................................",
"................................................................",
"................................................................",
"................................................................",
"................................................................",
"................................................................",
"................................................................",
"................................................................",
"................................................................",
"................................................................",
"................................................................",
"................................................................",
"................................................................",
"................................................................",
"................................................................",
"................................................................",
"................................................................",
"................................................................",
"................................................................",
"................................................................",
"................................................................",
"................................................................",
"................................................................",
"................................................................",
"................................................................",
"................................................................",
"................................................................",
"................................................................",
"................................................................",
"................................................................",
"................................................................",
"................................................................",
"................................................................",
"................................................................",
"................................................................",
" ...............................................................",
"oo..............................................................",
"-#..............................................................",
"oo..............................................................",
"................................................................",
"................................................................",
"................................................................",
"................................................................",
"................................................................",
"................................................................",
"................................................................",
"................................................................",
"................................................................"
};
