/* XPM */
static char *result[] = {
/* columns rows colors chars-per-pixel */
"64 64 211 2 ",
"   c #020202",
".  c #090807",
"X  c #07090A",
"o  c #0B0B0C",
"O  c #090D12",
"+  c #0E1011",
"@  c #0A121D",
"#  c #141414",
"$  c #15181C",
"%  c #1B1B1B",
"&  c #0E1927",
"*  c #151B23",
"=  c #1A1F26",
"-  c #111E2D",
";  c #111F30",
":  c #1E2122",
">  c #1A222C",
",  c #142335",
"<  c #152538",
"1  c #1B2A3D",
"2  c #242425",
"3  c #272728",
"4  c #262A2B",
"5  c #2B2C2D",
"6  c #31302E",
"7  c #2D2E30",
"8  c #2D3133",
"9  c #333434",
"0  c #333738",
"q  c #343A3C",
"w  c #3A3B3C",
"e  c #3B403F",
"r  c #172B42",
"t  c #182C44",
"y  c #1B324D",
"u  c #1D3553",
"i  c #1E3857",
"p  c #293948",
"a  c #3C3E41",
"s  c #323E4D",
"d  c #233A53",
"f  c #213B5C",
"g  c #3E4343",
"h  c #3A4547",
"j  c #3D494A",
"k  c #26456B",
"l  c #27486F",
"z  c #304C69",
"x  c #35516F",
"c  c #274972",
"v  c #294A72",
"b  c #2C517E",
"n  c #32547B",
"m  c #434444",
"M  c #444648",
"N  c #454B4B",
"B  c #4B4B4C",
"V  c #455254",
"C  c #4D5253",
"Z  c #485759",
"A  c #4D5B5D",
"S  c #545454",
"D  c #55575A",
"F  c #565C5D",
"G  c #5B5B5B",
"H  c #62605D",
"J  c #4B5D66",
"K  c #555E61",
"L  c #5E5F62",
"P  c #546265",
"I  c #5C6466",
"U  c #586569",
"Y  c #5B6B6D",
"T  c #4F6571",
"R  c #5C6E71",
"E  c #5F7376",
"W  c #636464",
"Q  c #666966",
"!  c #64666A",
"~  c #666A6B",
"^  c #696A6B",
"/  c #6E706D",
"(  c #686C72",
")  c #6B7271",
"_  c #627679",
"`  c #69777A",
"'  c #737474",
"]  c #757977",
"[  c #73757B",
"{  c #757B7B",
"}  c #7C7C7C",
"|  c #2E5483",
" . c #2F598C",
".. c #315786",
"X. c #315A8C",
"o. c #325E92",
"O. c #356195",
"+. c #36649B",
"@. c #38679F",
"#. c #3B6BA5",
"$. c #3C6DA9",
"%. c #3E71AF",
"&. c #3F73B3",
"*. c #677C80",
"=. c #787E82",
"-. c #4075B6",
";. c #437ABC",
":. c #447DC1",
">. c #6B8185",
",. c #6F868A",
"<. c #7E8284",
"1. c #778E92",
"2. c #7C9398",
"3. c #4681C7",
"4. c #4782C9",
"5. c #4884CC",
"6. c #4A88D2",
"7. c #838484",
"8. c #82848B",
"9. c #838989",
"0. c #8B8B8B",
"q. c #89918F",
"w. c #888A91",
"e. c #8E9191",
"r. c #81979B",
"t. c #8D9C9C",
"y. c #949494",
"u. c #92959C",
"i. c #919D9C",
"p. c #9C9C9C",
"a. c #849EA1",
"s. c #979AA1",
"d. c #9A9CA4",
"f. c #86A3A9",
"g. c #8BA5A9",
"h. c #8BA6AB",
"j. c #98A9AB",
"k. c #8FACB1",
"l. c #92AEB3",
"z. c #97B5B9",
"x. c #9AB9BD",
"c. c #A4A4A4",
"v. c #A3A8AC",
"b. c #ACACAC",
"n. c #A7B0AE",
"m. c #ABAEB5",
"M. c #ACB5B3",
"N. c #A8B7B9",
"B. c #B5B5B5",
"V. c #B1B3BC",
"C. c #BCBCBC",
"Z. c #B8C1BE",
"A. c #9DBDC2",
"S. c #A8BFC1",
"D. c #B5B8C1",
"F. c #B9BCC5",
"G. c #A0C1C6",
"H. c #ABC4C7",
"J. c #A3C4CA",
"K. c #A6C8CE",
"L. c #B8C3C5",
"P. c #ABCDD3",
"I. c #B5CFD2",
"U. c #AED0D6",
"Y. c #AED3D9",
"T. c #BDD4D5",
"R. c #B2D5DB",
"E. c #BAD8DB",
"W. c #B6DBE1",
"Q. c #BADDE2",
"!. c #BCE3EA",
"~. c #BDE4EA",
"^. c gray77",
"/. c #C3C5CC",
"(. c #C4CCCA",
"). c #CBCBCB",
"_. c #C7D1CE",
"`. c #C3C6D0",
"'. c #CBD6D3",
"]. c #C9D8D7",
"[. c #D5D5D5",
"{. c #D2DDDA",
"}. c #DADADA",
"|. c #D7E3DF",
" X c #C9DFE0",
".X c #C6E6EA",
"XX c #C2E6EC",
"oX c #DAE5E1",
"OX c #D3ECEC",
"+X c #C4EDF3",
"@X c #CAEDF3",
"#X c #C9F0F6",
"$X c #C7F1F8",
"%X c #CBF5FB",
"&X c #CEF8FF",
"*X c #D7F4F6",
"=X c #DAF3F5",
"-X c #D2F5FA",
";X c #D3F9FE",
":X c #DBFAFE",
">X c #E4E4E4",
",X c #E1EFEB",
"<X c #ECECEC",
"1X c #E3F1ED",
"2X c #E6F4F1",
"3X c #EBF8F4",
"4X c #E3FCFD",
"5X c #ECFEFC",
"6X c #F3F3F3",
"7X c #F2FFFB",
"8X c #FEFEFE",
/* pixels */
"&X&X&X&X&X&X5X7X7X7X7X7X7X5X&X&X&X&X&X&X&X&X&X&X&X&X&X:X5X;X&X&X&X&X&X&X&X&X&X&X&X&X&X&X&X&X4X7X7X7X7X7X7X5X;X&X&X&X&X&X&X&X&X&X",
"&X&X&X&X&X&X;X4X7X7X7X4X:X:X&X&X&X&X&X&X;X&X&X&X%X%X%X%X-X%X%X%X$X%X%X%X$X%X%X$X%X&X&X&X&X&X;X4X7X7X7X4X:X;X&X&X&X&X&X&X;X&X&X&X",
"&X&X&X&X&X&X&X;X4X4X4X;X&X&X&X&X&X&X&X&X&X&X;X-X@XW.E.E.E.W.W.W.W.W.W.W.W.W.E.W.W.~.+X&X&X&X&X;X4X4X4X:X&X&X&X&X&X&X&X&X&X&X;X:X",
"&X&X;X;X&X&X&X&X;X&X&X&X&X&X&X&X&X&X&X&X&X;X4XoXn.>.E E _ _ _ _ _ _ _ _ _ _ _ E E a.U.;X&X&X&X&X&X&X&X&X&X&X&X&X&X&X&X&X&X;X:X7X",
"&X&X4X4X;X&X&X&X&X&X&X&X&X&X&X&X&X&X&X%X~. X|.M.` e 9 0 0 0 0 0 0 0 0 9 0 9 0 9 0 U g.{.W.!.+X&X&X&X&X;X&X&X&X&X&X&X&X&X&X4X7X7X",
"4X5X5X7X4X;X&X&X&X&X&X&X&X&X&X&X&X&X%XXXj.] ) ) { q.e.0.e.e.0.e.e.e.e.e.e.e.e.e.0.<.' / ) r.R.%X&X&X&X&X&X&X&X&X&X&X&X&X:X5X7X7X",
"7X7X7X7X5X;X&X&X&X&X&X:X4X:X&X:X4X*X.XZ.7.S S ^ p.[.}.}.}.}.}.}.}.}.}.}.}.}.}.}.[.B.} S B ) l.R.+X&X&X;X:X:X;X:X4X:X4X:X5X7X5X4X",
"7X7X7X7X7X;X&X&X&X&X;X5X7X5X;X4X5X|.M.<.] } } p._.8X8X8X8X8X8X8X8X8X8X8X8X8X8X8X8X}.b.7.=.{ ` g.R.%X;X4X7X7X;X4X7X7X7X7X7X7X5X;X",
"7X7X7X5X5X;X&X&X&X;X5X7X7X5X;X&X4X(.<.g e.}.>X6X8X8X8X8X8X8X8X8X8X8X8X8X8X8X8X8X8X8X6X>X<Xc.S Y l.;X3X7X7X5X;X&X4X7X7X7X7X7X7X5X",
"7X7X4X;X;X;X&X&X;X5X7X7X4X;X&X&X4X(.] 6 y.6X8X8X8X8X8X8X8X8X8X8X8X8X8X8X8X8X8X8X8X8X8X8X8XB.N A l.4X7X7X5X;X&X&X4X7X7X7X7X7X5X:X",
"7X4X;X&X&X&X&X;X4X7X7X7X4X&X&X%XXXN.] S c.6X8X8X8X8X8X8X8X8X8X8X8X8X8X8X8X8X8X8X8X8X8X8X8XC.Q Y i.oX3X7X4X&X&X&X;X4X7X7X4X:X:X&X",
"5X;X&X;X:X;X;X4X7X7X7X5X:X&X&X!.f.{ } c.}.7X8X8X8X8X8X8X8X8X8X8X8X8X8X8X8X8X8X8X8X8X8X8X8X>XB.9.{ e.{.5X:X&X;X&X&X;X5X4X;X&X&X&X",
"&X&X&X:X5X5X7X7X7X7X5X:X&X&X&XR.E P 7.}.6X8X8X8X8X8X8X8X8X8X8X8X8X8X8X6X}.).^.).).}.<X8X8X8X>Xp.W F L.=X&X&X&X&X&X&X&X&X&X&X&X&X",
"&X&X&X&X;X;X5X7X7X5X:X&X&X&X&XP.P C 0.<X8X8X8X8X8X8X8X8X8X8X8X8X8X8X8X[.c.' ' ' ' p.).8X8X8X6Xb.G g N.%X&X&X&X&X&X&X&X&X&X&X&X&X",
"&X&X&X&X&X&X:X:X:X:X&X&X&X&X&XY.U C 0.<X8X8X8X8X8X8X8X8X8X8X8X8X8X8X8XC.^ # o o # S b.6X8X8X6Xc.G j A.%X&X&X&X&X&X&X&X&X4X4X4X4X",
"&X&X&X&X;X;X:X:X;X&X&X&X&X&X&XY.U C 0.6X8X8X8X8X8X8X8X8X8X8X8X8X8X8X8XB.G       . N b.8X8X8X8Xb.F j x.%X&X&X&X&X&X;X:X:X5X7X7X7X",
"&X&X&X&X;X7X7X7X5X;X;X&X&X&X&XR.P M ) ).6X8X8X8X8X8X8X8X8X8X8X8X8X8X8XB.G .     . N c.8X8X6X}.0.B h x.-X&X&X&X;X;X:X7X7X7X7X7X7X",
"&X&X&X;X5X7X7X7X7X7X5X:X&X&X&X'.I 5 9 ' ^.8X8X8X8X8X8X8X8X8X8X8X8X8X6XB.G .     . B c.8X8X}.0.M 3 g Z.=X&X&X&X4X7X5X7X7X7X7X7X7X",
"&X;X&X;X:X:X5X7X7X7X7X5X:X&X&XQ.9.N 2 6 } ^.<X7X8X8X}.C.B.).>X8X8X8X8X).<.w 9 9 w ] C.<X[.e.m 3 w ) _.4X4X&X&X;X5X7X7X7X4X;X:X:X",
"&X&X&X&X&X&X:X5X7X7X7X7X4X&X&XXXZ.` h + w } ).<X6X>Xc.' ^ e.^.8X8X8X6X>XC.y.y.y.y.B.[.}.p.B % 7 Q n.|.7X4X&X&X&X;X4X4X4X;X&X&X&X",
"&X&X&X&X&X&X&X:X5X7X7X7X4X;X&X&X#XA.Y # % S y.).[.B.' w 9 W b.6X>X}.6X6X6X6X6X6X6X6X6X)./ w 9 G i.'.2X7X5X;X&X&X&X&X&X&X&X&X&X;X",
"&X&X&X&X&X&X&X&X:X7X7X5X5X5X&X&X&XK.` 3 G 7.' H G ^ 7.p.p.C.}.}.y.0.).6X8X8X8X8X8X8X8X<XC.c.p.0.=.q.{.5X5X5X;X&X&X&X&X&X&X&X:X5X",
"5X5X:X&X&X&X&X&X;X;X;X:X4X7X4X;X&XG._ 9 y.).0.m % 9 p.>X6X<X[.c.M w 0.C.).).).).^.).).^.C.^.C.7.C V Z.&X4X5X5X;X&X&X&X&X&X&X&X:X",
"7X7X5X:X&X&X&X&X&X&X&X&X;X4X4X&X&XG._ w p.>X).7.m 9 p.6X8X}.y.B # # w S H S S G G G S G G H G w 4 e z.~.;X4X4X;X&X&X&X&X&X&X&X&X",
"5X4X5X4X&X&X&X;X;X&X&X&X&X&X&X&X&XY.r.K 9.).>XB.! 9 c.8X8X[.y.S m 6 % 2 0 M 3 3 m w 6 3 m m 3 # # q z.%X&X&X&X&X&X&X;X;X;X&X&X&X",
"&X;X;X&X&X&X&X4X5X;X&X&X&X&X&X&X&X~.H.t.) 7.).B.] w y.<X6X>XC.y.p.' 6 6 B ^ 3 2 G S 6 % H H : . # j A.%X&X&X&X&X&X&X;X5X:X&X&X&X",
"&X&X&X&X&X&X4X5X7X4X&X&X&X&X&X&X&X:X2X_.W w 7.0.G 5 } ).<X8X6X6X6X^.' ^ 7.e.w w 7.} S 6 0.0.w % 4 ~ H.&X&X&X&X&X&X;X5X7X5X:X&X&X",
"&X&X&X&X&X&X:X5X7X7X4X4X:X&X&X&X&X;X4X{.! % 9 0 3 # 9 ' ).6X8X8X8X6X^.p./ m % % w 9 2 # w w % w ] Z.OX:X:X&X&X&X&X;X4X5X7X5X:X&X",
"&X;X:X:X:X&X&X;X5X7X7X7X5X:X&X&X&X+XE.v.W 0 0 0 6 2 # 3 } ^.<X8X8X8X8X).7.B w m m m m m M 9 : V j.3X7X7X5X:X&X&X&X&X;X5X7X7X5X:X",
";X4X7X7X5X;X&X&X:X5X5X5X7X4X&X&X%XR.g.W ^ <.=.w.<.^ 7 o 7 ' C.6X8X6X6X<X).b.b.b.b.b.b.b.b.] 0 A k.3X7X5X5X5X;X&X&X&X;X5X7X7X7X5X",
"5X7X7X7X7X7X;X&X&X;X;X;X;X;X&X+XY.g.{ W w.V.F.F.D.d.( w a G 7.B.B.B.B.B.B.b.c.c.b.b.b.b.c.] 9 Z h.-X;X;X;X;X&X&X&X:X5X7X7X4X;X;X",
"7X7X7X5X:X:X;X;X&X&X&X&X&X&X&X!.t.) W =.v.F.L.`./.V.u.=.[ ( ^ L H L H H H W / / Q Q ^ ^ / B 7 A k.%X&X&X&X&X&X&X;X5X7X7X4X;X&X&X",
"4X4X4X:X&X&X&X&X&X&X&X&X&X&X&XT.! a C w.s.u.u.u.u.u.u.s.m.s.( 0 7 2 # X X # 7 7 % . o $ 7 q a E A.%X&X&X&X&X&X;X5X7X7X7X:X&X&X&X",
"&X&X;X&X&X&X&X&X&X&X&X&X&X&X;X'.W 3 : w a a w w a 0 a L s.m.d.<.8.L 3     2 ' } 9 . . 4 *.h.l.J.!.&X&X&X&X&X;X5X7X7X7X5X;X&X&X&X",
"&X&X&X&X&X&X&X;X&X&X&X&X&X;X5X|.e.M * . . . & ; ; < ; s Y 8.e.s.m.d.L 7 # 5 } } 9 % 2 C 1.J.~.$X&X&X&X&X&X;X5X7X7X7X5X;X&X&X&X&X",
"&X&X&X&X&X&X:X5X4X&X&X&X&X;X;X*XI.r.N o   @ u | o. . .| s a a F u.V.d.! 9 # 9 w * 7 D [ P *.I.2X4X&X&X&X&X;X;X:X:X;X:X&X&X:X4X5X",
";X&X&X;X4X:X5X7X:X&X&X&X;X:X:X&X+XS.R @ @ y X.;.:.:.:.$.v r $ : D u.m.w.B % a S S I ^ W 6 V Z.2X:X;X&X&X;X:X:X;X&X&X&X&X:X5X7X7X",
"&X&X&X:X7X7X5X:X&X&X;X;X4X7X7X:X%XG.E * u X.-.:.6.6.6.:.+.i & O 3 ! s.8.B 2 Q p.c.e.Q 0 # g N.OX&X&X;X;X4X7X7X:X&X&X&X&X4X5X7X7X",
"&X&X:X7X7X5X:X&X&X;X5X5X7X7X7X2XE.f.T d o.:.:.6.:.6.:.:.$.| i , ; s ( L w 3 } ).<XB.G o   M N.~.&X&X5X5X5X7X7X7X:X&X&X&X&X4X7X7X",
"&X4X7X5X:X;X&X&X;X5X7X7X7X7X7X|.e.J z +.:.:.6.:.6.:.:.-.k i k  .o.n s 3 # # 9 7.).b.G     j z.~.;X4X7X7X7X7X7X7X5X4X&X&X&X;X:X;X",
"&X:X4X:X&X&X&X;X4X7X7X7X7X5X:X].Y p l &.6.4.4.5.3.;.#.b i u k O.-.o.y = 6 B S 0.).B.H .   h z.+X4X7X7X7X7X7X4X:X4X:X&X&X&X&X&X&X",
"&X&X&X&X&X&X;X4X7X7X7X7X7X5X&XU.P p c &.6.5.4.5.3.%.l u l l k i o.o.r a / b.B.).>Xb.S .   h z.OX7X7X7X7X7X5X&X&X&X&X&X&X&X&X&X&X",
"&X&X&X&X&X&X4X7X7X7X7X7X7X5X&XU.P p l 3.5.5.4.5.3.&.v k O.| i ,  .o.r 7 H p.p.c.c.} w .   h N.,X7X7X7X7X5X5X;X&X&X&X&X&X&X&X&X&X",
"&X&X&X&X&X&X;X4X7X7X7X:X;X;X&XY.R p k &.4.4.5.5.5.;.@.+.-.O.u - | o.t = w H Q H S w %   X j z.OX7X7X7X4X;X;X&X&X&X&X&X&X&X&X&X&X",
"&X&X&X&X&X&X&X;X:X:X:X;X%X&X&X!.1.J z O.&.5.5.5.5.5.4.6.5.O.u - | o.r * 3 m B 6 # .   # 8 _ K.#X:X:X4X;X&X&X&X&X&X&X&X&X&X&X;X4X",
"&X&X;X;X&X&X&X&X&X&X&X&X&X&X&X$XW.f.T d  .;.3.5.3.5.4.5.5.o.u - | o.r a ' B.C.0.9 o . 5 ,.K.XX&X&X&X&X&X&X&X&X&X&X&X&X&X&X;X4X7X",
";X&X4X5X;X&X&X&X&X&X&X&X&X&X&X&X&XR.f.J x ..| | | | | | | l f k #.o.t 0 ^ b.b.7.9 o o m z.&X&X&X&X&X&X&X&X&X&X&X&X&X&X&X&X4X7X7X",
"5X5X7X5X5X;X&X&X&X&X&X&X&X&X&X&X&X$XR.h.J 1 < < < < < , , y v @.-.o.r * 3 m m 6 # . o w M.@X+X+X%X&X&X&X&X&X&X&X&X;X&X&X4X7X7X7X",
"7X7X7X7X5X;X&X&X&X&X&X:X5X:X;X4X4X4X1XT.W = , y u u u y y l +.-.#.k & X . o o .     . 3 [ a.f.S.W.&X&X:X4X4X;X4X4X4X4X4X5X7X7X7X",
"7X7X7X7X5X;X&X&X&X&X:X5X7X5X&X4X7X7X3X{.~ * y c | b b | b O.$.$.k ; O               + : g V V *.G.&X:X4X7X7X;X:X7X7X7X7X7X7X7X7X",
"7X7X7X5X5X;X&X&X&X;X7X7X7X4X&X&X4X7X3X'.Q > i b o. . . .X.O.X.k &                 # 3 w w 3 % V h.;X5X7X7X4X;X&X4X7X7X7X7X7X7X5X",
"7X7X4X;X&X&X&X&X;X7X7X7X4X;X&X&X4X7X3X'.Q # & > , , , ; - - - & X                 7 ! u.s.! 8 Z l.3X7X7X4X;X&X&X4X7X7X7X7X7X4X;X",
"7X4X;X&X&X&X&X:X5X7X7X7X4X&X&X&X;X4X3X'.I : 0 S G N 2 .                       o 7 ! d.`.`.w.q A j.7X7X7X4X&X&X&X;X4X7X7X4X;X;X&X",
":X;X&X;X4X:X:X5X7X7X7X5X;X&X&X&X&X;X=X].P 6 } B.^.c.m .     . + O o           5 ( s.V.F.F.8.M I M.3X7X5X:X&X&X&X&X;X:X4X;X&X&X&X",
"&X&X&X;X5X5X7X7X7X7X5X;X&X&X&X&X&X&X$XU.K 0 p.|.6X[.G .   % w I U j % X   o 7 ^ d.v.u.[ [ ^ ~ e._.7X5X:X&X&X&X&X&X&X&X&X&X&X&X&X",
"&X&X&X&X&X&X4X7X7X5X;X&X&X&X&X&X&X&X$XY.Y M p.[.<X).Q : % w ' n.N.1.q + o 5 ( d.m.u.( M h U t.(.,X7X-X;X&X&X&X&X&X&X&X&X&X;X&X;X",
"&X&X&X&X&X&X;X;X:X;X&X&X&X&X&X&X&X&X%XQ.t.~ 7.c.b.p.' G S Q e.N.XXG.V : 5 L d.V.u.[ K Z Z >.P.*X;X;X&X&X&X&X&X&X&X&X&X&X4X5X5X5X",
"&X&X&X&X&X:X4X4X:X&X&X&X&X&X&X&X&X;X4X=XoXM.) e 9 B e.^.).j.) P x.A.A a I d.V.u.D P 1.J.P.E.OX4X:X&X&X&X;X&X&X&X&X;X4X:X5X7X5X4X",
"&X&X;X&X:X5X7X7X5X;X:X;X&X&X&X;X:X4X7X7X7XoXs.V : % W y.p.] g 8 f.U.2._ I [ [ ! U 1.K.%X:X5X7X7X7X:X:X;X&X&X&X;X;X4X7X7X7X7X4X&X",
"&X&X&X;X5X7X7X7X7X7X7X:X&X&X;X5X7X7X7X7X5X3X.Xf.A : 7 m B w 5 q h.~.W.h.R a 0 Z r.U.+X;X5X5X7X7X7X7X7X:X&X&X&X4X7X7X7X7X7X7X4X&X",
"&X&X&X&X;X;X5X7X7X7X7X5X:X&X&X;X5X7X7X7X:X;X%XY.f.Y U R R Y R >.J.#X#XP.a.R U 1.P.XX&X&X;X;X4X7X7X7X7X5X4X&X&X;X4X7X7X7X:X;X;X&X",
"&X;X&X&X&X&X;X5X7X7X7X7X4X&X&X&X;X:X:X:X&X&X&X+XE.G.A.G.A.A.A.P.~.&X4X=X].H.S.U.+X%X&X&X&X&X;X4X7X7X7X7X4X&X&X&X:X:X:X:X;X&X&X&X",
"&X&X&X&X&X&X&X:X5X7X7X7X5X;X&X&X&X&X&X&X&X&X;X;X:X:X:X;X&X&X&X&X;X4X7X7X7X7X7X:X;X&X&X&X;X&X&X;X4X7X7X7X5X:X&X&X&X&X&X&X&X&X;X:X",
"&X&X&X&X&X&X&X&X;X7X7X7X7X5X&X&X&X&X&X&X&X&X&X;X5X7X7X4X&X&X&X&X:X7X7X7X7X7X7X7X;X&X&X&X&X&X;X&X;X7X7X7X7X5X;X&X&X&X&X&X&X&X:X5X"
};
