/* XPM */
static char *result[] = {
/* columns rows colors chars-per-pixel */
"64 64 211 2 ",
"   c #010102",
".  c #040609",
"X  c #06090A",
"o  c #0A0A0A",
"O  c #100F0F",
"+  c #060C12",
"@  c #080F17",
"#  c #0E1111",
"$  c #0A121C",
"%  c #131415",
"&  c #14191C",
"*  c #1B1C1C",
"=  c #1E201F",
"-  c #0C1622",
";  c #0E1926",
":  c #0F1C2A",
">  c #171D23",
",  c #111D2B",
"<  c #111F30",
"1  c #1D2122",
"2  c #1B2329",
"3  c #122133",
"4  c #1A2531",
"5  c #1E2936",
"6  c #15263A",
"7  c #16293F",
"8  c #1F2A38",
"9  c #232424",
"0  c #24262A",
"q  c #25292B",
"w  c #2B2C2C",
"e  c #2E302F",
"r  c #2A2E31",
"t  c #2B3233",
"y  c #2C343A",
"u  c #333334",
"i  c #353639",
"p  c #343B3C",
"a  c #3B3C3C",
"s  c #3E403F",
"d  c #192C44",
"f  c #192D45",
"g  c #1B314C",
"h  c #1D3553",
"j  c #1F3958",
"k  c #263748",
"l  c #343D41",
"z  c #3E3F41",
"x  c #273C53",
"c  c #213C5C",
"v  c #1F3F65",
"b  c #233F62",
"n  c #3B4243",
"m  c #3D474A",
"M  c #2F4559",
"N  c #384851",
"B  c #224165",
"V  c #2B4767",
"C  c #25456B",
"Z  c #364B64",
"A  c #244771",
"S  c #2A4B73",
"D  c #2B4F7A",
"F  c #304F76",
"G  c #2C517D",
"H  c #325278",
"J  c #444445",
"K  c #434749",
"L  c #434A4C",
"P  c #4A4B4B",
"I  c #444E53",
"U  c #4B4E53",
"Y  c #455254",
"T  c #4D5252",
"R  c #49575B",
"E  c #535354",
"W  c #535B5B",
"Q  c #5B5B5C",
"!  c #455969",
"~  c #535B62",
"^  c #5C5E63",
"/  c #556468",
"(  c #4A6170",
")  c #566973",
"_  c #5D747E",
"`  c #626465",
"'  c #636568",
"]  c #666C6D",
"[  c #6A6C6B",
"{  c #6C6E73",
"}  c #6A777A",
"|  c #737374",
" . c #787777",
".. c #757A7A",
"X. c #7A7B7B",
"o. c #2F5583",
"O. c #325887",
"+. c #325B8B",
"@. c #335E92",
"#. c #356195",
"$. c #37659B",
"%. c #38669E",
"&. c #3A6AA4",
"*. c #3C6EAA",
"=. c #3D70AD",
"-. c #3F73B3",
";. c #677D81",
":. c #7C7D83",
">. c #4075B5",
",. c #4177B8",
"<. c #427ABC",
"1. c #457EC2",
"2. c #6E8488",
"3. c #728183",
"4. c #7A8383",
"5. c #768A8D",
"6. c #768E92",
"7. c #7C8E90",
"8. c #7A9195",
"9. c #7B959B",
"0. c #7C9599",
"q. c #7E9AA1",
"w. c #4681C7",
"e. c #4782C9",
"r. c #4884CC",
"t. c #4A87D0",
"y. c #4B89D3",
"u. c #828383",
"i. c #8C8D8D",
"p. c #8A928F",
"a. c #858B91",
"s. c #898B92",
"d. c #889697",
"f. c #819A9E",
"g. c #949595",
"h. c #989C9D",
"j. c #97A19F",
"k. c #839DA1",
"l. c #979AA1",
"z. c #9C9EA4",
"x. c #88A1A6",
"c. c #8BA6AA",
"v. c #8CA9AE",
"b. c #9CA3A3",
"n. c #98A6A9",
"m. c #8EABB1",
"M. c #92AFB3",
"N. c #96B4B9",
"B. c #99B6BA",
"V. c #9BB7BB",
"C. c #A3A3A3",
"Z. c #A2A6AB",
"A. c #A3ADAB",
"S. c #ACACAC",
"D. c #AAAFB4",
"F. c #A8B7B8",
"G. c #B4B4B4",
"H. c #B1B3BC",
"J. c #B2BBB8",
"K. c #BBBBBC",
"L. c #C0BFBF",
"P. c #BCBFC8",
"I. c #9FC1C6",
"U. c #A4C4C9",
"Y. c #BCC7C7",
"T. c #AACDD3",
"R. c #AED1D7",
"E. c #B2D6DC",
"W. c #B9D6D9",
"Q. c #B4D8DE",
"!. c #B6DCE2",
"~. c #B9DEE4",
"^. c #BBE1E7",
"/. c #BDE4EA",
"(. c #C4C4C4",
"). c #C1C9CC",
"_. c #CCCCCC",
"`. c #C1D1CF",
"'. c #C4C7D1",
"]. c #C5C9D2",
"[. c #C2DBDC",
"{. c #CDDEDC",
"}. c #D4D4D4",
"|. c #D1DDDA",
" X c #DBDBDB",
".X c #D5E2DE",
"XX c #C7DFE0",
"oX c #C4E6EB",
"OX c #C1E7ED",
"+X c #D8E8E6",
"@X c #DCF0EF",
"#X c #C4ECF3",
"$X c #CAECF1",
"%X c #CAF0F6",
"&X c #C7F1F8",
"*X c #CCF6FD",
"=X c #CEF8FF",
"-X c #D7F4F6",
";X c #D3F9FE",
":X c #DBFAFE",
">X c #E3E3E3",
",X c #E2EEEA",
"<X c #EBEBEB",
"1X c #E5F1ED",
"2X c #E9F5F1",
"3X c #E9F7F4",
"4X c #E3FCFD",
"5X c #ECFEFC",
"6X c #F3F3F3",
"7X c #F2FFFB",
"8X c #FFFFFF",
/* pixels */
"=X=X=X=X=X=X5X7X7X7X7X7X7X5X=X=X=X=X=X=X=X=X*X;X=X=X=X:X5X;X=X=X=X=X=X=X=X=X=X=X=X=X=X=X=X=X4X7X7X7X7X7X7X5X;X=X=X=X=X=X;X=X=X=X",
"=X=X=X=X=X=X;X4X7X7X7X4X:X:X=X=X=X=X=X;X=X=X*X*X#X#XOX$X$X#X#XOX#X#XOX#X#X#X#XOXOX&X=X=X=X=X;X4X7X7X7X4X:X;X=X=X=X=X=X=X=X=X=X=X",
"=X=X=X=X=X=X=X;X4X4X4X;X*X=X=X=X=X=X=X=X=X=X;XW.n.9.0.0.8.0.0.8.8.8.0.8.0.0.8.0.x.T.*X*X=X=X=X;X4X4X4X:X=X=X=X=X=X=X=X=X=X=X;X:X",
"=X=X;X;X=X=X=X=X;X=X=X=X=X=X=X=X=X=X=X&XOX/.[.A.W n n s n n m n m n n m n n n n Y 7.E.oX/.&X=X=X=X=X=X=X=X=X=X=X=X=X=X=X=X;X:X7X",
"=X=X4X4X;X=X=X=X=X=X=X=X=X=X=X=X;X=X*XT.c.p.u.4.| | | | | | | | | | | | | | | | | | 3.7.x.U.OX=X=X=X=X=X=X=X=X=X=X=X=X=X=X4X7X7X",
"5X4X5X7X4X;X=X=X=X=X=X*X=X=X=X=X=X%X^.x.] T W X.G.Y.(.(.(.(.(.(.(.(.(.(.(.(.(.Y.G.i.Q P / f.R.&X=X=X;X=X=X=X=X=X=X=X=X=X:X5X7X7X",
"7X7X7X7X5X;X=X=X=X=X=X:X4X:X=X:X-X[.n.X.' ^ [ h.<X8X8X8X8X8X8X8X8X8X8X8X8X8X8X8X<XK.| ` ` ..x.T.#X=X=X;X:X:X;X:X4X:X4X:X5X7X5X4X",
"7X7X7X7X7X;X*X=X=X=X;X5X7X5X;X4X,XF.T | S. X>X<X7X8X8X8X8X8X8X8X8X8X8X8X8X8X8X8X8X6X X.XL.X.R 6.OX=X;X4X7X7X;X4X7X7X7X7X7X7X5X;X",
"7X7X7X5X5X;X=X=X=X;X5X7X7X4X;X=X@XA.w ` (.8X8X8X8X8X8X8X8X8X8X8X8X8X8X8X8X8X8X8X8X8X8X8X}.X.z 2.OX;X5X7X7X5X;X=X4X7X7X7X7X7X7X5X",
"7X7X4X;X;X;X=X=X;X5X7X7X5X;X=X#X{.j.s  ._.6X8X8X8X8X8X8X8X8X8X8X8X8X8X8X8X8X8X8X8X8X8X8X}.i.U } W.@X5X7X5X;X=X=X4X7X7X7X7X7X5X:X",
"7X4X;X=X=X=X=X;X4X7X7X7X4X*X#XR.c.X.X.S.>X7X8X8X8X8X8X8X8X8X8X8X8X8X8X8X8X8X8X8X8X8X8X8X<XK.u.} d.).<X7X4X=X=X=X;X4X7X7X4X:X:X*X",
"5X;X=X;X:X;X;X4X7X7X7X5X:X*X#XM./ ' G.>X6X8X8X8X8X8X8X8X8X8X8X8X8X8X8X8X8X8X8X8X8X8X8X8X6X>X(.X.T b.+X5X:X=X=X=X=X;X5X4X;X=X=X=X",
"=X=X=X;X5X5X7X7X7X7X5X:X=X=X^.q.K Q }.8X8X8X8X8X8X8X8X8X8X8X8X8X8X8X8X8X8X8X8X8X8X8X8X8X8X6X>XX.w p.|.:X=X=X=X=X=X=X=X=X=X=X=X=X",
"=X=X=X;X;X;X5X7X7X5X:X=X=X=X/.k.L E }.6X8X8X8X8X8X8X8X8X8X8X8X8X8X8X8X8X8X8X8X8X8X8X8X8X8X8X XX.e p.[.*X=X=X=X=X=X=X=X=X=X=X=X=X",
"=X=X=X=X=X=X;X:X:X:X=X=X=X=X/.k.L W }.8X8X8X8X8X8X8X8X8X8X8X8X8X8X8X8X8X8X8X8X8X8X8X8X8X8X8X XX.e 7.Q.*X=X=X=X=X;X=X=X=X:X5X4X4X",
"=X=X=X=X;X:X:X:X;X=X=X=X=X=X/.q.K W }.6X8X8X8X8X8X8X8X8X8X8X8X8X8X8X8X8X8X8X8X8X8X8X8X8X8X6X XX.e 6.Q.*X=X=X=X=X*X;X:X:X5X7X7X7X",
"=X=X=X=X;X7X7X7X5X;X;X=X=X=X/.f.L Q }.7X8X8X8X8X8X8X8X8X8X8X8X8X8X8X8X8X8X8X8X8X8X8X8X8X8X8X.XX.w 5.W.=X=X=X=X;X;X:X7X7X7X7X7X7X",
"=X=X=X;X5X7X7X7X7X7X5X:X=X=XOXA.` ^ L.<X6X8X8X8X8X8X8X8X8X8X8X8X8X8X8X8X8X8X8X8X8X8X8X8X6X<X_.X.L j..X:X=X*X;X4X5X5X7X7X7X7X5X7X",
"=X=X=X;X:X:X5X7X7X7X7X5X:X=X#XT.d...i.K.<X8X8X8X8X8X8X8X8X8X8X8X8X8X8X8X8X8X8X8X8X8X8X8X<X(.g. .4.L.1X5X:X;X=X;X5X7X7X7X4X;X:X:X",
"=X=X;X=X=X=X:X5X7X7X7X7X4X*X=X#XY.7.s .._.6X8X8X8X8X8X8X8X8X8X8X8X8X8X8X8X8X8X8X8X8X8X8X Xi.P ] Y.,X7X7X4X=X=X=X:X4X4X4X;X=X=X=X",
"=X=X=X=X=X=X=X:X5X7X7X7X4X;X%XT.8.L % ` (.6X8X8X8X8X8X8X8X8X8X8X8X8X8X8X8X8X8X8X8X8X8X8X}. .q p 4.).1X7X5X;X=X=X=X=X=X=X=X=X=X;X",
"=X=X=X=X=X=X=X=X:X7X7X5X7X5XOXv.Y * 0 X._.6X8X8X8X6X>X X X X}. X X}. X X X X>X<X6X8X8X8X Xi.a * p j..X5X7X5X;X*X;X=X=X=X=X=X:X5X",
"5X5X:X=X=X=X=X=X=X;X:X;X4X7X+Xf.m w [ G.<X6X8X8X8X(.g. . . . . .|  . . . .| i.K.<X8X8X8X<XL.X.a = 7.W.;X:X7X5X;X=X=X=X=X=X=X;X;X",
"7X7X5X:X=X=X=X=X=X=X=X=X;X4XoXk.m P K.<X6X8X8X6X}.u.J 9 w u J J P P J i w 9 a | (.6X6X8X8X<X(.[ 9 6.Q.*X;X4X4X;X=X=X=X=X=X=X=X=X",
"5X4X5X4X=X=X=X;X;X=X=X=X=X=X^.k.m Q |.8X8X8X6X}.i.J O     w ` |  .| [ a     o a X.(.6X8X8X6X>Xu.e 6.Q.*X=X=X=X=X=X=X;X;X;X=X=X=X",
"=X;X;X=X=X=X=X4X5X=X=X=X=X;X/.v.W Q L.>X<X6X<XG.T w % o % E G.>X<X>XL.| * o O 9 J g.<X6X6X>X(.X.n f.!.=X=X=X=X=X=X=X;X5X:X=X=X=X",
"=X=X=X=X=X=X4X5X7X4X;X=X=X=X&XE.c.4. .| u.S.>X XC.g.u.E 9 w | (.>X_.u.s * P  .g.C._.<XK.i.| | 4.h.`.$X=X=X=X=X=X=X;X5X7X5X:X=X=X",
"=X=X=X*X=X=X:X5X7X7X4X4X;X*X=XOXI.3.i & w ` S.}.L.(.C.[ 9   9 X.C.u.a o O Q h.L.(._.(.| u * e [ J.+X4X4X:X=X=X=X=X;X4X5X7X5X:X=X",
"=X;X:X:X:X=X=X;X5X7X7X7X5X;X#XT.6.m & . o w Q  . . .[ J %   X i U z %   o a `  . . .` i # . # s 4.Y.<X7X5X:X=X=X=X=X;X7X7X7X5X:X",
";X4X7X7X5X;X=X=X:X5X5X5X5X1XT.q.! 8 : + o o & w s J z i 0 9 9 r u r 0 9 = u s J z u = o . + - 4 N 7.Y.@X3X5X;X=X=X=X;X5X7X7X5X5X",
"5X7X7X7X7X7X:X=X=X;X;X;X*XT.0.( V B B 7 +     * P Q ^ ^ ` ^ ' ^ ^ ^ ^ ' ' ^ Q Q U r     X 6 c C V Z 5.U.$X=X=X=X=X;X5X7X7X4X;X;X",
"7X7X7X5X:X:X;X=X=X=X=X&X!.6.N x #.w.,.H 6 @ & m a.l.z.Z.D.P.H.H.H.H.D.P.H.Z.C.z.a.W 2 + < C *.w.*.g N } T.&X*X=X:X5X7X7X4X;X=X=X",
"4X4X4X:X=X=X=X=X=X=X&XT.2.n > f &.t.1.=.O.D S Z U U ^ :.H.].'.'.'.].].].P.s.` U U ! V S O.&.1.y.>.h , y } B.&X;X4X7X7X7X:X=X=X=X",
";X=X=X=X=X=X=X=X=X=X&XN.n & : M &.t.t.>.&.*.*.+.k < y ~ s.Z.z.z.z.z.z.z.l.' l < d S *.&.&.-.1.t.<.C < % y 9.#X5X7X7X7X5X;X=X=X=X",
"=X=X=X=X=X=X=X;X=X=X/.m.8 : c @.>.t.1.@.D +.*.*.o.v V Z U U T E E U E U U Z V A D &.<.@.D +.1.t.1.$.C 6 r 2.@X7X7X7X5X;X=X*X=X=X",
"=X=X=X=X=X=X:X5X:X#XT.6.l B +.w.1.1.&.v d g O.*.>.,.*.G x 8 8 8 r 5 r 6 k F &.>.-.-.@.h 6 c @.,.1.1.%.C k } T.oX:X:X;X=X*X:X5X5X",
"=X=X=X;X:X4X5X7X-XT.6.( F #.,.t.1.&.C < + $ g +.1.y.1.&.D v v v v v v v b $.1.y.1.#.c - + ; c @.1.y.1.%.H ! 2.U./.=X=X=X:X5X7X7X",
"=X=X;X:X7X7X5X:X/.c.Y d #.w.e.r.1.@.d @ . . : b >.1.t.1.1.<.1.<.1.1.1.1.1.1.1.1.,.D < +   + 6 D <.e.y.1.>.c i d.^.=X=X;X4X5X7X7X",
"=X=X:X7X7X5X:X=X/.c.m 7 %.e.r.e.1.-.o.d - : b &.1.t.t.1.e.r.r.r.1.y.1.y.1.y.y.1.1.&.S 3 $ 6 S &.1.e.t.e.&.h 0 d.XX=X=X=X=X4X7X7X",
"=X4X7X5X:X;X=X=XoXb.m 7 &.e.t.r.1.1.<.b < d @.1.1.1.t.1.e.r.e.e.y.1.y.1.y.1.y.1.r.1.*.g , c *.e.1.r.t.r.>.x 2 g..X:X=X=X=X;X;X;X",
"=X:X4X:X=X=X=X;X+Xn.T 6 %.e.r.e.t.t.1.S 6 g &.t.r.w.e.e.e.e.e.e.1.1.y.1.t.1.t.1.t.y.1.j 6 b >.y.e.e.r.e.*.c 4 d.oX:X;X=X=X=X=X=X",
"=X=X=X=X=X=X;X4X<XJ.] M O.=.w.r.1.1.&.C g C &.t.e.e.e.e.e.e.e.e.1.y.y.1.1.t.1.t.t.1.<.A g b #.<.e.t.e.>.+.V Y v.^.*X=X=X=X=X=X=X",
"=X=X=X=X=X=X4X7X3X|.n.} Z o.=.e.1.&.C b D @.-.t.e.e.e.e.w.e.e.e.1.1.1.y.t.1.1.t.1.t.1.$.D b C +.<.r.>.+.Z ) q.R.$X=X=X=X=X=X=X=X",
"=X=X=X=X=X=X;X4X7X7X,XF.R M +.=.&.A : h @.1.t.1.e.e.e.e.e.e.e.e.y.y.1.1.1.t.1.1.t.1.t.1.&.b < h $.>.#.V Y f.^.*X=X=X=X=X=X=X=X=X",
"=X=X=X=X=X=X=X;X:X:X:X^.M._ M g d : + h &.t.t.1.r.r.r.r.r.r.r.r.y.1.t.t.1.t.1.t.1.r.r.t.-.b - $ 7 g x ) x.E.*X=X=X=X=X;X=X=X;X4X",
"=X=X;X;X=X=X=X=X=X=X=X*X/.m.( t $ .   d o.-.1.t.r.,.&.$.$.$.$.$.&.&.@.&.&.&.&.-.1.t.1.<.+.h +   o 2 R q.!.*X*X=X=X=X=X=X=X;X4X7X",
";X;X4X5X=X=X=X=X=X=X=X=X=X!.m./ 1     $ d D -.t.w.+.B g g g g g g g g g f d j O.1.r.1.O.h - .   # Y k.R.#X;X=X=X=X=X=X=X=X4X7X5X",
"5X5X5X7X5X;X=X=X=X=X=X=X=X*XE.6.t       $ d o.&.#.j : + + + + + + + + + + + - h +.&.+.g - . . & N k.E.&X=X=X=X=X=X=X=X=X4X7X7X7X",
"7X7X7X7X7X;X=X=X=X=X;X:X4X4XOXn.s         $ 7 h g ; .                       . - f g f $ . . % m f.R.&X:X5X4X=X4X4X4X4X4X7X7X7X7X",
"7X7X7X7X5X;X=X=X=X=X:X5X7X5XoXB.W * o                                             . .     . 1 ;.^.=X;X5X7X5X;X:X5X7X7X7X7X7X7X7X",
"7X7X7X5X4X;X=X=X=X;X5X7X7X4X%X~.F.] =                                                       1 ;.OX;X5X7X7X5X;X=X4X7X7X7X7X7X7X5X",
"7X5X4X;X;X=X=X=X;X7X7X7X4X=X;X=X+Xj.w X                       > w 9 o                   o 1 Y k.$X5X7X7X4X=X=X=X4X7X7X7X7X7X4X;X",
"7X4X;X=X=X=X=X:X5X7X7X7X4X=X*X*X/.n.e         X . . X X . . o Y } W 1 . o o o o o o X   * Y q.R.2X5X7X7X5X=X=X=X;X:X7X7X:X:X;X=X",
"4X;X=X;X:X:X:X5X7X7X7X5X;X;X&X^.V.} 1 . . % w u u u u i w * % ..m.2.t = s J P J J J a = t } W.3X7X7X7X4X:X=X=X=X=X;X4X4X;X=X=X=X",
"=X=X=X;X5X5X5X7X7X7X5X;X=X=X#XU.} y o   o u ' :.X.:.:.:.| P = u.J.9.s J i.C.C.C.C.C.g.P s 4.|.7X3X7X5X:X=X=X=X=X=X=X=X=X=X=X=X=X",
"=X=X=X=X=X;X4X7X7X5X;X=X=X=X/.N./ 1 o   % U l.Y.P.P.Y.P.D.{ 0 :.F.6.n E G.(._.>X6X8X>X| s / n.`.).+X-X*X=X=X=X=X=X=X=X=X=X=X=X;X",
"=X=X=X=X=X=X;X;X;X:X=X=X=X=X*X^.N.) *   % T l.'.).).'.].D.| 9 4.N.6.y 9 J J [ C.<X8X<X .e 2 s m W M.^.=X=X=X=X=X=X=X=X=X4X5X5X5X",
"=X=X=X=X=X:X4X4X:X=X=X=X=X=X=X*X/.M.W w & p | p.a.s.s.s.4.] W c.I.6.q X o o 9 Q S.>X<XC.^ w O o 1 6.Q.=X=X=X=X=X=X;X:X4X5X7X5X4X",
"=X=X;X=X:X5X7X7X5X:X:X;X=X=X=X;X:X+XF.' w q a L K K K K U ] x.Q.R.6.2       o 9 Q C.>X}.C.E = o = 7.W.;X=X=X=X;X:X4X7X7X7X7X4X=X",
"=X=X=X;X5X7X7X7X7X5X5X:X=X*X;X5X7X7X,XA.[ P L Y I U Y Y ~ 8.Q.*XQ.2.q         o = Q C.J.j. .E J Q A.+X:X;X=X=X4X5X7X7X7X7X7X4X=X",
"=X=X;X=X;X;X5X7X7X7X7X5X:X=X=X;X5X7X7X.XP.c.c.c.v.c.c.c.M.T.*X=XQ.5.t   X o o o + q T W [ 5.b.S.F.|.2X7X4X=X=X;X5X7X7X7X:X;X;X=X",
"=X=X=X=X=X=X;X5X7X7X7X7X4X=X=X=X;X;X:X:X&X*X*X=X*X=X*X*X*X=X*X=X^.c.W u p a p p s s s y W 9.^.4X7X7X7X7X4X=X=X=X;X:X:X:X;X=X=X=X",
"=X=X=X=X=X=X=X:X5X7X7X7X5X;X=X=X=X=X=X=X*X=X=X;X:X:X:X=X=X=X=X*X%XXXY.J.J.J.J.V.V.V.N.N.I.Q.%X;X4X7X7X7X5X:X=X=X=X=X=X=X=X=X;X:X",
"=X=X=X=X=X=X=X=X;X7X7X7X7X5X=X=X=X=X=X=X=X=X=X;X7X7X7X4X=X=X=X*X:X5X2X2X3X2X3X3X%X#X&X#X#X*X*X*X;X7X7X7X7X5X;X=X=X=X=X=X=X=X:X5X"
};
