/* XPM */
static char *result[] = {
/* columns rows colors chars-per-pixel */
"64 64 203 2 ",
"   c #010101",
".  c #04070A",
"X  c #05090C",
"o  c #0B0B0C",
"O  c #070C13",
"+  c #090E15",
"@  c #0C1117",
"#  c #141414",
"$  c #12161B",
"%  c #161A1C",
"&  c #1C1C1C",
"*  c #0C1622",
"=  c #0E1A29",
"-  c #171D24",
";  c #101D2C",
":  c #111F31",
">  c #1D2224",
",  c #18212C",
"<  c #15273C",
"1  c #16293E",
"2  c #242524",
"3  c #222629",
"4  c #25292A",
"5  c #2B2C2C",
"6  c #252D35",
"7  c #2D3334",
"8  c #2D3639",
"9  c #333334",
"0  c #353B3B",
"q  c #3C3C3D",
"w  c #162A41",
"e  c #182D45",
"r  c #1A2F49",
"t  c #1B324D",
"y  c #1D3553",
"u  c #1E3958",
"i  c #293544",
"p  c #343D44",
"a  c #3A3F41",
"s  c #253B53",
"d  c #213C5D",
"f  c #223F61",
"g  c #394245",
"h  c #3E494A",
"j  c #2B4058",
"k  c #364A59",
"l  c #244164",
"z  c #2D4663",
"x  c #25456B",
"c  c #2C496C",
"v  c #344C65",
"b  c #33506F",
"n  c #274972",
"m  c #2A4D76",
"M  c #2B4F79",
"N  c #2D517E",
"B  c #444444",
"V  c #44474B",
"C  c #424B4D",
"Z  c #4B4C4C",
"A  c #504F4E",
"S  c #4D504F",
"D  c #434D53",
"F  c #445153",
"G  c #4D5253",
"H  c #455358",
"J  c #4C5B5D",
"K  c #545454",
"L  c #545A5B",
"P  c #5A5A5A",
"I  c #495867",
"U  c #4D5E64",
"Y  c #565C63",
"T  c #576467",
"R  c #5C6262",
"E  c #5A6A6D",
"W  c #556C75",
"Q  c #596B73",
"!  c #636363",
"~  c #64656A",
"^  c #656B6B",
"/  c #6B6C6C",
"(  c #706F6F",
")  c #6B716F",
"_  c #657274",
"`  c #6B7375",
"'  c #6A7A7C",
"]  c #747575",
"[  c #757A7B",
"{  c #7B7B7C",
"}  c #7D817F",
"|  c #80807E",
" . c #2D5483",
".. c #2F5889",
"X. c #325986",
"o. c #315A8B",
"O. c #335F93",
"+. c #356195",
"@. c #36649B",
"#. c #38669E",
"$. c #3867A0",
"%. c #3969A3",
"&. c #3C6EAA",
"*. c #3E71AE",
"=. c #3E72B1",
"-. c #5D7784",
";. c #6B7E81",
":. c #7A7E83",
">. c #4075B5",
",. c #4177B8",
"<. c #437ABD",
"1. c #457EC2",
"2. c #6D8387",
"3. c #738284",
"4. c #7D8383",
"5. c #74888A",
"6. c #798F92",
"7. c #7B9296",
"8. c #7C9599",
"9. c #7E999D",
"0. c #4680C6",
"q. c #4782CA",
"w. c #4985CE",
"e. c #4A87D1",
"r. c #4A88D2",
"t. c #848484",
"y. c #818389",
"u. c #848A8A",
"i. c #8C8C8C",
"p. c #8A8D93",
"a. c #8B9697",
"s. c #859A9D",
"d. c #949494",
"f. c #929A9A",
"g. c #9B9B9B",
"h. c #98A09D",
"j. c #839EA2",
"k. c #8AA4A8",
"l. c #89A5AA",
"z. c #93A6A7",
"x. c #9BA4A4",
"c. c #8FACB1",
"v. c #91AEB2",
"b. c #94B1B6",
"n. c #96B5BA",
"m. c #9CB7BB",
"M. c #A4A3A3",
"N. c #A2A9AA",
"B. c #ABABAB",
"V. c #ACB0AE",
"C. c #A8AAB2",
"Z. c #A9B7B7",
"A. c #B5B5B5",
"S. c #B4BAB8",
"D. c #BCBCBC",
"F. c #B7C1BE",
"G. c #9DBCC1",
"H. c #A1BDC1",
"J. c #A5C5CA",
"K. c #A4C5CB",
"L. c #B7C7C7",
"P. c #AACCD2",
"I. c #AFD2D8",
"U. c #B2D5DB",
"Y. c #B8D4D8",
"T. c #B6DBE1",
"R. c #BADEE2",
"E. c #BAE0E6",
"W. c #BFE6EC",
"Q. c #C4C4C4",
"!. c #C2CDCA",
"~. c #CCCCCC",
"^. c #C1D0CF",
"/. c #C8D9D7",
"(. c LightGray",
"). c #D4DEDB",
"_. c #DBDBDB",
"`. c #D5E1DD",
"'. c #C2DEE1",
"]. c #C6E4E7",
"[. c #C2E5EB",
"{. c #C1E8EF",
"}. c #D9E9E7",
"|. c #DEF0EE",
" X c #C5EDF4",
".X c #CBEDF2",
"XX c #C7F0F7",
"oX c #CAF0F6",
"OX c #CCF5FC",
"+X c #CEF8FF",
"@X c #D7F4F6",
"#X c #D3F9FE",
"$X c #DBFAFE",
"%X c #E4E4E4",
"&X c #EBEBEB",
"*X c #E5F1ED",
"=X c #E7F6F3",
"-X c #ECFAF6",
";X c #E3FCFD",
":X c #ECFEFC",
">X c #F4F4F4",
",X c #F2FFFB",
"<X c #FEFEFE",
/* pixels */
"+X+X+X+X+X+X:X,X,X,X,X,X,X:X+X+X+X#X+X+X+X+X+XXXW.W.W..X}.{.{.{.W.W.W.W.W.W.W.W. XOX+X+X+X+X;X,X,X,X,X,X,X:X#X+X+X+X+X+X+X+X+X+X",
"+X+X+X+X+X+X#X;X,X,X,X;X$X$X+X+X+X+X+X+X+X+X XP.v.k.k.k.k.l.l.l.l.l.l.l.l.l.l.l.J.E.+X+X+X+X#X;X,X,X,X;X$X#X+X+X+X+X#X+X+X+X+X+X",
"+X+X+X+X+X+X+X#X;X;X;X#X+X+X+X+X+X+X+XXX X XU.a.R h h C C C C C C C C C D C h D 5.K.{. X X+X+X#X;X;X;X$X+X+X+X+X+X+X+X+X+X+X#X$X",
"+X+X#X#X+X+X+X+X#X+X+X+X+X+X+X+X+X+X XU.c.z.s.[ R P K K L K K K K K K K K K K K _ 6.l.c.J. X+X+X+X+X+X+X+X+X+X+X+X+X+X+X+X#X$X,X",
"+X+X;X;X#X+X+X+X+X+X+X+X+X+X+X+X+XOXU.k.h 5 V t.F._.(.(.(.(.(.(.(.(.(.(.(.(.(.(.d.L 7 q 2.U.XX+X+X+X+X+X+X+X+X+X+X+X+X+X+X$X,X,X",
";X:X:X,X;X#X+X+X+X+X+X+X+X+X+X+XXXP.k.' ] / t.D.%X<X>X<X<X>X>X<X<X>X>X<X>X<X<X>XQ.d.( ( [ 7.G.W.+X+X#X+X+X+X+X+X+X+X+X+X$X,X,X,X",
",X,X,X,X:X#X+X+X+X+X+X$X;X$X+X$X}.k.^ / A.Q.~.&X<X<X<X<X<X<X<X<X<X<X<X<X<X<X<X<X&X(.Q.D.t.G 8.U.+X+X+X#X$X$X#X$X$X$X;X;X:X,X:X;X",
",X,X,X,X,X#X+X+X+X+X#X:X,X:X#X;X}.u.G / %X<X<X<X<X<X<X<X<X<X<X<X<X<X<X<X<X<X<X<X<X<X<X>Xd.0 ;.K.+X+X#X;X,X,X#X;X,X,X,X,X,X,X:X#X",
",X,X,X:X:X#X+X+X+X#X:X,X,X;X+XOX/.4.L [ &X<X<X<X<X<X<X<X<X<X<X<X<X<X<X<X<X<X<X<X<X<X<X>XM.B ' m.XX+X:X,X,X:X#X+X;X,X,X,X,X,X,X:X",
",X,X;X#X#X#X+X+X#X:X,X,X:X#XOXP.f.[ t.V.&X<X<X<X<X<X<X<X<X<X<X<X<X<X<X<X<X<X<X<X<X<X<X<XQ.t.' 7.H.|.,X,X:X#X+X+X;X,X,X,X,X,X:X#X",
",X;X#X+X+X+X+X#X;X,X,X,X;X+X Xj.G ] D.>X<X>X&X&X&X&X&X>X<X<X<X<X<X<X<X<X>X&X&X&X&X&X>X>X<X_.{ L 3.}.,X,X;X+X+X+X#X;X,X,X;X$X$X+X",
":X#X+X#X$X#X#X;X,X,X,X:X$X+X X8.a ] ~.<X>XD.i.{ ] { i.~.>X<X<X<X<X<X<X<X_.M.{ ] ] t.B.%X<X&Xt.G / ).,X,X$X+X+X+X+X#X:X:X#X+X+X+X",
"+X+X+X$X:X:X,X,X,X,X:X#X+X+X X6.q [ ~.<X&Xd.B 5 2 4 q B.&X<X<X<X<X<X<X>XD.! 4 4 2 0 ] _.<X&Xt.S / `.:X$X+X+X+X+X+X+X#X+X+X+X+X+X",
"+X+X+X+X#X#X:X,X,X:X$X+X+XOX X8.g ] ~.<X&X] &       & g.&X<X<X<X<X<X<X>XA.B       # P ~.<X&Xt.K ( `.$X#X+X+X+X+X+X+X+X+X+X+X+X+X",
"+X+X+X+X+X+X#X$X$X$X+X+X+XOX X8.g ] ~.<X&X{ &       & g.%X<X>X&X%X>X<X&XA.B       # P ~.<X&Xt.G E ].#X+X+X+X+X+X+X+X+X+X$X:X;X;X",
"+X+X+X+X#X$X$X$X#X+X+X+X+X+X X7.0 ] ~.<X&X{ &       & g.&X<X%XB.d._.<X>XA.B       # P ~.<X>Xt.Z E T.+X+X+X+X+X+X+X#X$X$X:X,X,X,X",
"+X+X+X+X#X,X,X,X:X#X#X#X+XOX Xl.L [ S.&X&Xd.B 5 2 2 B B.&X%XB.P q g.(.&XQ.! 2 2 2 q { (.>X(.4.! u.].#X+X+X+X+X#X#X$X,X,X,X,X,X,X",
"+X+X+X#X:X,X,X,X,X:X:X$X+X+XOX/.N.4.| M.%X(.B.g.d.g.B._._.g.A & # q i.~._.D.g.g.g.M.Q.%XQ.} { h.!.=X:X$X+X+X+X;X,X:X,X,X,X,X,X,X",
"+X+X+X#X$X$X:X,X,X,X,X:X$X+XOX].Z.^ Z ] %X_.Q.(._.%X&X<X_.d.K q q B t.~.>X&X%X%X~.~.(.%XM.q R g.(.-X,X:X;X+X+X#X:X,X,X,X$X#X$X$X",
"+X+X+X#X+X+X$X:X,X,X,X,X;X+XXXK.} p 7 ^ (.A.g.D.&X<X>X>X%XA.d.i.i.i.B.(.>X<X<X>XQ.M.M.(.f.5 8 ` V.*X,X,X;X+X+X+X#X;X;X;X#X+X+X+X",
"+X+X+X+X+X+X+X$X:X,X,X,X;X#XXX9.7 & q i.(.| q ( A.(.~.~.~.~.Q.Q.~.Q.~.~.~.~.(.~.{ Z P Q.V.A & 5 ' `.,X,X:X#X+X+X+X+X+X+X+X+X+X#X",
"+X+X+X+X+X+X+X+X$X,X,X,X,X;X X7.9 Z d.(.%X{ 2 2 Z P K P K P P P P P P K P K P K 5 2 P Q.%XB.P 0 E `.,X,X-X:X#X+X+X#X+X+X#X+X$X:X",
":X:X$X+X+X+X+X+X+X#X$X#X;X-X|.7.0 ] ~.<X>XM.A & # 2 q & & 9 q 2 & 9 9 2 2 9 9 # # q t._.<X&X| Z E '.#X#X;X:X:X#X+X+X+X+X+X+X#X#X",
",X,X:X$X+X+X+X+X+X+X+X+X#X;X@X9.g [ Q.<X>X_.g.Z 9 A i.q 9 ! ] B 2 ] / q 9 ( ] 2 B t.~.&X<X%Xu.G E E.+X+X#X;X;X#X+X+X+X+X+X+X+X+X",
":X;X:X;X+X+X+X#X#X+X+X+X+X+XXXn._ } f.S.D._._.g.] ] t.9 5 P ( q & ( ! 9 5 / t.! d.~.%XQ.A.B.} ' s.[.+X+X+X+X+X+X+X+X#X#X#X+X+X+X",
"+X#X#X+X+X+X+X;X:X+X+X+X+X+XOXU.c.} R K ! B.%X(.B.| P 5 2 q Z 5 & Z B 5 2 Z ] g.~.%XQ.] A P ` k.^.oX+X+X+X+X+X+X+X+X#X:X$X+X+X+X",
"+X+X+X+X+X+X;X:X,X;X#X+X+X+XOXW.n.T 3   # ! B.Q.B.| Z B B B B B B B B B B B / M.Q.A.{ 2   o L x.`.=X#X+X+X+X+X+X+X#X:X,X:X$X+X+X",
"+X+X+X+X+X+X$X:X,X,X;X;X#XOXXXb.J 2 X     & 9 q K t.A.D.D.D.D.D.Q.D.D.D.Q.D.d.P B 9 2 o     # C d.}.;X;X$X+X+X+X+X#X;X:X,X:X$X+X",
"+X#X$X$X$X+X+X#X:X,X,X,X-X[.n.-.j , X           & K g.M.g.M.M.M.M.M.M.g.M.g.( 2 o           * i W x.).,X:X$X+X+X+X+X#X:X,X,X:X$X",
"#X;X,X,X:X#X#X+X$X:X:X-X}.Z.U z N t $   o o o . o 2 Z A A Z A B B Z A A A Z 9 o   . o # . X r x b H f.`.=X;X#X+X+X#X#X:X,X,X:X:X",
":X,X,X,X,X,X#X+X+X#X#XR.z.E > u +.x , & B Z a - # 5 ! ! / ~ A 5 # Z ! / / ! B # % 9 Z V 5 @ l ..m , D s.I..X+X+X+X#X:X,X,X;X#X#X",
",X,X,X:X$X$X#X+X+X+X Xn.E , @ j #.n e q [ f.:.Z q P M.B.B.B.t.B 5 { M.A.B.M.{ 9 B ` a.y.G > x O.N = % h l.E.+X+X$X:X,X,X;X#X+X#X",
";X;X;X$X+X+X+X+X+X+XXXj.g + < N >.O.f H :.C.C.y.~ ] M.B.B.B.d.{ ( d.M.B.B.B.i.P :.x.C.p.Y d X.$.O.s * - 5.T.+X#X:X,X,X,X#X+X+X+X",
"#X+X#X+X+X+X+X+X+X+X X9.k w o.>.,.,.$.b i ( C.C.p.! 9 5 9 9 K d.M.! q 5 9 9 Z t.C.C.y.V s O.>.1.,.O.y 6 2.I.+X:X,X,X,X:X$X+X+X+X",
"+X+X+X+X+X+X#X+X+XT.l.W v N *.%. .f f f f I ~ ( P 9 # B ! ( ] | | ] ( / A & & K ~ / I z f x f N O.>.O.c W 8.^.=X,X,X:X#X+X+X+X+X",
"+X+X+X+X+X+X$X:X@XG.T k X.,.1.O.y : < f  .f i 6 3 # & | D.~.V.{ / M.~.Q.d.q o 2 7 i j m n r : r M ,.1.O.j U s.@X#X$X$X+X+X$X:X;X",
"+X+X+X#X$X$X,X-X$Xc.p s +.e.q.@.f y y f n f f d w = 3 x.&X>X_.B.i.(.>X&XA.Z + w y d l x x u y l ..1.e.>.d p 3.{.+X+X+X+X$X:X,X,X",
"+X+X#X$X,X,X:X$XXXc.8 s +.e.q.,.>.>.$.f y f ..#. .t 3 i._.>X>X%X_.>X<X%XM.B :  .@.O.n t l O.%.&.,.1.e.>.d p t..X+X+X+X+X;X:X,X,X",
"+X+X$X,X:X,X$X+XXXv.p s O.w.q.q.1.r.1.$.f f n >.>.f $ A d.(.>X<X<X<X%XB.! 3 < $.&.o.x f  .=.e.e.1.e.e.>.d p t.*X$X+X+X+X#X$X,X,X",
"+X;X,X:X$X#X+X+X@XZ.F j o.1.q.q.1.1.1.1.O.d r  .o.f + # P V.&X<X<X<XQ.( 2 o < @. .u y O.=.q.q.w.e.1.1.%.d D p.*X:X;X+X+X+X#X$X#X",
"+X$X;X$X+X+X+X#X=X`.h.Q b  .<.e.r.r.1.@.f f M $.#.f % K g._.<X<X<X<X%XA.! 4 1 @.$. .f l o.=.r.r.w.0.+.c U a.L.@X;X$X+X+X+X+X+X+X",
"+X+X+X+X+X+X#X;X,X=X`.h.E v O.&.1.1.>. .< f $.1.%.f - / V.~.(.(.(.(.(.D.| 9 < #.<.>.M 1 j *.1.=.&.#.m I a.L. X+X+X+X+X+X+X+X+X+X",
"+X+X+X+X+X+X;X:X,X,X,X/.h.Q z f f @.$.m - f ,.1.&.f % Z ] t.| { { { | { P 4 < #.e.1.N ; t %.+.N d z I u.Y.*X#X+X+X+X+X+X#X+X+X+X",
"+X+X+X+X+X+X#X;X,X,X,X@XY.l.H - : f M f = f 1.r.=.f X # & & & & & & & & $ o < $.e.1. .; w ..l < - p u.^..XOX+X+X+X+X+X+X+X+X+X+X",
"+X+X+X+X+X+X+X#X$X$X$X#XXXU.9.F $ ; < < @ f 1.1.*.f .                       < $.w.1. .; * e ; $ 0 5.L.OX+X+X+X+X+X+X+X+X+X+X#X;X",
"+X+X#X#X+X+X+X+X+X+X+X+X+X+XW.s.g % .   O y @.,.O.y .                       :  .>.%.c *   . @ 8 ;.U.OX+X+X+X+X+X+X+X+X+X+X#X$X,X",
"#X#X;X:X#X+X+X+X+X+X+X+X+X+XOXT.l.J &   . = e t w *                         + < t r : X   X C 6.P. X+X+X#X+X+X+X+X+X+X+X#X;X,X,X",
":X:X,X:X:X#X+X+X+X+X+X+X+X+X+XE.c.T -     X + + O .                         . O O O X     X C 9.U.XX+X+X+X+X+X+X+X+X+X+X;X,X,X,X",
",X,X,X,X:X#X+X+X+X+X+X$X;X$XoXL.} p #                         . o                         . 7 E c.W.+X$X;X;X#X;X;X;X:X;X:X,X,X,X",
",X,X,X,X:X#X+X+X+X+X$X:X<X;XoXa.9 o                         o > 4 o                         . 4 _ T.$X;X,X:X#X$X,X,X,X,X,X,X,X,X",
",X:X,X:X:X#X+X+X+X#X,X,X:X;X X7.4                           > R } 9 o                         % E R.:X,X,X:X+X+X;X,X,X,X,X,X,X:X",
",X,X;X#X#X+X+X+X$X:X,X,X;X#XXXb.L 2 o                   X > T m.!.` 9 o                     # C 7.}.,X,X;X#X+X+X$X,X,X,X,X,X;X#X",
",X;X#X+X+X+X+X#X:X,X,X,X;XXX+XE.b.R 2       o           3 E n.W..XJ.3.9 o           . .   o F s./.=X:X,X:X+X+X+X#X;X,X,X;X#X#X+X",
";X#X+X#X$X$X$X:X,X,X,X;X@XE.m.c.9.J 2 & Z S A S K K Z & 0 6./.$X$X Xl.F 2 q K K K Z A Z 4 # Z 5.V.A./.=X$X+X+X+X+X#X;X$X#X+X+X+X",
"+X+X+X#X:X:X,X,X,X,X:X#XW.G.Q U Y a 9 K g.V.B.B.V.B.d.q g s.}.<X;X+Xn.J q ] B.B.B.B.B.M.) 5 q K R R x.[.OX+X+X+X+X+X+X+X+X+X+X+X",
"+X+X+X+X#X+X;X,X,X:X#X+XW.l.5 > q B P d.&X<X<X>X>X_.M.B B f.}.,X;X+Xb.J q t.~.>X>X<X<X>XS.! Z q 5 > } E.OXOX+X+X+X+X+X+X+X#X+X#X",
"+X+X+X+X+X+X#X#X$X#X+X+XE.k.7 Z g.S.Q._.>X<X<X<X%XM.C # 0 g.}.;X#X+Xb.H % 9 } _.<X<X<X>X%XQ.Q.M.^ 5 ' R.OX+X+X+X+X+X+X+X;X:X:X:X",
"+X+X+X+X+X$X;X;X$X+X+X+X XK._ _ d.N.B.B.M.B.B.B.f.[ K S ] S.}.#X+X+XJ.5.H F ^ d.M.V.B.B.B.B.B.g.:.E l.W.OX+X+X+X+X#X;X;X:X,X:X;X",
"+X+X+X+X$X,X,X,X:X$X#X#XOX{.K.7.P Z B Z B B B V K 3.Z.L.Y.}.OX+X+X+XW.I.K.m.9.L C B V V B Z V K [ Z.].OX+X+X+X#X#X$X,X,X,X,X;X+X",
"#X+X+X$X:X:X,X,X,X,X,X$X+XOXXXF.} ) ^ / ) / ^ E 2.b.[.oXXXXX+X+X+X+XOXXX X XP.5.E T E E ^ / ^ } N.}.-X;X+X+X+X;X,X,X,X,X,X,X;X+X",
"+X+X+X+X#X#X:X,X,X,X,X,X$X+X+X[.L.L.F.F.H.G.G.m.J.E.+X+X+X+X+X+X+X+X+X#X+X+X XP.H.m.G.G.m.K.S.L.`.-X,X,X;X+X+X#X;X,X,X,X$X#X#X+X",
"+X+X+X+X+X+X#X:X,X,X,X,X;X+X+X+X$X$X$X$X#X+X+X+X+X+X+X+X+X+X+X+X+X#X;X;X$X;X$X+X+X+X+X+X+X+X#X;X,X,X,X,X;X+X+X+X$X$X$X$X#X+X+X+X",
"+X#X+X+X+X+X+X#X:X,X,X,X:X#X+X+X+X+X+X+X+X+X+X#X$X$X#X#X+X+X+X+X#X$X,X,X,X,X,X$X#X+X+X+X+X+X+X#X:X,X,X,X:X$X+X+X+X+X+X+X+X+X#X$X",
"+X+X+X+X+X+X+X+X$X:X,X,X,X:X+X+X+X+X+X+X+X+X+X#X,X,X,X;X+X+X+X+X$X,X,X,X,X,X,X-X#X+X+X+X+X+X+X+X#X:X,X,X,X:X#X+X+X+X+X+X+X+X$X:X"
};
