/* XPM */
static char *result[] = {
/* columns rows colors chars-per-pixel */
"64 64 208 2 ",
"   c #020202",
".  c #03070C",
"X  c #0B0B0B",
"o  c #060C14",
"O  c #0A0E13",
"+  c #0B141D",
"@  c #131414",
"#  c #13171C",
"$  c #161A1B",
"%  c #1B1C1C",
"&  c #1F201F",
"*  c #0D1722",
"=  c #0E1B29",
"-  c #101D2D",
";  c #1D2225",
":  c #15263A",
">  c #16283E",
",  c #232424",
"<  c #262729",
"1  c #252A2C",
"2  c #2B2C2C",
"3  c #282D33",
"4  c #2D3234",
"5  c #2C343B",
"6  c #323334",
"7  c #373837",
"8  c #343738",
"9  c #34393C",
"0  c #3A3B3B",
"q  c #172A41",
"w  c #182C45",
"e  c #1A2F48",
"r  c #1B314C",
"t  c #1D3552",
"y  c #1C3758",
"u  c #1E3959",
"i  c #2C3A4C",
"p  c #393F42",
"a  c #273A51",
"s  c #213C5D",
"d  c #3D4244",
"f  c #3C4548",
"g  c #3D494C",
"h  c #35475E",
"j  c #26456A",
"k  c #27456A",
"l  c #27486F",
"z  c #314A67",
"x  c #274970",
"c  c #294B74",
"v  c #2B4E79",
"b  c #31537B",
"n  c #434444",
"m  c #454649",
"M  c #434B4C",
"N  c #4B4C4C",
"B  c #4B4F51",
"V  c #4D5154",
"C  c #4A5659",
"Z  c #535353",
"A  c #545759",
"S  c #565A59",
"D  c #5C5D5D",
"F  c #485B65",
"G  c #5B5D61",
"H  c #536264",
"J  c #5D6162",
"K  c #5A656A",
"L  c #57696C",
"P  c #5B6D75",
"I  c #646565",
"U  c #646669",
"Y  c #656B6D",
"T  c #6B6C6C",
"R  c #6A706F",
"E  c #70706F",
"W  c #636F71",
"Q  c #6B6D72",
"!  c #627275",
"~  c #6C7274",
"^  c #657A7D",
"/  c #6B7A7C",
"(  c #737474",
")  c #747977",
"_  c #74767C",
"`  c #747A7B",
"'  c #7A7A7A",
"]  c #78807F",
"[  c #2D5482",
"{  c #2F5A8D",
"}  c #315887",
"|  c #315A8C",
" . c #335E92",
".. c #37608F",
"X. c #36649B",
"o. c #3A69A3",
"O. c #3D6EAB",
"+. c #3E71AE",
"@. c #6B7E81",
"#. c #797C80",
"$. c #4075B5",
"%. c #4279BB",
"&. c #457EC3",
"*. c #6C8185",
"=. c #6F8589",
"-. c #738283",
";. c #7C8484",
":. c #718589",
">. c #7F8188",
",. c #73898D",
"<. c #6E8790",
"1. c #768D91",
"2. c #7C9498",
"3. c #7D969A",
"4. c #4680C6",
"5. c #4782C9",
"6. c #4884CC",
"7. c #4A87D0",
"8. c #4B89D4",
"9. c #838383",
"0. c #83858B",
"q. c #848C8D",
"w. c #8B8B8B",
"e. c #878990",
"r. c #8A8C93",
"t. c #8C9393",
"y. c #88999D",
"u. c #949494",
"i. c #92949A",
"p. c #949D9C",
"a. c #9B9B9B",
"s. c #97A09D",
"d. c #839DA2",
"f. c #899EA0",
"g. c #9A9DA4",
"h. c #87A1A5",
"j. c #87A3A9",
"k. c #8BA8AD",
"l. c #9EA6A4",
"z. c #9EAAAB",
"x. c #91AFB3",
"c. c #92B0B5",
"v. c #99B3B7",
"b. c #99B8BD",
"n. c #A3A3A3",
"m. c #A1A8A6",
"M. c #A3A6AE",
"N. c #ACACAC",
"B. c #B0B0AF",
"V. c #A8ABB2",
"C. c #A9B5B3",
"Z. c #AAB6B8",
"A. c #B5B5B5",
"S. c #BCBCBC",
"D. c #9DBCC1",
"F. c #B9BCC5",
"G. c #9EC0C5",
"H. c #A2C2C6",
"J. c #A4C5CA",
"K. c #A7C8CE",
"L. c #B8C6C9",
"P. c #ABCDD3",
"I. c #B3CED2",
"U. c #AED1D7",
"Y. c #AED2D8",
"T. c #B2D5DB",
"R. c #B7D7DA",
"E. c #B6DCE2",
"W. c #BADEE4",
"Q. c #BCE3E9",
"!. c #BEE5EC",
"~. c #C4C4C4",
"^. c #C2C5CE",
"/. c #C0CECD",
"(. c #CCCCCC",
"). c #C7D1CE",
"_. c #C6DBDB",
"`. c #CDD8D8",
"'. c #D4D4D4",
"]. c #D2DFDC",
"[. c #DCDCDC",
"{. c #D6E1DD",
"}. c #C3E2E5",
"|. c #CEE2E2",
" X c #C2E6EC",
".X c #DAE5E1",
"XX c #D9E8E5",
"oX c #D5EBEB",
"OX c #C4ECF3",
"+X c #CCEEF3",
"@X c #D5EFF1",
"#X c #CAF1F7",
"$X c #C7F1F8",
"%X c #CBF5FC",
"&X c #CEF8FF",
"*X c #DAF2F3",
"=X c #D8F3F5",
"-X c #D4F7FB",
";X c #D3F9FE",
":X c #DBFAFE",
">X c #E3E3E3",
",X c #ECECEC",
"<X c #E7F5F2",
"1X c #E3FCFD",
"2X c #ECFEFC",
"3X c #F4F4F4",
"4X c #F2FFFB",
"5X c #FEFEFE",
/* pixels */
"&X&X&X&X&X&X2X4X4X4X4X4X4X1X;X&X&X&X;X&X&X&X&X&X&X&X&X:X2X&X&X&X&X&X&X&X&X&X&X&X&X&X&X&X&X&X1X4X4X4X4X4X2X2X;X&X&X&X&X&X&X&X&X&X",
"&X&X&X&X&X&X;X1X4X4X4X1X:X:X&X&X&X&X&X&X&X&X&X&X&X&X&X-X:X&X&X&X&X&X&X&X;X&X&X&X&X&X&X&X&X&X-X1X4X4X4X1X:X:X&X&X&X&X&X&X&X&X&X&X",
"&X&X&X&X&X&X&X;X2X1X1X;X&X&X&X&X&X&X&X&X&X&X;X:X:X;X&X%X%X%X%X%X%X%X%X&X%X%X%X&X&X&X&X&X&X&X&X-X1X1X1X:X&X&X&X&X&X&X&X;X&X&X;X:X",
"&X&X;X;X&X&X&X&X&X&X&X&X&X&X&X&X&X&X&X&X&X;X=X).C.x.x.c.c.c.c.c.c.c.c.c.c.c.x.b.Y.&X&X;X&X&X&X&X&X&X&X&X&X&X&X&X&X&X&X&X&X;X:X4X",
"&X&X1X1X;X&X&X&X&X&X&X&X&X&X&X&X&X&X%X#X$XoX`.t.L H H H H H H H H H H H H H H P j.Q.oX<X%X%X&X&X&X&X&X;X&X&X&X&X&X&X&X&X&X:X4X4X",
"1X2X2X4X1X;X&X&X&X&X&X%X&X&X&X&X&X&XOXY.L.C.l.Y N N N N N N N N N N N N N N N Z ) z.Z.L.].%X&X&X&X;X&X&X&X&X&X%X&X&X&X&X:X4X4X4X",
"4X4X4X4X2X;X&X&X&X&X&X:X1X:X&X:X1X1X_.1.Z n D w.B.S.A.A.A.A.A.A.A.A.A.A.A.A.S.m.9.Z n I l. X&X&X&X&X&X;X:X:X;X:X:X1X:X1X4X4X2X1X",
"4X4X4X4X4X;X&X&X&X&X;X2X4X2X;X1X<X`.m.( V V T ~.3X5X5X5X5X5X5X5X5X5X5X5X5X5X5X,XB.D N S ] v.R.%X&X&X;X1X4X4X;X1X4X4X4X4X4X4X2X;X",
"4X4X4X2X2X;X&X&X&X;X2X4X4X2X&X%X|.t.D w.A.~.(.,X5X5X5X5X5X5X5X5X5X5X5X5X5X5X5X5X>X~.~.N.' K j.OX&X;X2X4X4X2X;X&X1X4X4X4X4X4X4X2X",
"4X4X1X;X;X;X&X&X;X2X4X4X1X;X&X%X|.) 7 u.'.3X3X5X5X5X5X5X5X5X5X5X5X5X5X5X5X5X5X5X5X3X3X~.` d 2.$X;X1X4X4X2X;X&X&X1X4X4X4X4X4X2X:X",
"4X1X;X&X&X&X&X;X1X4X4X4X1X&X&XOXI.Y n n.>X5X5X5X5X5X5X5X5X5X5X5X5X5X5X5X5X5X5X5X5X5X5X'.w.m *.Q.*X4X4X4X1X&X&X&X;X1X4X4X1X:X;X&X",
"2X;X&X;X:X;X;X1X4X4X4X4X:X&XOXP.h.~ ) S.,X5X5X5X5X5X5X5X5X5X5X5X5X5X5X5X5X5X5X5X5X5X5X>Xm.E ` z.{.<X4X4X:X&X&X&X&X;X2X1X;X&X&X&X",
"&X&X&X:X2X2X4X4X4X4X2X:X&X&XT.3.C 9.(.,X5X5X5X3X3X3X3X3X5X5X5X5X5X5X5X5X5X5X5X5X5X5X5X5X>XS.( A C.>X4X:X&X&X&X&X&X&X&X&X;X&X&X&X",
"&X&X&X&X;X;X2X4X4X2X:X&X&X&XP.=.7 w.,X5X5X5X,XS.a.a.u.a.A.>X5X5X5X5X5X5X5X5X5X5X5X5X5X5X5X'.( 6 s..X:X;X&X&X&X&X&X&X&X&X&X&X&X&X",
"&X&X&X&X&X&X;X:X:X:X&X&X&X&XP.*.9 w.,X5X5X3X'.( 6 < < 6 I ~.5X5X5X5X5X5X5X5X5X5X5X5X5X5X5X'.) 4 y.}.;X&X&X&X&X&X;X&X&X&X:X2X1X1X",
"&X&X&X&X;X:X:X:X;X&X&X&X&X&XU.*.7 t.3X5X5X3X'.S X X   @ n S.5X5X5X5X5X5X5X5X5X5X5X5X5X5X5X'.) 6 f.Q.&X&X&X&X&X&X%X;X:X:X2X4X4X4X",
"&X&X&X&X;X4X4X4X2X;X;X&X&X&XP.*.6 ' '.3X5X3X(.Z       X 0 S.3X5X5X5X5X5X5X5X5X5X5X5X5X5X,X~.I 2 p.}.;X&X&X&X&X;X;X:X4X4X4X4X4X4X",
"&X&X&X;X2X4X4X4X4X4X2X:X&X&XP.;.2 N a.'.5X3X(.A X     X n ~.5X5X5X5X5X5X5X5X5X5X5X5X5X,X(.9.0 2 s.|.2X:X&X&X&X1X2X4X4X4X4X4X4X4X",
"&X&X&X;X:X:X2X4X4X4X4X2X:X&XY.,.1 @ 7 a.>X3X'.I & @ X % N ~.3X5X5X5X3X,X,X,X3X3X5X5X5X(.9.2 @ 7 m..X4X4X:X;X&X;X2X4X4X4X1X;X:X:X",
"&X&X;X&X&X&X:X2X4X4X4X4X1X%X XG.-.9 @ n w.(.>XB.9.9.' 9.n.>X5X5X5X3X(.w.( 9.A.,X5X5XS.( 7 $ d 1.).<X4X4X1X&X&X&X-X1X1X1X;X&X&X&X",
"&X&X&X&X&X&X&X:X2X4X4X4X1X;X#XW.x.K 6 6 T A.3X,X>X>X[.>X>X3X3X,X,X,XS.D 7 N 9.~.[.(.w.m % < ^ R.<X4X4X4X2X;X&X&X&X&X&X&X&X&X&X;X",
"&X&X&X&X&X&X&X&X:X4X4X2X4X1X Xb.:.` w.w.n.(.3X5X3X3X5X3X5X5X(.a.A.'.'.a.9.9.' ' ) ) 9.T n 5 ,.OX-X2X4X4X4X2X;X&X&X&X&X&X&X&X:X2X",
"2X2X:X&X&X&X&X&X;X;X;X:X1X4X_.2.M ( B.A.S.~.'.(.'.'.'.'.'.'.w.Z D n.[.[.[.~.9.n 2 N a.N.( 0 ,.OX%X:X;X;X:X4X2X;X&X&X&X&X&X&X;X;X",
"4X4X2X:X&X&X&X&X&X&X&X&X;X1XI.^ , n ' 9.9.' ' ' ' ' ( ' ' ' N % , J N.3X5X,Xw.2 2 ' '.(.9.p ,.OX%X&X&X&X;X1X1X;X&X&X&X&X&X&X&X&X",
"2X1X2X1X&X&X&X;X;X&X&X&X&X&XP.@.$ . @ , , & @ , 2 % % , 2 @ @ % , 0 ' [.5X>Xw.n I '.,X~.' C 3.OX;X&X&X&X&X&X&X&X&X&X;X;X;X%X&X&X",
"&X;X;X&X&X&X&X1X2X&X&X&X&X&XP.^ @   @ I T N , I E 6 0 D ( , 6 E u.n.S.,X5X>Xw.n E >XA.9./ d.U.=X2X;X&X&X&X&X&X&X&X&X;X2X:X&X&X&X",
"&X&X&X&X&X&X1X2X4X1X;X&X;X&XT.3.p @ & E ( N , E ' 7 0 I w.Z E S.>X,X,X5X3XS.T 6 Z n.U B @.U.:X2X4X2X;X&X&X&X&X&X&X;X2X4X2X:X&X&X",
"&X&X%X&X&X&X:X2X4X4X1X1X;X&XOXJ.,.d % n n 6 % n N , , n ' u.S.>X5X5X5X3XS.( 6 $ 2 B 2 9 :.E.;X2X4X4X1X1X:X&X&X&X&X;X1X4X4X2X:X&X",
"&X;X:X:X:X&X&X;X2X4X4X4X2X:X%XOXP.L % 6 n n n n N n 0 N ' (.3X5X5X5X3X~.( 2 @ , 4 8 6 n / D.!.;X2X4X4X4X2X:X&X&X&X&X;X2X4X4X2X:X",
";X2X4X4X2X;X&X&X:X2X2X2X4X1X&X%XQ.! < D w.s.a.a.u.a.a.a.A.,X5X3X5X3X~._ 6 @ 6 I #.( _ Q W / v.OX&X2X4X2X2X2X;X&X&X&X;X2X4X4X2X2X",
"2X2X4X4X4X4X:X&X&X;X;X;X;X;X&X%XY.W 2 ) B.(.~.~.~.~.~.~.~.(.(.(.(.~.u.m , 8 T M.^.F.L.M._ V @.J. X-X-X;X;X;X&X&X&X:X2X4X4X1X;X;X",
"4X4X4X2X:X:X;X&X&X&X&X&X&X&X&X$XR.R $ 6 n Z Z N N N N N N N N N m N G #.0.i.g.F.^.^.^.F.M.0.J L b.!.&X&X&X&X&X&X;X2X4X4X1X;X&X;X",
"2X1X1X:X&X&X&X&X&X&X&X&X&X&X&X=X.Xi.S S M 4 @ O , n n 2 @ X % 6 n B ~ M.M.r.>.>.0.0.w.r.0.Q 7 4 d.Q.%X&X&X&X&X;X2X4X4X4X;X&X&X&X",
"&X&X&X&X&X&X&X&X&X&X&X&X&X;X;X2X<X).C.z.@.m O   < T I 0   . 3 G _ >.i.V.e.G d n d n p d n 0 , 1 y.E.&X&X&X&X;X2X4X4X4X2X:X&X&X&X",
"&X&X&X&X&X&X&X;X&X&X&X&X&X;X2X4X4X2X*XI.d.K 6 X 2 ( E 0 @ < G g.V.a.0.>.G i > : q : + X X @ < F b. X&X&X&X;X2X4X4X4X2X;X&X&X&X&X",
"&X&X&X&X&X&X:X2X1X&X&X&X&X;X;X:X:X:X}.3.W Y Q 6 & 0 6 , < U g.F.r.G 8 p z [ { { | v q o . # H Z.|.$X&X&X&X;X;X:X:X;X:X&X&X:X2X1X",
"&X&X&X;X:X:X4X4X:X&X&X&X;X:X:X&X%X&XU.H 7 N #.I Z N 6 & 6 i.V.i.Z % . : v $.&.&.5.%.[ w + 1 q.<X:X;X&X&X;X:X:X;X&X&X&X&X:X2X4X4X",
"&X&X;X:X4X4X2X:X&X&X;X;X1X4X4X:X&X&XU.F & @ m u.~.~.w.n 6 r.r.Z % o : [ $.&.8.&.6.4.%.} t 5 0.+X%X&X;X;X1X4X4X:X&X&X&X&X1X2X4X4X",
"&X&X:X4X2X4X;X&X&X;X2X4X4X4X4X4X:X;XU.H % X 6 n.[.A.I 2 % A U h a t s l X.&.8.&.5.5.4.$.} z P d.Y.#X1X4X2X4X4X4X:X;X&X&X;X:X4X4X",
"&X1X4X2X:X;X;X&X;X2X4X4X4X4X4X4X2X:XU.H % X 6 N.[.u.N , % < i b  .{ c y c $.&.&.5.5.6.4.$...z F v.oX4X4X4X4X4X4X2X1X&X&X&X;X:X;X",
"&X:X1X:X%X&X&X;X1X4X4X4X4X2X:X1X1X:XU.H $ . 6 N.'.u.T Z n % e  .+. .x y s c o.%.&.&.7.8.6.$.s 3 y..X4X4X4X2X1X:X1X:X&X&X&X&X&X&X",
"&X&X&X&X&X&X;X1X4X4X4X4X4X2X&X&X&X&XU.H $ . 6 a.[.(.~.A.w.2 e | { s r } k t c $.&.7.&.&.&.O.a ; s..X4X4X4X2X;X&X&X&X&X&X&X&X&X&X",
"&X&X&X&X&X&X1X4X4X4X4X4X4X2X&X&X&X&XU.H $   % I u.a.a.u.E , e | c q w o. .c [ $.8.&.8.8.6.$.u 3 p..X4X4X4X2X;X&X&X&X&X&X&X&X&X&X",
"&X&X&X&X&X&X;X1X4X4X4X:X-X;X&X&X&X&XY.L , X X @ 2 6 0 7 2 @ e | c q w O.&.$.$.&.&.8.&.&.&.o.s i l..X4X1X;X;X&X&X&X&X&X&X&X&X&X&X",
"&X&X&X&X&X&X&X;X:X:X1X;X&X&X&X&X&X&X!.k.L 1 .   & S ' 9.D , r | c q q O.&.8.&.8.8.8.8.&. .c F @.I.@X:X;X%X&X&X&X&X&X&X&X&X&X;X1X",
"&X&X;X:X&X&X&X&X&X&X&X&X&X&X&X&X&X&X%XE.h.C X   , ' B.B.9.2 r | } t e  .$.%.$.$.$.$.$.o.b F <.K. X%X&X&X&X&X&X&X&X&X&X&X&X;X1X4X",
"&X;X1X2X;X&X&X&X&X&X&X&X&X&X&X&X&X%X&X%XH.W X   , I u.u.T < e  .X.[ s j l l l l l l c z F @.D.%X&X&X&X&X&X&X&X&X&X&X&X&X;X1X4X4X",
"2X2X2X2X2X;X&X&X&X&X&X&X&X&X&X&X%XOX!.!.C.D X   X @ & & %   > } $.+.[ w = = = = = = + 5 @.P.#X-X&X&X&X&X;X&X&X&X&X&X&X&X1X2X4X4X",
"4X4X4X4X4X;X&X&X&X&X&X:X2X1X&X1XoXC.;.] H 6                 + t | $.O.v j j j j j j - 5 ] }.&X&X&X&X&X:X2X1X&X1X1X1X1X2X2X4X4X4X",
"4X4X4X4X2X;X&X&X&X&X:X2X4X2X;X=X].] 6 2 6 2 % X               o e | O.o. .X. .X...| w 5 9.Q.&X&X&X&X;X2X4X2X;X:X4X4X4X4X4X4X4X4X",
"4X4X4X2X2X&X&X&X&X:X2X4X4X1X&X$X_.T < Z 9.u.E 2               . * w s s s s s y y r = 4 ;.W.&X&X;X;X2X4X4X2X;X&X1X4X4X4X4X4X4X2X",
"4X4X1X;X&X&X&X&X;X2X4X4X1X;X&X%X_.T 2 w.~.{.~.E < X             . o + + + * - 3 e 3 $ 4 =.R.&X;X;X2X4X4X1X&X&X&X:X4X4X4X4X4X1X;X",
"4X:X;X&X&X&X&X:X2X4X4X4X1X&X&X$XR.! 0 a.>X5X3XA.T < X             .       X < Z T S 2 8 *.E.&X-X2X2X4X4X1X&X&X&X;X:X4X4X1X;X;X&X",
"1X;X&X;X1X:X:X2X4X4X4X2X;X&X&X%XE.=.N u.~.[..X,X~.I ,       X $ < ; $     @ B g.F.M.A d -.}.:X1X4X4X4X2X:X;X&X&X&X;X1X1X;X%X&X;X",
"&X&X&X;X2X2X4X4X4X4X2X;X&X&X&X&XOXJ.2.~ I I ;.(.,X~.( 2     6 ( p.3.K $   @ A V.).F.D p ] |.2X4X4X4X2X:X&X&X&X&X&X&X&X&X&X&X&X&X",
"&X&X&X&X&X&X1X4X4X2X;X&X&X&X&X&X&X$XU.=.V d S u.(.,X~.( 1 X N C._.H.:.d 2 8 G e.g.r.D H y.Q.1X4X4X2X:X&X&X&X&X&X&X&X&X&X&X&X;X&X",
"&X&X&X&X&X&X;X;X:X;X&X&X&X&X&X&X&X&XOXH.z.p.r.~ w.(.>X~.' < D Z.J.2.L _ #._ U B N B P h.P.$X;X;X;X;X;X&X&X&X&X;X&X&X&X&X1X2X2X2X",
"&X&X&X&X&X:X1X1X:X&X&X&X&X&X&X&X&X;X:XoXXX.X/.-.W a.S.A.w.S ,.J.j.C 0 ~ q.#.B < ; C h.T.OX:X1X1X:X&X%X&X&X&X&X&X&X;X:X1X2X4X2X1X",
"&X&X&X&X:X2X4X4X2X;X:X;X&X&X&X;X:X1X4X4X4X4X=XD.1.~ I T ) t.H.T.d.g % m A N 6 % f 2.U.$X:X2X4X4X4X:X;X;X&X&X&X;X:X1X4X4X4X4X1X&X",
"&X&X&X:X2X4X4X4X4X4X4X:X&X&X;X2X4X4X4X4X4X4X1X&XP.! 9 9 L J.$XOXc.H 3 5 5 5 4 g ,.Q.%X;X2X2X4X4X4X4X4X1X&X&X&X1X2X4X4X4X4X4X1X;X",
"&X&X&X;X;X;X2X4X4X4X4X2X:X&X&X;X2X4X4X4X;X;X;X&X!.K.c.c.J.!.&X%XW.H.x.x.c.c.c.b.U.$X&X;X;X;X2X4X4X4X4X2X1X&X&X;X2X4X4X4X:X;X;X&X",
"&X&X&X&X&X&X;X2X4X4X4X4X1X&X&X&X;X:X:X:X;X&X&X&X%X$XOXOX$X%X&X&X$X#X*X*X*X*X@XOX#X&X&X&X&X&X;X1X4X4X4X4X1X&X&X&X;X:X:X:X;X&X&X&X",
"&X&X&X&X&X&X&X:X2X4X4X4X2X;X&X&X&X&X&X&X&X&X&X;X:X:X:X;X&X&X&X&X;X1X4X4X4X4X2X:X;X&X&X&X&X&X&X;X1X4X4X4X2X:X&X&X&X&X&X&X&X&X&X:X",
"&X&X&X&X&X&X&X&X;X4X4X4X4X2X&X&X&X&X&X&X&X&X&X;X2X4X4X1X&X&X&X&X:X4X4X4X4X4X4X4X;X&X&X&X&X&X&X&X;X4X4X4X4X2X;X&X&X&X&X&X&X&X;X4X"
};
