/* XPM */
static char *result[] = {
/* columns rows colors chars-per-pixel */
"64 64 236 2 ",
"   c #2E537B",
".  c #35587E",
"X  c #2D5B87",
"o  c #335B84",
"O  c #31638E",
"+  c #2B6392",
"@  c #2E6B9B",
"#  c #376C97",
"$  c #3A739C",
"%  c #2E74A7",
"&  c #3877A4",
"*  c #3C7BA6",
"=  c #337BAC",
"-  c #2D7AB1",
";  c #347EB1",
":  c #446788",
">  c #536A84",
",  c #57738C",
"<  c #487699",
"1  c #567A97",
"2  c #647D95",
"3  c #477DA3",
"4  c #3481B5",
"5  c #3A85B4",
"6  c #5F829E",
"7  c #63839D",
"8  c #73879A",
"9  c #4E80A4",
"0  c #4482AC",
"q  c #4C84AB",
"w  c #5382A5",
"e  c #5989AA",
"r  c #4C8CB5",
"t  c #468CB8",
"y  c #558EB3",
"u  c #4490BB",
"i  c #4B92BC",
"p  c #5394BB",
"a  c #5B95B9",
"s  c #5B95BA",
"d  c #678BA5",
"f  c #648DAB",
"g  c #738DA1",
"h  c #6391AE",
"j  c #6B92AB",
"k  c #7495AC",
"l  c #7997AB",
"z  c #6394B3",
"x  c #6A96B2",
"c  c #6B98B5",
"v  c #649CBD",
"b  c #6C9DBB",
"n  c #7297B1",
"m  c #739AB2",
"M  c #7A9DB3",
"N  c #729EB9",
"B  c #6BA0BF",
"V  c #7AA2B8",
"C  c #7CA4BA",
"Z  c #2D8BC8",
"A  c #348DC8",
"S  c #3992CB",
"D  c #3D9CD4",
"F  c #4C96C2",
"G  c #4898C8",
"H  c #549BC4",
"J  c #599DC8",
"K  c #489DD4",
"L  c #599ED3",
"P  c #659BC3",
"I  c #53A3CD",
"U  c #5CA3CB",
"Y  c #4DA8D8",
"T  c #56ACD7",
"R  c #5CAAD4",
"E  c #59A8D8",
"W  c #65A3C6",
"Q  c #67A6C8",
"!  c #74A5C3",
"~  c #78AAC6",
"^  c #70B0CF",
"/  c #7DB2CC",
"(  c #64AED4",
")  c #64AADC",
"_  c #6BABD8",
"`  c #78ABD9",
"'  c #6EB1D3",
"]  c #64B4DB",
"[  c #6CB5DA",
"{  c #6AB7DC",
"}  c #77B6D8",
"|  c #79BDDD",
" . c #5EB1E3",
".. c #65BAE4",
"X. c #6BB8E4",
"o. c #75B5E2",
"O. c #72BCE3",
"+. c #7ABAE5",
"@. c #6CC1E8",
"#. c #75C1E4",
"$. c #77C5E9",
"%. c #7CCAED",
"&. c #6EC8F1",
"*. c #77CCF1",
"=. c #7CD1F4",
"-. c #849BAC",
";. c #809DB3",
":. c #83A6BA",
">. c #89A6B8",
",. c #85A9BC",
"<. c #92A8B7",
"1. c #92ABBA",
"2. c #83ACC3",
"3. c #85ABCC",
"4. c #8FACCC",
"5. c #8CB1C3",
"6. c #88B6CC",
"7. c #94B3C4",
"8. c #95BACB",
"9. c #9AB8C9",
"0. c #8CBBD2",
"q. c #87B6D9",
"w. c #93BBD4",
"e. c #98B9DA",
"r. c #A7BCC6",
"t. c #A2BDDA",
"y. c #84BCE4",
"u. c #8ABDE3",
"i. c #86BFE8",
"p. c #92BDE3",
"a. c #8FC0D5",
"s. c #9CC4D3",
"d. c #99C6DC",
"f. c #AAC2CC",
"g. c #B4C5CE",
"h. c #A2C6D3",
"j. c #A6CDDB",
"k. c #A9C8D8",
"l. c #B7CCD8",
"z. c #ABD2DE",
"x. c #BCD0D7",
"c. c #B4D1DB",
"v. c #BCD4DC",
"b. c #83C5E4",
"n. c #8CC4E8",
"m. c #85CCEC",
"M. c #8ACDEB",
"N. c #94C4E6",
"B. c #9CC4E2",
"V. c #98CBE4",
"C. c #93CBEA",
"Z. c #9DCBEA",
"A. c #8BD0ED",
"S. c #93D2EE",
"D. c #9BD1ED",
"F. c #83CEF1",
"G. c #85D3F4",
"H. c #8AD4F3",
"J. c #8DD9F6",
"K. c #8CDCF8",
"L. c #93D6F2",
"P. c #9AD6F1",
"I. c #94DAF5",
"U. c #9BDCF5",
"Y. c #94DEF8",
"T. c #9BDFF8",
"R. c #A3CDE6",
"E. c #ABCBE5",
"W. c #B3CDE4",
"Q. c #A6D4E6",
"!. c #ACD5E3",
"~. c #A5D4ED",
"^. c #ABD5EB",
"/. c #ACDAED",
"(. c #B3D4E3",
"). c #BCD5E6",
"_. c #B2DAE5",
"`. c #BCDBE5",
"'. c #B3D5EB",
"]. c #B5DDEB",
"[. c #BBDDEC",
"{. c #A4D7F0",
"}. c #A3DDF4",
"|. c #ADDDF2",
" X c #B3DEF0",
".X c #96E1FA",
"XX c #9CE2F9",
"oX c #B7E0EC",
"OX c #BBE3ED",
"+X c #A4E1F7",
"@X c #ACE3F6",
"#X c #A3E3FA",
"$X c #ABE5F9",
"%X c #ACE9FB",
"&X c #B4E3F4",
"*X c #BBE5F2",
"=X c #BEE9F4",
"-X c #B2E7F9",
";X c #B4EBFB",
":X c #BCECFA",
">X c #BCF0FC",
",X c #C7D7DC",
"<X c #C6DCE6",
"1X c #D1DFE5",
"2X c #C3E5ED",
"3X c #CCE3EB",
"4X c #C8E5EB",
"5X c #D4E4E5",
"6X c #D4E5EB",
"7X c #D8E8EA",
"8X c #DBEAEB",
"9X c #C3EBF5",
"0X c #CAECF3",
"qX c #C8E8F4",
"wX c #C3EEF9",
"eX c #D3EDF3",
"rX c #DAEDF1",
"tX c #CEF1F7",
"yX c #C6F1FB",
"uX c #CBF5FD",
"iX c #CEF8FF",
"pX c #D1F0F6",
"aX c #DBF2F5",
"sX c #D3F5FB",
"dX c #DCF5F9",
"fX c #D3F9FE",
"gX c #DBFAFD",
"hX c #E1EEEE",
"jX c #E0EFF1",
"kX c #E4F4F4",
"lX c #E9F7F6",
"zX c #EBF9F6",
"xX c #E3F8F8",
"cX c #E4FCFC",
"vX c #ECFDFB",
"bX c #F2FFFB",
/* pixels */
"iXiXiXiXiXiXcXbXbXbXbXbXbXvXiXiXiXiXiXiXiXiXiXiXiXiXiXgXvXiXiXiXiXiXiXiXiXiXiXiXfXuXuXiXiXiXcXbXbXbXbXbXbXvXfXiXiXiXiXiXiXiXiXiX",
"iXiXiXiXiXiXfXvXbXbXbXcXgXgXiXiXiXiXiXiXiXiXiXiXiXiXiXfXgXiXiXiXiXiXiXiXiXiXiXiXuXuXfXiXiXiXfXcXbXbXbXvXfXgXfXiXiXiXiXiXiXiXiXiX",
"iXiXiXiXiXiXiXfXcXcXcXfXiXiXiXiXfXiXiXiXiXiXfXgXgXfXiXiXuXsXiXiXiXuXiXiXiXiXuXiXuXsXsXuXiXuXiXfXcXcXcXgXiXiXiXiXiXiXiXiXiXiXfXgX",
"iXiXfXfXfXiXiXiXfXiXiXiXiXiXiXiXiXiXiXiXiXfXcXbXvXuXuXuXuXyXyXyX0XyX0XyXyXyXyXyXuXyXyXyXuXuXuXiXiXiXiXiXiXiXiXiXiXiXiXiXiXfXgXbX",
"iXiXgXvXiXiXiXiXiXiXiXiXiXiXiXiXuXuXfXuXfXxXvXxXtXyX0X9XOXOXoXz.oXz._.z.z._._._.E.~.'.<X X=XyXyXuXiXiXiXiXiXiXiXiXiXiXiXiXgXbXbX",
"cXvXbXbXcXfXiXiXfXiXiXiXiXiXiXiXuXuXuXyXaXkXkXrXOX_.z.k.r.<.-.-.-.>.,.5.1.,.~ 2.4.4.e.e.B.Z.{.&XwXuXiXuXiXiXfXuXiXiXiXiXcXvXbXbX",
"bXbXbXbXvXfXiXiXiXiXiXfXcXgXiXgXdXsXqX[.).x.g.9.,.:.g 7 , > > > > > > , 6 8 g l -.>.<.7.7.q.N.Z.|.:XyXfXgXcXfXgXcXgXcXgXbXbXvXcX",
"bXbXbXbXbXfXiXiXiXiXfXvXbXxXuXsXeX2X[.k.9.>.k d 1 : . .       . o . .   . . . : : , 1 d l N ~ q.N.D.*XaXbXvXfXgXbXbXbXbXbXbXvXfX",
"bXbXbXbXvXiXiXiXiXfXvXbXvXdX:X:X+XV.w.2.n d 1 : O + + + @ @ ; ; 5 i p p r 0 # O X X X # < 3 e N / q.E.<XlXcXfXuXcXbXbXbXbXbXbXbX",
"bXbXcXfXfXiXiXiXfXcXvXvXgXwX>XyXU.O.' J q & $ @ % ; 5 H ( +.#.n.A.A.XX.XL.b.( p * $ @ O + O < 3 z ! e.R.[.tXuXuXcXbXbXbXbXbXvXfX",
"bXcXfXiXiXiXuXgXvXbXzXaX9X%X%X%XA.] U G 4 = % ; i [ A.U.#X$X|.$X}.J.G.G.H.G.m.+.Q H u = % + + # 3 h ! q.p.{.wXfXfXcXbXbXcXgXgXiX",
"vXfXiXfXfXgXgXcXbXvXvXrX:X@X}.C.^ i t = - ; F [ L.$X;X;X;X#XH.+.) E L E ) ..X.O.#.#.{ I 5 & % @ 3 3 s ! ` y.~.wXuXfXvXcXfXiXiXiX",
"iXiXiXfXvXvXbXvXbXzXxXyX;X|.a.Q y & @ @ * U m.}.%X$X@XL.i.o.q.3.3.` o.+.o.` o.....&.G.F.] I u % % 0 F H J _ y. XuXuXuXfXiXiXiXiX",
"iXiXiXfXfXfXvXbXbXzXyX;X/.d.~ a 0 @ & r [ U.#XJ.G.m.y.p.p.t.t.l.k.p.Z.}.%XP.u.+.o.X.=.G.=.$.{ H 5 = i L F L _ i. XuXuXuXiXiXiXiX",
"iXiXiXiXiXiXfXgXdXpX=X/.d.6.x q = 5 ( H.#X}.M.o.y.p.E.).<X3X1X3X2X X*XwX:X;X|.Z.C.m.*.&.&.=.=.#.I 4 ; P G G E o.N.*XuXuXgXvXcXcX",
"iXiXiXiXuXgXgXgXuX:X@XP.a.B a u I X.}.#XI.y.4.e.B.'.<XrXrXxXaXuXyXyXyXuXwXwX:X:X-X+X}.K.K..XXXG.#.u ; F J S G E o.^.0XfXvXbXbXbX",
"iXfXiXfXfXvXbXlXeX].R.d.a.v a i T I.:XXXn.e.t.R./.=XpXxXcXcXfXuXiXuXuXiXuXuXyXyX>X>X>X%X#X#X;X-XU.O.I F Q G S K ) p.6XkXlXbXbXbX",
"iXiXiXfXvXbXzXkX7X,Xh.6.^ B U Q #.@X@XN.t.v.`.OX9XyXuXfXfXsXfXiXiXiXiXiXuXuXiXuXuXiXyX>XuXyX@X$X-X#XG.I J L A G L 3.,XrXaXlXbXbX",
"iXiXiXfXgXfXlXhX,Xl.f.8.B W ] ] P.*XV.t.E.[.qXyXyXiXuXiXfXiXiXiXiXiXfXiXiXiXiXiXiXiXuXyXfXyX:X{.@X+XXX#.R _ G A G P t.6XeXuXdXdX",
"iXiXiXiXiXuXtX5X,Xf.7.C U T @.A.U.n.d.W.OX=XuXuXiXiXiXiXuXiXiXiXiXiXgXgXgXgXgXfXiXiXiXiXiXyXwX'.Z.+XXXH.X._ K Z A r 3.l.9XwXyXuX",
"iXiXiXiXuXyXOXc.9.,.b p Y @.H.#XG.L.~.&X9XyXiXiXfXfXgXfXiXiXiXiXiXgXbXbXbXbXvXfXiXiXiXiXiXuX:X XW.Z.}.I.&.o.E Z Z t a q.].wXuXfX",
"iXfXiXiXuX=XQ.0.C x r G ..G.%XXXY.%XyXyXuXuXuXfXvXbXbXcXiXiXfXiXgXvXbXbXbXbXbXbXfXiXfXiXiXuXyX=X].E.D.U.J.%...S Z ; q ~ ^.qXdXcX",
"vXcXgXuXyXoXd.6.W p G ( $.+X;X.X%X>XuXuXiXiXiXfXbXbXbXvXvXvXvXfXfXfXgXfXcXbXbXbXvXvXgXiXiXiXuXyX*X^.N.L.K.G.{ K Z ; 3 b j.9XtXfX",
"bXbXvXfX=X_.s.~ p i Q #.H.-X#XXX>XyXuXiXiXiXiXfXcXbXbXbXbXbXbXgXiXiXiXiXgXvXbXbXbXbXbXgXiXiXuXuXwX XZ.m..XJ.%.Y A - * z h.OXyXuX",
"vXvXcXdX9XQ.6.! p Q ' #.+X%XY.#X>XyXiXfXiXiXiXiXiXcXvXbXvXvXvXcXfXiXiXiXiXgXcXvXvXvXcXcXfXiXiXfXuXqX^.i.J.K.G.@.D - * z s.OXyXuX",
"fXfXuXuXOXV.^ W Q ^ { M.%X#XY.%X>XyXfXvXfXiXiXiXiXfXcXcXiXiXvXbXcXiXiXiXiXiXiXfXiXiXfXiXiXiXiXgXcXuX XZ.m.K.G.G.Y 4 = j 9._.9XuX",
"iXiXuXuXoXd./ ! ~ [ $.}.;XXXT.;XwXfXvXbXvXgXiXiXiXiXfXfXiXiXfXvXcXiXiXiXiXiXiXiXiXiXiXiXiXiXgXvXbXxXqXR.i.H.G.G. .Z = d f.`.=XtX",
"iXuXuX9X!.a./ / Q | m.-XT.L.{.*XwXfXcXbXbXvXfXiXiXiXiXiXiXiXiXcXcXiXiXiXiXiXiXiXiXiXiXiXiXiXfXvXbXbXaX2XB.+.G.G. .S @ j r.,X0XwX",
"iXfXdXqX!.6./ W i U | :XU.N.~.*XuXuXfXbXbXbXvXgXfXiXiXiXiXiXiXcXvXgXiXiXiXiXiXiXiXfXgXgXgXuXiXfXcXbXlX6XW.y.H.H.#.t # g r.,X7XpX",
"fXvXzXhXl.0.~ r 0 W A.%XP.Q.|.9XuXuXfXbXbXbXvXcXiXiXiXiXiXiXfXvXbXvXfXfXfXiXiXiXfXcXbXbXvXgXfXuXsXvXlXrX<XZ.=.G.@.5 # g r.,X7XhX",
"vXvXzX8Xx.w.W 3 5 ( U.XXS.R.].wXuXgXvXbXbXgXfXfXiXiXiXiXiXiXcXbXbXbXvXvXgXiXiXiXcXbXbXbXbXbXgXuXfXfXuXqX|.u.O.G.] % < k 9.v.OXtX",
"bXbXzX7Xj.0.a $ $ ^ P.XXXX}.&XwXdXvXbXbXcXfXiXiXiXiXiXiXiXfXvXbXbXvXgXgXfXiXfXcXbXbXbXbXgXgXfXfXuXuXyX:X|.u.o.=.$.= < k 9.j.oX9X",
"cXcXaX4XV./ e $ a | I.#XL.~.*XpXvXbXbXvXfXiXiXiXiXiXiXiXfXgXbXbXvXcXiXiXiXfXcXvXvXcXcXcXiXiXiXiXiXiXuX:X|.p.o.&.+.t 3 l 9.j.[.9X",
"uXuXuXOXV./ e 0 ' #.#X#XC.R.*XlXbXbXbXvXfXiXiXiXiXiXiXiXgXbXbXvXgXiXiXiXiXgXvXvXfXiXiXiXiXiXiXiXiXiXuXwX|.p.o.*.m.G 1 -.9.j.].9X",
"iXuXwXOXQ./ e 0 U } #X#XP./.eXcXvXbXvXfXiXiXiXiXiXiXiXgXvXbXbXcXfXiXiXiXiXiXfXfXiXiXiXiXiXiXiXiXiXiXuX:X|.p.` %.S.F 2 ;.8.j.[.9X",
"iXiXuX*XQ.6.b H J { @XXXI.U.:XeXfXgXgXiXiXgXvXvXcXiXiXfXgXgXvXvXcXcXiXiXiXiXiXiXiXiXiXiXiXiXgXvXcXuXuX9X|.u._ &.M.i f :.8.c.3XrX",
"fXiXuX9X`.9.~ P K ] S.XXM.B.[.9XuXuXuXfXgXvXbXbXbXcXfXiXiXiXgXvXbXbXcXgXfXiXiXiXiXiXiXiXgXgXvXbXcXuXyX:X|.p.o.=.A.p x C f.v.7XkX",
"iXuXuXeX,Xg.5.b i U A.%XD.t.<XqXuXuXiXuXcXbXbXbXbXbXgXiXiXiXiXcXbXbXbXbXcXfXfXiXiXiXfXgXbXbXvXcXiXuXuXwX:XP.%.F.^ y m ,.f.,X8XkX",
"iXiXdXkX5Xx.6.c y a | ;X}.p.).rXsXuXiXfXfXcXbXbXbXbXgXiXiXiXiXcXbXbXbXbXbXvXvXiXiXiXgXvXbXbXgXiXiXuXdXaX[.p.n.U.^ e m 1.h.v.8XkX",
"iXcXvXkX2Xj.0.b e y ^ }.|.N.W.6XkXgXuXiXiXfXfXgXbXbXgXiXiXfXcXbXbXbXbXbXcXgXfXiXiXgXbXvXgXgXiXiXiXxXkXeX'.y.%.U.] h m 5.s.z.2XpX",
"iXgXgXpX=XQ.8.! x f b V.-XS.Z.[.0XpXuXfXiXiXiXiXgXbXgXfXcXcXbXbXbXbXbXcXfXiXiXiXiXgXcXgXiXiXiXfXxXlXaX<Xt.` =.L.R z m ,.j._.=XyX",
"iXiXiXyX9X_.h.,.;.g k | -XU.y.D.oXuXuXuXiXiXiXiXiXcXgXgXbXvXvXcXvXvXcXfXiXiXiXiXiXiXiXiXiXiXfXcXbXlXeX'.q._ J.%.I z l ,.j._.=XuX",
"iXiXiXuXwXoXc.r.>.M k ! C.+X+.N.|.9XyXuXiXiXiXiXiXiXiXgXcXfXiXfXfXiXfXiXiXiXiXiXiXiXiXiXiXiXcXvXlXdXqX~.` o..X@.p d m a.z.OX9XuX",
"iXiXiXiXuX*X(.h.1.M k x ^ I.$.q.~.&XwXuXuXiXiXiXiXiXiXfXfXiXiXiXiXiXiXiXiXiXiXiXiXiXiXiXiXiXuXsXkXeX Xy.) %.%.T a N 1.j._.OXyXuX",
"iXiXiXuXtX9X_.j.8.:.k f P $.H.o.p.~.:XwXuXuXfXcXcXfXiXiXiXiXiXfXiXiXiXiXiXiXiXiXiXiXiXiXiXiXiXyXyX:XD.) @.I.{ U N ,.s.j._.=XsXdX",
"iXiXfXfXyXyX*X!.d.2.N h z ( Y.F.+.C. X:XyXfXcXbXcXfXiXiXiXiXiXiXiXiXiXiXiXiXiXiXiXiXfXfXiXuXiXyX-XT.o. .H.$.U v V 1.s.z.OXtXxXzX",
"fXfXcXvXfXyX9XoXj.6.C k h s O.K.F.i.Z. XwXxXbXvXiXiXiXfXfXiXfXfXfXfXiXiXiXiXiXfXfXfXgXvXuXyXuX>X%XK.X.G.I.{ v N ,.a.j.oX9XaXzXbX",
"vXvXbXbXxXuXyX*X!.d.6.B j h Q L.#XA.y.R.sXcXvXcXiXiXiXgXvXvXvXvXvXcXfXiXiXiXfXvXvXvXvXzXkX*X X$XK.=.G.T.A.U v C 1.h.z.2XaXvXbXbX",
"bXbXbXbXvXfXyX9XoXR.0.2.m j y } %X;X}./.pXxXsXtXyXuXuXfXcXbXbXbXbXbXcXfXuXsXcXbXzXbXcXjXeX^.a.| &.H.#XY.^ c M 1.f.v.5XaXlXzXbXbX",
"bXbXbXbXvXfXuXwX*X/.z.9.,.m e s | +XwXyX=XuX9XwXwXwXyXuXiXgXcXvXbXvXbXcXdXcXbXzXlXlXxX3Xl.w./ O.Y.%XU.` m -.,.9.x.5XhXzXzXvXbXbX",
"bXbXbXvXvXfXuXuXwX2X,Xx.r.:.x y a ' U.>XyX@X{.*X$X;X:XyXiXiXiXcXbXvXvXzXvXlXkXkXrX6X3X Xp.n.G.I.+XU.} k -.<.1.h.,X8XkXzXbXbXbXvX",
"bXbXcXfXfXiXiXuXpXkX8X,Xf.5.M j f a ^ A.@XyX$X.XT.#X%X;X>XyXyXgXxXkXkXjXrXrX6X1X<XW.~.I.J.T.XX.XL.q.m -.>.1.s.z.4XhXzXzXvXbXvXfX",
"bXcXfXiXiXiXiXfXvXzXkX5X).s.,.V j f v ( $.XX;X%X%X%X%X:XyX>X;X>X:X X[.'.'.).W.E.'.|.#X#XXXXXXXA.^ k l -.<.9.j.oX9XaXvXbXxXfXfXiX",
"cXfXiXfXgXgXcXcXbXzXzX8XOXz.s.1.V x f a R @.F.#X;X:XwXfXiX;X#X+XP.N.i.n.C.C.Z.}.$X$X%X%XXXH.| B j g -.>.1.h._.=XyXsXgXcXfXiXiXfX",
"iXiXiXfXvXvXbXbXbXbXvXtX=XoXz.s.1.C x e y I T @.G.}.:XsXyX:X$X#XU.K.J.I.K..X.X.X#X$X#XL.} B h 7 2 8 -.1.h.oXOXyXyXsXiXiXiXiXiXiX",
"iXiXiXiXfXiXcXbXbXvXfXuXyX9XOXz.s.8.C V h q u G Y R %.U.@X;X$X$X#XXXY.Y.Y.#XXX}.U.b.( J 5 9 , 7 g <.1.j.oXOXuXuXiXiXiXiXiXiXfXiX",
"iXiXiXiXiXfXfXfXfXdXiXiXuXtX9XOXz.j.s.,.,.m j p u i i I R { O.' X.[ | b.b.y.| ^ p 3 $ $ < 6 d l 1.h.z.oX2XyXuXiXiXiXiXiXcXvXvXvX",
"iXiXiXiXiXgXcXcXgXiXiXiXiXuXyXwXOXOXx.g.f.1.,.N z e e w w q 0 5 5 3 0 r p i 0 $ $ < 9 6 j M 1.f.z._.oX9XyXuXiXiXiXsXcXcXvXbXvXgX",
"iXiXiXiXgXbXbXbXvXgXfXfXiXiXiXpXpXrX5X1X,Xg.f.,.C B m l j 7 e w 3 w w 9 9 q w 6 d j m ,.1.g.,X,X7X0XpXtXiXuXiXfXgXgXbXbXbXbXvXiX",
"iXiXiXgXvXvXbXbXbXvXbXgXiXiXsXcXzXzXkXhX5X1Xx.s.a.5.,.,.C V m V m m n n k k V V ,.5.8.h.v.1X5X8XhXlXzXgXiXiXiXcXvXbXbXbXbXbXcXiX",
"iXiXiXfXfXfXvXbXbXbXbXbXgXiXiXfXcXvXzXzXtX4XOX_.c.j.s.s.s.5.5.1.5.,.5.1.8.8.8.s.h.j.z._.OX2XaXzXzXvXbXzXcXiXiXfXcXbXbXbXgXfXfXiX",
"iXiXiXiXiXiXgXcXbXbXbXbXcXiXiXiXgXdXdXgXyXyX9X9X*XoX_.!.z.j.j.j.j.h.c.x.c.x.v.z._.oXOX2X9XwXtXxXbXbXbXbXcXiXiXiXgXgXgXgXfXiXiXiX",
"iXiXiXiXiXiXiXfXvXbXbXbXcXfXiXiXiXiXiXiXiXiXuXyXpXtXtX2XOXOXoXoXOX4X5X5X5X8X8X0X9X9X9XyXyXuXyXfXvXbXbXbXvXgXiXiXiXiXiXiXiXiXfXgX",
"iXiXiXiXiXiXiXiXgXbXbXbXbXvXiXiXiXiXiXiXiXiXuXsXzXzXvXdX9XyX9X9XpXhXkXkXlXlXkXlXuXtXuXuXuXyXuXiXsXbXbXbXbXvXfXiXiXiXiXiXiXiXgXvX"
};
