/* XPM */
static char *result[] = {
/* columns rows colors chars-per-pixel */
"64 64 240 2 ",
"   c #151C2D",
".  c #1C2539",
"X  c #1C253C",
"o  c #222A3D",
"O  c #1D2746",
"+  c #1E2944",
"@  c #232D44",
"#  c #232D4C",
"$  c #283246",
"%  c #25314B",
"&  c #2A354D",
"*  c #263353",
"=  c #293653",
"-  c #293254",
";  c #2D3954",
":  c #29355C",
">  c #2D3B5C",
",  c #313D56",
"<  c #313E5B",
"1  c #2A3767",
"2  c #2D3C62",
"3  c #273369",
"4  c #313E62",
"5  c #313E6C",
"6  c #2A3977",
"7  c #374558",
"8  c #34425C",
"9  c #344364",
"0  c #394866",
"q  c #35446A",
"w  c #3A4A6D",
"e  c #334473",
"r  c #374875",
"t  c #374876",
"y  c #3B4D73",
"u  c #33437C",
"i  c #3B4C7B",
"p  c #3E517A",
"a  c #424C5A",
"s  c #47576A",
"d  c #47546C",
"f  c #455678",
"g  c #4D6176",
"h  c #566879",
"j  c #0D2C95",
"k  c #112D93",
"l  c #143698",
"z  c #1A3D9B",
"x  c #253B8E",
"c  c #153DA2",
"v  c #1C419E",
"b  c #3B4C84",
"n  c #374989",
"m  c #3D5183",
"M  c #284696",
"N  c #384C95",
"B  c #3C5498",
"V  c #1A47A5",
"C  c #1C52AE",
"Z  c #1858B2",
"A  c #2553AB",
"S  c #3053A6",
"D  c #245BB2",
"F  c #2766B9",
"G  c #396FB9",
"H  c #2A74BE",
"J  c #415483",
"K  c #455983",
"L  c #495D85",
"P  c #42558C",
"I  c #475B8C",
"U  c #455B95",
"Y  c #4B628A",
"T  c #546984",
"R  c #5D738C",
"E  c #4A6296",
"W  c #4D659A",
"Q  c #536999",
"!  c #667787",
"~  c #6A7D8F",
"^  c #455CA3",
"/  c #4A66A8",
"(  c #546CA7",
")  c #5A73A8",
"_  c #4869B4",
"`  c #4876B9",
"'  c #5875B4",
"]  c #5E7AB4",
"[  c #5B7BBB",
"{  c #627BAB",
"}  c #627EB4",
"|  c #2B79C4",
" . c #3176C3",
".. c #557EC2",
"X. c #3782BF",
"o. c #6B8494",
"O. c #758A98",
"+. c #5D83BE",
"@. c #748FAB",
"#. c #6483BD",
"$. c #6987BA",
"%. c #2D85C7",
"&. c #3789C8",
"*. c #3A93CB",
"=. c #3A9BD1",
"-. c #4788C9",
";. c #5A89C5",
":. c #4494CD",
">. c #4B94CD",
",. c #4A98C9",
"<. c #5797CC",
"1. c #4C8BD2",
"2. c #4A9BD2",
"3. c #5895D4",
"4. c #539CD2",
"5. c #5B9CD2",
"6. c #648BC6",
"7. c #6C8DC3",
"8. c #708FC4",
"9. c #6394CB",
"0. c #6D94C9",
"q. c #639CCE",
"w. c #6C9ACD",
"e. c #7698CB",
"r. c #749BCD",
"t. c #669AD4",
"y. c #6C9CD2",
"u. c #769DD1",
"i. c #4AA0CD",
"p. c #59A5CE",
"a. c #49A4D4",
"s. c #5BA3D3",
"d. c #57A8D5",
"f. c #5CADDA",
"g. c #5BB2DA",
"h. c #68A6CE",
"j. c #63A3D3",
"k. c #6BA4D4",
"l. c #64ABD5",
"z. c #6CABD5",
"x. c #67A5DA",
"c. c #63ACDB",
"v. c #6BACDB",
"b. c #73A3D3",
"n. c #7CA4D3",
"m. c #74ABD6",
"M. c #73ADDB",
"N. c #7BABD9",
"B. c #66B3D8",
"V. c #63B3DC",
"C. c #6CB4DC",
"Z. c #6CBBDD",
"A. c #7AB1D5",
"S. c #73B4DB",
"D. c #7CB3DB",
"F. c #74BADD",
"G. c #7BBADD",
"H. c #5FB9E0",
"J. c #69B9E1",
"K. c #78B6E1",
"L. c #73BCE2",
"P. c #7CBCE1",
"I. c #7AC2DC",
"U. c #6CC1E1",
"Y. c #74C4E3",
"T. c #7CC4E3",
"R. c #76CAE6",
"E. c #7CCBE5",
"W. c #7DD5E8",
"Q. c #84919B",
"!. c #849DA9",
"~. c #919DA5",
"^. c #8AA8B6",
"/. c #92A9B2",
"(. c #96ABB5",
"). c #A5B4BC",
"_. c #859EC6",
"`. c #81A2CE",
"'. c #99B9C5",
"]. c #84AAD7",
"[. c #84B4DB",
"{. c #8BB3D8",
"}. c #83BCDD",
"|. c #8BBCDD",
" X c #95B9DC",
".X c #A9BCC3",
"XX c #86B7E1",
"oX c #85BCE3",
"OX c #93BDE2",
"+X c #9EC1CD",
"@X c #83C1DE",
"#X c #8CC2DE",
"$X c #96C6DE",
"%X c #A4C4CE",
"&X c #A7CBD6",
"*X c #B6CBD1",
"=X c #AED2DC",
"-X c #83C4E2",
";X c #8BC5E3",
":X c #83CBE4",
">X c #8CCCE4",
",X c #84CBE8",
"<X c #93C5E2",
"1X c #9AC4E2",
"2X c #94CCE4",
"3X c #9ACCE4",
"4X c #89D3E7",
"5X c #93D3E5",
"6X c #9BD3E5",
"7X c #97DAE8",
"8X c #A1CEE5",
"9X c #A2D3E4",
"0X c #A4D9E7",
"qX c #A7D8E7",
"wX c #B5DCE6",
"eX c #B9DDE6",
"rX c #B8DAE8",
"tX c #8DE3EA",
"yX c #A9E0E8",
"uX c #B5E1E7",
"iX c #BCE4EC",
"pX c #CAD8D9",
"aX c #CDD9DA",
"sX c #C9DDE3",
"dX c #C4E6ED",
"fX c #D9EAE9",
"gX c #C5EDF4",
"hX c #CCEFF4",
"jX c #D9EEF2",
"kX c #C8F0F7",
"lX c #CBF4FC",
"zX c #CEF8FF",
"xX c #D6F4F8",
"cX c #D3F9FE",
"vX c #DBFAFE",
"bX c #E2EFEC",
"nX c #E6F6F4",
"mX c #E3FCFC",
"MX c #ECFEFC",
"NX c #F2FFFB",
/* pixels */
"zXzXzXzXcXzXmXNXNXNXNXNXNXmXcXzXzXzXzXzXzXzXzXzXzXzXzXmXMXzXzXzXzXzXzXzXzXzXzXzXzXzXzXzXzXzXmXNXNXNXNXNXMXMXcXzXzXzXzXzXzXzXzXzX",
"zXzXzXzXzXzXcXMXNXNXNXmXvXvXzXzXzXzXzXzXzXzXzXzXzXzXzXcXvXzXzXzXzXzXzXzXzXzXzXzXzXzXzXzXzXzXcXmXNXNXNXMXvXvXzXzXzXzXzXzXzXzXzXzX",
"zXzXzXzXzXzXzXcXmXmXmXcXzXzXzXzXzXzXzXzXzXlXcXvXvXzXkXlXzXzXlXlXzXzXzXcXzXzXzXzXzXzXcXzXzXzXzXcXmXmXmXcXzXzXzXzXzXzXzXcXzXzXcXvX",
"zXzXcXcXzXzXzXzXcXzXzXzXzXzXzXzXzXzXzXzXzXcXmXNXjXdXiXrX&X$X+X'.^.^.^.uX&XuXiXkXzXzXzXxXzXzXzXzXzXzXzXcXzXzXzXzXzXzXzXzXzXcXvXNX",
"zXzXmXmXcXzXzXzXzXzXzXzXzXzXzXzXzXzXzXzXlXnXnXnXhXeX(.g @ 7 8 8 % @ * 7 @ 7 w =XhX=X%XnXcXzXzXzXzXzXzXzXzXzXzXzXzXzXzXzXzXvXNXNX",
"mXMXMXNXmXcXzXzXzXzXzXzXzXzXzXzXzXzXzXzXmX(.g h !.o.o 8 y w w w Y Y q & $ = ; g s 8 = ~ jXdXgXzXzXzXzXzXzXzXzXzXzXzXzXzXvXNXNXNX",
"NXNXNXNXMXcXzXzXzXzXzXvXmXvXzXvXmXvXmXjX~.&   . @ 8 w Y E K Y Y 0 w w , 0 9 & ; # 4 * X h o.^.gXzXzXzXvXnXvXcXvXvXmXmXvXNXNXMXmX",
"NXNXNXNXNXcXzXzXzXzXcXMXNXmXcXnXNXNXpX! X @ = e m P ( $.Y p p p I Q Y f L w ; < % 9 r 2 * @ . T wXzXzXmXNXMXzXmXNXNXNXNXNXNXMXcX",
"NXNXNXMXMXcXzXzXzXcXMXNXNXmXkXgXfXQ.$ # # 1 U B b P Q ( I P Q ] ] ' w.) K i 5 6 1 : U U x & o O 7 '.nXNXNXMXzXzXmXNXNXNXNXNXNXMX",
"NXNXmXcXcXcXzXzXcXMXNXNXnXcXkXgX~.$ # @ ; i U W Q Q K J U I ] 7.7.;.w.w.{ { Q f b J b n 6 5 r 1 : g aXfXnXlXzXzXmXNXNXNXNXNXMXvX",
"NXmXcXzXzXzXzXcXmXNXNXNXjXgXgXwX< = - @ < K K ) { { $.@.} } ' #.8.`.$X[.n.u.{.$.) 6.m 5 6 P J U e = ! aX*X=XzXzXcXmXNXNXmXvXvXzX",
"mXvXzXcXvXcXcXmXNXNXNXMXhX%X!.f = d & < w K ) ) { $.u.n.7. XA.b.n.]. X[.K.0.u.$X_.{ Q I r x I ( i : = ~ o.+XlXzXzXcXMXmXcXzXzXzX",
"cXzXzXcXMXMXNXNXNXNXNXeXo.g 8 t 4 , , d f Q } `.{.8.r.e.u.[.D.m.T.,XA.y.w.6.;.b.e._.`.8.Q U x U t e q * ; O.^.zXzXzXzXzXzXzXzXzX",
"zXzXzXcXcXcXMXNXNXNXxX=X8 9 w K 4 4 f Q } e.e.1X X_.n.n.<X[.n.m.:X4XF.9.6.y.q.w.8XOXOXu.7.6.^ N q i 9 p 8 g O.zXkXzXzXzXzXzXzXzX",
"zXzXzXzXzXzXcXvXxX%X=X@.& : e 9 4 d I } {._.u. X X0.b.r.S.T.[. X|.].N.u.G.P.}.k.,X}.3X|.].0.[ ^ n q p q = % T iXcXzXzXzXvXMXmXmX",
"zXzXzXzXzXvXvXxXxX^.7 X * 9 9 i U P } `.{.e.u.].{.A.-Xm.G.-X0X7X;X1X8X X8X;XG.S.D.q.k.oX<X].0.' U u u 9 9 > > +XzXcXvXvXMXNXNXNX",
"zXzXzXzXcXMXNXNXNX.X@ @ < 4 U P N ^ 0.D.u.b. X[.<XA.<X>X7X0XwX7X7XqX6XOXOXrX9X-Xm.p.;.;.y.x.XXb.) b 5 b K y 9 ! ^.jXNXNXNXNXNXNX",
"zXzXzXvXMXNXNXNXNXh o - 5 5 P ^ / } u.D.6.M.2XOX#X8X6X0XyX7XqXrX8XrX3XoXrXsXqX6X:XC.C.q.6.t.XXOXu./ P / / I y o , *XNXNXNXNXNXNX",
"zXzXzXcXvXvXMXNXnXd o # : 5 P ( ].XXOXN.6.M.6XqX2X6X3X;X#XS.C.M.v.m.[.D. X XOX3X5X:X4XS.3.v.P.,XoX0.' .._ ' I 5 7 ~.aXNXmXcXvXvX",
"zXzXzXzXzXzXvXMXaX& @ 1 n P ( r.1X8XXXM.9.D.6X9X9X<XD.l.C.F.G.l.4.1.3.v.v.v.N.OX-X7X7X2Xl.c.K.S.3Xn.8.' n P f d 7 Q.sXmXcXzXzXzX",
"zXzXzXzXzXzXzXvX.Xa 4 6 _ ..n.XX;X[.6.j.D.5X4X>X5X0X@Xv.z.v.K.Z.c.d.f.f.v.v.t.t.{.9XqXeX-XC.M.C.L.P.XX[ U f d - X h iXzXzXzXcXcX",
"zXzXcXzXzXzXzXeXd L r P ) t.u.N.oXy.k.F.,X7X7X5X4X-X@XD.[.v.g.V.l.s.3.s.l.G.c.-.;.D.3XwX0X>X:XG.J.oXOXt.( P L 5 8 = o.kXzXzXcXMX",
"MXMXvXzXzXzXkX^.w L 5 P ' [ M.XX5XoXZ.R.:X5X6X0X5XF.A.l.l.v.c.v.G.A.5.>.<.j.B.C.3.;.-X2XwX7X7XK.L.,XqXXX} W J f y ; o.gXzXzXcXvX",
"NXNXMXvXzXzX^.0 0 L q ^ _ [ N.<X7X7XR.:X7X6X-XG.[.C.s.4.p.m.s.t.q.9.b.>.5.5.j.C.V.3.S.;XeXyX7XY.L.R.7XoX`.( J P q $ h eXzXzXzXzX",
"MXMXMXmXlX=Xs = y Q Y U ( 6.].>X,X,XW.7X0X$XS.l.j.C.l.s.q.<.&.| &. .-.;.1.:.p.j.V.f.d.F.rXqXE.R.J.J.,XoX].} P W w $ o ^.zXzXzXzX",
"zXzXzXzXiXo.X 8 q Q ) E ] u.D.,XM.L.4XuXwX#Xz.z.l.l.z.p.2. . .D  .F D ..-.%.:.<.s.l.P.S.wX3XT.L.v.c.c.XX`.8.( I p 0 & o.vXzXzXzX",
"zXzXzXzXlXT + % 8 y Q +.+.0.m.w.x.5X0XuX2X Xl.f.Z.V.<.>. .| F F A C A S A F *.:.2.2.F.I.#X|.$X:XW.R.K.y.N.].} / p y 8 h sXvXzXzX",
"zXzXzXzXkX).0 = 8 8 y ' ].w.9.y.S.,X0XyX;XD.C.G.Z.,.-. .| Z V v c V V V V F &.,.,.p.U.@X@X$X&XT.W.,XK.u.t.e.} J e 8 8 o.aXnXvXzX",
"zXcXvXxXvX%Xs = 8 8 9 { ].9.9.P.,X:X7XyX2XF.C.L.4.-.&.%.Z j k z v v v l M S H ,.p.l.U.U.F.{.$XE.W.Y.V.G.0.[ ( y i 8 ; O.bXbXMXvX",
"cXmXNXnXjX!.% o w w f +.b.9.;.v.:XT.4X7X-Xf.Z.c.>.,.&.H v k c A G F C M x M H d.p.h.g.g.G.m.#X5XtX4XZ.>X{.7.) U I w J d pXnXMXMX",
"MXNXNXMXMX).= o g y E $.6.v.M.q.C.,X4X7X-Xd.H.d.:.a.&.A k v C G ;.i.H S z v H p.l.i.p.Z.G.m.$XtX7XY.L.,X}.0.7.#.W w Y s aXjXxXvX",
"NXNXNXNXjX).s @ Y Y Q $.w.M.,Xl.t.5X7X7X>Xc.f.a.:.a.%.v j V S -.h.I.%.Z v v %.p.B.g.B.U.F.A.2X4X4X:X,X5XD.0.8.#.U < , a (.lXzXzX",
"mXmXmXvXiX!.O.o f T ( ..+.u.T.L.K.7XyX5XoXZ.f.>.-.a. .A l c V  .%.%.H Z v V H =.d.g.F.U.h.A.@X6XtX4X5X6X#X8.) U P y = & (.zXzXzX",
"zXzXzXlXkXuXO.. 4 0 f ' ' 6.9.t.T.qXyX,XC.f.V.a.&.=. .D v l c V Z D C V V Z H ,.d.s.h.B.m.m.S.=X7X4X5Xn.e.{...U 5 r @ . /.zXzXzX",
"zXzXzXlXzXzX^.o 8 < f ' ' 6.q.J.v.5X7X,XI.s.l.f.*.=.&.D z k j k v l v V V Z H ,.s.p.f.g.4.4.A.6X,X:X;X[.0.u._ N q ; 9 g kXzXzXzX",
"zXzXzXzXzXzX).& , 0 ( ( [ D.S.S.C.,X0X7X>X5.z.F.2.&.>. .V k k k j v V V v A G <.l.s.s.c.5.m.1X2XL.q.v.P.{.{.^ n 1 $ 8 g +XxXMXmX",
"zXzXzXcXxXnXaX7 ; f U ( 7.;XP.,XF.c.>X4XG.|.G.F.s.-.*.a.| C k k k v v v M ` +.g.d.4.d.f.z.|.OX3X>XS.C.z.|.{.G 6 2 & . 0 o.xXNXNX",
"zXzXcXvXfXnXaXw < f J W } N.>XoXt.d.Z.:X4X2X#XA.C.4.&.2.2.&.C l k v D X.=.p.g.a.4.d.C.l.x.{.D.K.S.F.S.y.6.' M 6 6 ; & +XsXnXNXNX",
"zXzXvXNXnXaX*Xf - $ < f ' 6.K.P.3.5.J.V.#X#X#Xm.V.S.p.:.=.&.|  .Z Z X.i.a.g.g.i.4.V.U.C.m.|.XXt.S.P.D.b.6._ B 3 q q 8 '.cXvXNXNX",
"zXmXNXMXvXlXdXh o # f 5 ( ].u.b.L.Y.H.g.@X$XG.x.v.Z.Z.a.*.*.&.| %.X.*.*.i.a.p.i.>.Z.R.-XoX[.z.S.v.M.oXM..._ n u t 9 X R lXcXvXvX",
"zXvXmXvXzXzX+X/.s $ r m J [ 6.y.L.P.f.4.@X#XF.#X}.Y.J.g.d.d.2.=.i.2.,.:.2.1.3.4.c.Y.5X,XM.m.<.y.M.v.2X1X9.B 6 m e 8 $ ^.zXzXzXzX",
"zXzXzXzXzXzXdX/.a o 0 m J N ( 6.x.L.t.<.c.@X#X6XT.F.T.C.d.a.f.3.:.i.s.a.1.-.3.f.J.;X$XoXz.p.;.` 3.M.|.w.;.B 1 # # # o.lXzXzXzXzX",
"zXzXzXzXzXzXvXO.= . 9 9 p u J ( 0.N.;.x.R.E.#X9X#XB.S.S.M.3.1.x.5.v.J.V.l.M.c.C.<X$X2XD.F.m.q.;.;.[.r./ / n 1 O + T uXlXzXzXzXzX",
"zXzXzXzXzXzXxX*Xs . q q e 2 u ( } 6.t.K.C.Y.:X#X>XF.#XF.M.x.t.OXXXx.G.}.{.$X>X$X2X6X>XG.Z.C.C.;.9.6.' B x 3 3 > ^.'.lXzXzXzXzXzX",
"zXzXzXzXzXzXzXhXg s s t q m b i Q $.S.9.<.f.B.-XI.I.:XI.;XXXP.9X3X3X3XqX2X6XqXuXyX0XY.l.p.<.z.#.7.} _ ' m : O f +X^.kXzXzXzXzXmX",
"zXzXcXcXzXzXlXgX=X'.o.q > f / b f { r.t.C.Z.c.Z.U.Z.7XE.2X8X9X5X4X,X5XqX>X>X6X9X5X:XU.J.B.9.' ) U J b i : O O f %XiXzXzXzXcXmXNX",
"cXcXmXMXcXzXzXzXzXiXR o.R q U u P ) r.r.D.C.s.B.B.d.U.Z.Z.U.E.5X5X5X4XY.E.T.>XT.R.T.E.4X4XF.;.G n 4 - 1 * O % '.zXzXzXzXcXmXNXNX",
"MXMXNXMXMXcXzXzXzXzX@.O.'.9 ; 6 i e Q $.$.9.k.k.p.l.4.i.g.U.J.F.J.,XW.W.R.:XZ.C.:X:XK.-Xm.;.` B 5 : * q 9 : ~ lXzXzXzXzXmXMXNXNX",
"NXNXNXNXMXcXzXzXzXzXzXO..Xh . # e 5 t L ) +.5.w.C.h.z.F.E.4XC.j.c.L.I.Z.B.l.j.z.T.oXM.XXN._ ^ b 5 y 4 e * % !.mXmXmXmXmXNXNXNXNX",
"NXNXNXNXMXcXzXzXzXzXvXsX*X).< @ 2 t q 2 f Q ;.] ;.z.N.G.2X>XS.9.k.F.I.z.q.q.q.9.y.OXe.e.$.^ / b b i # # O d '.vXnXNXNXNXNXNXNXNX",
"NXNXNXMXMXcXzXzXzXcXNXNXMX*Xd + = 2 2 e q 1 i W ( ;.9.XX;X[.G.z.0.r.G.q.;.7.{.$.6.].' ^ / / U n 1 - # d ~ pXgXzXmXNXNXNXNXNXNXMX",
"MXNXmXcXzXzXzXzXcXNXNXNXmXxX'.< # # # * : : 3 4 L #.;.5.XX{.[.w.+.7.7.$.r.' / / } ;.N 6 n U m e * = O.~.fXcXzXzXmXNXNXNXNXNXmXcX",
"NXmXcXzXzXzXzXvXMXNXNXNXmXlXlXrX(.0 @ : 3 3 3 e f K / B / ) $.$.( U U } ] ^ N N n N x 6 5 E 2 & Q.pXnXaXnXzXzXzXcXmXNXNXmXcXcXzX",
"mXcXzXcXvXvXvXMXNXNXNXmXcXzXzXkX^.O.& @ : 3 e p 9 f q i i I E ) E u q K y J e b 5 3 5 < # = O 7 ).*XNXMXvXzXzXzXzXcXmXmXcXzXzXzX",
"zXzXzXcXMXMXNXNXNXNXMXvXzXzXzXzXiXuX@.8 9 * + @ ; w q f w y L ) { K 0 < < w ; ; 9 9 ; o 7 7 s ~.).aXNXvXzXzXzXzXzXzXzXzXzXzXzXzX",
"zXzXzXzXcXzXmXNXNXNXcXzXzXzXzXzXzXzXzX&XwX@.h h , @ $ w 0 w y w y w K 8 , < ; $ $ , # ! eXiXfXbXNXnXvXzXzXzXzXzXzXzXzXzXzXcXzXzX",
"zXzXzXzXzXzXcXcXcXcXzXzXzXzXzXzXzXzXzXzXmXnXMXpXh $ o $ * 2 9 9 ; > 8 9 9 8 9 9 O.+X'.iXzXzXcXcXcXcXcXzXzXzXzXzXzXzXzXzXmXMXMXMX",
"zXzXzXzXzXvXmXmXvXzXzXzXzXzXzXzXzXcXmXmXMXMXMXxXiX(.~./.h + + + .   . @ w o.* % O.kXzXlXkXvXmXmXvXzXzXzXzXzXzXzXzXcXmXmXMXNXMXmX",
"zXzXzXzXvXNXNXNXMXvXcXcXzXzXcXcXvXmXNXNXNXNXnXzXlXiXxXmX(.h h s 7 0 h O.+XyX@.(.&XzXzXzXcXMXNXNXMXvXcXcXzXzXzXcXcXvXNXNXNXNXmXzX",
"zXzXzXvXMXMXNXNXNXNXNXvXzXzXcXMXNXNXNXNXNXNXvXzXzXcXzXcXcXkXkXlXkXkXlXzXzXzXzXzXzXzXzXcXMXNXNXNXNXNXNXmXzXzXcXmXNXNXNXNXNXNXmXzX",
"zXcXzXzXcXcXMXNXNXNXNXNXvXzXzXcXMXNXNXNXcXcXcXzXzXzXzXzXzXzXzXzXzXzXzXzXzXzXzXzXzXzXzXzXcXcXmXNXNXNXNXNXmXzXzXcXMXNXNXNXvXcXcXzX",
"zXzXzXzXzXzXcXMXNXNXNXNXmXzXzXzXcXvXvXvXcXzXzXzXzXzXzXzXzXzXzXzXzXcXmXmXvXmXmXzXzXzXzXzXzXzXxXmXNXNXNXNXmXzXzXzXcXvXvXvXcXzXzXzX",
"zXzXzXzXzXzXzXvXMXNXNXNXmXcXzXzXzXzXzXzXzXzXzXcXvXvXvXxXzXzXzXcXcXvXNXNXNXNXMXvXcXzXzXzXzXzXzXcXMXNXNXNXMXvXzXzXzXzXzXzXzXzXcXvX",
"zXzXzXzXzXzXzXzXcXNXNXNXNXMXzXzXzXzXzXzXzXzXzXcXNXNXNXmXzXzXzXzXvXNXNXNXNXNXNXNXcXzXcXzXzXzXzXzXcXMXNXNXNXMXcXzXzXzXzXzXzXzXcXNX"
};
