/* XPM */
static char *result[] = {
/* columns rows colors chars-per-pixel */
"64 64 209 2 ",
"   c #010101",
".  c #04060A",
"X  c #04090D",
"o  c #0B0C0C",
"O  c #11100F",
"+  c #070D14",
"@  c #090E14",
"#  c #0E1114",
"$  c #0B121B",
"%  c #131414",
"&  c #16191A",
"*  c #1C1C1D",
"=  c #0D1725",
"-  c #0F1B2A",
";  c #121A25",
":  c #1C1F20",
">  c #111D2D",
",  c #1F2325",
"<  c #1D252D",
"1  c #122234",
"2  c #1C2733",
"3  c #15263A",
"4  c #16293F",
"5  c #232424",
"6  c #252729",
"7  c #25292A",
"8  c #2B2B2B",
"9  c #30302F",
"0  c #242C37",
"q  c #2C2E31",
"w  c #2C3132",
"e  c #293339",
"r  c #333333",
"t  c #373837",
"y  c #333C3D",
"u  c #3C3C3C",
"i  c #413F3D",
"p  c #3C403F",
"a  c #43413F",
"s  c #182D47",
"d  c #1B324D",
"f  c #1D3654",
"g  c #1F3957",
"h  c #1F3B5C",
"j  c #283748",
"k  c #363E43",
"l  c #213C5D",
"z  c #293F5A",
"x  c #213E61",
"c  c #3B4243",
"v  c #3B4549",
"b  c #3C494C",
"n  c #2B445D",
"m  c #374958",
"M  c #244265",
"N  c #2B4664",
"B  c #25466D",
"V  c #27486E",
"C  c #2C496B",
"Z  c #354C66",
"A  c #294B73",
"S  c #284A74",
"D  c #2D527D",
"F  c #335171",
"G  c #434343",
"H  c #424A4C",
"J  c #4A4B4B",
"K  c #474D51",
"L  c #504F51",
"P  c #455153",
"I  c #4D5252",
"U  c #49575B",
"Y  c #535454",
"T  c #56585A",
"R  c #545A5B",
"E  c #5B5C5C",
"W  c #5C615F",
"Q  c #495966",
"!  c #555B61",
"~  c #615F61",
"^  c #5B6668",
"/  c #536772",
"(  c #566975",
")  c #626363",
"_  c #646967",
"`  c #656669",
"'  c #6C6C6B",
"]  c #656B75",
"[  c #6D7575",
"{  c #68797B",
"}  c #737474",
"|  c #717579",
" . c #727B7C",
".. c #7D7D7D",
"X. c #80807E",
"o. c #2E5584",
"O. c #2E598D",
"+. c #325B8C",
"@. c #335D91",
"#. c #366195",
"$. c #386296",
"%. c #36649B",
"&. c #38669E",
"*. c #3767A1",
"=. c #3969A3",
"-. c #3C6EAB",
";. c #3D70AD",
":. c #3F73B2",
">. c #6A7E82",
",. c #767E82",
"<. c #4075B5",
"1. c #4177B8",
"2. c #4279BC",
"3. c #447DC2",
"4. c #6C8286",
"5. c #778788",
"6. c #748B8E",
"7. c #768E92",
"8. c #7B8F92",
"9. c #7A9194",
"0. c #7C969A",
"q. c #7E989C",
"w. c #7F9BA1",
"e. c #4782CA",
"r. c #4985CD",
"t. c #4B89D4",
"y. c #838383",
"u. c #828987",
"i. c #848D8C",
"p. c #8C8C8C",
"a. c #8A918F",
"s. c #878D93",
"d. c #8C9392",
"f. c #889797",
"g. c #829A9E",
"h. c #939393",
"j. c #93959B",
"k. c #949B9A",
"l. c #9C9C9C",
"z. c #98A19E",
"x. c #839EA2",
"c. c #989AA1",
"v. c #86A1A6",
"b. c #8AA5AA",
"n. c #9CA5A3",
"m. c #99A7A8",
"M. c #8FACB1",
"N. c #92AEB2",
"B. c #96B5BA",
"V. c #99B4B8",
"C. c #A3A3A3",
"Z. c #A0A6A8",
"A. c #A3ACA9",
"S. c #ACACAC",
"D. c #A8B1AF",
"F. c #ABADB5",
"G. c #A9B5B6",
"H. c #B5B5B5",
"J. c #B6BABB",
"K. c #BBBBBB",
"L. c #B7C0BD",
"P. c #9CBCC1",
"I. c #A7BFC2",
"U. c #A5C3C7",
"Y. c #A3C4CA",
"T. c #B7C8C8",
"R. c #AACCD2",
"E. c #ADD0D6",
"W. c #AED2D9",
"Q. c #B2D6DC",
"!. c #BBD6D8",
"~. c #B3D8DE",
"^. c #B6DCE2",
"/. c #BADEE4",
"(. c #BDE4EA",
"). c #C4C4C4",
"_. c #C2CECC",
"`. c #CBCCCB",
"'. c #C6D7D7",
"]. c #CFD9D6",
"[. c gray83",
"{. c #D3DEDB",
"}. c #DBDBDB",
"|. c #CFE0DF",
" X c #D8E3DF",
".X c #C6E3E6",
"XX c #C2E6EB",
"oX c #C8E6E9",
"OX c #D7E8E7",
"+X c #C5EDF4",
"@X c #CCEDF2",
"#X c #D1EFF2",
"$X c #C9F0F7",
"%X c #CCF5FC",
"&X c #CEF8FF",
"*X c #D7F5F7",
"=X c #D3F9FE",
"-X c #DBFAFE",
";X c #E4E4E4",
":X c #E2EDE9",
">X c #EBEBEB",
",X c #E7F3EF",
"<X c #EAF6F2",
"1X c #ECF8F4",
"2X c #E3FCFD",
"3X c #ECFEFC",
"4X c #F3F3F3",
"5X c #F2FFFB",
"6X c #FEFEFE",
/* pixels */
"&X&X&X&X&X=X2X5X5X5X5X5X5X2X=X&X&X&X&X&X&X&X&X&X&X&X&X-X2X=X&X&X&X&X&X&X&X&X&X&X&X&X&X&X&X&X2X5X5X5X5X5X5X3X=X&X&X&X&X&X&X&X&X=X",
"&X&X&X&X&X&X=X3X5X5X5X2X-X-X&X&X&X&X&X&X&X=X&X%X%X+X+X@X@X+X+X+X+X+X$X(.(.%X+X+X+X+X%X&X&X&X=X2X5X5X5X2X-X=X&X&X&X&X&X&X&X&X&X&X",
"&X&X&X&X&X&X&X=X2X2X2X=X&X&X&X&X&X&X&X&X&X&X=X-X.XP.B.B.B.B.B.B.B.B.B.B.B.M.B.B.N.P.Q.%X&X&X&X=X2X2X2X-X&X&X&X&X&X&X&X&X&X%X=X-X",
"&X&X=X=X&X&X&X&X&X&X&X&X&X&X&X&X&X&X&X&X&X&X2X:XG.U y y y k p y p y y p c p p y y P 0.XX%X&X&X&X&X&X&X&X&X&X&X&X&X&X&X&X&X=X-X5X",
"&X&X2X2X=X&X&X&X&X&X&X&X&X&X&X&X&X&X&X&X~.L.A.k.5.^ E E E E E E E E E E U R R W E ~  .f.b.B.Q.$X&X&X&X&X&X=X&X&X&X&X&X&X&X-X5X5X",
"2X2X5X5X2X=X&X&X&X&X&X%X&X&X&X&X=X%X%XXXV.[ T T [ C.H.H.H.H.H.H.J.H.H.H.J.H.H.H.H.S.y.T I ^ v.~.$X&X&X&X&X&X&X&X&X&X&X&X-X5X5X5X",
"5X5X5X5X3X=X&X&X&X&X=X-X2X-X=X-X-X*X.XD.u._ E _ k.}.4X4X4X4X4X4X4X4X4X4X4X4X4X4X<X;XS.' E _ 5.b.Q.$X%X=X-X-X=X-X-X2X2X2X5X5X3X2X",
"5X5X5X5X5X=X&X&X&X&X=X3X5X2X=X2X5X,XL.) } k.H.K.[.6X6X6X6X6X6X6X6X6X6X6X6X6X6X6X6X6X;XK.K.l. .^ v.+X=X2X5X5X=X2X3X5X5X5X5X5X2X=X",
"5X5X5X5X3X=X&X&X&X=X3X5X5X2X=X=X2X,XC.9 ' ).4X6X6X6X6X6X6X6X6X6X6X6X6X6X6X6X6X6X6X6X6X6X6X[...u >.XX3X5X5X2X=X&X2X5X5X5X5X5X5X5X",
"5X5X2X=X=X&X&X&X-X2X5X5X2X=X&X&X2XOXn.r ' ).6X6X6X6X6X6X6X6X6X6X6X6X6X6X6X6X6X6X6X6X6X6X6X[.y.v >.OX1X5X3X=X&X&X2X5X5X5X5X5X2X-X",
"5X2X=X&X&X&X&X=X2X5X5X5X-X&X&X$X!.D.y.' C.}.6X6X6X6X6X6X6X6X6X6X6X6X6X6X6X6X6X6X6X6X6X6X6X;XS...| n.[.,X2X=X&X&X=X2X5X5X2X-X-X&X",
"3X=X&X=X=X-X-X2X5X5X5X5X-X&X&XXXB.[ _ S.{.4X4X>X>X>X>X>X4X6X6X6X6X6X6X6X6X6X4X>X>X>X>X>X4X4X}.H. .W A.OX-X&X&X&X&X=X3X2X=X&X&X&X",
"&X&X&X=X3X3X5X3X5X5X3X-X&X&X&X(.x.P E [.6X4X}.H.C.C.C.S.`.>X6X6X6X6X6X6X6X4X[.H.C.C.C.S.[.4X4X[...9 a.'.%X&X&X&X&X&X=X&X=X&X&X&X",
"&X&X&X=X=X=X3X5X5X3X-X&X&X&X&X(.g.H T [.6X>XH.) t u t Y p.}.6X6X6X6X6X6X6X4Xl.E G t u L C.;X6X}...8 8.~.&X&X&X&X&X&X&X&X&X&X&X&X",
"&X&X&X&X&X&X=X-X-X-X&X&X&X&X&X(.x.H T `.6X;Xl.9       & ' `.6X6X6X6X6X6X6X>X..6       % y.}.4X[...w 9.Q.&X&X&X&X&X&X=X&X2X2X2X2X",
"&X&X&X&X=X-X-X-X=X&X&X&X&X&X&X(.g.H T [.6X;Xl.t   .   * ' `.6X6X6X6X6X6X6X>X..8       & p.}.6X}...w 7.~.&X&X&X&X%X=X-X-X2X5X5X5X",
"&X&X&X&X=X3X5X5X3X=X=X&X&X&X&X(.g.H T [.6X;Xh.t * L 8 6 ) `.6X6X`.K.`.4X6X>X} 8 8 G 9 % y.}.6X}...7 6.Q.%X&X&X=X=X-X5X5X5X5X5X5X",
"&X&X&X-X3X5X5X5X5X5X3X-X&X&X=XOXn.E E `.4X;Xl.Y Y C.' L } `.6X;Xh.) X.`.4X>Xy.L ) j.} i h.}.>X`...u f.|.&X&X&X2X3X5X5X5X5X5X5X5X",
"&X&X&X=X-X-X3X5X5X5X5X3X-X&X&X@XT.a.} k.`.}.).h.C.;XH.h.C.[.}.l.J : u y.`.>XS.h.S.[.K.y.K.}.[.C.....L.OX-X=X&X=X3X5X5X5X2X=X-X-X",
"&X&X&X&X&X&X-X3X5X5X5X5X2X%X&X%XoXL.5.I p.`.;X[.[.4X;X}.;X;XH.~ 8 % 5 L l.>X}.}.;X4X;X).;X[.l.~ [ G. X1X2X&X&X&X=X2X2X2X=X&X&X&X",
"&X&X&X&X&X&X&X-X3X5X5X5X2X=X&X$X^.M.^ * _ K.}.`.).4X6X6X6X4XK.' ~ E E ' S.>X6X6X6X4X}.K.}.`...9 I z.|.,X1X=X&X&X&X&X&X&X&X&X&X=X",
"&X=X&X&X&X&X&X&X-X5X3X5X5X2X&XXXM.U & % } K.S.) } [.4X6X4X4X;X[.`.`.`.`.}.>X4X6X4X}.h.L C.K.p.8 % p z. X5X3X=X=X=X&X&X&X&X&X-X3X",
"2X2X-X&X&X&X&X&X&X=X-X-X2X5X2XXXx.c 5 E H.`.h.u 8 ..h.p.p.p.p.p.p.p.p.p.p.h.p.p.h...G * p.`.K.' 9 5 9.^.-X5X1X=X&X&X&X&X&X&X=X=X",
"5X5X3X-X&X&X&X&X&X&X&X&X=X2X2X(.x.v J S.;X;XC.G % 8 u G i u i J G i i J G t i G i 8 * 8 h.}.>XK.) 7 6.Q.=X2X-X=X&X&X&X&X&X&X&X&X",
"5X3X2X2X&X&X&X=X=X&X&X&X&X&X&X(.x.H T }.6X4X`.X.u O 9 J i * 8 Y r 5 9 L i O u J t % 8 ' K.>X4X;XX.w 7.~.&X&X&X&X&X&X=X=X=X&X&X&X",
"=X=X&X=X&X&X&X2X2X=X&X&X&X&X&X(.x.H Y ).;X>X;X).y.t ~ ..~ 9 a h.Y r J ..~ * E ..` i ` ).;X>X;X`.} 8 9.~.&X&X&X&X&X&X=X3X-X&X&X&X",
"&X&X&X&X&X&X2X5X5X2X=X&X&X&X%X(.v.v 9 ..h.S.`.;X`.y.y.X.T 8 i ..J 9 G } E * L } p.y.H.>X`.F.l.y.J 6 9.^.&X&X&X&X&X=X3X5X5X-X&X&X",
"&X&X&X&X%X&X-X2X5X5X2X2X=X&X&X(.q.y # : * r } `.>X`.p.J * % * 8 5 % * 8 5 % * i ..K.>X}.y.i * * % , 5.!.*X&X&X&X&X=X2X3X5X2X-X&X",
"&X=X-X-X=X=X&X-X3X5X5X5X3X-XQ.v.( N 4 +   o q ) p.p.y.y.........X.X...........y.y.p.p.} u O   X 1 z / d.!.#X&X&X&X&X=X3X5X5X3X-X",
"=X2X5X5X3X=X&X&X-X3X3X3X<X.Xx.Q m D B @ o % 6 r t t ` l.K.K.K.H.H.H.H.H.H.H.K.C.} G 9 u 6 % @ @ f +.n U a._.@X%X&X=X=X5X5X5X5X3X",
"3X5X5X5X5X3X-X&X=X=X=X$X!.v.U < f +.o.= 5 G T L q O i } h.h.h.h.p.h.h.h.h.h.l...J % : J E G 8 ; x =.l 7 b 9.R.$X%X=X2X5X5X2X=X=X",
"5X5X5X5X-X-X=X&X&X&X&X+XV.P , = h %.#.3 c | j.j.` 6 : 6 r 9 r r u i i r 8 9 r 8 : , L j.c...K s S -.M - & v w.+X-X3X5X5X2X=X&X&X",
"2X2X2X-X&X&X&X&X&X&X&X(.M.7 $ s D <.<.x Q ] j.F.c.) q o         r G t o       . 5 T s.I.c.,.Q x $.<.+.f ; 6 ,.@X3X5X5X5X-X&X&X&X",
"&X&X=X&X&X&X&X&X&X&X%X(.v.j j O.<.<.<.<.x j ! j.F.c.T : . o O * } l...r o O . & J s.F.Z.~ k x %.3.1.3.$.x j >.|.4X5X5X3X=X&X&X&X",
"&X&X&X&X&X&X&X=X&X$XE.w./ C +.;.@.D x x x x Z ! ) ! 9 * r ) X.X.........X.} i * 8 L ^ ! Q x x x x x $.-.@.F / s._.,X3X=X&X&X=X&X",
"&X&X&X&X&X%X-X3X2X(.N.! n #.2.2.@.l 1 4 x o.C j e e % * E H.}.`.p.} y.K.}.).' 6 # < e j x D x d 3 s O.3.3.%.z v b..X-X%X%X-X3X2X",
"=X&X&X=X-X2X3X5X-X(.b.b 4 =.r.e.<.x l l x x V x x l = > ' `.6X4XH.j.S.;X6X>Xy.q = s h h M M M h g x -.3.3.3.l < 9.^.&X&X-X3X5X5X",
"&X&X&X-X5X5X3X-X&X(.v.b 4 =.e.e.<.<.=.<.S f l o.%.%.f 0 ~ K.4X6X>X;X>X4X4X[.' e s O.*.O.h f V %.-.<.3.3.3.<.l < 9.^.&X&X2X3X5X5X",
"&X&X-X5X3X5X=X&X&XXXm.H 4 =.e.r.t.t.3.3.&.S x A @.<.x 3 r } K.4X6X6X6X4X`.p.i 6 M -.-.A l V #.3.3.t.3.t.3.<.g 6 f.^.&X&X&X2X5X5X",
"&X2X5X3X-X=X=X&X=XOXD.R j #.2.e.3.3.t.3.3.=.V d x -.S > O t y.;X6X6X6X>XC.a O = h %.D s M %.2.e.3.3.3.t.3.-.z u n..X&X&X%X=X-X=X",
"&X-X2X-X&X&X&X=X2X<X].z.( n O.:.t.t.3.3.-.S x V @.:.M 1 t ..).4X6X6X6X6X[.p.a < h *.=.S x V #.2.t.3.t.3.@.C Q 8.T.@X&X&X&X&X&X&X",
"&X&X&X&X&X&X=X2X5X5X<X{.m.! Z +.<.1.1.3.o.d f @.2.2.B 2 J h.`.[.}.[.[.[.`.S.Y q h -.3.&.f d S :.3.<.<.$.F Q 7.E.+X%X&X&X&X&X&X&X",
"&X&X&X&X&X&X2X5X5X5X5X1X{.f./ N x V +.<.x 3 d &.t.3.B 2 t ' p.X.X.X.y.y.y...i < h ;.t.2.f 3 l =.&.V x C / i.Y.&X%X&X&X&X&X&X&X&X",
"&X&X&X&X&X&X=X2X5X5X5X-X#X/.w.Q < ; d @.x 1 d =.t.3.V > % * 5 5 5 5 5 5 5 5 O = x :.t.2.h 1 g o.x ; : m 6.R.+X&X&X&X&X&X&X&X&X&X",
"&X&X&X&X&X&X&X=X-X-X-X=X&X&XE.9.b & $ d 3 = f *.t.3.A =                       $ x :.t.1.h - 1 d 1 @ k 5.Y.$X&X&X&X&X&X&X&X&X=X2X",
"&X&X=X-X&X&X&X&X&X&X&X&X&X&X&X(.v.b # + . + s @.2.-.M =                       $ g &.2.=.f $   X # q 7.R.%X&X&X&X&X&X&X&X&X=X2X5X",
"=X=X2X2X=X&X&X&X&X&X&X&X&X&X&X$X~.v.^ & . . = s h f 1 +                       X - f l f - X   % b 9.R.+X&X&X&X&X&X&X&X&X&X2X5X5X",
"3X2X5X5X2X=X&X&X&X&X&X&X&X&X&X&X(.B.] :     . @ $ $ +                           X + $ + X     & Q M./.%X&X&X&X&X&X&X&X=X2X5X3X5X",
"5X5X5X5X3X=X&X&X&X&X&X-X2X2X=X*X!.a.P &                           .                           # c 4.Y.@X3X2X&X2X2X2X2X3X3X5X5X5X",
"5X5X5X5X5X=X&X&X&X&X-X3X5X3X&XOXA.I %                           % * & .                         o w q.{.5X3X=X-X5X5X5X5X5X5X5X5X",
"5X5X5X3X2X=X&X&X&X=X5X5X5X2X&X(.k.t                           . a W J &                           % 5.{.3X3X=X&X2X5X5X5X5X5X5X3X",
"5X5X2X=X&X&X&X&X-X3X5X5X2X=X&X(.m.I % .                     o 7 u.G.h.c o                       o t z. X2X=X&X&X-X5X5X5X5X5X2X=X",
"5X2X=X&X&X&X&X-X3X5X5X5X2X&X&X$X/.m.) & .     .           o y 4.T.XXE.f.K O                   % K z.{.1X3X%X&X&X=X2X5X5X2X=X=X&X",
"2X=X&X=X-X-X2X2X5X5X5X3X=X&XXXW.Y.N.[ : % 5 r r r r t r 5 : U T.+X%X+XR.>.* : 9 t r r r r 8 * : E A.L.'.oX$X&X&X&X=X-X2X=X%X&X&X",
"&X&X&X=X3X2X5X5X5X5X2X=X&X%XY.9.{ { P : i ' p.p.p.p.h.y.Y w _  X2X&X%X(.7.5 J } p.h.p.p.h.} J 6 p } [ 6.B.(.&X&X&X&X&X&X&X&X&X&X",
"&X&X&X&X=X&X3X5X5X3X=X&X&X%Xv.P w t p t ..).;X;X;X;X}.H.' t _ {.2X%X$X(.6.6 E C.}.;X;X;X;X`.p.J t c 8 v 6.(.&X&X&X&X&X&X&X=X&X=X",
"&X&X&X&X&X&X=X=X-X=X&X&X&X$Xq.c t ' h.h.).>X6X6X6X6X`.y.a 7 _ '.%X%X%X(.6., r } K.4X6X6X6X4X`.C.p...u e 4.^.&X=X&X&X&X&X2X3X3X3X",
"&X&X&X&X&X-X2X2X-X&X&X&X&X%XM.^ ) l.`.`.[.{.}.}.}.`.a.I 6 y  .~.%X=X%X(.q.y 6 p X.T.}.}.}.[.[.`.`.H._ ^ 0.(.&X&X&X=X2X-X3X5X2X2X",
"&X&X&X&X-X5X5X5X2X-X-X=X&X%X^.N.5.' ) ~ ~ ~ ~ W ) E [ a.z.m.U.+X%X&X%X+XR.v.v.9. ._ ) W E ) ~ ~ ) _  .b.E.+X&X=X=X2X5X5X5X5X2X=X",
"&X&X&X-X3X3X5X5X5X5X5X-X&X%X%X{.D.} I Y L I I K P I 6.Y./.(.XX%X&X&X&X%X+X(.(.R.q.^ J P I Y I Y L ^ n.'.+X&X&X2X5X5X5X5X5X5X2X=X",
"&X&X&X=X=X=X3X5X5X5X5X3X-X&X&X$X'.D.a.a.9.7.9.7.7.0.U.(.&X&X&X&X&X%X&X=X&X&X&X+XR.v.6.6.9.9.i.a.a.z.'.,X2X&X&X=X3X5X3X5X-X=X=X&X",
"&X&X&X&X&X&X=X3X5X5X5X5X-X&X=X&X*XoXoXoX(.(.(.(.(.(.+X%X&X&X&X&X&X=X2X2X2X2X-X%X$X(.(.(.(.(.(.OX;X:X<X5X2X&X&X&X=X-X-X-X=X&X&X&X",
"&X&X&X&X&X&X&X-X3X5X5X5X3X=X&X&X&X&X&X&X&X&X=X=X-X-X-X=X&X&X&X&X=X-X5X5X5X5X3X-X=X&X&X&X%X&X&X=X2X5X5X5X3X-X&X&X&X&X&X&X&X&X&X-X",
"&X&X&X&X&X&X&X&X=X5X5X5X5X3X&X&X&X&X&X&X&X&X&X=X3X5X5X2X&X&X&X&X-X5X5X5X5X5X5X5X=X&X&X&X&X&X&X&X*X5X5X5X5X3X=X&X&X&X&X&X&X&X-X5X"
};
