/* XPM */
static char *result[] = {
/* columns rows colors chars-per-pixel */
"64 64 210 2 ",
"   c #010101",
".  c #070808",
"X  c #06090B",
"o  c #0A0A0A",
"O  c #070C13",
"+  c #090E14",
"@  c #0D1114",
"#  c #0C131B",
"$  c #141414",
"%  c #141618",
"&  c #15181C",
"*  c #1B1C1C",
"=  c #0D1825",
"-  c #0D1926",
";  c #141C24",
":  c #1C1F21",
">  c #111E2D",
",  c #111F30",
"<  c #1D2123",
"1  c #16202D",
"2  c #1A232D",
"3  c #132234",
"4  c #15263B",
"5  c #15283E",
"6  c #1A2A3B",
"7  c #232424",
"8  c #252729",
"9  c #24292A",
"0  c #2B2B2B",
"q  c #302E2B",
"w  c #232D33",
"e  c #2C3334",
"r  c #343434",
"t  c #373837",
"y  c #353A3B",
"u  c #3A3B3A",
"i  c #3C403F",
"p  c #162B45",
"a  c #1A2D43",
"s  c #192E49",
"d  c #1E3246",
"f  c #1B324C",
"g  c #1D3553",
"h  c #1E395A",
"j  c #263748",
"k  c #353F45",
"l  c #253D57",
"z  c #213C5C",
"x  c #1F3E63",
"c  c #223E61",
"v  c #3C4142",
"b  c #3A4649",
"n  c #3B4A58",
"m  c #244166",
"M  c #26456B",
"N  c #2C4868",
"B  c #3B536A",
"V  c #264871",
"C  c #294B74",
"Z  c #2A4E79",
"A  c #314F73",
"S  c #2D517D",
"D  c #315277",
"F  c #434444",
"G  c #444649",
"H  c #454B4C",
"J  c #4C4C4C",
"K  c #54524F",
"L  c #444F51",
"P  c #454D59",
"I  c #465253",
"U  c #4C5353",
"Y  c #4A565C",
"T  c #525353",
"R  c #55575C",
"E  c #545A5B",
"W  c #5A5B5B",
"Q  c #475766",
"!  c #585E61",
"~  c #4E626B",
"^  c #536265",
"/  c #5D6363",
"(  c #57686B",
")  c #576B72",
"_  c #5E7276",
"`  c #626363",
"'  c #646669",
"]  c #646B6B",
"[  c #6C6D6D",
"{  c #696E73",
"}  c #657475",
"|  c #6D7474",
" . c #64767A",
".. c #667A7E",
"X. c #737474",
"o. c #757879",
"O. c #7D7D7D",
"+. c #807F7F",
"@. c #7B817F",
"#. c #2D5483",
"$. c #2F5B8E",
"%. c #305685",
"&. c #325B8C",
"*. c #335E92",
"=. c #356196",
"-. c #36649C",
";. c #38669E",
":. c #3967A0",
">. c #3A6AA3",
",. c #3C6EAA",
"<. c #3D70AD",
"1. c #3F73B1",
"2. c #6A7E83",
"3. c #777E83",
"4. c #4075B5",
"5. c #427ABC",
"6. c #447DC1",
"7. c #6D8388",
"8. c #7B8586",
"9. c #72868A",
"0. c #748A8D",
"q. c #748C90",
"w. c #7A9195",
"e. c #7D979B",
"r. c #4782CA",
"t. c #4985CD",
"y. c #4A87D0",
"u. c #4B89D3",
"i. c #848484",
"p. c #828A8C",
"a. c #8B8B8B",
"s. c #8A8C92",
"d. c #869697",
"f. c #8B9494",
"g. c #959494",
"h. c #94969C",
"j. c #939F9E",
"k. c #9B9B9B",
"l. c #9D9FA0",
"z. c #8AA5AA",
"x. c #97A6A7",
"c. c #8FACB1",
"v. c #93B1B6",
"b. c #9AB4B7",
"n. c #96B4BA",
"m. c #99B7BB",
"M. c #9CBABE",
"N. c #A4A5A5",
"B. c #A3A7AB",
"V. c #ABABAB",
"C. c #A8B0AE",
"Z. c #A3BABC",
"A. c #ABB9B9",
"S. c #B3B3B3",
"D. c #B1B7B9",
"F. c #B3BDBA",
"G. c #BBBBBB",
"H. c #B9C1BF",
"J. c #9DBDC2",
"K. c #A4BEC2",
"L. c #9FC0C5",
"P. c #A0C1C6",
"I. c #A3C4CA",
"U. c #A9C6C9",
"Y. c #B5C7C7",
"T. c #BAC5C2",
"R. c #A7CAD0",
"E. c #AACCD2",
"W. c #AED2D8",
"Q. c #B5D6DB",
"!. c #B6DCE2",
"~. c #B8DDE3",
"^. c #BBE1E6",
"/. c #BCE3EA",
"(. c #C4C4C4",
"). c #C2CCC9",
"_. c #CCCCCC",
"`. c #C7D2CF",
"'. c #C8D8D6",
"]. c #D4D4D4",
"[. c #D2DDDA",
"{. c #DBDBDB",
"}. c #D5E1DD",
"|. c #C2E6EB",
" X c #C4E5EA",
".X c #D8EAE8",
"XX c #DEF0EE",
"oX c #C4EDF4",
"OX c #CAEDF2",
"+X c #D2EFF2",
"@X c #C7F0F7",
"#X c #CAF0F6",
"$X c #CBF5FC",
"%X c #CEF8FF",
"&X c #D6F4F6",
"*X c #D3F9FE",
"=X c #DBFAFE",
"-X c #E3E3E3",
";X c #ECECEC",
":X c #E3F1ED",
">X c #E8F3EF",
",X c #E4F5F2",
"<X c #E9F6F2",
"1X c #E3F8F7",
"2X c #EDF9F5",
"3X c #E3FCFD",
"4X c #ECFEFC",
"5X c #F4F4F4",
"6X c #F2FFFB",
"7X c #FEFEFE",
/* pixels */
"%X%X%X%X%X%X4X6X4X6X6X6X6X4X%X%X%X%X%X%X%X%X%X%X%X%X%X=X4X%X%X%X%X%X%X%X%X*X%X%X%X%X%X%X%X%X=X6X6X6X6X6X6X4X*X%X%X%X%X%X%X%X%X%X",
"%X%X%X%X%X%X*X4X6X6X6X3X=X*X%X%X%X%X%X%X%X%X$XoX/./.^. X X/./././.^./.|./.^.^./.oX#X%X%X%X%X*X4X6X6X6X4X=X=X%X%X%X%X%X%X%X%X%X%X",
"%X%X%X%X%X%X%X*X4X3X3X*X%X%X%X%X%X%X%X%X%X%XOXZ.d.0.0.q.q.q.q.q.q.q.q.q.q.q.0.w.z.^.%X*X%X%X%X*X=X4X3X*X%X%X%X%X%X%X%X%X%X%X*X=X",
"%X%X*X*X%X%X%X%X%X%X%X%X%X%X%X%X%X%X%X/./.Q.Y.8.U U L I L I L H L L L L L L L U } n.~.~./.#X%X%X%X%X%X%X%X%X%X%X%X%X%X%X%X*X=X6X",
"%X%X3X4X%X%X%X%X%X%X%X%X%X%X%X%X%X%X/.L.z.d.a.| ` ` ` ` ` ` ` ` ` ` ` ` ` ` ` ` ] 9.d.j.M.Q.%X%X%X%X%X%X%X%X%X%X%X%X%X%X%X3X4X6X",
"4X4X4X6X4X%X%X%X%X%X%X%X%X%X%X%X%X$XR. .i 0 J k.].{.{.{.{.{.{.{.{.].{.{.{.{.-X].V.` e r ] b.oX%X%X%X%X%X%X%X%X%X%X%X%X%X3X4X6X6X",
"4X6X6X6X4X*X%X%X%X%X%X=X3X=X%X=X.XZ.w.o.[ X.a._.5X7X7X7X7X7X7X7X7X7X7X7X7X7X7X7X{.k.X.[ o.8.c.~.%X%X%X*X3X=X%X=X=X3X=X3X6X6X4X3X",
"6X6X6X6X4X*X%X%X%X%X*X4X6X4X%X1X[.O.K g.H.].{.;X7X7X7X7X7X7X7X7X7X7X7X7X7X7X7X7X5X-X{.`.g.' ^ I.%X%X%X4X6X4X*X3X6X6X6X6X6X6X4X*X",
"6X6X6X6X4X*X%X%X%X%X4X6X6X4X%X#X'.' t k.{.7X7X7X7X7X7X7X7X7X7X7X7X7X7X7X7X7X7X7X7X7X7X;XN.E b P.%X%X4X6X6X4X*X%X3X6X6X6X6X6X6X4X",
"6X6X3X*X*X%X%X%X*X4X6X6X3X*X$X/.Y./ J B.-X7X7X7X7X7X7X7X7X7X7X7X7X7X7X7X7X7X7X7X7X7X7X5XS.[ I c.|.1X4X6X4X*X%X%X3X6X6X6X6X6X4X*X",
"6X4X*X%X%X%X%X*X4X6X6X6X=X%X|.J.d.X.a.(.5X7X7X7X7X7X7X7X7X7X7X7X7X7X7X7X7X7X7X7X7X7X7X7X].k.X.9.C..X2X6X4X%X%X%X*X4X4X4X3X=X=X%X",
"3X*X%X*X*X=X*X4X6X6X6X4X=X%XE.0.H a.{.5X7X7X7X7X7X7X7X7X7X7X7X7X7X7X7X7X7X7X7X7X7X7X7X7X5X-XB.J ' T.>X4X=X%X%X%X%X*X4X4X*X%X%X%X",
"%X%X%X*X4X4X6X4X6X6X4X=X%X%XP. .t g.<X7X7X7X7X7X7X7X7X7X7X7X7X7X7X7X7X7X7X7X7X7X7X7X7X7X7X5XG.F T H.:X=X%X%X%X%X%X%X*X%X%X%X%X%X",
"%X%X%X*X*X*X4X6X6X4X=X%X%X%XP. .y g.;X7X7X7X7X7X7X7X7X7X7X7X7X7X7X7X7X7X7X7X7X7X7X7X7X7X7X;XS.F U F.+X*X%X%X%X%X%X%X%X%X%X%X%X%X",
"%X%X%X%X%X%X*X=X=X=X%X%X%X%XP...t g.;X7X7X7X7X7X7X7X7X7X7X7X7X7X7X7X7X7X7X7X7X7X7X7X7X7X7X;XS.F I Z.|.%X%X%X%X%X%X%X%X%X=X3X4X3X",
"%X%X%X%X*X=X=X=X*X%X%X%X%X%XP. .t g.5X7X5X;X{.{.].{.{.5X7X7X5X-X;X5X7X7X5X-X{.].{.].-X5X7X5XG.F I m.oX%X%X%X%X%X%X*X=X=X4X6X6X6X",
"%X%X*X%X*X4X6X6X4X=X*X%X%X$XP. .t g.5X7X-XG.g.i.i.a.N.].7X7X-XS.S._.7X7X-XV.a.i.a.a.V.{.7X;XS.F U H./.%X%X%X%X%X*X=X6X6X6X6X6X6X",
"%X%X%X*X4X6X6X6X6X4X4X=X%X$XR.8.F f.-X5X].i.u 0 0 0 ` V.5X5XS.W W g.;X7X_.[ u 0 0 r [ _.5X;XV.J / T.XX=X%X%X%X4X4X4X6X6X6X6X6X4X",
"%X%X%X*X=X=X4X6X6X6X6X4X=X%X/.K.a.@.g._.{.G.a.+.+.+.N._.-XN.W * * F g.].{.V.a.o.+.i.V.{.].N.O.8.C.}.4X4X=X%X%X=X4X6X6X6X3X*X=X=X",
"%X%X%X%X%X*X=X4X6X6X6X6X3X%X@XQ.x.E U B.{.-X_.].{.{.;X5X{.i.F 0 7 u [ (.5X;X-X{.]._.].;XV.[ H s.`.>X6X6X3X%X%X%X=X3X3X3X*X%X%X%X",
"%X%X%X%X%X%X%X=X4X6X6X6X4X%X^.n._ 0 t k._.(.k.].5X5X7X5X;XS.a.a.i.a.N.-X7X5X7X5X-XN.V.].N.R 7 ! x.}.2X6X4X*X%X%X%X%X%X%X%X%X%X*X",
"%X%X%X%X%X%X%X%X=X4X4X6X4X4XE.9.e * K V.S.i.J g.].].{.].].G.S.S.S.S.G._.{.].{._.V.W [ G.S.[ 0 7 ( ).>X4X6X4X*X%X*X%X%X%X%X%X=X4X",
"4X4X=X%X%X%X%X%X%X=X*X=X3X6XY._ : F a.].G.[ * J +.i.i.i.i.a.a.a.a.a.a.i.+.i.i.+.` * H S._.N.W * H M.OX=X=X6X4X*X%X%X%X%X%X%X*X*X",
"6X6X4X=X%X%X%X%X%X%X%X%X=X=XU. .t i.-X5X_.o.7 @ * 7 7 7 * 7 0 * * 7 q * * 0 7 * $ % W (.5X-XN.u I M.oX%X=X=X3X*X%X%X%X%X%X%X%X%X",
"4X4X4X=X*X%X%X*X*X%X%X%X%X%XL. .u k.5X7X;XG.X.8 * W W F * W ' q r K [ q 7 W K r * ` V.-X7X5X(.F U M.oX%X%X%X%X%X%X%X*X*X*X%X%X%X",
"%X*X*X%X%X%X%X3X4X%X%X%X%X%XI...e +._.].-X-X(.X.K i.O.J 0 X.i.u i ' a.t r +.+.` W S.-X-X{._.k.t U M.oX%X%X%X%X%X%X%X*X4X=X%X%X%X",
"%X%X%X%X%X%X3X4X4X4X*X%X%X$XL._ 7 F [ X.k.(.;XG.s.+.K 0 * G K 7 8 u W 7 * K X.g.V.-X{.l.+.' K : T Y.oX%X%X%X%X%X%X*X4X6X4X=X%X%X",
"%X%X%X%X%X%X*X4X6X6X3X3X%X/.n.) 2 * * 7 J i._._.N.X.J t t F F u u F F u r F [ g.(._.l.J 0 * : ; I x.[.&X=X%X%X%X%X*X3X4X6X4X=X%X",
"%X*X=X=X*X*X%X=X4X6X6X6X.Xv.2.B l =     % F X.i.i.+.+.+.i.+.+.i.i.i.+.i.i.+.+.+.+.O.T *     O f B } x.{.4X=X%X%X%X%X*X4X6X6X4X=X",
"%X4X6X6X4X*X%X%X*X4X2X:XH./ b M *.f O o * 7 7 % t a.(.].]._._._._._._._.]._.g.K & : 7 : o O 3 &.S j / x..X3X*X%X%X%X*X6X6X6X4X4X",
"4X6X6X6X6X4X=X%X*X$X Xc.^ 9 3 M -.g & G ' X.R 7 $ F ` X.[ [ [ [ [ [ [ [ X.[ G 7 & J | | J 8 3 =.%.3 2 I d.Q.%X%X%X*X4X6X6X4X*X*X",
"6X6X6X4X=X=X*X%X%X$X~...< # s S ,.M j ! s.B.h.R 0 * * $ * $ 7 u t q * * $ * * 7 G s.B.h.' b g >.=.f = < Y R.%X%X=X4X6X6X=X*X%X%X",
"3X3X4X=X%X%X%X%X%X@X!.) ; p Z >.5.-.A P { h.S.h.! 7 o   . . 7 ` W u o . . . * J s.S.B.| Q A &.4.4.#.s 1 b I.%X*X4X6X6X6X*X%X%X%X",
"%X%X%X%X%X%X%X%X@X^.n.~ d S >.1.:.*.#.z P { h.h.[ q % % 0 q K i.i.` r q * $ 0 W s.h.3.P l C *.;.,.4.#.l n z.Q.1X6X6X6X4X=X%X%X%X",
"%X%X%X%X%X%X%X*X^.n._ B S <.1.*.c c c c c Q R ! J : 0 K a.s.a.+.i.a.a.g.' 0 : u ! R P N c c c c C 4.4.&.A ( x.}.<X6X4X*X%X%X%X%X",
"%X%X%X%X%X%X=X4XW.7.w M 4.t.<.V , # p C #.c > = # o u g.;X7X(.[ [ N.5X5XS.G $ O ; > j S S g - - l 4.6.5.&.6 ! U.+X=X*X*X%X*X4X4X",
"%X%X%X*X=X3X4X6XY...2 M 5.t.1.-.#.C C z z c Z #.h = F k.7X7X-XG.G.{.7X7X(.K 2 p Z #.M z z M Z Z &.4.6.6.*.3 Y K.oX%X%X%X=X4X6X6X",
"%X%X*X=X6X6X4X=XR...2 V 6.u.y.6.5.5.>.c z c *.1.*.p y X._.5X5X5X;X5X;X{.g.u s x ,.;.C g m &.5.5.6.6.y.6.*., T K.oX%X%X*X3X4X6X6X",
"%X%X=X6X4X6X=X%XU.2.w V 1.t.t.t.y.u.6.*.V c M >.*.a : u +._.7X7X7X5X-Xg.J * s %.,.Z z M &.4.t.y.6.u.u.6.&.3 R T.+X%X%X%X%X3X6X6X",
"%X3X6X4X=X*X%X%XQ.d.L N -.5.r.u.y.6.6.,.#.c z *.:.s ; q [ (.7X7X7X7X{.i.u $ a #.>.m z C ;.5.t.t.u.6.6.>.D k O._.,X3X%X%X%X*X*X*X",
"%X=X3X*X%X%X%X*X.XT.d.Q N ;.1.y.6.y.4.%.c c #.,.-.p 9 K l.{.5X5X7X5X-XV.' 0 6 Z 1.&.m c S ,.r.r.y.6.:.D Q 9.A. X=X=X%X%X%X%X%X%X",
"%X%X%X%X%X%X*X4X6X<X[.8.n A -.<.4.6.>.f a M 6.6.-.p k X.(.].].].].].].].g.u j Z 6.r.%.p f #.5.4.,.>.Z n ' T.OX%X%X%X%X%X%X%X%X%X",
"%X%X%X%X%X%X3X4X6X6X<X`.f.Q j f c :.:.s p C 6.u.-.p : t W W W W W W W W F * 5 #.6.t.&.4 f #.,.M s f Q 9.T..X%X%X%X%X%X%X%X%X%X%X",
"%X%X%X%X%X%X*X3X6X6X6X&XW.9.b < # c C 4 4 Z 6.u.>.s @ . $ $ $ $ @ $ $ $ o X 5 $.u.y.&.4 5 c C 3 % y o.K.OX*X*X%X%X%X%X%X%X%X%X%X",
"%X%X%X%X%X%X%X*X=X=X3X*X/.I.9.b # > 4 # , M 6.y.:.s O                       5 %.r.y.$.4 = - 3 + e ..Z. X$X*X%X%X%X%X%X%X%X%X*X=X",
"%X%X*X*X%X%X%X%X%X%X%X%X%XoXI.0.v ; X . = z *.:.Z 4 O                       > M -.-.V , X X = e  .J./.$X%X%X%X%X%X%X%X%X%X=X3X6X",
"*X%X3X4X*X%X%X%X%X%X%X%X%X%XoXI.7.y .   O , f g p #                         + 4 f g 4 +   X 9 _ m.|.%X%X%X%X%X%X%X%X%X%X%X3X6X6X",
"4X4X6X4X4X*X%X%X%X%X%X%X%X%X$XQ.z.n @         .                                           o e w.W.oX%X%X%X%X%X%X%X%X%X%X3X6X6X6X",
"6X6X6X6X6X*X%X%X%X%X%X=X4X=XQ.x.U :                                                       . @ v 9.E.@X*X4X=X*X3X4X3X4X3X4X6X6X6X",
"6X6X6X6X4X*X%X%X%X%X=X4X6X4XI.} *                           o 9 7 $                           . I J.OX4X6X4X*X=X4X6X6X6X6X6X6X6X",
"6X6X6X4X4X%X%X%X%X=X4X6X4X3XI.} %                           9 ] | F o                         . L J.XX6X4X4X%X%X3X6X6X6X6X6X6X4X",
"6X6X3X*X*X%X%X%X*X4X6X6X3X%XQ.e.G *                     @ 2 ( A.F.8.r $                     $ e 2.`.2X6X4X*X%X%X=X6X6X6X6X4X4X*X",
"6X3X*X%X%X%X%X*X4X6X6X6X3X$X/.L.9.y o . . . . . . . . . < ( c. X XU...q . . . . . . . . . o 9  .A..X>X6X3X$X%X%X*X3X6X6X=X=X*X%X",
"=X*X%X*X=X=X=X4X6X6X6X4X+XQ.E.J.z.H $ 7 r u u u u u 0 * e z.+X=X=XoXP.b $ 0 t u t t u t 7 * e d.H.(.}.XX=X%X%X%X%X*X=X3X*X%X%X%X",
"%X%X%X*X4X4X6X6X6X6X4X*X^.w.Q v y < 7 [ N.G.S.S.S.S.a.K y x.,X6X4XoXP.I r +.V.G.S.S.G.S.o.u $ u F U p.U.$X%X%X%X%X%X%X%X%X%X%X%X",
"%X%X%X*X*X%X4X4X6X4X*X%XE.( e e T K [ G.-X7X5X6X;X_.i.F e x.<X6X=XoXL.b 0 O.G.-X5X5X7X;X(.i.T T u 8 E v.$X%X%X*X%X%X%X%X%X%X*X%X",
"%X%X%X%X%X%X*X*X*X*X%X%XW.( v W k.V.S.-X;X5X5X5X[.k.T q u N.>X3X*XoXL.n < H a.).;X5X5X;X-X(.N.N.X.y ^ v.%X%X%X%X%X%X%X%X3X4X4X4X",
"%X%X%X%X%X=X3X3X=X%X%X%X~.w._ X.N.V.V.S.S.S.S.S.l.| E U [ H.&X*X%X@XE.@.n U [ f.S.D.S.S.S.S.V.V.i./ 9.I.%X%X%X%X%X*X3X=X4X6X4X3X",
"%X%X%X%X=X6X6X6X4X=X*X*XoXR.z.o.` ` ` W W W W E ' 9.z.C.H.'.$X%X%X$X|.L.c.z.q.} E E E E W / ` ` o.d.U.|.$X%X%X*X*X3X6X6X6X6X4X%X",
"%X%X%X=X4X4X6X6X6X6X6X=X%X%XW.f.H i i i i i i y ^ m./.%X%X%X%X%X%X%X%X%X$XoXJ.@.v y v i i u i v o.).>X3X%X%X%X3X6X6X6X6X6X4X3X%X",
"%X%X%X*X*X*X4X4X6X6X6X4X=X%XoXQ.F.F.F.F.Z.m.m.m.P.^.$X$X%X%X%X%X%X%X%X%X%X$X/.E.m.n.m.m.m.m.Z.F.'.:X6X6X3X%X%X*X4X6X6X6X=X*X*X%X",
"%X%X%X%X%X%X*X4X6X6X6X6X3X%X$X$X#X+X+X+X@XoXoXoX$X$X%X%X%X%X%X%X%X*X=X4X=X3X=X$XoXoX@XoX#XoXOXXX2X2X6X6X4X%X%X%X*X=X=X=X*X%X%X%X",
"%X%X%X%X%X%X$X=X4X6X6X6X4X=X%X%X%X%X%X%X%X%X%X*X=X=X=X=X%X%X%X%X*X=X6X6X6X6X2X=X%X%X%X%X%X*X%X*X4X6X6X6X4X*X%X%X%X%X%X%X%X%X*X=X",
"%X%X%X%X%X%X%X%X=X6X6X6X4X4X%X%X%X%X%X%X%X%X*X*X4X6X6X=X%X*X%X%X=X6X6X6X6X6X6X6X=X%X%X%X%X%X%X%X*X4X6X6X6X4X*X%X%X%X%X%X%X%X=X4X"
};
