/* XPM */
static char *result[] = {
/* columns rows colors chars-per-pixel */
"64 64 216 2 ",
"   c #010101",
".  c #040609",
"X  c #060A0D",
"o  c #0B0B0B",
"O  c #090D12",
"+  c #0D1012",
"@  c #0B121B",
"#  c #141515",
"$  c #13161A",
"%  c #161A1C",
"&  c #1C1C1C",
"*  c #1E201F",
"=  c #24221F",
"-  c #0C1825",
";  c #181D22",
":  c #111C2B",
">  c #1D2225",
",  c #1B242D",
"<  c #132234",
"1  c #192736",
"2  c #232424",
"3  c #262728",
"4  c #242A2C",
"5  c #2A2B2B",
"6  c #32302F",
"7  c #232D35",
"8  c #2A2E31",
"9  c #2C3233",
"0  c #2B3639",
"q  c #2B353C",
"w  c #333434",
"e  c #353738",
"r  c #353B3C",
"t  c #3B3B3B",
"y  c #172B42",
"u  c #182D45",
"i  c #16304F",
"p  c #1C324D",
"a  c #1C3552",
"s  c #1F3857",
"d  c #1F3959",
"f  c #293948",
"g  c #363E42",
"h  c #203856",
"j  c #223C5C",
"k  c #223E60",
"l  c #3D4343",
"z  c #3B474A",
"x  c #29405D",
"c  c #3B4755",
"v  c #244164",
"b  c #2D4663",
"n  c #26456C",
"m  c #2E4969",
"M  c #344C67",
"N  c #334F6E",
"B  c #264972",
"V  c #2A4C74",
"C  c #2B4F7A",
"Z  c #2C507C",
"A  c #365274",
"S  c #444545",
"D  c #454647",
"F  c #464B4D",
"G  c #4B4C4C",
"H  c #464D55",
"J  c #4D5253",
"K  c #485557",
"L  c #4C575A",
"P  c #535353",
"I  c #535558",
"U  c #545A5A",
"Y  c #5B5B5B",
"T  c #434F60",
"R  c #485662",
"E  c #545E61",
"W  c #5C5E64",
"Q  c #576265",
"!  c #4F6776",
"~  c #5B6775",
"^  c #5E7174",
"/  c #636363",
"(  c #666869",
")  c #6B6B6B",
"_  c #6F6F6E",
"`  c #616C77",
"'  c #627376",
"]  c #6C7274",
"[  c #627679",
"{  c #66797C",
"}  c #6B797A",
"|  c #737474",
" . c #747877",
".. c #747B7A",
"X. c #7B7C7C",
"o. c #807F7E",
"O. c #7B817F",
"+. c #2D5687",
"@. c #355985",
"#. c #325B8D",
"$. c #335E92",
"%. c #366295",
"&. c #36659C",
"*. c #38669D",
"=. c #3A69A2",
"-. c #3C6DA9",
";. c #3D71AE",
":. c #3E73B3",
">. c #587599",
",. c #667C81",
"<. c #697E82",
"1. c #777D82",
"2. c #637A99",
"3. c #4875AA",
"4. c #4076B6",
"5. c #4177B8",
"6. c #4279BC",
"7. c #447DC1",
"8. c #6C8184",
"9. c #6E8589",
"0. c #758283",
"q. c #7B8283",
"w. c #76868A",
"e. c #748A8E",
"r. c #7B8A8B",
"t. c #758C90",
"y. c #7B9295",
"u. c #7E979B",
"i. c #4681C6",
"p. c #4D81C0",
"a. c #4783CA",
"s. c #4885CD",
"d. c #4987D1",
"f. c #4A89D3",
"g. c #838383",
"h. c #838688",
"j. c #848C8B",
"k. c #8C8C8C",
"l. c #88908E",
"z. c #878C95",
"x. c #889494",
"c. c #939393",
"v. c #939898",
"b. c #9B9B9B",
"n. c #849EA3",
"m. c #999CA1",
"M. c #85A1A6",
"N. c #89A5AA",
"B. c #8DA8AC",
"V. c #9DA4A2",
"C. c #97A7A8",
"Z. c #8FADB2",
"A. c #93AEB2",
"S. c #98B5B9",
"D. c #A4A4A4",
"F. c #A8A8A7",
"G. c #A3ACAA",
"H. c #ACACAC",
"J. c #A6B0AE",
"K. c #B0B0AF",
"L. c #ABB6B5",
"P. c #B4B4B4",
"I. c #B3BAB8",
"U. c #BBBBBB",
"Y. c #9EBEC3",
"T. c #A6C3C7",
"R. c #A4C5CA",
"E. c #B8C8C7",
"W. c #ABCDD3",
"Q. c #B0CED3",
"!. c #AFD3D8",
"~. c #B2D6DB",
"^. c #BAD6D9",
"/. c #B3D8DE",
"(. c #B6DCE2",
"). c #BADFE4",
"_. c #BBE1E7",
"`. c #BEE5EB",
"'. c #C4C4C4",
"]. c #C1CAC7",
"[. c #CCCCCC",
"{. c #C8D8D7",
"}. c #CCD9D7",
"|. c #D4D4D4",
" X c #D3DEDB",
".X c #DCDCDC",
"XX c #D7E2DE",
"oX c #C6E3E6",
"OX c #CBE3E4",
"+X c #C1E7ED",
"@X c #C3E8EF",
"#X c #DEEAE6",
"$X c #D7E9E8",
"%X c #C4ECF3",
"&X c #CBEEF3",
"*X c #CCF1F6",
"=X c #CCF5FC",
"-X c #CEF8FF",
";X c #DBF0F0",
":X c #D9F3F5",
">X c #D4F6FA",
",X c #D3F9FE",
"<X c #DBFAFE",
"1X c #E4E4E4",
"2X c #E0EBE7",
"3X c #E2EEEA",
"4X c #EBEBEB",
"5X c #E5F1ED",
"6X c #E8F3EF",
"7X c #F0F0EF",
"8X c #E9F8F4",
"9X c #E3FCFD",
"0X c #ECFEFC",
"qX c #F4F4F4",
"wX c #F2FFFB",
"eX c #FEFEFE",
/* pixels */
"-X-X-X-X-X-X0XwXwXwXwXwXwX0X-X-X-X-X-X-X-X-X-X-X-X-X-X<XwX,X-X-X-X-X-X-X-X-X-X-X-X-X-X-X-X-X9XwXwXwXwXwXwX0X,X-X-X-X-X-X,X-X-X-X",
"-X-X-X-X-X-X,X9XwXwXwX9X<X<X-X-X-X-X-X-X-X-X-X-X`.`.`.@X@X+X`.@X`.`.`.@X+X`.`.+X+X%X-X-X-X-X,X9XwXwXwX9X<X,X-X-X-X-X-X-X-X-X-X-X",
"-X-X-X-X-X-X-X,X9X9X9X,X-X-X-X-X-X-X-X-X-X-X,X;XL.u.e.e.t.t.t.e.t.t.t.t.t.t.e.e.y.S.%X-X-X-X-X,X9X9X9X<X-X-X-X-X-X-X-X-X-X-X,X<X",
"-X-X,X,X-X-X-X-X,X-X-X-X-X-X-X-X-X-X-X-X%X_.OX].0.F e r r r r r r r r g r r r r z { R.^.`.+X-X-X-X-X-X-X-X-X-X-X-X-X-X-X-X,X<XwX",
"-X-X9X9X,X-X-X-X-X-X-X-X-X-X-X-X-X-X-X`.T.r.O.....q.q.o.g.g.g.q.o.q.g.X.g.q.g.g.g...}  .t.S.+X-X-X-X-X-X-X-X-X-X-X-X-X,X-X9XwXwX",
"9X0X0XwX9X,X-X-X-X-X-X-X-X-X-X-X-X-X`.R.x.Y G ( b.E.|.|.[.[.[.|.[.|.[.|.[.|.[.[.'.D.Q P Q e.R.+X=X-X-X-X-X-X-X-X-X-X-X-X<X0XwXwX",
"wXwXwXwX0X,X-X-X-X-X-X<X9X<X-X<X9X$XT.x. .| | k.[.qXeXeXeXeXeXeXeXeXeXeXeXeXeXeXeX[.k. .|  .e.Y.%X-X-X<X<X<X,X<X<X9X9X<X0XwX0X9X",
"wXwXwXwXwX,X-X-X-X-X,X0XwX0X,X9XwXXXl.Y  .|.4X4XqXeXeXeXeXeXeXeXeXeXeXeXeXeXeXeXeXqX4X4X'.k.F 8._.-X,X9XwXwX,X9X0XwXwXwXwXwX0X,X",
"wXwXwXwX0X,X-X-X-X,X0XwXwX9X,X-X9XXXO.D  .7XeXeXeXeXeXeXeXeXeXeXeXeXeXeXeXeXeXeXeXeXeXeX.Xk.e ' _.,X0XwXwX0X,X-X9XwXwXwXwXwXwX0X",
"wXwX9X,X,X-X-X-X,X0XwXwX0X,X-X-X;X].O./ k.7XeXeXeXeXeXeXeXeXeXeXeXeXeXeXeXeXeXeXeXeXeXeX1XD.I ' R.$XwXwX0X,X-X-X9XwXwXwXwXwX0X,X",
"wX9X,X-X-X-X-X,X9XwXwXwX<X-X-X%XS.q.X.b.[.eXeXeXeXeXeXeXeXeXeXeXeXeXeXeXeXeXeXeXeXeXeXeXqX[.b.X.} I.2XwX9X-X-X-X,X9XwXwX9X<X<X-X",
"0X,X-X,X,X<X<X9XwXwXwX0X<X-X-X@Xt.J g.'.qXqX.X[.'.'.'.|.4XeXeXeXeXeXeXeXeX4X|.'.'.'.'.1XqX7X|.g.S v. X0X<X-X-X-X-X,X0X0X,X-X-X-X",
"-X-X-X,X0X0XwXwXwXwX0X<X-X-X-X@X,.r h.|.eX4XH.X.) ( | h.[.qXeXeXeXeXeXeXeX'.c.) ) ) | P.1XeX4Xh.5 j.}.<X-X-X-X-X-X-X,X-X-X-X-X-X",
"-X-X-X,X,X,X0XwXwX0X<X-X-X-X-X`.8.l g.|.eX1X| 2 # # # t H.qXeXeXeXeXeXeXqXF.P # o # & X.[.qX1Xh.w j.^.,X-X-X-X-X-X-X-X-X-X-X-X-X",
"-X-X-X-X-X-X,X<X<X<X-X-X-X-X-X@X8.S g.|.eX1X) #       5 D.qXeXeXeXeXeXeXqXD.S       o | [.qX1Xg.9 r.~.-X-X-X-X-X-X-X-X-X<X0X9X9X",
"-X-X-X-X-X<X<X<X,X-X-X-X-X-X-X`.<.g g.|.eX1X) & & & & 6 D.qXeXqX1X|.qXeXqXb.S o 2 & # | [.eX1Xk.6 e.~.-X-X-X-X-X-X,X<X<X0XwXwXwX",
"-X-X-X-X,X0XwXwX0X,X,X-X-X-X-X@X8.l g.|.eX1X( w ( | P 6 D.qXqX'.c.o.[.eXqXc.G t o.) 3 | '.eX1Xh.6 t.~.-X-X-X-X,X,X<XwXwXwXwXwXwX",
"-X-X-X<X0XwXwXwXwXwX0X<X-X-X,X;XG.| O.K..X1Xb.X.K.U.c.| U.1X'.o.S 6 o.[.1XP.k.g.'.P.| D.|..XP.o.( J.#X<X-X-X-X9X0XwXwXwXwXwXwXwX",
"-X-X-X,X<X<X0XwXwXwXwX0X<X-X-X>X{.V. .X.F.1X[.U..X1X|.U.1X.Xc.G & % D c..X.X[.'.4X1XU..X.XP.X.| V.|.6X0X9X-X-X,X0XwXwXwX9X,X<X<X",
"-X-X-X-X-X-X<X0XwXwXwXwX9X-X-X*X{.A.E D X.1X|.[.1XqXeXqXeX.Xg.I S D G g..X7XeXqXeX1X'..X|.c.g P G. X8XwX9X-X-X=X,X9X9X9X,X-X-X-X",
"-X-X-X-X-X-X-X<X0XwXwXwX9X,X-X&XZ.U 4 e X.|.b.X.K.1XeXeXeX1X'.K.H.H.H.'.1XqXeXeX7XP.| F.U.c.6 > P J.#XwX0X,X-X-X,X-X-X-X-X-X-X,X",
"-X-X,X-X-X-X-X-X<XwXwX0XwX9X-X+X8.4 2 Y D.|.) 6 ) m.U.P.P.P.P.P.P.P.P.P.P.P.P.P.H.( 3 X.U.P.W = * j.}.wXwX0X,X,X-X-X-X-X-X-X<X0X",
"0X0X<X-X-X-X-X-X,X,X,X<X9XwX9X@X8.r / P.4X.X_ = = 6 t t t t t t t t t t t t t t e = # X.[.7XU.( 4 e.^.,X<XwX0X,X-X-X-X-X-X-X,X,X",
"wXwX0X<X-X-X-X-X-X-X-X-X,X9X<X+X8.l g.|.eXqXF.Y & = t I 5 = G D w 2 G G = w G D # & P H.1XeX4Xg.9 e.!.=X,X9X<X,X-X-X-X-X-X-X-X-X",
"0X0X0X9X-X-X-X,X,X-X-X-X-X-X-X%X8.l ..'.4X4X.XF.P S Y o.w 5 ) / t 5 _ ) 3 S ) _ t G F.|.1X1X|.o.w e.~.-X-X-X-X-X-X-X,X,X,X-X-X-X",
"-X-X-X-X-X-X-X9X0X-X-X-X-X-X-X%X9.r P h.F.H..X.XD.g.X.X.6 3 ) / t 5 ) ) 3 t ) k.| D.1X.XU.D.c.P 3 e.~.-X-X-X-X-X-X-X,X0X<X-X-X-X",
"-X-X-X-X-X-X9X0XwX9X,X-X-X-X*X(.<.7 2 8 t G D..X|.H.| D = = t e 6 = t t = 3 t | F.|.1Xb./ t 6 * 2 q.W.%X-X-X-X-X-X,X0XwX0X<X-X-X",
"-X-X-X-X-X-X<X0XwXwX9X9X,X*X!.M.! f - . . o P c.F.c.o./ / / / / / / Y / / Y ) | c.F.c.G #     - f ~ C.^.>X-X-X-X-X,X9X0XwX0X<X-X",
"-X,X<X<X,X,X=X&X5X6X6X6X8XoXN.z m +.j - . o * 3 3 G g.'.|.[.[.[.[.[.[.[.[.|.'.c.D 5 5 ; + X @ d $.x L v.$X,X%X%X%X+X&X8XwXwX0X<X",
",X9XwXwX0X,X(.N.0.r.q.x.U.^.M., k =.%.V c W W H 2 2 S X.g.o.o.g.k.k.g.o.o.g.| P * * G W E H m %.-.d c j.}.E.e.0.8.e.N.{.wXwXwX0X",
"0XwX6X#XXX{.B.' F J F Q y.A.e.> k -.6.3.2.z.m.1.t ; 2 G P P P S e 6 S G G P D 6 $ e 1.c.z.2.3.:.:.d f [ A.x.L F F J ] G. X{.oX%X",
"wXwXXXV.y.q.......X.X.X.0.} K @ j ;.s.p.>.1.m.m.G 3 t | X.| | G 3 & P | X.o.) G * H D.b.w.>.p.d.5.d 7 z } q. .X.X...| O.r.e.Z.!.",
"9X:XE.E 0 S | K.|.U.U.K.r.c , : k 7.7.5.@.c 1.h.I G _ K.U.P.P.g.P S g.P.P.U.F.o.t I z.] R Z 6.f.5.k 1 1 H 1.K.P.'.[.K.o.S 8 ` S.",
"-X=XY.r 3 Y F.XX1XF.c.h.' M d v &.7.7.5.$.k T W W ( X.k.c.k.k.k.o.o.k.c.k.c.k.o.( / / T m +.7.7.7.#.k j k ` k.k.K..X1XH.W * K N.",
"-X=XY.l F c..X.XF.F > 1 b &.:.7.7.7.7.5.5.3.h q / | I = 2 5 6 / c.D.Y 6 6 = 3 D 1.( 8 v $.6.6.6.7.7.7.6.=.m 7 ; G m..X.XD.t E N.",
"-X%XY.r 3 P _ | ~ A n B %.:.s.a.7.7.#.+.#.=.p $ 6 w 2 & Y g.k.o.X.| g.k.h.P 3 & e w + d $.=.C #.7.7.f.7.7.&.k V A ~ _ | Y ; U C.",
"-X=XR.Q l r t 5 7 C *.;.7.a.d.d.f.5.k p k -.k < , : @ 5 c..X1XK.g.| P.1X.Xk.t O , , : B %.Z y v 7.f.f.f.7.7.4.$.V p 8 r g w  .I.",
"-X-X_.B.c.h.Q 4 - p #.5.s.s.a.a.f.7.k < a 4.=.+.k a < w F.eXqX.XP.H..XeX7Xb.D - i B B =.&.B : d 7.7.f.7.7.f.7.@.p > , R j.k.L.}.",
"-X-X:X#XXX}.N.Q 7 g M $.=.=.=.&.3.$.k a B 6.7.7.4.+.p 3 g.|.7X7X4X1XqXqX|.o.t y #.:.:.i.;.+.p d $.3.&.*.4.=.$.N z 0 L u.(.{.#X8X",
"-X<XwX0X<X>X/.A.e.j.` M x j j x a j k +.=.7.7.f.f.=.h ; D k.|.qXeXeXeX|.k.S > u =.f.f.d.i.*.Z x k j j j j j k ] O.y.B.~.-X,X<X,X",
"-X<X9X<X-X-X=X&X;X5XD.U 9 4 8 8 3 f m $.6.7.7.f.s.=.a O & / '.7XeXeXeX'./ = + u *.a.a.a.i.5.*.M q 9 5 8 4 8 F C.oX:X*X=X-X-X-X=X",
"-X-X-X-X-X-X,X9XwXwX XL.V.m.M.M.n.y.! m #.7.a.d.a.&.s ; ) P.1XeXeXeXeX4XP.) 9 u *.a.a.d.6.%.b ! v.V.V.V.V.C.A.(.=X-X-X-X-X-X-X-X",
"-X,X-X-X-X-X9XwXwX0XwX5X3X$X@X`.&XW.,.f n 6.d.d.a.&.d 3 | K.'.'.'.'.'.'.P._ e u =.a.a.f.:.Z q ] {.3X3X3X#X;X%X*X=X-X-X-X-X-X-X-X",
"-X-X-X-X-X-X,X9XwXwXwX<X,X-X-X-X>X(.,.f j 5.s.s.a.&.s $ t Y Y Y Y I Y Y Y e > u =.a.a.f.:.V 1 } #XwXwX9X,X,X-X-X-X-X-X-X-X-X-X-X",
"-X-X-X-X-X-X-X,X<X<X<X,X-X-X-X-X-X(.,.q u #.5.d.f.=.d X o # # # # # # # % o @ u =.d.a.6.#.a , [ oX<X<X,X-X-X-X-X-X-X-X-X-X-X,X9X",
"-X-X,X,X-X-X-X-X-X-X-X,X-X-X-X-X-X/.,.7 - p #.6.i.&.a .                     X u =.7.7.#.a : > ' _.=X-X-X-X-X-X-X-X-X-X-X-X-X9XwX",
",X-X9X0X,X-X-X-X-X-X-X-X-X-X-X-X-X/.{ 4 . X h $.=.C 1 .                     X < C =.$.a - . $ ' _.=X-X-X-X-X-X-X-X-X-X-X-X9XwX0X",
"0X0XwXwX9X,X-X-X-X-X-X-X-X-X-X-X-X/.{ 3   . @ < < : @                       . X : < < @ . . % ' ).=X-X-X-X-X-X-X-X-X-X,X9XwXwXwX",
"wXwXwXwXwX,X-X-X-X-X-X<X0X9X,X:XOXC.J %       .                                   . .     . + H M.~.%X<X0X9X-X9X9X9X9X9XwXwXwXwX",
"wXwXwXwX0X,X-X-X-X-X<X0XwX0X-X;XV.J * o                         . o                         . & F M.oX9XwX0X,X<X0XwXwXwXwXwXwXwX",
"wXwXwX0X0X-X-X-X-X<X0XwXwX9X-X+XO.2 o                         % w l #                           % e.{.wXwX0X,X-X9XwXwXwXwXwXwX0X",
"wXwX9X,X-X-X-X-X,X0XwXwX9X-X-X%Xr.5 o .                     + S ..k.S o                       . 2 l. XwX9X-X-X-X9XwXwXwXwXwX9X,X",
"wX9X,X-X-X-X-X<X0XwXwXwX9X-X-X%XZ.Q 4 o                   + e 8.T.Q.0.r # .                 . 2 E J.#XwX9X-X-X-X,X9XwXwX9X,X,X-X",
"<X,X-X,X<X<X<X0XwXwXwX0X,X-X-X%X_.A.E * o o o o o o o .   5 r.Q.&X&X!.e.5 + . o o o o o o o # U L.XX5X8X<X-X-X-X-X,X9X<X,X-X-X-X",
"-X-X-X,X0X0XwXwXwXwX0X,X-X%X!.N.x.t.z 2 5 Y / / / / ( Y 2 r J.5X9X-X=XZ.r w G ( ( / / ( Y e & D j.v.G.Q.%X-X-X-X-X-X-X-X-X-X-X-X",
"-X-X-X,X,X-X9XwXwX0X,X-X-X_.N.l 9 e 5 t _ '.|.|.|.|.'.D.S S J.#X9X-X=XA.r P k.[.|.|.|..XU.o.w 2 t 6 K y._.-X-X-X-X-X-X-X-X,X-X,X",
"-X-X-X-X-X-X,X,X,X,X-X-X-X(.y.> t ) O.c.U.7XqXeXqX1XI.| 6 t G.OX,X-X=XB.0 9 ) P.2XeXqXeX4X[.c.X.| e r 8.).-X-X-X-X-X-X-X9X0X0X0X",
"-X-X-X-X-X<X9X9X<X-X-X-X-X_.M.r Y c.K.U.[. X.X1X1X'.c.U 8 J L.+X-X-X=XS.K r J h.'..X.X.X.X[.U.H.b.U L y._.-X-X-X-X,X9X9X0XwX0X9X",
"-X-X-X-X<XwXwXwX0X<X,X,X-X+XY.8.O.c.b.b.c.c.c.c.c.j. .( ( r.Q.%X-X-X=XW.e.^ Q [ j.c.c.c.c.c.b.b.v.X.e.S.+X-X-X,X,X<XwXwXwXwX9X-X",
"-X-X-X<X0X0XwXwXwXwXwX<X,X=X%X{.l.G t e e e e e w L y.!.(._.%X=X-X-X=X%X_._.R.M.L 0 e e e e t t G l.].$X=X-X-X9XwXwXwXwXwXwX9X-X",
"-X-X-X,X,X,X0XwXwXwXwXwX<X-X-X=XI.l...] { { { ' [ y.R.-X-X-X-X-X-X-X-X-X-X-X%X!.y.^ { [ { { }  .h.E.5XwX9X-X-X,X9XwXwXwX<X,X,X-X",
"-X-X-X-X-X-X,X0XwXwXwXwX9X-X-X-X&XoXoXoX).(.(.)._._.%X=X-X-X,X-X-X,X9X9X9X9X<X&X_.(.(._.(.(.). XXX6X8XwX9X-X-X-X<X<X<X<X,X-X-X-X",
"-X-X-X-X-X-X-X<X0XwXwXwX9X<X-X-X=X=X=X*X=X=X=X=X:X<X,X,X-X-X-X-X,X<XwXwXwXwX0X<X,X=X&X=X=X=X=X=X8XwXwXwX0X<X-X-X-X-X-X-X-X-X,X<X",
"-X-X-X-X-X-X-X-X,XwXwXwXwX9X,X-X-X-X-X-X-X-X-X,XwXwXwX9X-X-X-X-X<XwXwXwXwXwXwXwX,X-X-X-X-X-X-X-X,XwXwXwXwX0X,X-X-X-X-X-X-X-X<X0X"
};
