/* XPM */
static char *result[] = {
/* columns rows colors chars-per-pixel */
"64 64 216 2 ",
"   c #010101",
".  c #090806",
"X  c #040609",
"o  c #06090B",
"O  c #0C0C0D",
"+  c #060C12",
"@  c #090E12",
"#  c #0E1111",
"$  c #0A121C",
"%  c #141415",
"&  c #12161A",
"*  c #151A1D",
"=  c #1B1B1C",
"-  c #1F201F",
";  c #0E1926",
":  c #131D28",
">  c #111F31",
",  c #1D2123",
"<  c #0E223A",
"1  c #172434",
"2  c #14253A",
"3  c #232424",
"4  c #262827",
"5  c #22272A",
"6  c #24292B",
"7  c #2C2D2D",
"8  c #31302F",
"9  c #262E33",
"0  c #2A2F33",
"q  c #2C3132",
"w  c #28313C",
"e  c #333333",
"r  c #333739",
"t  c #333A3C",
"y  c #3B3B3C",
"u  c #3D403F",
"i  c #172B43",
"p  c #182D45",
"a  c #1A2F49",
"s  c #1B324D",
"d  c #1D3553",
"f  c #1F3857",
"g  c #1F3958",
"h  c #243646",
"j  c #343E42",
"k  c #3C3F41",
"l  c #213A57",
"z  c #213C5B",
"x  c #223F61",
"c  c #384347",
"v  c #3C4345",
"b  c #3E4A4D",
"n  c #2D445E",
"m  c #244165",
"M  c #2B4664",
"N  c #26466D",
"B  c #2B496C",
"V  c #324C68",
"C  c #2A4B74",
"Z  c #294C76",
"A  c #324E70",
"S  c #2D527E",
"D  c #365170",
"F  c #444444",
"G  c #494745",
"H  c #444649",
"J  c #464949",
"K  c #4B4C4B",
"L  c #504E4C",
"P  c #424D56",
"I  c #455254",
"U  c #4A5354",
"Y  c #44555A",
"T  c #4E5A5C",
"R  c #545454",
"E  c #54555A",
"W  c #535B5B",
"Q  c #5A5B5B",
"!  c #4A5864",
"~  c #565F61",
"^  c #4C606D",
"/  c #5B6363",
"(  c #56666A",
")  c #576B73",
"_  c #556A77",
"`  c #5E6E71",
"'  c #646464",
"]  c #6B6C6C",
"[  c #6B706F",
"{  c #74726F",
"}  c #606F71",
"|  c #6C6F74",
" . c #6B7272",
".. c #667678",
"X. c #747474",
"o. c #74767A",
"O. c #757B7A",
"+. c #7B7C7C",
"@. c #2E5482",
"#. c #2D5689",
"$. c #315783",
"%. c #325B8C",
"&. c #335E92",
"*. c #356195",
"=. c #386497",
"-. c #36649B",
";. c #38669E",
":. c #3767A0",
">. c #3969A3",
",. c #3C6EAA",
"<. c #3D71AE",
"1. c #3F73B2",
"2. c #697F83",
"3. c #797C84",
"4. c #4176B6",
"5. c #437ABC",
"6. c #457EC2",
"7. c #6C8185",
"8. c #6D858B",
"9. c #778687",
"0. c #7C8283",
"q. c #748A8D",
"w. c #768D92",
"e. c #798C90",
"r. c #7A9196",
"t. c #7B9599",
"y. c #7C9599",
"u. c #4680C5",
"i. c #4782C9",
"p. c #4884CD",
"a. c #4986D0",
"s. c #4B89D4",
"d. c #838484",
"f. c #82848A",
"g. c #868B8B",
"h. c #8B8B8B",
"j. c #8E8F91",
"k. c #8C9494",
"l. c #879799",
"z. c #8D9B9B",
"x. c #949494",
"c. c #949896",
"v. c #949C9C",
"b. c #9D9D9D",
"n. c #9AA29F",
"m. c #849FA3",
"M. c #9C9DA3",
"N. c #89A4A9",
"B. c #89A5AA",
"V. c #9CA3A2",
"C. c #9BADAD",
"Z. c #8EACB1",
"A. c #91AEB3",
"S. c #95B2B7",
"D. c #9AB6BB",
"F. c #A3A3A3",
"G. c #A1A8A8",
"H. c #A4ACAB",
"J. c #ABABAB",
"K. c #AAADB5",
"L. c #ACB5B2",
"P. c #A9B8B8",
"I. c #B3B3B3",
"U. c #BBBBBB",
"Y. c #B8C2BF",
"T. c #9EBEC3",
"R. c #BFBFC0",
"E. c #A5C5CB",
"W. c #A8C5C9",
"Q. c #B3C7C8",
"!. c #ACCED4",
"~. c #B0CFD3",
"^. c #AED2D8",
"/. c #B2D5DB",
"(. c #BAD6D9",
"). c #B4D9DF",
"_. c #B6DCE2",
"`. c #B8DEE4",
"'. c #BDE3E8",
"]. c #BEE5EC",
"[. c #C4C4C4",
"{. c #C2CCC9",
"}. c #CCCCCC",
"|. c #C7D2CF",
" X c #CBD9D6",
".X c #D4D4D4",
"XX c #D2DEDB",
"oX c #DBDBDB",
"OX c #CFE1DF",
"+X c #D4E0DD",
"@X c #C9E4E7",
"#X c #C1E6EC",
"$X c #C2E8EF",
"%X c #D8E9E7",
"&X c #C5EDF4",
"*X c #CAEDF2",
"=X c #D5EFF1",
"-X c #CAF1F7",
";X c #C7F2F9",
":X c #CCF6FD",
">X c #CEF8FF",
",X c #D6F4F6",
"<X c #D3F9FE",
"1X c #DBFAFE",
"2X c #E5E5E5",
"3X c #E1EDE9",
"4X c #EBEBEB",
"5X c #E6F1ED",
"6X c #E3F7F6",
"7X c #E9F6F2",
"8X c #EDFAF6",
"9X c #E3FCFD",
"0X c #ECFEFC",
"qX c #F4F4F4",
"wX c #F2FFFB",
"eX c #FEFEFE",
/* pixels */
">X>X>X>X>X>X0XwXwXwXwXwXwX0X>X>X>X>X>X>X>X>X>X>X>X>X>X1X0X>X>X>X>X>X>X>X>X>X>X>X>X>X>X>X>X>X9XwX0XwXwXwX0X0X<X>X>X>X>X>X>X>X>X>X",
">X>X>X>X>X>X<X9XwXwXwX9X1X1X>X>X>X<X>X>X>X>X>X:X&X$X#X$X*X].].].].#X].].].].#X].].-X>X>X>X>X<X9XwXwXwX9X1X1X>X>X>X>X>X>X>X>X>X>X",
">X>X>X>X>X>X>X<X9X9X9X<X:X>X>X>X>X>X>X>X>X>X<X*XW.Z.l.N.m.m.m.m.m.m.m.m.m.m.N.m.N.E.&X>X>X>X>X<X9X9X9X1X>X>X>X>X>X>X>X>X>X>X<X1X",
">X>X<X<X>X>X>X>X<X>X>X>X>X>X>X>X>X>X>X:X-X$X%X|.g./ I I U U U U U U U U U U I I T q.^.'.&X&X:X>X>X<X>X>X>X>X>X>X>X>X<X>X>X<X1XwX",
">X>X9X9X<X>X>X>X>X>X>X>X>X>X>X>X>X>X>X&X!.C.G.c. ./ R R R R R R R R R R R R R R R  .l.V.S.!.&X>X>X>X>X>X>X>X>X>X>X>X>X>X>X1XwXwX",
"9X0X0XwX9X<X>X>X>X>X>X:X>X>X>X>X>X>X:X/.l.F 8 U k.[.oX.X.X.X.X.X.X.X.X.X.X.X.X.X}.x.K q H 7./.>X>X>X>X>X>X>X>X>X>X>X>X>X1XwXwXwX",
"wXwXwXwX0X<X>X>X>X>X>X1X9X1X>X1X1X=XQ.z.O.[ ' d.[.4XeXeXeXeXeXeXeXeXeXeXeXeXeXeXeX[.d.] ] O.y.E.&X>X>X<X9X1X<X1X1X9X1X9XwXwX0X9X",
"wXwXwXwXwX<X>X>X>X>X<X0XwX0X<X9XwX%Xc.' X.[.}..X4XeXeXeXeXeXeXeXeXeXeXeXeXeXeXeXeX4X.X.XI.d.T r.].:X<X9XwX0X<X9XwXwXwXwXwXwX0X<X",
"wXwXwX0X0X<X>X>X>X<XwXwXwX0X>X>X0X+X0.L X.2XeXeXeXeXeXeXeXeXeXeXeXeXeXeXeXeXeXeXeXeXeXeX.Xh.v ..].<X0XwXwX0X<X>X9XwXwXwXwXwXwX0X",
"wXwX9X<X<X<X>X>X<X0XwXwX9X<X>X>X=X{.O.Q h.qXeXeXeXeXeXeXeXeXeXeXeXeXeXeXeXeXeXeXeXeXeXeXoXb.U } !.%XwXwX0X<X>X>X9XwXwXwXwXwX0X1X",
"wX9X<X>X>X>X>X<X9XwXwXwX9X:X>X-X!.z.+.d.I.qXeXeXeXeXeXeXeXeXeXeXeXeXeXeXeXeXeXeXeXeXeXeX4X[.f. .l.}.5XwX9X>X>X>X<X9XwXwX9X1X1X:X",
"0X<X>X<X1X<X1X9XwXwXwX0X1X:X:X&Xr.R +.[.qXeXeXeXeXeXeXeXeXeXeXeXeXeXeXeXeXqX4X4X2X2X2XqXqXqX.Xd.F v.+X0X1X>X>X>X:X<X0X9X<X>X>X>X",
">X>X>X<X0X0XwXwXwXwX0X1X>X>X>X].2.v d..XeXeXeXeXeXeXeXeXeXeXeXeXeXeXeXeXeX}.b.+.+.+.d.U.2XeX2Xh.8 g. X1X>X>X>X>X>X>X>X>X>X>X>X>X",
">X>X>X<X<X<X9XwXwX0X1X>X>X>X>X].7.v 0..XeXeXeXeXeXeXeXeXeXeXeXeXeXeXeXeXqXJ.Q = = = 4 d..XeX2Xd.8 g.(.>X>X>X>X>X>X>X>X>X>X>X>X>X",
">X>X>X>X>X>X<X1X1X1X>X>X>X>X>X].2.v d..XeXeXeXeXeXeXeXeXeXeXeXeXeXeXeXeXqXF.H .     % X.}.eX2Xd.8 e.).>X>X>X>X>X>X<X>X>X9X9X9X9X",
">X>X>X>X<X1X1X1X<X>X>X>X>X>X>X].2.k d..XeXeX2X}.}.[.}..X4XeXeXqX2XoXqXeXqXb.u       . X.}.qX2Xd.7 q.^.>X>X>X>X>X:X<X1X1X0XwXwXwX",
">X>X>X<X<X0XwXwX0X<X<X>X>X>X>X$X7.G d..XeX4XI.d.+.{ +.j..XqXeX.XJ.b..XeXqXb.G O     % +.}.eX2Xd.e w.).>X>X>X>X<X<X1XwXwXwXwXwXwX",
">X<X>X<X0XwXwXwXwXwX0X1X>X>X<X=Xz.Q 0.[.qX2Xj.G e 7 y Q U.qX2Xb.Q G b.2XqXJ.' 3 3 3 e h..XqX}.d.K v.+X1X>X>X>X9X0XwXwXwXwXwXwXwX",
">X>X>X<X1X1X0XwXwXwXwX0X1X>X>X,X|.V.0.d.I.2X[.F.x.x.x.J.oXoXx.G % % F x.oX.XI.x.x.b.F.}.oXY.d.X.n. X7X8X1X<X>X<X0XwXwXwX9X<X1X1X",
">X>X>X>X>X>X1X0XwXwXwXwX9X:X>X;X@XC./ J d.2XoX.XoX4XqXqXeX.Xd.G e e F +.oXqXeXqXqXoX}.2XoXx.F W L.+X8XwX9X>X>X>X<X9X9X9X<X>X>X>X",
">X>X>X>X>X>X>X1X0XwXwXwX9X<X>X*XS.( q e X.oXF.h.R.4XeXqXeX2X[.J.F.F.F.[.4XqXeXqXeXR.d.I.R.x.e 5 ' L.%XwX0X<X>X>X>X>X>X>X>X>X>X<X",
">X<X>X>X>X>X>X>X1XwXwX0XwX9X>X$Xq.t 7 Q b..XX.u X.J.U.U.U.U.J.F.J.J.F.J.U.U.U.U.I.+.e d.U.J.Q 4 8 k.+X8XwX0X<X>X>X>X>X>X>X>X1X0X",
"0X9X1X>X>X>X>X>X>X<X1X1X9XwX9X$X..q L x..XoX] 3 e R ] ' ' ' ] ] ] ] { ] ' ' ' ' Q 8 = +.[.oXb.K , q.(.<X9XwX0X<X>X>X>X>X>X>X<X<X",
"wXwX0X1X>X>X>X>X>X>X>X>X<X9X1X$X7.v +.}.eX2Xx.u % % 3 e = = e 7 - % e e % - 8 8 % % y x.oXqX2Xd.7 q.^.>X<X1X9X<X>X>X>X>X>X>X>X>X",
"0X0X0X9X>X>X>X<X<X>X>X>X>X>X>X].7.v d.oXeXqX.Xx.F e R d.r 7 { ' F 7 X.{ 4 H ] ] 4 y x..XqXeX2Xh.q q.^.>X>X>X>X>X>X>X<X<X<X>X>X>X",
"<X>X>X>X>X>X>X9X0X>X>X>X>X>X>X&XB.` 0.G.[.[.2XoXj.X.+.j.y e o.{ G 7 +.X.7 G X.j.] h.oX2X.XU.J.d./ Z.'.:X>X>X>X>X>X>X<X0X1X:X>X>X",
">X>X>X>X>X>X9X0XwX9X<X>X>X>X>X;X'.D.+.R G Q J.2XoXJ.X.u = % e 7 - % 8 e % = y { J.oX2XJ.' F G o.L.@X=X>X>X>X>X>X>X<X0XwX0X1X>X>X",
">X>X>X>X>X>X1X0XwXwX9X9X1X>X>X>X^.l.U 3 # - ' b.J.b.+.] Q ' ' ' ' ' ' ' ' ' ' +.c.J.F.' 7 # = U c.XX1X9X1X>X>X>X>X<X9XwXwX0X1X>X",
">X<X1X1X1X>X>X<X0XwXwXwX0X1X;X].Z.^ 9 o     4 H L ' +.b.F.F.F.F.F.F.F.M.M.F.b.d.' R G 3 O   o 5 / H.+X8X0X<X<X>X>X>X<X0XwXwX0X1X",
"<X0XwXwX0X<X>X>X1X0X0X0X0X6X_.Z._ h ; X     . . . 7 ' F.I.J.J.J.I.J.J.J.J.I.b.{ 4   X .     . $ h ..C.XX7X0X<X>X>X>X<XwXwXwX0X0X",
"0X0XwXwXwXwX1X>X>X<X<X<X<X'.B.Y V C s $   . X     O 7 G L L K G G F G L K R G 8 O   . X .   @ s S M ^ m.`.<X>X>X>X<X0XwXwX9X<X<X",
"wXwXwX0X1X1X<X>X>X>X>X;X).N.~ * m =.m , = F H r = % 8 R Q Q Q y = % y E Q Q L y % % r H y 4 $ n ;.l 1 U N.).;X>X1X0XwXwX9X<X>X>X",
"9X9X9X1X>X>X>X>X>X>X:X].N.I % $ x *.x h H j.M.f.v y { R.[.}.[.h.L y j.[.}.}.U.d.e k f.M.h.E 6 x ,.x ; & b N.&X<X0XwXwXwX1X>X>X>X",
"<X>X>X>X>X>X>X>X>X>X:X].l.j $ d =.4.=.x ! | M.K.f.| X.h.h.h.d.3.+.+.d.f.d.h.h.+.] 3.K.M.3.! B &.5.&.l : 9 r.:X0XwXwXwX0X<X>X>X>X",
">X>X>X>X>X>X>X<X>X>X:X^.8.c h %.4.4.4.@.x P 3.F.M.+.Q k G R R { h.x.{ R R F G R 3.M.M.3.P x $.:.,.4.#.z w 7.XX7X8XwX0X<X>X>X>X>X",
">X>X>X>X>X>X1X0X1X:X_.t._ A S 4.;.S @.x x x ! { o.E 8 % y ' ' X.d.h.| ' Q y - 3 Q o.| ! x x A Z Z :.4.&.B _ m.(.,X<X1X>X>X1X0X9X",
">X>X>X<X1X9X0XwX1X;XZ.^ V %.5.5.@.a > i x #.x h 0 : % 3 d.}.}.F.+.] F..X[.d.e O : 0 w M Z N i > i $.4.6.&.V P A.].>X>X>X1X0XwXwX",
">X>X<X1XwXwX0X1X>X;Xy.t l >.s.u.%.x s f x x x z d < ; e J.eXeX.XF.j.oXeXeXF.G $ 2 d g x N x g s x &.6.s.4.l 6 l.'.>X>X>X9X0XwXwX",
">X>X1XwXwX8X1X>X>X-Xz.v z ;.p.u.6.6.4.;.N i x ;.4.#.s e x.2XqXqX4X4XqXeX4Xx.H 2 %.1.:.m d x ;.4.4.6.a.6.>.l 7 M.@X>X>X>X<X1XwXwX",
">X9XwX0X1X<X>X>X<X6Xk.c z >.s.p.6.6.6.5.>.Z x Z &.&.z * G j..XqXeXeXeX.Xx.G : p *.>.N x C &.5.p.6.6.a.a.4.s 5 b.%X9X>X>X>X<X1X<X",
">X1X9X1X>X>X>X<X9X8XG.W M &.5.p.6.s.6.6.4.%.l x &.&.g % 8 X.}.qXeXeXeX}.X.8 & p -.&.z x @.,.6.a.a.p.i.5.*.n b C.@X1X>X>X>X>X>X>X",
">X>X>X>X>X>X<X9XwX8X|.c.( D %.5.6.s.6.4.;.C x C >.&.g : L c.oXqXeXqXeXoXb.L 4 p &.,.C x C &.5.p.p.p.5.*.A ^ w.!.-X>X>X>X>X>X>X>X",
">X>X>X>X>X>X9XwXwXwX7X Xv.! B -.4.5.6.4.S > x 4.6.-.g 4 +.U..X.X.XoXoX.XR.{ t i :.6.,.x a x ,.6.<.<.=.D ! k.).&X:X>X>X>X>X>X>X>X",
">X>X>X>X>X>X<X9XwXwXwX,X~.y.^ M x x ;.=.x ; x 6.a.:.g = L +.+.+.o.+.+.+.3.L 6 i :.s.6.m 2 d :.:.N x M ! r.!.>X>X>X>X>X>X>X>X>X>X",
">X>X>X>X>X>X>X<X1X1X1X<X:X_.t.c % ; x @.x ; x 6.a.>.l X . O # O O # O % O . @ p >.a.6.m 2 a @.m $ $ v r.).>X>X>X>X>X>X>X>X>X<X9X",
">X>X<X<X>X>X>X>X>X>X>X>X>X;X/.l.b ; ; > > & Z 6.s.>.f X                     + p ,.s.6.N > $ 2 ; O b r.^.-X>X>X>X>X>X>X>X>X<X9XwX",
"<X>X9X0X<X>X>X>X>X>X>X>X>X>X-X_.r.P 5 @ X @ x &.>.S i X                     o < S >.*.f ; X @ , c t.!.;X>X>X>X>X>X<X>X>X>X9XwXwX",
"0X0XwXwX9X<X>X>X>X>X>X>X>X>X>X>X!.r.H &   X > s f 2 ;                       X $ i d s > o   # c r.^.-X>X>X>X>X>X>X>X>X>X9XwXwXwX",
"wXwXwXwX0X<X>X>X>X>X>X1X9X9X<X9XOXC.W =     X + + o X                           o + + X     # I B.).;X1X9X9X<X9X9X9X9X9X8XwXwXwX",
"wXwXwXwX0X<X>X>X>X>X1X0XwX0X<X=XL. .e #                           .                         O 9 ) D.@X9XwXwX<X1XwXwXwXwXwXwXwXwX",
"wXwXwX0X0X<X>X>X>X<XwXwXwX9X>X$X9.4 .                         # 3 3 O                           = q. XwXwX9X>X>X9XwXwXwXwXwXwX0X",
"wXwX9X<X>X>X>X>X<XwXwXwX9X>X>X].0.,                         X t [ +.q                           % f. XwX9X<X>X>X9XwXwXwXwXwX9X<X",
"wX9X<X>X>X>X>X1X0XwXwXwX9X>X>X-XZ.~ 4 O                   O 9 ..D.W. .q #                   X , T L.3XwX9X>X>X<X<X9XwXwX9X<X<X>X",
"1X<X>X<X9X1X1X0XwXwXwX9X<X>X-X&X^.N.U = . O O O O O O O . 5 ..Y.$X$XE...6 O O O O O O O O . % K n. X5X6X1X>X>X>X>X<X1X9X<X:X>X>X",
">X>X>X<X0X0XwXwXwXwX0X<X>X&X_.S.Z.r.I 3 3 J R R R R R J = t V.+X1X:X&XB.t 6 y R R R R R H 7 = L c.V.Y.(.&X>X>X>X>X>X>X>X>X>X>X>X",
">X>X>X>X>X>X9XwXwX0X<X>X>X].S.( T U r r Q F.I.I.J.I.J.d.y v L.5X9X>X>XS.k J +.J.I.J.I.I.b.] q e W R } N.'.>X>X>X>X>X>X>X>X<X>X<X",
">X>X>X>X>X<X<X<X1X<X>X>X:X_.t., 3 u G ] F.qXeXeXeXqX.Xc.u F J.@X<X>X>XZ.u J g..XqXeXeXeX2XI.' H F 3 r 7.`.>X>X>X>X>X>X>X9X0X0X0X",
">X>X>X>X>X1X9X9X1X>X>X>X>X'.t.6 Q F.R.}.2XqXwXeXeX.Xj.r % u C.#X>X>X;XS.t = r 0..XeXeXeXqX2X}.[.J.R H 7.`.>X>X>X>X<X9X9X0XwX0X9X",
">X>X>X>X1XwXwXwX0X<X1X<X>X$XT...X.k.b.b.n.b.b.F.F.j.O./ W 0.E.&X>X>X;XE.7.( W  .g.F.F.b.F.b.b.F.x. .9.A.].>X>X<X<X1XwXwXwXwX9X>X",
">X>X>X1X0X0X0XwXwXwXwX1X<X-X#XQ.f./ L K G K K G K / w.D.E.!.$X-X>X>X>X].!.E.D.y.~ G J J J J L K R g.Y.@X:X>X>X9XwXwXwXwXwXwX9X>X",
">X>X>X<X<X<X0XwXwXwXwXwX1X:X;X*XP.0.[ } } } ` ` ` q.D.].-X-X:X>X>X>X>X:X&X-X].E.q.) ` ` ` ) } [ +.Y.%X8X9X>X>X<X9XwXwXwX1X<X<X>X",
">X>X>X>X>X>X<X0XwXwXwXwX9X>X>X>X@XQ.W.Y.E.T.T.T.T.!.].>X>X>X>X>X>X<X9X9X9X9X1X].!.T.T.T.T.T.Y.Y.{.%X8XwX9X>X>X>X1X1X1X1X<X>X>X>X",
">X>X>X>X>X>X>X1X0XwXwXwX9X<X>X>X>X>X>X>X>X>X>X<X1X1X1X<X>X>X>X>X<X1XwXwXwXwX0X1X<X>X>X>X>X>X>X<X9XwXwXwX0X1X>X>X>X>X>X>X>X>X<X1X",
">X>X>X>X>X>X>X>X<XwXwXwXwX0X<X>X>X>X>X>X>X>X>X<X0XwXwX9X>X>X>X>X1XwXwXwXwXwXwXwX<X>X>X>X>X>X>X>X<XwXwXwXwX0X<X>X>X>X>X>X>X>X1X0X"
};
