/* XPM */
static char *result[] = {
/* columns rows colors chars-per-pixel */
"64 64 220 2 ",
"   c #010101",
".  c #090000",
"X  c #080908",
"o  c #0C0D0D",
"O  c #140302",
"+  c #1B0101",
"@  c #140E0E",
"#  c #1A1903",
"$  c #00031D",
"%  c #0E1112",
"&  c #131414",
"*  c #171A19",
"=  c #1A1B1B",
"-  c #240101",
";  c #290404",
":  c #320000",
">  c #3A0202",
",  c #2A1313",
"<  c #292704",
"1  c #393500",
"2  c #111624",
"3  c #1D2223",
"4  c #222425",
"5  c #212728",
"6  c #252928",
"7  c #2A2A2A",
"8  c #2D3435",
"9  c #383A39",
"0  c #440000",
"q  c #4C0000",
"w  c #470C0C",
"e  c #530000",
"r  c #5D0000",
"t  c #540808",
"y  c #451616",
"u  c #571314",
"i  c #650202",
"p  c #6B0000",
"a  c #690A0A",
"s  c #730000",
"d  c #7C0101",
"f  c #780B0B",
"g  c #671818",
"h  c #781616",
"j  c #463E00",
"k  c #5D2A2A",
"l  c #533636",
"z  c #5A3435",
"x  c #64292A",
"c  c #752626",
"v  c #663637",
"b  c #713233",
"n  c #474201",
"m  c #534E03",
"M  c #514E14",
"N  c #726A05",
"B  c #61601F",
"V  c #525332",
"C  c #6E712C",
"Z  c #000851",
"A  c #2F374E",
"S  c #000663",
"D  c #3A4652",
"F  c #434445",
"G  c #4A4949",
"H  c #574A4C",
"J  c #515747",
"K  c #4B5558",
"L  c #575657",
"P  c #5B5B5B",
"I  c #674546",
"U  c #6E4D4E",
"Y  c #665556",
"T  c #72585A",
"R  c #58625E",
"E  c #4F5F62",
"W  c #755F62",
"Q  c #57696C",
"!  c #5D7174",
"~  c #646463",
"^  c #656568",
"/  c #646C6D",
"(  c #6A6A6A",
")  c #716768",
"_  c #6A7678",
"`  c #727373",
"'  c #757B7C",
"]  c #7B7B7B",
"[  c #850101",
"{  c #8C0101",
"}  c #8C0B0B",
"|  c #940000",
" . c #9B0000",
".. c #891919",
"X. c #9A1A1A",
"o. c #A40000",
"O. c #AC0000",
"+. c #A70808",
"@. c #B10000",
"#. c #BC0000",
"$. c #B20A0A",
"%. c #A81212",
"&. c #862626",
"*. c #903333",
"=. c #A22A29",
"-. c #C50000",
";. c #CC0000",
":. c #D90000",
">. c #E40000",
",. c #EB0000",
"<. c #F40000",
"1. c #FE0000",
"2. c #847B00",
"3. c #865253",
"4. c #8A706F",
"5. c #857979",
"6. c #708172",
"7. c #8D8400",
"8. c #948B0A",
"9. c #958E0D",
"0. c #A69C04",
"q. c #A29A11",
"w. c #B3A700",
"e. c #8C8A25",
"r. c #C8BB00",
"t. c #D7C800",
"y. c #E5D600",
"u. c #FDEC00",
"i. c #FFF000",
"p. c #8E8C56",
"a. c #878966",
"s. c #1C2886",
"d. c #0214AB",
"f. c #0416B3",
"g. c #44599D",
"h. c #6F7F81",
"j. c #0013CF",
"k. c #0017EE",
"l. c #0017FF",
"z. c #001AFD",
"x. c #847F83",
"c. c #778688",
"v. c #7A8E92",
"b. c #838384",
"n. c #8C8685",
"m. c #848B8A",
"M. c #8D8D8D",
"N. c #91918D",
"B. c #879799",
"V. c #929393",
"C. c #939B9B",
"Z. c #9B9B9B",
"A. c #A49C9B",
"S. c #9AA49F",
"D. c #8BA4A9",
"F. c #8DAAAF",
"G. c #97A8AB",
"H. c #8CAAB0",
"J. c #93AEB3",
"K. c #99B3B6",
"L. c #9CB9BD",
"P. c #A3A3A3",
"I. c #AAA8A6",
"U. c #A5ACAB",
"Y. c #AAAAAA",
"T. c #A7B1AE",
"R. c #A9B1AE",
"E. c #AEB0AF",
"W. c #ACB4B2",
"Q. c #A9B7B8",
"!. c #B3B3B3",
"~. c #B4BAB8",
"^. c #BDBDBD",
"/. c #B9C1BE",
"(. c #9DBDC2",
"). c #A1BEC3",
"_. c #A7C4C8",
"`. c #A6C8CE",
"'. c #BAC7C4",
"]. c #ACCDD2",
"[. c #AED1D7",
"{. c #AFD3D9",
"}. c #B7D7DB",
"|. c #B6DCE2",
" X c #BADEE3",
".X c #BBE0E6",
"XX c #BDE4EA",
"oX c #C1C2C2",
"OX c #C4CCCA",
"+X c #CBCBCB",
"@X c #C5D0CD",
"#X c #CCDAD8",
"$X c #D2D6D5",
"%X c #DBDBDB",
"&X c #C5DEE0",
"*X c #CCE4E6",
"=X c #C3E6EB",
"-X c #C9E7EB",
";X c #DAEBE9",
":X c #C5ECF3",
">X c #C8EEF5",
",X c #D6EFF0",
"<X c #CAF1F7",
"1X c #CBF5FC",
"2X c #CEF8FF",
"3X c #D5F4F8",
"4X c #D3F9FE",
"5X c #DBFAFE",
"6X c #E3E3E3",
"7X c #E4EBE9",
"8X c #ECECEC",
"9X c #E5F1ED",
"0X c #EDEEF0",
"qX c #E7F6F3",
"wX c #EEFAF6",
"eX c #E3FCFD",
"rX c #ECFEFC",
"tX c #F4F4F4",
"yX c #F2FFFB",
"uX c #FEFEFE",
/* pixels */
"2X2X2X2X2X2X2X2X2X4XrXyXyXyXyXyXyXeX2X2X2X2X2X2X2X2X2X2X4X].c.( ` ` ( ` ` ` F.2X2X2X2X2X2X2X2X2X2X2XrXyXyXyXyXyXyXrX2X2X2X2X2X2X",
"2X2X2X2X2X2X2X2X2X2X4X5XeXyXyXyXeX4X2X2X2X2X2X2X2X2X2X2X_.V.6XuXuXuXuXuXuXtXU.D.<X2X2X2X2X2X2X2X2X2X4X5XeXyXyXyXeX5X2X2X2X2X2X2X",
"5X4X2X2X2X2X2X2X2X2X2X2X5XeXeXeX4X2X2X2X2X2X2X2X2X4X2XK.G.8XuXuXuXuXuXuXuXuXuX^.C.>X2X2X2X2X4X2X2X2X2X2X4XeXeXeX5X2X2X2X2X2X2X2X",
"yX5X4X2X2X2X2X2X2X2X2X2X2X2X2X4X2X2X2X2X4X2X2X2X2X<XF.U.8XuXuXuXuXuXuXuXuXuXtXuX+XB..X2X2X2X2X2X2X2X2X2X2X2X2X2X2X2X2X2X4X2X2X2X",
"yXyXeX2X2X2X2X2X2X2X2X2X2X2X2X2X2X2X2X4XrX5X2X2X2X=X/ 8XG.5.!.6XuXuX6XtXtX+Xn.b.7XV.U.2X2X2X2X2X2X2X2X2X2X2X2X2X2X2X2X2XrXeX2X2X",
"yXyXrXeX2X2X2X2X2X2X2X2X2X2X2X2X2X2X4XrXrXrXrXrXeX=X/ tX0X7XP 7 M.8X+XV.L 4 +X8XuXV.T.eX2X2X2X2X2X2X2X2X2X2X2X2X2X2X2XeXrXrXeXrX",
"eXrXyXrX5XeX5XeX5X4X5XeX4X2X2X2X2X2X4XyXyXyXyXyXyX-X( tXuXuXL   ' tXuX^.% & %XuXuXV.R.yXeX5X5XeX5X2X5XeX4X2X2X2X2X2X4XyXyXyXyXyX",
"4XrXyXyXyXyXyXyXeX4XrXyXrX4X2X2X2X2X5XyXyXyXyXyXyX7X( tX7XtXL . V.uXuX%X& & %X8XuXV.R.yXyXyXyXyXrX4XrXyXrX4X2X2X2X2X4XyXyXyXyXyX",
"rXyXyXyXyXyXyXeX2X2XrXyXyXeX4X2X2X2X4XyXyXyXyXyXyX7X` !.~ 6XL   N.%X).%X@ & $Xn.V.M.U.yXyXyXyXrX2X4XeXyXyXrX4X2X2X2X4XrXyXyXyXyX",
"5XrXyXyXyXyXyXeX2X2X4XrXyXyXeX4X2X2X2X4X4XeXyXyXyXyX'.b.Z.N.M.G I.G , I.~ ~ Y.M.+Xm.OXyXyXyXyXeX2X2X4XeXyXyXrX4X2X2X2X4X4XeXyXyX",
"2X5X5XeXyXyXeX4X2X2X2XrXyXyXyXeX4X2X2X2X2X4XrXyXyXyXyXm.M.( 8XuX0X` ( oXuXuXZ.b.M._.eXeXyXyXeX4X2X2X2XeXyXyXyXeX5X2X2X2X2X4XeXyX",
"2X2X2X4XeXrX4X2X2X2X2X5XyXyXyXyXeX4X5X5X4X2X4XrXrXeXrXc.M.4 ` 8XuXtXuXuXuXY.= ] / :X2X2XeXrX5X2X2X2X4X5XrXyXyXyXeX5X4X5X4X2X4XrX",
"2X2X2X2X2X2X2X2X2X2X2X2X5XyXyXyXyXyXrXrX2X2X2X2X2X2X2Xc.N.= ] Z.!.!.!.!.P.Z.= ] _ :X2X2X2X2X2X2X2X2X2X2X5XrXyXyXyXyXrXrX4X2X2X2X",
"2X2X2X2X2X2X2X2X2X2X2X2X4X5XyXyXyXeX4X<XV.T T T x.{.2Xv.M.* Y.!.^ b.P N.` 7X6 ] / }.[.[.{.}.2X2X2X2X2X2X2X5XyXyXyXrX4X4X2X2X2X2X",
"rXeXeX5X2X2X2X2X2X2X2X2X2X4X5X5X4X_.c.Q } >.>.,.;...5.G V.= ^ Z.V.^.5.+X` A.o 5.L H , ....*.K.1X2X2X2X2X2X2X5X5X5X4X2X2X2X2X2X2X",
"yXyXyXrX5X5X4X2X2X2X2X2X2X2X2X}.3.X.;.-.>.1.1.1.1.;.[ w V.& X = 4 6 = 7 & @   h.A . +.1.1.<.&.`.2X2X2X2X2X2X2X4X5X5X5X2X2X2X2X2X",
"yXyXyXyXyXyX&X4.T Q.{.}.1X4X_.*.;.O.h &.&.&.h i :.d . o Z.' o & & % & @ @ o F !.8   @.1.1.<..._.4X2X2X2X2X4X4XrXyXyXrX4X4X4X2X2X",
"yXyXyXyXyXOX3.f f h ..&.5.n.=.@.> 9 ~.7X7X7XW.6 r >.p . 9 %XP.H ( P ( ` F ] P.5.  : :.1.1.#.5.yXrX4X2X2X5XyXrXyXyXyXyXrX4X2X2X2X",
"5X4X5X5XyXg f Z._.3.@.>.;.;.,.i = OXuXuXuXuXuX+Xl { ,.{ O ( 6XI.^ ~ ^ ^ a.6Xh.= . | 1.1.;.> P '.3X2X2X5XrXyXyXyXyXrX5X5X4X2X2X2X",
"2X2X2X4XeX4.h n.2X=XD.3.%.:.$., 5.uXuXuXuXuXuXuX!.@ -.1.o.; G ~ L L L P P E % O | 1.1.@.; = n.G.c.(.2XeXyXyXyXyXrX5X2X2X2X2X2X2X",
"4X2X2X2X2X<XG.].2X2X4X,X^.4.N.' ~.uXuXuXuXuXuXuXtXP e <.1.>.[ O . . . . .   ; O.1.1. .+ 9 = V.uX;XP.K.qXyXyXyXrX5X2X2X2X2X2X2X2X",
"rX5X2X2X2X2X2X2X2X4XrXyXrXyXyXv.!.uXuXuXuXuXuXuXuX] x.=.,.1.1.;.-.-.-.-.-.-.:.1.<.[ O ( $X6 Y tXuXtXZ.U.rXyXrX5X2X2X2X2X2X2X2X2X",
"5X2X2X2X2X2X2X2X4XrXyX5X4X5X4XB.Y.uXuXuXuXuXuXuX+X9 $X+X3.$.>.1.1.1.1.1.1.1.,.1.s @ b.tXuXb., oXuXuX6Xc.&X4X4X4X2X2X2X2X2X5XrXrX",
"2X2X2X2X2X2X2X2X4XeXeX4X2X2X2XXX_ 6XuXuXuXuXuXtX) G 7XuX8Xn.> } ;.1.1.1.1.>.[ >.y C.uXuXuXoX@ oXuXuXuX] `.2X2X2X2X2X2X4X5XrXyXyX",
"2X2X2X2X4X2X2X2X2X2X2X2X2X2X2X5X_.C.'.tXuXuX6XP = !.uXuXuX8XoXoX4.a @.$.X.s #.| Y tXuXuXuXZ.@ ).uXuXuXh.`.2X2X4X4X2X2X4XeXrXrXeX",
"2X2X2X5XrX4X2X2X2X2X2X2X2X2X4XrX5XB.B p.a.a.9 & V.uXuXuX8Xb.^ Y.tXE.A.Y.+XI +.k OXuXuXuX%X7 & OXuXuX+Xv.=X2X4XrXeX2X2X2X2X2X2X4X",
"2X2X5XyXyXrX4X2X2X2X2X2X2X4XrXyXyX].2.N N 0.1 9 ` uXuXuXtXI.( +XuXuXuXuXuX6XA.6XtXuXuXuX'   ] uXuX0Xm.(.2X2XrXrXrXeX2X2X2X2X2X2X",
"2X5XrXyXyXeX4X2X2X2X2X5XeXeXyXyXrX4Xh.o   1 < D.J.U.tXuX7X^.Y.P.uXuXuXuXuXuXuXuXuXuXuX^.` G %XtXoXa.C =XeXeXyXyXrX4X2X2X2X2X2X2X",
"5XrXyXyXyX2X2X2X2X2X4XrXyXyXyXrX2X2X|.4     X F.2XL.Z.%XtXuXI.P.uXuXuXuXuXuXuXuXuXtXP.m.@XD.b.~ M 0.m G $XyXyXrX5X2X2X5X5X5X2X2X",
"yXrXyXyXyX4X2X2X2X4XrXyXyXyXrX4X2X2X*X6       J.2X2X`.c.C.P.^.%XtXtXtXwXtXtXtXtX!.V./.;XyX3X{.6.m < .   8 /.rX4X2X2X4XyXyXyXrX4X",
"2X4XeXyXyXrX5X2X2X2X4X4X2X4X4X2X2X5X;X6       G.2X2X2X5X'.Q.C.( F F D l L ' ' c.J.}.eXyXyXrX5X<Xc.%       5 _.4X2X4XrXyXyXyXrXrX",
"2X2X4XeXyXyXrX4X2X2X2X2X2X2X2X2X2X4X*X4     X U.eX2X2X4X5XeX#Xp.7.7.7.N Q :XK.Q Q ! Q ! ( ( / ! Q 3         E 2X2X4X5X5XyXyXyXyX",
"2X2X2X4XyXyXyXrX4X2X2X2X2X2X2X2X2X2X.X5       U.yX5X2X2X2X2XS.q.u.u.u.t.J v.5                             8 J.2X2X2X2X2X5XeXeXrX",
"2X2X2X4XrXyXyXyXrX4X2X2X2X2X2X2X2X2XXX5     X J.rXrX5X2X2X2X1XN.n n n M J n 2.1 % 8 8 8 8 X         o 8 K ].2X2X2X2X2X2X2X2X2X2X",
"4X2X2X2X4XrXyXyXyXrX4X2X2X2X2X4X2X2XXX5       H.4X4X2X2X2X2X2XJ.        N y.y.t.C  X:X:X=XC.m.m.m.m.F.:X>X2X2X2X2X2X2X2X2X2X2X2X",
"rXeX5X2X2X5X5X4X5X5X2X2X2X2X4XeXrX4X.X5     X H.2X2X2X2X2X2XeXU.X       1 m # V '.rX5X1X1X4X5X5X4X5X2X2X2X2X2XeXrX5X2X2X2X2X2X2X",
"yXyXrX5X2X2X2X2X2X5X5X4X2X2X4X5XrXrX*X6       H.2X2X2X4X5XeXrXW.      X * + p c ) oX~.Y Y J.m.G.1X5X5X4X2X2X2X5XrXyXeX5X4X2X2X2X",
"yXyXrXeX4X2X2X2X5XyXyXeX4X4X2X2XeXrX;X6       H.2X4X4X5XyXyXyXU.X     4 ! i @.O.| f f { [ w d l -XyXyXeX4X4X2X2X5XrXyXyX5X4X2X2X",
"yXyXeX2X2X2X2XeXyXyXyXrXyXeX4X2X2X5X;X6       F.4XrXyXyXyXyXyXW.      X = q o.@.@. .p > r { { ) qXyXyXyXyXrX4X2X2X5XyXrXyX5X2X2X",
"4X4X4X2X2X2X*XqXyXyXyXyXyXyXeX4X2X4X*X4       F.2X4X4XeX#XOX@Xm.# 1 1 7.w.j q @.@. .d { | x 5.;XyXyXyXyXyXyXrX4X2X4X4X5XrXyXeX2X",
"2X2X2X2X2X`.I x.-X5XyXyXyXyXyXeX4X2X=X6       H.2X2X2XL.e.9.9.9.r.y.t.9.N < ;  . . . .g T |.3XeXeXeXrXyXyXyXyXrX4X2X2X2X5X5X5X2X",
"2X2X2X2X2XB.i | x b.G.Y.7XyXwXrX5X4XK.=       F.2X2X2X6.w.i.r.0.q.F A f.j.Z O ; H Y ( ).:X2X2X2X2X2XrXyXyXyXyXyXeX4X2X2X2X2X2X2X",
"4X2X2X2X2XJ.g O.O.[ d f I U U U ~ B.C 0.N     H.2X2X2X].C V s.f.f.k.l.l.d.$   X ).2X1X2X2X2X2X2X2X2XrXrXyXyXyXyXyXeX2X2X2X2X2X2X",
"2X2X2X2X2X>XG.c O.@.@.@.O.o.o. .i O # 7.y.7.9 [.2X2X2X<XA S j.z.z.z.z.j.2     o ).2X2X2X2X2X2X2X2X2X4X4X5XyXyXyXeX4X2X2X2X2X2X2X",
"eX4X2X2X2X2X2XL.b d o.O.@.@.@.@.O.| e . 8.u.9.(.2X2X2X:X9   $ Z d.f.d.g._     o '.4X2X2X2X2X2X2X2X2X2X2X4X5X5X5X4X2X2X2X2X2X2X2X",
"yXeX4X2X2X2X2X2X].B.v x } | O.@.@.@.@.r N e.6.|.2X2X2XD.%   X D D.H.H..X|.A   o OXeX4X2X2X2X2X2X2X2X2X2X2X2X2X2X2X2X2X2X5X4X2X2X",
"yXyXeX2X2X2X2X2X2X2X.Xc.@ q o.@.@.@.O.s J }.<X5X2X2X2X!     & [.2X4X4X4X4XE   X ' wXeX2X2X2X2X2X2X2X2X2X2X2X2X2X2X2X2X4XrXeX2X4X",
"yXyXyXeX2X2X2X2X2X2X`.x [ o.O.O.o.[ b 5.6XwXrXrXrX4X`.3     F ;XrXrXrXrX5XK     8 7XyXrX4X2X2X2X2X2X2X2X2X2X2X2X2X2X4XrXrXyXrXrX",
"yXyXyXyXeXeXeXeXeX2XeXW.v k x k v B.|.yXyXyXyXyXE.Z.K     & W.yXyX%XA.Y L =     % b.qXrXeXrXeXeXeX4X5XeX5X2X2X2X2X2X4XrXyXyXyXyX",
"yXyXyXyXyXyXyXyX5X4XyXyX,X-X.X.XXX2X5XyXyXyXyXP.g ;       L qXyXR.x t q :         o R U.9XyXyXwXeX2XrXyXrX5X2X2X2X2X4XyXyXyXyXyX",
"rXyXyXyXyXyXyXeX2X2XrXyXyXrX4X4X2X2X4XrXrXrX#Xv  .e .     & M.yX( s +                 o 9 C.$XrX2X2XrXyXyXyX4X2X2X2X4XeXrXyXyXyX",
"2XeXyXyXyXyXyXeX2X2X2XrXyXyXrX4X2X2X2X4X4XeXa.[ O. .d s s s a n.( d q + O             + + : U &X2X2X2XeXyXyXrX5X2X2X2X4X4XeXyXyX",
"2X4X5XeXyXyXeX2X2X2X2XeXyXyXyXrX4X2X2X2X2X_.g o.e 0 o.@.@.#. .H D.h o.o.d 0 q 0 0 q i | o.d ] 4X2X2X2XeXyXyXyXrX5X2X2X2X2X4X5XyX",
"2X2X2X4XeXeX2X2X2X2X2X5XrXyXyXyXeXeXeX5X<XP | | p O : | @.@. .H -Xz o.@.| e : ; - e { O.o.x }.2X2X2X2X5XrXyXyXyXeX5XeX5X4X2X4XeX",
"2X2X2X2X2X2X2X2X2X2X2X2X5XrXyXyXyXrXrXrX Xk o.q e p p | @.o.c U.7Xz O.O.| { r e e i d o.c D.2X2X2X2X2X2X4XrXyXyXyXyXrXrX4X2X2X2X",
"2X2X4X2X2X2X2X2X2X2X2X4X2X4XqX9X9X,X:X>X_ f @. .0 q o.@. .b ).eX9Xz o.o.q + + + + 0  .s v.2X2X2X2X2X2X2X2X4XrXyXyXeX2X4X2X2X2X2X",
"rXrXrXeX2X2X2X2X2X2X2X2X2X].U z z v z z y > | @.o.o.@.| U [.2X4X,Xz o.@.o.{ { { { { { I .X4X4X2X2X2X2X2X2X2X4X4X4X4X2X2X2X2X2X2X",
"eXrXyXrXeXeX2X2X2X4X2X2XL.b o.O.O.O.+.O.+.p : { @.@.{ W |.2X2X2XB.f @.O. . .|  .O.O.c ~.eXeX4X2X2X2X2X2X2X2X2X5XeXeX5X4X2X2X2X2X",
"2XeXyXyXyXyXeX5X4X2X2X|.k o.@.O.@.O.@.@.@.@.d { @.} ] =X2X2X2X2X/ { @.s + + + + p p L V.M.I.,X5X4X2X2X2X4X4X5XrXyXyXyX5X4X2X2X2X",
"2XeXyXrXyXyXyXyXeX4X2X_ [ @.@.@.@.@.O.@.@.@.@.@.O.u ].2X2X2X2X(.g o.O.| [ { [ [ {  .{ { [ f v Y.eX4X2X4X5XyXyXyXyXyXrXrX4X2X2X2X",
"2X4X4X5XyXyXyXeX4X1X1XP | @.@.@.O.@.@.@.@.@.@.@.O.u ].2X2X2X2XH.p @.@.@.@.@.@.@.@.@.@.@.@.@.O.h M.:X2X5XyXyXyXyXyXrX4X4X4X2X2X2X",
"2X2X2X4X5XeX5X4X2X1X1XP | @.O.@.@.@.@.O.@.@.@.@. .I *XeXeXeX4XJ.a o.O.o.O.O.@.@.@.@.@.O.@.@.@.O.a J.2XeXyXyXyXyXrX4X4X2X2X2X2X2X",
"5X2X2X2X2X2X2X2X2X4X4Xa.} O.@.@.O.@.@.O. .[ [ [ g R.yXyXyXyX5X=X] z H v I h | O.O.@.@.O.@.@.@.O.g L.4XrXyXyXyXeX4X2X2X2X2X2X2X2X",
"yX5X2X2X2X2X2X2X2X2XrX9X4.e e e e e e q I c.c.c.Y.wXyXyXyXyXyX5X2X<X:X<X,X!.W e e e e e e e e u F.2XrXyXyXyXyX5X2X2X2X2X2X2X2X2X"
};
