/* XPM */
static char *result[] = {
/* columns rows colors chars-per-pixel */
"64 64 222 2 ",
"   c #010101",
".  c #090000",
"X  c #080908",
"o  c #0C0D0D",
"O  c #140302",
"+  c #1B0101",
"@  c #140E0E",
"#  c #1A1903",
"$  c #00031D",
"%  c #0E1112",
"&  c #131414",
"*  c #171A19",
"=  c #1A1B1B",
"-  c #240101",
";  c #290404",
":  c #320000",
">  c #3A0202",
",  c #2A1313",
"<  c #292704",
"1  c #393500",
"2  c #111624",
"3  c #1D2223",
"4  c #222425",
"5  c #212728",
"6  c #252928",
"7  c #2A2A2A",
"8  c #2D3435",
"9  c #383A39",
"0  c #440000",
"q  c #4C0000",
"w  c #470C0C",
"e  c #530000",
"r  c #5D0000",
"t  c #540808",
"y  c #451616",
"u  c #571314",
"i  c #650202",
"p  c #6B0000",
"a  c #690A0A",
"s  c #730000",
"d  c #7C0101",
"f  c #780B0B",
"g  c #671818",
"h  c #781616",
"j  c #5D2A2A",
"k  c #533636",
"l  c #5A3435",
"z  c #64292A",
"x  c #752626",
"c  c #663637",
"v  c #713233",
"b  c #474201",
"n  c #534E03",
"m  c #514E14",
"M  c #726A05",
"N  c #525332",
"B  c #6E712C",
"V  c #000851",
"C  c #2F374E",
"Z  c #000663",
"A  c #5E3E40",
"S  c #3A4652",
"D  c #434445",
"F  c #4A4949",
"G  c #574A4C",
"H  c #515747",
"J  c #4B5558",
"K  c #575657",
"L  c #5B5B5B",
"P  c #674546",
"I  c #6E4D4E",
"U  c #665556",
"Y  c #72585A",
"T  c #58625E",
"R  c #696455",
"E  c #4F5F62",
"W  c #755F62",
"Q  c #57696C",
"!  c #5D7174",
"~  c #646463",
"^  c #656568",
"/  c #646C6D",
"(  c #6A6A6A",
")  c #716768",
"_  c #6A7678",
"`  c #727373",
"'  c #757B7C",
"]  c #7B7B7B",
"[  c #850101",
"{  c #8C0101",
"}  c #8C0B0B",
"|  c #940000",
" . c #9B0000",
".. c #891919",
"X. c #9A1A1A",
"o. c #A40000",
"O. c #AC0000",
"+. c #A70808",
"@. c #B10000",
"#. c #BC0000",
"$. c #B20A0A",
"%. c #A81212",
"&. c #862626",
"*. c #903333",
"=. c #A22A29",
"-. c #C50000",
";. c #CC0000",
":. c #D90000",
">. c #E40000",
",. c #EB0000",
"<. c #F40000",
"1. c #FE0000",
"2. c #847B00",
"3. c #865253",
"4. c #8A706F",
"5. c #857979",
"6. c #708172",
"7. c #8D8400",
"8. c #948B0A",
"9. c #958E0D",
"0. c #A69C04",
"q. c #A29A11",
"w. c #B3A700",
"e. c #8C8A25",
"r. c #C8BB00",
"t. c #D7C800",
"y. c #E5D600",
"u. c #FDEC00",
"i. c #FFF000",
"p. c #8E8C56",
"a. c #878966",
"s. c #1C2886",
"d. c #0214AB",
"f. c #0416B3",
"g. c #44599D",
"h. c #6F7F81",
"j. c #0013CF",
"k. c #0017EE",
"l. c #0017FF",
"z. c #001AFD",
"x. c #847F83",
"c. c #778688",
"v. c #7A8E92",
"b. c #838384",
"n. c #8C8685",
"m. c #848B8A",
"M. c #8D8D8D",
"N. c #91918D",
"B. c #879799",
"V. c #929393",
"C. c #9D9595",
"Z. c #939B9B",
"A. c #9B9B9B",
"S. c #A49C9B",
"D. c #989FA0",
"F. c #8BA4A9",
"G. c #8DAAAF",
"H. c #97A8AB",
"J. c #8CAAB0",
"K. c #93AEB3",
"L. c #99B3B6",
"P. c #9CB9BD",
"I. c #A3A3A3",
"U. c #AAA8A6",
"Y. c #A5ACAB",
"T. c #AAAAAA",
"R. c #A7B1AE",
"E. c #A9B1AE",
"W. c #AEB0AF",
"Q. c #ACB4B2",
"!. c #A9B7B8",
"~. c #B3B3B3",
"^. c #B4BAB8",
"/. c #BDBDBD",
"(. c #B9C1BE",
"). c #9DBDC2",
"_. c #A1BEC3",
"`. c #A7C4C8",
"'. c #A6C8CE",
"]. c #BAC7C4",
"[. c #ACCDD2",
"{. c #AED1D7",
"}. c #AFD3D9",
"|. c #B7D7DB",
" X c #B6DCE2",
".X c #BADEE3",
"XX c #BBE0E6",
"oX c #BDE4EA",
"OX c #C1C2C2",
"+X c #C4CCCA",
"@X c #CBCBCB",
"#X c #C5D0CD",
"$X c #CCDAD8",
"%X c #D2D6D5",
"&X c #DBDBDB",
"*X c #D6E0DC",
"=X c #C5DEE0",
"-X c #CCE4E6",
";X c #C3E6EB",
":X c #C9E7EB",
">X c #DAEBE9",
",X c #C5ECF3",
"<X c #C8EEF5",
"1X c #D6EFF0",
"2X c #CAF1F7",
"3X c #CBF5FC",
"4X c #CEF8FF",
"5X c #D5F4F8",
"6X c #D3F9FE",
"7X c #DBFAFE",
"8X c #E3E3E3",
"9X c #E4EBE9",
"0X c #ECECEC",
"qX c #E5F1ED",
"wX c #EDEEF0",
"eX c #E7F6F3",
"rX c #EEFAF6",
"tX c #E3FCFD",
"yX c #ECFEFC",
"uX c #F4F4F4",
"iX c #F2FFFB",
"pX c #FEFEFE",
/* pixels */
"4X4X4X4X4X6XtXiXiXiXiXiXiXyX4X4X4X4X4X4X6X4X4X4X3XK.` ` ` ` ( ` ( h.[.4X4X4X4X4X4X4X4X4X4X4XtXiXiXiXiXiXyXyX6X4X4X4X4X4X4X4X4X4X",
"4X4X4X4X4X4X6XyXiXiXiXtX7X6X4X4X4X4X4X4X4X4X6X<XF.E.uXpXpXpXpXpXpX8XB.'.6X4X4X4X4X4X4X4X4X4X6XtXiXiXiXyX7X7X4X4X4X4X4X4X4X4X4X4X",
"4X4X4X4X4X4X4X6XtXtXtX6X4X4X4X4X4X4X4X4X4X4X:XF.^.pXpXpXpXpXpXpXpXpXuXA.L.4X4X4X4X4X4X3X4X4X4X6XtXtXtX6X4X4X4X4X4X6X4X4X4X4X6X7X",
"4X4X6X6X4X4X4X4X6X4X4X4X4X4X4X4X4X4X4X4X4XXXB.@XpXpXpXpXpXpXpXpXpXpXpX0XY.G.2X4X4X4X4X6X4X4X4X4X4X4X4X6X4X4X4X4X4X4X4X4X4X6X7XiX",
"4X4XtXtX6X4X4X4X4X4X4X4X4X4X4X4X4X4X4X4X6XL.V.8Xb.n.@XwXuX8XpXpX8X~.] I.wX/ ;X4X4X4X7XyX6X4X4X4X4X4X4X4X4X4X4X4X4X4X4X4X4X7XiXiX",
"tXyXyXiXtX6X4X4X4X4X4X4X4X4X4X4X4X3X4X4XtXQ.V.pX0X@X4 K V.@X0XM.7 K 0X0XuX/ ;XtXyXyXyXiXtX6X4X4X4X4X4X4X4X4X4X3X4X4X4X4XtXyXiXiX",
"iXiXiXiXyX6X4X4X4X4X4X7X7X7X4X7XtXtX7XtXiXE.V.pXpX&X& o /.pXpX`   K pXpXuX/ >XyXiXiXiXiXiX7X4X4X4X4X4X7X7X7X6X7X7XtX7XtXiXiXyXtX",
"iXiXiXiXiX6X4X4X4X4X6XyXiXyX6XyXiXiXiXiXiXE.V.pX0X&X& * &XpXpXV.  K pX8XuX/ 9XiXiXiXiXiXiX6X4X4X4X4X6XtXiXiX6XtXiXiXiXiXiXiXyX6X",
"iXiXiXyXyX6X4X4X4X6XyXiXiXyX4X4XtXiXiXiXiXE.M.V.n.%X& o %X/.&XN.  K 8X~ ~.` 9XiXiXiXiXiXiX6X4X4X4X6XyXiXiXyX6X4XtXiXiXiXiXiXiXyX",
"iXiXtX6X6X4X4X4X6XyXiXiXtX6X4X4XtXiXiXiXiX+Xm.@XM.T.~ ~ U.= F U.F M.N.A.b.].yXiXiXiXyX6X6X4X4X4X6XtXiXiXyX6X4X4XtXiXiXiXiXiXyX7X",
"iXtX6X4X4X4X4X6XyXiXiXiXtX4X4X4X6XyXiXiXtX7X`.V.b.A.pXpXOX( ` wXpX0X( M.m.iXiXiXiXyX6X4X4X4X4X6XtXiXiXiXtX4X4X4X6XtXiXiXtX7X7X4X",
"yX6X4X6X7X6X7XtXiXiXiXyX7X4X4X4X4X7XyXtX6X3X,X/ ] 3 U.pXpXpXuXpX0X` 3 V.c.yXyXyXyX6X4X4X6X7X7XtXiXiXiXyXtX4X4X4X3X6XyXtX6X4X3X4X",
"6X4X4X6XyXyXiXiXiXiXyX7X4X4X4X4X4X4X4X4X4X4XoX_ ] = S.I.~.~.~.~.A.] * V.c.4X4X4X4X4X3X4XyXiXiXiXiXiXyX7X4X4X4X4X4X4X4X6X4X4X4X4X",
"4X4X4X6X6X6XyXiXiXyX7X4X4X4X4X4X4X3X X[.{.}. X/ ` 4 8X` N.L b.( ~.T.* V.c.4X}.b.Y Y Y B.<X6XtXiXiXiX7X6X4X4X4X4X4X4X4X4X4X4X4X4X",
"4X4X4X4X4X3X7X7X7X7X4X4X4X4X4X4X4X!.*...h , G L ] o I.` @Xb./.V.C./ * V.J 5...-.>.>.,.} ^ c.`.6X7X7X6X4X4X4X4X4X4X4X4X4X7XyXtXtX",
"4X4X4X4X4X7X7X7X6X4X4X4X4X4X4X4X`.x <.1.1.o.. k h.  @ & 7 = 6 3 = . & V.w { ;.1.1.1.1.>.-.-.X.3.|.4X4X4X4X4X4X4X4X6X7X7XyXiXiXiX",
"4X4X6X4X6XyXiXiXyX6X6X4X4X4X4X6X`...1.1.1.@.  8 ~.D @ & & & % & & o ] A.X . d :.i h &.&.&.h O.-.*.`.6X6X|.}.L.W 5.$XiXiXiXiXiXiX",
"4X4X4X6XyXiXiXiXiXiXyX7X4X4X4XyXyX5.#.1.1.:.:   ] I.' D ` ( U ^ K I.&X9 . p >.r 6 Q.9X9X8X^.9 > #.=.n.5.&...h [ d 3.+XiXiXiXiXiX",
"4X4X4X6X7X7XyXiXiXiXiXyX7X4X4X5X].L > ;.1.1.| . * 5.8Xh.~ ~ ~ ~ U.8X/ O { ,.[ k @XpXpXpXpXpXOX= i ,.;.;.>.@.3.`.D.f z uX7X6X7X7X",
"4X4X4X4X4X6X7XyXiXiXiXiXtX4XP.c.H.n.= - @.1.1. .O & L L K L K L ~ F :  .1.#., ~.pXpXpXpXpXpXpXx., $.>.X.3.F.oX4Xn.h 4.tX6X4X4X4X",
"4X4X4X4X4X4X4X7XyXiXiXiX7XL.I.8XpXV.= 9 +  .1.1.O.; . . . . . . O { >.1.1.q Q uXpXpXpXpXpXpXpX^.' N.4.(.1X6X4X4X[.H.2X4X4X4X6X6X",
"4X4X4X4X4X4X4X4X7XiXiXyXY.A.pXpXuXU 7 %X( O [ <.1.:.-.-.-.-.-.-.;.1.1.,.=.5.] pXpXpXpXpXpXpXpX~.v.rXiXyXiXyX6X4X4X4X4X4X4X4X7XyX",
"yXyX7X4X4X4X4X4X6X6X6X=Xc.&XpXpX].@ b.pXuXb.& s <.<.1.1.1.1.1.1.1.:.%.*.@X@X9 @XpXpXpXpXpXpXpXY.B.6X7X6XtXiXyX6X4X4X4X4X4X4X6X6X",
"iXiXyX7X4X4X4X4X4X4X4X'.] pXpXpX_.& OXpXpXuXA.y >.[ >.<.1.1.<.:.} > V.eXpX0XF ^ uXpXpXpXpXpX>X_ oX4X4X4X6XtXtX6X4X4X4X4X4X4X4X4X",
"yXyXyXtX4X4X4X6X6X4X4X'.6.pXpXpXOX@ C.pXpXpXuXU | #.d X.$.#.a 4.OXOX8XpXpXpX~.* L 8XpXpXuXOXZ.`.7X4X4X4X4X4X4X4X4X4X4X6X4X4X4X4X",
"4X4X4X4X4X4X4XtXyX4X4X;Xc.%XpXpX@X, 6 &XpXpXpX+Xj +.G @XU.C.Y.uXW.( b.0XpXpXpXV.o S a.a.p.M B.7XyX6X4X4X4X4X4X4X4X4X6XyX7X4X4X4X",
"4X4X4X4X4X4XtXiXyXyX4X4X).m.wXpXpX'   ' pXpXpXpX8XS.8XpXpXpXpXpX@X^ T.pXpXpXpX` 9 1 0.M M B ].yXiXyX6X4X4X4X4X4X4X7XyXiXiX7X4X4X",
"4X4X4X4X4X3X7XtXiXiXtXtX=XR a.OXuX&XF ' /.pXpXpXpXpXpXpXpXpXpXpXT.T./.8XpXuXU.K.F.< 1   X h.6XyXiXiXtXtX7X4X4X4X4X6XtXyXiXyX7X4X",
"4X6X7X7X6X4X4X7XyXiXiX%XD n w.m L m.H.+Xm.I.uXpXpXpXpXpXpXpXpXpXI.U.pXpX&XH.L.4XG..     4  X4X6XyXiXiXiXyX7X4X4X4X4X4XyXiXiXyX7X",
"6XyXiXiXyX7X4X4X7XyX(.8     # n 6.|.5XiXqX^.V.~.uXuXuXuXuXpXuXuX&X/.A.Z.c.'.4X4XG.X     6 -X4X4X4XyXyXiXiXyX4X4X4X4X7XiXiXiXiXyX",
"yXiXiXiXiXyX7X4X4X`.4       % c.2X7XyXiXiXtX|.G.h.' h.K S k S D ( V.^.].7X4X4X4XH.X     4 >X7X4X4X6X6X6X6X4X4X4X4X7XyXiXiXtX4X6X",
"iXiXiXyX7X7X6X4X4XE         3 Q / / ( / ! Q ! Q Q L.2XT M 7.7.7.p.$X7X7X6X4X6XtXR.      4 -X6X4X4X4X4X4X4X4X4X4X6XyXiXiXtX6X4X4X",
"tXtXtX7X4X4X4X4X4XK.8                           X 6 v.F t.u.u.u.q.H.4X4X4X6X7XiXY.      5 oX4X4X4X4X4X4X4X4X4X6XyXiXiXiX7X4X4X4X",
"4X4X6X4X4X4X4X4X4X4X[.J 8 o         X 8 8 8 8 % 1 M b H m b b b N.<X4X4X4X6XyXrXG.      5 oX4X4X4X4X4X4X4X4X6XyXiXiXiXyX6X4X4X4X",
"4X4X4X4X4X4X6X4X4X4X4X<X,XG.m.m.m.m.Z.oX<X<XXXB t.y.y.M         K.4X4X4X4X4X6X6XG.X     5 XX4X6X4X4X4X4X4X6XyXiXiXiXyX6X4X4X4X6X",
"4X4X4X4X4X4X7XyXtX4X4X4X4X4X7X7X6X7X6X3X3X7XyX].N # n 1         R.7X4X4X4X4X4X4XJ.      5 oX6XtXtX6X4X4X4X6X6X7X7X6X7X4X4X7XyXtX",
"4X4X4X6X7XtXyXiX7X4X4X4X6XtX7X4XK.m.K.U Y Q.].W x p - * X     X E.yXtX7X6X4X4X4XG.      6 -XyXrXtX4X4X4X6X7X7X6X4X4X4X4X6XyXiXiX",
"4X4X6X7XiXiXyX7X4X4X6X6XtXiXyX:Xl d w { { f f | +.@.p ! 3       E.iXiXiXtX6X6X4XG.X     6 >XrXtX4X4X6X6X7XiXiX7X4X4X4X4XtXiXiXiX",
"4X4X7XiXiXyX7X4X4X6XyXyXiXiXiXqXW { { r > p  .@.@.o.t * X       E.iXiXiXiXyXyX4XG.      6 >X7X6X4X6XtXiXiXiXiXiX7X4X4X4X6XtXiXiX",
"4XtXiXyX7X6X4X4X6XyXiXiXiXiXiXiX>X5.z | { d  .@.O.q b w.7.1 1 # m.#X+X$XtX7X6X4XJ.      4 -X6X4X6XtXiXiXiXiXiXiXeX-X4X4X4X6X6X6X",
"4X7XtX7X4X4X3X6XtXiXiXiXiXyX7XtX7X5X|.W g  . .o. .; < M q.t.y.r.8.9.9.e.P.4X4X4XG.X     6 oX3X6XtXiXiXiXiXiX7X-X5.P [.4X4X4X4X4X",
"4X4X4X4X4X4X6XtXiXiXiXiXiXyX4X4X4X4X4X,X_.) U G + . V j.j.C F q.0.r.i.w.6.4X4X4XG.      = L.6X7XrXrXiXqXE.H.b.z } p v.4X4X4X4X4X",
"4X4X4X4X4X4XtXiXiXiXiXiXiXyX4X4X4X4X4X4X4X3X3X).o   $ d.z.z.k.f.f.s.N B {.4X4X4XG.  . M 0.B B.~ I I I P f d [ O.@.a K.4X4X4X4X4X",
"4X4X4X4X4X4X6XtXiXiXiX7X6X6X4X4X4X4X4X4X4X4X3X`.o     2 j.z.z.z.l.j.Z C 2X4X4X4X[.9 2.y.7.# + i  .o.o.o.@.@.@.o.x H.3X4X4X4X4X4X",
"4X4X4X4X4X4X4X6X7X7XtX6X4X4X4X4X4X4X4X4X4X4X6X].o     _ g.d.d.d.V $   9 <X4X4X4X).9.u.8.O e | O.@.@.@.@.O.o.[ v P.4X4X4X4X4X6XtX",
"4X4X6X6X4X4X4X4X4X4X4X4X4X4X4X4X4X4X4X4X4X6XtX].o   C |.oXJ.J.F.S     % F.4X4X4X.X6.e.M r O.@.@.@.O.| } z c B.{.6X4X4X4X4X6XtXiX",
"6X6XtXyX6X4X4X4X4X4X4X4X4X4X4X4X4X4X4X4X6XtXrX'     J 4X4X6X6X6X}.*     ! 3X4X6X6X2X|.H d o.@.@.O.o.0 , c..X4X4X4X4X4X4X6XtXiXiX",
"yXyXyXiXyX6X4X4X4X4X4X4X4X4X4X4X4X4X4X6XyXyXqX8     E 7XyXyXyXiX>XD     = '.4XyXyXyXrX8X5.v d o.O.O. .[ z '.4X4X4X4X4X4XtXyXiXiX",
"iXiXiXiXyX6X4X4X4X4X4X7XyX7X6XtXtXtXtXyXiXeXc.%     = K Y C.*XiXiXQ.&     J A.Q.iXiXiXiXiX|.B.c j z j c Q.tX6XtXtXtXtXtXiXiXiXiX",
"iXiXiXiXyX6X4X4X4X4X7XyXiXyX6XtXiXiXiXqXY.T X         : q t z E.yXeXK       ; g S.iXiXiXiX6X4XoXoXoX:X>XiXiX6X7XyXiXiXiXiXiXiXiX",
"iXiXiXyXyX6X4X4X6X7XyXiXyXtX4X4XtX%XZ.9 o                 + s ( rXM.&     . e  .c $XyXyXyX6X4X4X4X6XyXiXiXtX6X4XtXiXiXiXiXiXiXyX",
"iXiXtX6X4X4X4X4X6XyXiXiXtX6X4X4X-XP : + +             O + q d ( n.a s s s d  .O.[ a.tX6X6X6X4X6X6XyXiXiXtX6X4X4XtXiXiXiXiXiXtX6X",
"iXtX6X4X4X4X4X7XyXiXiXiXtX4X4X4X5X5.s o.| i q q 0 q q d o.o.h F.G  .@.#.@.o.0 e +.g '.4X4X4X4X6XyXiXiXiXtX4X4X4X6X7XiXiXtX6X6X4X",
"7X6X4X6XtX7X7XyXiXiXiXyX7X4X4X4X4X|.c o.O.[ q - - : e | @.o.k -XG  .@.@.| : + p { | U 2X7XtX7XtXiXiXiXyX7X4X4X4X4X6XtXtX6X3X4X6X",
"4X4X4X6XyXyXiXiXiXiXyX6X4X4X4X4X4X4XF.x o.d r e e r { | O.o.l qXY.x o.@.| p p e e o.k  XyXyXyXyXiXiXyX7X4X4X4X4X4X4X4X4X4X4X4X4X",
"4X4X4X4X4X4XtXiXiXyX6X4X4X4X4X4X4X4X4Xv.d  .0 + + + + q O.o.l 9XtX`.v  .@.o.q 0  .@.d _ <X,X1XeXqXeX7X4X4X4X4X4X4X4X4X4X4X4X6X4X",
"4X4X4X4X4X4X6X6X6X7X4X4X4X4X4X4X4X4X4XoXP | { { { [ [ o.@.o.l 1X6X4X{.I | @.o.o.@.{ > y l l l c l I [.4X4X4X4X4X4X4X4X4XtXyXyXyX",
"4X4X4X4X4X7XtXtX7X4X4X4X4X4X4X4X4X7X7XtX^.x o.O. . . . .O.O.h B.3X4X4XXXW { @.@.{ : p O.+.O.O.O.O. .v !.4X4X4X4X4X6X7XtXyXiXyXtX",
"4X4X4X6X7XiXiXiXyX7X7X6X4X4X6X6X7X1XU.N.N.L p p + + + - s @.{ ^ 4X4X4X4X,X] [ @.| d O.@.@.@.@.@.O.@.o.l  X4X4X6X7XtXiXiXiXiXtX6X",
"4X4X4X7XyXyXiXiXiXyXyX7X4X4X6XtXT.c f [ [ {  .| [ [ [ [ | @.O.g ).4X4X4X3X{.u @.@.@.@.@.@.@.O.@.O.@.@.[ _ 4X4XtXyXiXiXiXiXiXtX4X",
"4X4X4X6X6X6XyXiXiXiXiXiX7X4X<XM.h O.@.@.@.@.@.@.@.@.@.@.@.O.@.i G.4X4X6X3X[.u @.O.@.@.@.O.@.O.@.@.@.@.| U 3X4X6XyXiXiXiX7X6X6X4X",
"4X4X4X4X4X4X6XyXiXiXiXiXtX4XJ.a O.@.@.@.@.@.@.@.@.@.O.O.O.O.O.a K.4XtXtXtX-XP | @.@.@.@.@.@.@.@.@.@.@.| L 4X4X4X6X7X7X7X6X4X4X4X",
"4X4X4X4X4X4X3X7XyXiXiXiXtX7X).g O.@.O.@.O.@.O.@.@.| h P G A l ] ;X7XiXiXiXiXQ.g [ [ [ | @.@.O.@.@.O.@.[ 5.7X4X4X4X4X4X4X4X4X4X7X",
"4X4X4X4X4X4X4X4X6XiXiXiXiXtX4XH.u e e e e e e e e W Q.1X<X<X2X4X7XiXiXiXiXiXrXT.c.c.c.P e e e e e e e 4.qXyX6X4X4X4X4X4X4X4X6XiX"
};
