/* XPM */
static char *result[] = {
/* columns rows colors chars-per-pixel */
"64 64 125 2 ",
"   c #073AE6",
".  c #0A3BE3",
"X  c #023CEC",
"o  c #0D3EEB",
"O  c #033FF1",
"+  c #2148D6",
"@  c #2149D8",
"#  c #345ADD",
"$  c #3C5DDE",
"%  c #3E60DC",
"&  c #0E44E6",
"*  c #0440EF",
"=  c #0E45ED",
"-  c #0E49EE",
";  c #1044E6",
":  c #1346ED",
">  c #1248EF",
",  c #1F51ED",
"<  c #0343F5",
"1  c #0B44F2",
"2  c #0E49F2",
"3  c #0145FA",
"4  c #024AFF",
"5  c #1147F1",
"6  c #134AF2",
"7  c #194FF3",
"8  c #234FE1",
"9  c #2451E7",
"0  c #2F5CE7",
"q  c #2A57EE",
"w  c #2F5DEA",
"e  c #315AE5",
"r  c #325CE8",
"t  c #2C5DF4",
"y  c #325AF0",
"u  c #3A62E6",
"i  c #3F68EA",
"p  c #3362F1",
"a  c #3862F1",
"s  c #3D69F1",
"d  c #4362DD",
"f  c #526FD7",
"g  c #5171DD",
"h  c #5974D8",
"j  c #5F7FDE",
"k  c #426AE6",
"l  c #4E6EE7",
"z  c #426BEB",
"x  c #4A6EEC",
"c  c #4F76EC",
"v  c #5C7AE1",
"b  c #5276EC",
"n  c #567AEA",
"m  c #5A7DEC",
"M  c #446EF2",
"N  c #6D89DE",
"B  c #6380E3",
"V  c #6B86E5",
"C  c #6D88E4",
"Z  c #6585ED",
"A  c #6987EB",
"S  c #6A88EA",
"D  c #728AE1",
"F  c #7892E3",
"G  c #7C95ED",
"H  c #7B9DF3",
"J  c #8296E8",
"K  c #889FED",
"L  c #829FF2",
"P  c #87A0ED",
"I  c #89A4ED",
"U  c #8FAAEC",
"Y  c #93A6E2",
"T  c #92AAEE",
"R  c #9DB5EA",
"E  c #85A3F1",
"W  c #8DA7F4",
"Q  c #8EA9F1",
"!  c #89A4F9",
"~  c #91ABF1",
"^  c #9BB3F3",
"/  c #9DB8F7",
"(  c #9FB7F9",
")  c #A1B6EA",
"_  c #A8BCE9",
"`  c #A2B9F7",
"'  c #A0B7F9",
"]  c #A3B9F8",
"[  c #A9BFFB",
"{  c #B3C3EE",
"}  c #B0CAEF",
"|  c #ABC2F0",
" . c #AECAF7",
".. c #B2CCF6",
"X. c #BBCEF4",
"o. c #B4CBFA",
"O. c #B9C9F8",
"+. c #BBD3FB",
"@. c #BFD8FC",
"#. c #C3DDF7",
"$. c #CADBF7",
"%. c #C2D4FC",
"&. c #CAD5FB",
"*. c #C2DBFC",
"=. c #CBDCFB",
"-. c #C3E2FC",
";. c #C9E4FC",
":. c #CCEBFE",
">. c #D3E1F6",
",. c #D6E5FC",
"<. c #D9E7F9",
"1. c #D2EDFC",
"2. c #DCECFB",
"3. c #CEF4FF",
"4. c #CEF8FF",
"5. c #D2F5FF",
"6. c #DBF3FC",
"7. c #D3F9FF",
"8. c #DBFAFE",
"9. c #E2EFFC",
"0. c #E4F4FB",
"q. c #ECF5FC",
"w. c #E3FCFD",
"e. c #EBFDFC",
"r. c #F2FFFB",
/* pixels */
"4.4.4.4.4.4.e.r.r.r.r.r.r.e.5.4.4.4.4.4.4.4.4.4.4.4.4.8.e.7.4.4.4.4.4.4.4.4.4.4.4.4.4.4.4.4.w.r.r.r.r.r.r.e.7.4.4.4.4.4.4.4.4.4.",
"4.4.4.4.4.4.7.e.r.r.r.1.#.+.+.+.+.+.-.4.4.4.4.4.4.4.4.7.7.5.4.4.4.4.7.4.4.4.4.4.4.4.4.4.4.4.7.<.$.$.$.+.@.@.;.3.4.4.4.4.4.4.4.4.",
"4.4.4.4.4.4.4.7.w.w.6.F % w 0 w 0 e V :.4.4.7.8.8.7.4.4.4.4.4.4.4.4.4.4.4.4.4.4.4.4.4.4.4.4.:.D # 0 w w w 0 N :.4.4.4.4.4.4.7.8.",
"4.4.7.7.4.4.4.4.4.4.;.c * < 3 3 3 O i *.4.7.w.r.e.7.4.4.4.4.4.4.4.4.4.4.4.4.4.4.4.4.5.5.4.4.;.l X < 3 3 3 X k -.4.4.4.4.4.7.8.r.",
"4.4.w.w.7.4.4.4.5.7.-.b < 4 4 4 4 O s @.7.w.e.e.7.7.4.4.7.4.7.4.4.4.4.4.4.4.4.7.7.7.8.e.7.7.*.x < 4 4 4 4 < k *.5.7.4.4.4.8.r.r.",
"w.e.e.r.w.7.4.;.| ( W a 3 4 4 4 4 3 t L ] ` ` ` /  .:.8.w.e.w.e.e.w.4.4.4.4.4.0.X.` ] ] ] ' ! p 3 4 4 4 3 3 y ! ^ | ;.3.8.r.r.r.",
"r.r.r.r.r.7.7.R @ 5 2 < 3 4 4 4 4 3 4 6 5 : > > : $ +.7.w.r.r.r.r.r.8.7.4.7.w.>.d : > > 5 > 2 < 3 4 4 4 4 3 3 2 > + R 8.r.r.r.8.",
"r.r.r.r.e.7.5.U ; 3 3 3 4 4 4 4 4 4 3 3 3 3 3 4 < q o.4.7.e.e.r.r.r.r.8.7.w.r.$.r < 4 3 4 3 3 4 3 4 4 4 4 4 3 3 3 & T r.r.r.r.7.",
"r.r.r.r.q.1.:.L = 4 4 4 4 4 4 4 4 4 4 4 4 4 4 4 3 q [ 1.3.7.7.w.r.r.r.r.r.q.0.O.y 3 3 4 4 4 4 4 4 4 4 4 4 4 4 4 4 & E 9.0.q.r.r.",
"r.r.w.5.Y C A z < 4 4 4 4 4 4 4 4 4 4 4 4 4 4 4 3 7 b V D ) 4.w.r.r.r.e.{ D V m 7 3 3 4 4 4 4 4 4 4 4 4 4 4 4 4 4 < z S C Y 2.8.",
"r.w.7.*.% X < < 3 3 4 4 4 4 4 4 4 4 4 4 4 4 4 4 3 3 < <   v :.8.8.8.w.6.C . * * 3 3 4 4 4 4 4 4 4 4 4 4 4 4 4 4 4 3 < * X # *.7.",
"e.7.4.*.u < 3 4 4 4 4 4 4 4 4 4 4 4 4 4 4 4 4 4 4 4 4 3 < n :.8.7.4.4.:.A * 4 4 4 4 4 4 4 4 4 4 4 4 4 4 4 4 4 4 4 3 4 4 < e +.4.",
"4.4.4.*.u 3 4 4 4 4 4 4 4 4 4 4 4 4 4 4 4 4 4 4 4 4 4 4 < n 6.r.w.4.4.:.Z < 4 4 4 4 4 4 4 4 4 4 4 4 4 4 4 4 4 4 4 3 4 4 < e @.4.",
"4.4.4.*.u < 4 4 4 4 4 4 4 4 4 4 4 4 4 4 4 4 4 4 4 4 4 3 < n 2.r.w.4.4.:.A * 4 4 4 4 4 4 4 4 4 4 4 4 4 4 4 4 4 4 4 4 4 4 3 r @.4.",
"4.4.4.*.u 3 4 4 4 4 4 4 4 4 4 4 4 4 4 4 4 4 4 4 4 4 4 4 < n 6.w.7.4.4.:.Z < 4 4 4 4 4 4 4 4 4 4 4 4 4 4 4 4 4 4 4 4 4 4 3 r %.w.",
"4.4.4.*.u < 4 4 4 4 4 4 4 4 4 4 4 4 4 4 4 4 4 4 4 4 4 4 < n 1.7.5.5.7.:.Z < 4 4 4 4 4 4 4 4 4 4 4 4 4 4 4 4 4 4 4 4 4 4 3 r &.r.",
"4.4.7.*.u 3 4 4 4 4 4 4 4 4 4 4 4 4 4 4 4 4 4 4 4 4 4 4 7 M U R R ^ ^ ~ M 1 4 4 4 4 4 4 4 4 4 4 4 4 4 4 4 4 4 4 4 4 4 4 3 r &.r.",
"4.4.4.*.u 3 3 4 4 4 4 4 4 4 4 4 4 4 4 4 4 4 4 4 4 4 4 4 4 4 - 8 : : : ; 1 4 4 4 4 4 4 4 4 4 4 4 4 4 4 4 4 4 4 4 4 4 4 4 < r &.r.",
"4.4.5.*.u < 4 4 4 4 4 4 4 4 4 4 4 4 4 4 4 4 4 4 4 4 4 4 4 4 4 4 4 4 3 4 4 4 4 4 4 4 4 4 4 4 4 4 4 4 4 4 4 4 4 4 4 4 4 4 3 r &.8.",
"4.4.4.@.u 3 4 4 4 4 4 4 4 4 4 4 4 4 4 4 4 4 4 4 4 4 4 4 4 4 4 4 4 4 4 3 4 4 4 4 4 4 4 4 4 4 4 4 4 4 4 4 4 4 4 4 4 4 4 4 3 r %.5.",
"4.4.4.*.u 3 3 4 4 4 4 4 4 4 4 4 4 4 4 4 4 4 4 4 4 4 4 4 4 4 4 4 4 4 4 4 4 4 4 4 4 4 4 4 4 4 4 4 4 4 4 4 4 4 4 4 4 4 4 4 3 r %.7.",
"4.4.7.@.u 3 4 4 4 4 4 4 4 4 4 4 4 4 4 4 4 4 4 4 4 4 4 4 4 4 4 4 4 4 4 4 4 4 4 4 4 4 4 4 4 4 4 4 4 4 4 4 4 4 4 4 4 4 4 4 3 e %.e.",
"e.w.8.*.u < 3 4 4 4 4 4 4 4 4 4 4 4 4 4 4 4 4 4 4 4 4 4 4 4 4 4 4 4 4 4 4 4 4 4 4 4 4 4 4 4 4 4 4 4 4 4 4 4 4 4 4 4 4 4 3 r %.8.",
"r.r.e.*.u 3 4 4 4 4 4 4 4 4 4 4 4 4 4 4 4 4 4 4 4 4 4 4 4 4 4 4 4 4 4 4 4 4 4 4 4 4 4 4 4 4 4 4 4 4 4 4 4 4 4 4 4 4 4 3 3 r %.5.",
"e.e.e.*.u < 4 4 4 4 4 4 4 4 4 4 4 4 4 4 4 4 4 4 4 4 4 4 4 4 4 4 4 4 4 4 4 4 4 4 4 4 4 4 4 4 4 4 4 4 4 4 4 4 4 4 4 4 4 3 3 r %.4.",
"7.7.7.*.r 3 4 4 4 4 4 4 4 4 4 4 4 4 4 4 4 4 4 4 4 4 4 4 4 4 4 4 4 4 4 4 4 4 4 4 4 4 4 4 4 4 4 4 4 4 4 4 4 4 4 4 4 4 4 4 3 r +.5.",
"4.4.4.*.u < 4 4 4 4 4 4 4 4 4 4 4 4 4 4 4 4 4 4 4 4 4 4 4 4 4 4 4 4 4 4 4 4 4 4 4 4 4 4 4 4 4 4 4 4 4 4 4 4 4 4 4 4 4 4 3 r %.7.",
"4.4.4.@.u 3 4 4 4 4 4 4 4 4 4 4 4 4 4 4 4 4 4 4 4 4 4 4 4 4 4 4 4 4 4 4 4 4 4 4 4 4 4 4 4 4 4 4 4 4 4 4 4 4 4 4 4 4 4 4 3 r %.4.",
"4.7.8.*.u 3 3 4 4 4 4 4 4 4 4 4 4 4 4 4 4 4 4 4 4 4 4 4 4 4 4 4 4 4 4 4 4 4 4 4 4 4 4 4 4 4 4 4 4 4 4 4 4 4 4 4 4 4 4 4 3 r &.8.",
"7.e.r.,.u O 4 4 4 4 4 4 4 4 4 4 4 4 4 4 4 4 4 4 4 4 4 4 4 4 4 4 4 4 4 4 4 4 4 4 4 4 4 4 4 4 4 4 4 4 4 4 4 4 4 4 4 4 4 3 < r &.e.",
"e.r.r.=.u O 4 4 4 4 4 4 4 4 4 4 4 4 4 4 4 4 4 4 4 4 4 4 4 4 4 4 4 4 4 4 4 4 4 4 4 4 4 4 4 4 4 4 4 4 4 4 4 4 4 4 4 4 4 4 3 r %.7.",
"r.r.r.=.u 3 4 4 4 4 4 4 4 4 4 4 4 4 4 4 4 4 4 4 4 4 4 4 4 4 4 4 4 4 4 4 4 4 4 4 4 4 4 4 4 4 4 4 4 4 4 4 4 4 4 4 4 4 4 3 3 r %.5.",
"w.w.e.*.u < 4 4 4 4 4 4 4 4 4 4 4 4 4 4 4 4 4 4 4 4 4 4 4 4 4 4 4 4 4 4 4 4 4 4 4 4 4 4 4 4 4 4 4 4 4 4 4 4 4 4 4 4 4 4 < 0 @.5.",
"7.4.4.@.u < 4 4 4 4 4 4 4 4 4 4 4 4 4 4 4 4 4 4 4 4 4 4 4 4 4 4 4 4 4 4 4 4 4 4 4 4 4 4 4 4 4 4 4 4 4 4 4 4 4 4 4 4 4 4 < w +.4.",
"4.4.4.*.u 3 3 4 4 4 4 4 4 4 4 4 4 4 4 4 4 4 4 4 4 4 4 4 4 4 4 4 4 4 4 4 4 4 4 4 4 4 4 4 4 4 4 4 4 4 4 4 4 4 4 4 4 4 4 4 3 e %.7.",
"4.4.5.*.r 3 4 4 4 4 4 4 4 4 4 4 4 4 4 4 4 4 4 4 4 4 4 4 4 4 4 4 4 4 4 4 4 4 4 4 4 4 4 4 4 4 4 4 4 4 4 4 4 4 4 4 4 4 4 < < w &.w.",
"4.4.4.*.u < 4 4 4 4 4 4 4 4 4 4 4 4 4 4 4 4 4 4 4 4 4 4 4 4 4 4 4 4 4 4 4 4 4 4 4 4 4 4 4 4 4 4 4 4 4 4 4 4 4 4 4 4 4 3 3 0 &.r.",
"4.4.7.*.u < 3 3 3 3 3 4 4 4 4 4 4 4 4 4 4 4 4 4 4 4 4 4 4 4 4 4 4 4 4 4 4 4 4 4 4 4 4 4 4 4 4 4 4 4 4 4 4 4 4 4 3 3 3 3 O 0 $.r.",
"4.4.8.2.h 8 9 9 9 9 , 2 4 4 4 4 4 4 4 4 4 4 4 4 4 4 4 4 4 4 4 4 4 4 4 4 4 4 4 4 4 4 4 4 4 4 4 4 4 4 4 4 4 4 2 , 9 9 9 9 8 f <.r.",
"4.w.r.e.-... . . .X./ i < 4 4 4 4 4 4 4 4 4 4 4 4 4 4 4 4 4 4 4 4 4 4 4 4 4 4 4 4 4 4 4 4 4 4 4 4 4 4 4 4 4 p ^ .... . . .$.7.7.",
"4.8.w.8.4.4.4.7.w.r.<.b < 4 4 4 4 4 4 4 4 4 4 4 4 4 4 4 4 4 4 4 4 4 4 4 4 4 4 4 4 4 4 4 4 4 4 4 4 4 4 4 4 < z *.w.8.7.4.5.4.4.4.",
"4.4.4.4.4.4.7.w.r.r.<.c < 4 4 4 4 4 4 4 4 4 4 4 4 4 4 4 4 4 4 4 4 4 4 4 4 4 4 4 4 4 4 4 4 4 4 4 4 4 4 4 4 3 k -.4.4.4.4.4.4.4.4.",
"4.4.4.4.4.4.w.r.r.r.<.c 3 4 4 4 4 4 4 4 4 4 4 4 4 4 4 4 4 4 4 4 4 4 4 4 4 4 4 4 4 4 4 4 4 4 4 4 4 4 4 4 4 < k -.4.4.4.4.4.4.4.4.",
"4.4.4.4.4.5.7.w.r.r.<.c < 4 4 4 4 4 4 4 4 4 4 4 4 4 4 4 4 4 4 4 4 4 4 4 4 4 4 4 4 4 4 4 4 4 4 4 4 4 4 4 4 3 z -.4.4.4.4.4.4.4.4.",
"4.4.4.4.4.4.4.7.8.8.;.b 3 3 4 4 4 4 4 4 4 4 4 4 4 4 4 4 4 4 4 4 4 4 4 4 4 4 4 4 4 4 4 4 4 4 4 3 4 4 4 4 3 3 k -.4.4.4.4.4.4.7.w.",
"4.4.7.7.4.4.4.4.4.4.:.j & - - - > > < 4 4 4 4 4 4 4 4 4 4 4 4 4 4 4 4 4 4 4 4 4 4 4 4 4 4 4 4 2 2 - - = 2 & g -.4.4.4.4.4.7.w.r.",
"7.7.w.e.7.4.4.4.4.4.4.} I E I P P H c 3 4 4 4 4 4 4 4 4 4 4 4 4 4 4 4 4 4 4 4 4 4 4 4 4 4 4 2 s H P E E E I | 3.4.4.4.4.7.w.r.r.",
"e.e.r.e.e.7.4.4.4.4.4.5.5.4.3.3.3.1.H - 4 4 4 4 4 4 4 4 4 4 4 4 4 4 4 4 4 4 4 4 4 4 4 4 2 4 3 S :.3.3.4.3.4.5.4.4.4.4.4.w.e.r.r.",
"r.r.r.r.e.7.4.4.4.4.4.8.e.8.7.w.w.0.G 1 3 4 4 4 4 4 4 4 4 4 4 4 4 4 4 4 4 4 4 4 4 4 4 4 4 3 * S :.4.4.8.w.w.7.w.w.w.w.w.r.r.r.r.",
"r.r.r.r.r.7.4.4.4.4.8.e.r.e.7.w.e.q.G 1 3 4 4 4 4 4 4 4 4 4 4 4 4 4 4 4 4 4 4 4 4 4 4 4 4 4 O A 3.4.8.w.r.r.7.8.r.r.r.r.r.r.r.r.",
"r.r.r.e.w.7.4.4.4.7.r.r.r.w.4.4.q.q.G o 4 4 4 4 4 4 4 4 4 4 4 4 4 4 4 4 4 4 4 4 4 4 4 4 4 4 < V 1.7.e.r.r.w.4.4.w.r.r.r.r.r.e.e.",
"r.r.w.7.7.4.4.4.8.e.r.r.w.4.4.4.w.q.G 1 4 4 3 4 4 4 4 4 4 4 4 4 4 4 4 4 4 4 4 4 4 4 4 4 3 4 O S 5.e.r.r.w.7.4.4.w.r.r.r.r.r.e.7.",
"r.w.7.4.4.4.4.8.e.r.r.r.w.4.4.4.7.w.J . * < < < * < 3 4 4 4 4 4 4 4 4 4 4 4 4 3 < < O < < <   D 0.r.r.r.e.4.4.4.7.8.r.r.8.8.7.4.",
"8.7.4.7.8.8.8.e.r.r.r.e.7.4.4.4.4.8.| j n m n m m p 3 4 4 4 4 4 4 4 4 4 4 4 4 < p n m m m B v _ e.r.r.q.8.4.4.4.4.7.w.w.7.4.4.4.",
"4.4.4.7.e.e.e.r.r.r.e.7.4.4.4.4.4.4.4.:.:.:.:.:.;.L 1 3 4 4 4 4 4 4 4 4 4 4 3 1 G =.:.1.2.2.0.r.r.r.e.8.4.4.4.4.4.4.4.4.4.4.4.4.",
"4.4.4.7.7.7.w.r.r.e.7.4.4.4.7.4.4.4.4.4.7.4.4.4.5.Q 5 4 4 4 4 4 4 4 4 4 4 4 4 1 P 5.4.4.7.3.8.r.r.e.8.4.4.4.4.4.4.4.4.4.4.4.7.4.",
"4.4.4.4.4.4.7.7.7.8.4.4.4.4.4.4.4.4.4.4.w.e.e.w.7.T 2 3 4 4 4 4 4 4 4 4 4 4 4 = K 5.3.4.4.4.7.7.7.7.7.4.4.4.4.7.4.4.4.4.w.e.e.e.",
"4.4.4.4.7.8.w.w.8.4.4.4.4.4.4.4.4.7.w.w.r.r.e.8.7.~ 2 3 4 4 4 4 4 4 4 4 4 4 3 2 K 5.3.4.4.8.w.8.8.4.4.4.4.4.4.4.4.7.8.w.e.r.e.w.",
"4.4.4.4.8.e.r.r.e.7.8.7.4.4.4.7.8.w.r.r.r.r.w.4.5.W 2 3 4 4 4 4 4 4 4 4 4 3 4 = K 5.4.4.8.r.r.r.r.8.7.7.4.4.4.7.8.w.r.r.r.r.w.7.",
"4.4.4.8.e.r.r.r.r.r.r.8.4.4.7.e.r.r.r.r.e.r.w.4.5.T = 3 < 3 3 3 4 3 3 3 3 3 3 o P 5.4.7.e.r.r.r.r.r.r.w.4.4.4.w.e.r.r.r.r.r.w.4.",
"4.4.4.7.7.7.e.r.r.r.r.e.8.4.4.7.e.r.r.r.7.7.7.4.5.) d e 0 0 e 0 0 r r r 0 r e $ ) 7.4.7.7.7.e.r.r.r.r.e.w.4.4.7.w.r.r.r.8.7.7.4.",
"4.4.4.4.4.4.7.e.r.r.r.r.w.4.4.4.7.8.8.8.7.4.4.4.4.3.@.+.+.+.o.+.+.+.O.+.+.+.O.%.:.4.4.4.4.4.7.w.r.r.r.r.w.4.4.4.7.8.8.8.7.4.4.4.",
"4.4.4.4.4.4.4.7.e.r.r.r.e.7.4.4.4.4.4.4.4.4.7.7.8.8.8.7.4.5.4.4.5.w.r.r.r.r.r.8.7.4.4.4.4.4.4.7.w.r.r.r.e.8.4.4.7.4.4.4.4.4.7.8.",
"4.4.4.4.4.4.4.4.8.r.r.r.r.e.4.4.4.4.4.4.4.4.4.7.r.r.r.w.4.4.4.4.8.r.r.r.r.r.r.r.7.4.4.4.7.4.4.4.7.r.r.r.r.e.7.4.4.4.4.4.4.4.8.e."
};
